G04 #@! TF.GenerationSoftware,KiCad,Pcbnew,8.0.8*
G04 #@! TF.CreationDate,2025-02-14T11:24:39-05:00*
G04 #@! TF.ProjectId,Apple2CardCR,4170706c-6532-4436-9172-6443522e6b69,CR1.0A*
G04 #@! TF.SameCoordinates,Original*
G04 #@! TF.FileFunction,Soldermask,Bot*
G04 #@! TF.FilePolarity,Negative*
%FSLAX46Y46*%
G04 Gerber Fmt 4.6, Leading zero omitted, Abs format (unit mm)*
G04 Created by KiCad (PCBNEW 8.0.8) date 2025-02-14 11:24:39*
%MOMM*%
%LPD*%
G01*
G04 APERTURE LIST*
%ADD10C,1.000000*%
%ADD11R,1.910000X8.530000*%
%ADD12R,1.270000X8.530000*%
%ADD13R,1.700000X1.700000*%
%ADD14O,1.700000X1.700000*%
%ADD15R,1.600000X1.600000*%
%ADD16O,1.600000X1.600000*%
%ADD17C,1.600000*%
G04 APERTURE END LIST*
D10*
G04 #@! TO.C,U5*
X102120000Y-86360000D03*
X102120000Y-78360000D03*
G04 #@! TD*
D11*
G04 #@! TO.C,BUS1*
X181854000Y-99050000D03*
D12*
X179060000Y-99050000D03*
X176520000Y-99050000D03*
X173980000Y-99050000D03*
X171440000Y-99050000D03*
X168900000Y-99050000D03*
X166360000Y-99050000D03*
X163820000Y-99050000D03*
X161280000Y-99050000D03*
X158740000Y-99050000D03*
X156200000Y-99050000D03*
X153660000Y-99050000D03*
X151120000Y-99050000D03*
X148580000Y-99050000D03*
X146040000Y-99050000D03*
X143500000Y-99050000D03*
X140960000Y-99050000D03*
X138420000Y-99050000D03*
X135880000Y-99050000D03*
X133340000Y-99050000D03*
X130800000Y-99050000D03*
X128260000Y-99050000D03*
X125720000Y-99050000D03*
X123180000Y-99050000D03*
D11*
X120386000Y-99050000D03*
G04 #@! TD*
D13*
G04 #@! TO.C,J2*
X112225000Y-39775000D03*
D14*
X112225000Y-37235000D03*
X114765000Y-39775000D03*
X114765000Y-37235000D03*
G04 #@! TD*
D10*
G04 #@! TO.C,U6*
X102082000Y-61218000D03*
X102082000Y-53218000D03*
G04 #@! TD*
D15*
G04 #@! TO.C,U4*
X141760000Y-28440000D03*
D16*
X141760000Y-30980000D03*
X141760000Y-33520000D03*
X141760000Y-36060000D03*
X141760000Y-38600000D03*
X141760000Y-41140000D03*
X141760000Y-43680000D03*
X141760000Y-46220000D03*
X141760000Y-48760000D03*
X141760000Y-51300000D03*
X141760000Y-53840000D03*
X141760000Y-56380000D03*
X141760000Y-58920000D03*
X141760000Y-61460000D03*
X141760000Y-64000000D03*
X141760000Y-66540000D03*
X141760000Y-69080000D03*
X141760000Y-71620000D03*
X141760000Y-74160000D03*
X141760000Y-76700000D03*
X157000000Y-76700000D03*
X157000000Y-74160000D03*
X157000000Y-71620000D03*
X157000000Y-69080000D03*
X157000000Y-66540000D03*
X157000000Y-64000000D03*
X157000000Y-61460000D03*
X157000000Y-58920000D03*
X157000000Y-56380000D03*
X157000000Y-53840000D03*
X157000000Y-51300000D03*
X157000000Y-48760000D03*
X157000000Y-46220000D03*
X157000000Y-43680000D03*
X157000000Y-41140000D03*
X157000000Y-38600000D03*
X157000000Y-36060000D03*
X157000000Y-33520000D03*
X157000000Y-30980000D03*
X157000000Y-28440000D03*
G04 #@! TD*
D15*
G04 #@! TO.C,U9*
X161760000Y-43680000D03*
D16*
X161760000Y-46220000D03*
X161760000Y-48760000D03*
X161760000Y-51300000D03*
X161760000Y-53840000D03*
X161760000Y-56380000D03*
X161760000Y-58920000D03*
X161760000Y-61460000D03*
X161760000Y-64000000D03*
X161760000Y-66540000D03*
X161760000Y-69080000D03*
X161760000Y-71620000D03*
X161760000Y-74160000D03*
X161760000Y-76700000D03*
X177000000Y-76700000D03*
X177000000Y-74160000D03*
X177000000Y-71620000D03*
X177000000Y-69080000D03*
X177000000Y-66540000D03*
X177000000Y-64000000D03*
X177000000Y-61460000D03*
X177000000Y-58920000D03*
X177000000Y-56380000D03*
X177000000Y-53840000D03*
X177000000Y-51300000D03*
X177000000Y-48760000D03*
X177000000Y-46220000D03*
X177000000Y-43680000D03*
G04 #@! TD*
D13*
G04 #@! TO.C,J1*
X122475000Y-43475000D03*
D14*
X122475000Y-40935000D03*
X125015000Y-43475000D03*
X125015000Y-40935000D03*
X127555000Y-43475000D03*
X127555000Y-40935000D03*
G04 #@! TD*
D13*
G04 #@! TO.C,J6*
X130125000Y-31275000D03*
D14*
X130125000Y-33815000D03*
X127585000Y-31275000D03*
X127585000Y-33815000D03*
X125045000Y-31275000D03*
X125045000Y-33815000D03*
X122505000Y-31275000D03*
X122505000Y-33815000D03*
X119965000Y-31275000D03*
X119965000Y-33815000D03*
G04 #@! TD*
D15*
G04 #@! TO.C,C14*
X188000000Y-87705100D03*
D17*
X185500000Y-87705100D03*
G04 #@! TD*
M02*
