%TF.GenerationSoftware,KiCad,Pcbnew,8.0.8*%
%TF.CreationDate,2025-02-14T11:24:39-05:00*%
%TF.ProjectId,Apple2CardCR,4170706c-6532-4436-9172-6443522e6b69,CR1.0A*%
%TF.SameCoordinates,Original*%
%TF.FileFunction,Drillmap*%
%TF.FilePolarity,Positive*%
%FSLAX45Y45*%
G04 Gerber Fmt 4.5, Leading zero omitted, Abs format (unit mm)*
G04 Created by KiCad (PCBNEW 8.0.8) date 2025-02-14 11:24:39*
%MOMM*%
%LPD*%
G01*
G04 APERTURE LIST*
%ADD10C,0.100000*%
%ADD11C,0.200000*%
G04 APERTURE END LIST*
D10*
X19304000Y-9347000D02*
G75*
G02*
X19201995Y-9448801I-102440J640D01*
G01*
X18427700Y-9448800D02*
X19202000Y-9448800D01*
X11940000Y-10408800D02*
X18327700Y-10408800D01*
X10000000Y-9448800D02*
X11849100Y-9448800D01*
X11849100Y-9448800D02*
X11849100Y-10317900D01*
X19202276Y-2540000D02*
X10000000Y-2540000D01*
X10000000Y-9448800D02*
G75*
G02*
X9900001Y-9347130I1370J101360D01*
G01*
X9900000Y-2641930D02*
X9900000Y-9347130D01*
X18427700Y-10308800D02*
X18427700Y-9448800D01*
X19202276Y-2540000D02*
G75*
G02*
X19304001Y-2641930I-636J-102360D01*
G01*
X9900000Y-2641930D02*
G75*
G02*
X10000000Y-2539990I101510J440D01*
G01*
X11849100Y-10317900D02*
X11940000Y-10408800D01*
X19304000Y-9347000D02*
X19304000Y-2641930D01*
X18327700Y-10408800D02*
X18427700Y-10308800D01*
D11*
D10*
X9988000Y-2734000D02*
X10028000Y-2774000D01*
X10028000Y-2734000D02*
X9988000Y-2774000D01*
X9988000Y-2988000D02*
X10028000Y-3028000D01*
X10028000Y-2988000D02*
X9988000Y-3028000D01*
X9988000Y-3242000D02*
X10028000Y-3282000D01*
X10028000Y-3242000D02*
X9988000Y-3282000D01*
X9988000Y-3496000D02*
X10028000Y-3536000D01*
X10028000Y-3496000D02*
X9988000Y-3536000D01*
X9988000Y-3750000D02*
X10028000Y-3790000D01*
X10028000Y-3750000D02*
X9988000Y-3790000D01*
X9988000Y-4004000D02*
X10028000Y-4044000D01*
X10028000Y-4004000D02*
X9988000Y-4044000D01*
X9988000Y-4258000D02*
X10028000Y-4298000D01*
X10028000Y-4258000D02*
X9988000Y-4298000D01*
X9988000Y-4512000D02*
X10028000Y-4552000D01*
X10028000Y-4512000D02*
X9988000Y-4552000D01*
X9988000Y-4766000D02*
X10028000Y-4806000D01*
X10028000Y-4766000D02*
X9988000Y-4806000D01*
X9988000Y-5020000D02*
X10028000Y-5060000D01*
X10028000Y-5020000D02*
X9988000Y-5060000D01*
X9988000Y-5274000D02*
X10028000Y-5314000D01*
X10028000Y-5274000D02*
X9988000Y-5314000D01*
X9988000Y-5528000D02*
X10028000Y-5568000D01*
X10028000Y-5528000D02*
X9988000Y-5568000D01*
X9988000Y-5782000D02*
X10028000Y-5822000D01*
X10028000Y-5782000D02*
X9988000Y-5822000D01*
X9988000Y-6036000D02*
X10028000Y-6076000D01*
X10028000Y-6036000D02*
X9988000Y-6076000D01*
X9988000Y-6290000D02*
X10028000Y-6330000D01*
X10028000Y-6290000D02*
X9988000Y-6330000D01*
X9988000Y-6544000D02*
X10028000Y-6584000D01*
X10028000Y-6544000D02*
X9988000Y-6584000D01*
X9988000Y-6798000D02*
X10028000Y-6838000D01*
X10028000Y-6798000D02*
X9988000Y-6838000D01*
X9988000Y-7052000D02*
X10028000Y-7092000D01*
X10028000Y-7052000D02*
X9988000Y-7092000D01*
X9988000Y-7306000D02*
X10028000Y-7346000D01*
X10028000Y-7306000D02*
X9988000Y-7346000D01*
X9988000Y-7560000D02*
X10028000Y-7600000D01*
X10028000Y-7560000D02*
X9988000Y-7600000D01*
X9988000Y-7814000D02*
X10028000Y-7854000D01*
X10028000Y-7814000D02*
X9988000Y-7854000D01*
X9988000Y-8068000D02*
X10028000Y-8108000D01*
X10028000Y-8068000D02*
X9988000Y-8108000D01*
X9988000Y-8322000D02*
X10028000Y-8362000D01*
X10028000Y-8322000D02*
X9988000Y-8362000D01*
X9988000Y-8576000D02*
X10028000Y-8616000D01*
X10028000Y-8576000D02*
X9988000Y-8616000D01*
X9988000Y-8830000D02*
X10028000Y-8870000D01*
X10028000Y-8830000D02*
X9988000Y-8870000D01*
X9988000Y-9084000D02*
X10028000Y-9124000D01*
X10028000Y-9084000D02*
X9988000Y-9124000D01*
X10242000Y-3750000D02*
X10282000Y-3790000D01*
X10282000Y-3750000D02*
X10242000Y-3790000D01*
X10242000Y-4004000D02*
X10282000Y-4044000D01*
X10282000Y-4004000D02*
X10242000Y-4044000D01*
X10242000Y-4258000D02*
X10282000Y-4298000D01*
X10282000Y-4258000D02*
X10242000Y-4298000D01*
X10242000Y-4512000D02*
X10282000Y-4552000D01*
X10282000Y-4512000D02*
X10242000Y-4552000D01*
X10242000Y-4766000D02*
X10282000Y-4806000D01*
X10282000Y-4766000D02*
X10242000Y-4806000D01*
X10242000Y-5528000D02*
X10282000Y-5568000D01*
X10282000Y-5528000D02*
X10242000Y-5568000D01*
X10242000Y-5782000D02*
X10282000Y-5822000D01*
X10282000Y-5782000D02*
X10242000Y-5822000D01*
X10242000Y-6290000D02*
X10282000Y-6330000D01*
X10282000Y-6290000D02*
X10242000Y-6330000D01*
X10242000Y-6798000D02*
X10282000Y-6838000D01*
X10282000Y-6798000D02*
X10242000Y-6838000D01*
X10242000Y-7052000D02*
X10282000Y-7092000D01*
X10282000Y-7052000D02*
X10242000Y-7092000D01*
X10242000Y-7306000D02*
X10282000Y-7346000D01*
X10282000Y-7306000D02*
X10242000Y-7346000D01*
X10242000Y-8068000D02*
X10282000Y-8108000D01*
X10282000Y-8068000D02*
X10242000Y-8108000D01*
X10242000Y-8322000D02*
X10282000Y-8362000D01*
X10282000Y-8322000D02*
X10242000Y-8362000D01*
X10242000Y-8830000D02*
X10282000Y-8870000D01*
X10282000Y-8830000D02*
X10242000Y-8870000D01*
X10439150Y-3440250D02*
X10479150Y-3480250D01*
X10479150Y-3440250D02*
X10439150Y-3480250D01*
X10439150Y-8426000D02*
X10479150Y-8466000D01*
X10479150Y-8426000D02*
X10439150Y-8466000D01*
X10496000Y-2734000D02*
X10536000Y-2774000D01*
X10536000Y-2734000D02*
X10496000Y-2774000D01*
X10496000Y-2988000D02*
X10536000Y-3028000D01*
X10536000Y-2988000D02*
X10496000Y-3028000D01*
X10496000Y-3242000D02*
X10536000Y-3282000D01*
X10536000Y-3242000D02*
X10496000Y-3282000D01*
X10496000Y-8830000D02*
X10536000Y-8870000D01*
X10536000Y-8830000D02*
X10496000Y-8870000D01*
X10496000Y-9084000D02*
X10536000Y-9124000D01*
X10536000Y-9084000D02*
X10496000Y-9124000D01*
X10549030Y-3512930D02*
X10589030Y-3552930D01*
X10589030Y-3512930D02*
X10549030Y-3552930D01*
X10750000Y-3750000D02*
X10790000Y-3790000D01*
X10790000Y-3750000D02*
X10750000Y-3790000D01*
X10750000Y-4258000D02*
X10790000Y-4298000D01*
X10790000Y-4258000D02*
X10750000Y-4298000D01*
X10750000Y-4512000D02*
X10790000Y-4552000D01*
X10790000Y-4512000D02*
X10750000Y-4552000D01*
X10750000Y-4766000D02*
X10790000Y-4806000D01*
X10790000Y-4766000D02*
X10750000Y-4806000D01*
X10750000Y-5020000D02*
X10790000Y-5060000D01*
X10790000Y-5020000D02*
X10750000Y-5060000D01*
X10750000Y-5274000D02*
X10790000Y-5314000D01*
X10790000Y-5274000D02*
X10750000Y-5314000D01*
X10750000Y-5528000D02*
X10790000Y-5568000D01*
X10790000Y-5528000D02*
X10750000Y-5568000D01*
X10750000Y-5782000D02*
X10790000Y-5822000D01*
X10790000Y-5782000D02*
X10750000Y-5822000D01*
X10750000Y-6036000D02*
X10790000Y-6076000D01*
X10790000Y-6036000D02*
X10750000Y-6076000D01*
X10750000Y-6290000D02*
X10790000Y-6330000D01*
X10790000Y-6290000D02*
X10750000Y-6330000D01*
X10750000Y-6544000D02*
X10790000Y-6584000D01*
X10790000Y-6544000D02*
X10750000Y-6584000D01*
X10750000Y-6798000D02*
X10790000Y-6838000D01*
X10790000Y-6798000D02*
X10750000Y-6838000D01*
X10750000Y-7052000D02*
X10790000Y-7092000D01*
X10790000Y-7052000D02*
X10750000Y-7092000D01*
X10750000Y-7306000D02*
X10790000Y-7346000D01*
X10790000Y-7306000D02*
X10750000Y-7346000D01*
X10750000Y-7560000D02*
X10790000Y-7600000D01*
X10790000Y-7560000D02*
X10750000Y-7600000D01*
X10750000Y-7814000D02*
X10790000Y-7854000D01*
X10790000Y-7814000D02*
X10750000Y-7854000D01*
X10750000Y-8068000D02*
X10790000Y-8108000D01*
X10790000Y-8068000D02*
X10750000Y-8108000D01*
X10750000Y-8322000D02*
X10790000Y-8362000D01*
X10790000Y-8322000D02*
X10750000Y-8362000D01*
X10750000Y-8576000D02*
X10790000Y-8616000D01*
X10790000Y-8576000D02*
X10750000Y-8616000D01*
X10750000Y-8830000D02*
X10790000Y-8870000D01*
X10790000Y-8830000D02*
X10750000Y-8870000D01*
X10750000Y-9084000D02*
X10790000Y-9124000D01*
X10790000Y-9084000D02*
X10750000Y-9124000D01*
X10962530Y-3404070D02*
X11002530Y-3444070D01*
X11002530Y-3404070D02*
X10962530Y-3444070D01*
X11004000Y-2734000D02*
X11044000Y-2774000D01*
X11044000Y-2734000D02*
X11004000Y-2774000D01*
X11004000Y-2988000D02*
X11044000Y-3028000D01*
X11044000Y-2988000D02*
X11004000Y-3028000D01*
X11004000Y-5782000D02*
X11044000Y-5822000D01*
X11044000Y-5782000D02*
X11004000Y-5822000D01*
X11004000Y-6036000D02*
X11044000Y-6076000D01*
X11044000Y-6036000D02*
X11004000Y-6076000D01*
X11004000Y-6290000D02*
X11044000Y-6330000D01*
X11044000Y-6290000D02*
X11004000Y-6330000D01*
X11004000Y-6544000D02*
X11044000Y-6584000D01*
X11044000Y-6544000D02*
X11004000Y-6584000D01*
X11004000Y-6798000D02*
X11044000Y-6838000D01*
X11044000Y-6798000D02*
X11004000Y-6838000D01*
X11004000Y-7052000D02*
X11044000Y-7092000D01*
X11044000Y-7052000D02*
X11004000Y-7092000D01*
X11004000Y-8322000D02*
X11044000Y-8362000D01*
X11044000Y-8322000D02*
X11004000Y-8362000D01*
X11004000Y-8576000D02*
X11044000Y-8616000D01*
X11044000Y-8576000D02*
X11004000Y-8616000D01*
X11004000Y-8830000D02*
X11044000Y-8870000D01*
X11044000Y-8830000D02*
X11004000Y-8870000D01*
X11004000Y-9084000D02*
X11044000Y-9124000D01*
X11044000Y-9084000D02*
X11004000Y-9124000D01*
X11080000Y-4280000D02*
X11120000Y-4320000D01*
X11120000Y-4280000D02*
X11080000Y-4320000D01*
X11080000Y-4580000D02*
X11120000Y-4620000D01*
X11120000Y-4580000D02*
X11080000Y-4620000D01*
X11258000Y-3242000D02*
X11298000Y-3282000D01*
X11298000Y-3242000D02*
X11258000Y-3282000D01*
X11258000Y-6798000D02*
X11298000Y-6838000D01*
X11298000Y-6798000D02*
X11258000Y-6838000D01*
X11330000Y-4280000D02*
X11370000Y-4320000D01*
X11370000Y-4280000D02*
X11330000Y-4320000D01*
X11330000Y-4530000D02*
X11370000Y-4570000D01*
X11370000Y-4530000D02*
X11330000Y-4570000D01*
X11379330Y-5920030D02*
X11419330Y-5960030D01*
X11419330Y-5920030D02*
X11379330Y-5960030D01*
X11449560Y-8316000D02*
X11489560Y-8356000D01*
X11489560Y-8316000D02*
X11449560Y-8356000D01*
X11454060Y-5809320D02*
X11494060Y-5849320D01*
X11494060Y-5809320D02*
X11454060Y-5849320D01*
X11512000Y-2734000D02*
X11552000Y-2774000D01*
X11552000Y-2734000D02*
X11512000Y-2774000D01*
X11512000Y-3242000D02*
X11552000Y-3282000D01*
X11552000Y-3242000D02*
X11512000Y-3282000D01*
X11512000Y-8576000D02*
X11552000Y-8616000D01*
X11552000Y-8576000D02*
X11512000Y-8616000D01*
X11512000Y-8830000D02*
X11552000Y-8870000D01*
X11552000Y-8830000D02*
X11512000Y-8870000D01*
X11512000Y-9084000D02*
X11552000Y-9124000D01*
X11552000Y-9084000D02*
X11512000Y-9124000D01*
X11523540Y-7769250D02*
X11563540Y-7809250D01*
X11563540Y-7769250D02*
X11523540Y-7809250D01*
X11606430Y-5365570D02*
X11646430Y-5405570D01*
X11646430Y-5365570D02*
X11606430Y-5405570D01*
X11630000Y-4180000D02*
X11670000Y-4220000D01*
X11670000Y-4180000D02*
X11630000Y-4220000D01*
X11680000Y-4580000D02*
X11720000Y-4620000D01*
X11720000Y-4580000D02*
X11680000Y-4620000D01*
X11680000Y-4780000D02*
X11720000Y-4820000D01*
X11720000Y-4780000D02*
X11680000Y-4820000D01*
X11766000Y-7052000D02*
X11806000Y-7092000D01*
X11806000Y-7052000D02*
X11766000Y-7092000D01*
X11766000Y-7560000D02*
X11806000Y-7600000D01*
X11806000Y-7560000D02*
X11766000Y-7600000D01*
X11766000Y-7814000D02*
X11806000Y-7854000D01*
X11806000Y-7814000D02*
X11766000Y-7854000D01*
X11766000Y-8576000D02*
X11806000Y-8616000D01*
X11806000Y-8576000D02*
X11766000Y-8616000D01*
X11766000Y-8830000D02*
X11806000Y-8870000D01*
X11806000Y-8830000D02*
X11766000Y-8870000D01*
X11766000Y-9084000D02*
X11806000Y-9124000D01*
X11806000Y-9084000D02*
X11766000Y-9124000D01*
X11857920Y-2711330D02*
X11897920Y-2751330D01*
X11897920Y-2711330D02*
X11857920Y-2751330D01*
X12006270Y-8282500D02*
X12046270Y-8322500D01*
X12046270Y-8282500D02*
X12006270Y-8322500D01*
X12020000Y-4004000D02*
X12060000Y-4044000D01*
X12060000Y-4004000D02*
X12020000Y-4044000D01*
X12020000Y-5020000D02*
X12060000Y-5060000D01*
X12060000Y-5020000D02*
X12020000Y-5060000D01*
X12020000Y-6290000D02*
X12060000Y-6330000D01*
X12060000Y-6290000D02*
X12020000Y-6330000D01*
X12020000Y-6544000D02*
X12060000Y-6584000D01*
X12060000Y-6544000D02*
X12020000Y-6584000D01*
X12020000Y-8576000D02*
X12060000Y-8616000D01*
X12060000Y-8576000D02*
X12020000Y-8616000D01*
X12020000Y-8830000D02*
X12060000Y-8870000D01*
X12060000Y-8830000D02*
X12020000Y-8870000D01*
X12020000Y-9084000D02*
X12060000Y-9124000D01*
X12060000Y-9084000D02*
X12020000Y-9124000D01*
X12099120Y-5504180D02*
X12139120Y-5544180D01*
X12139120Y-5504180D02*
X12099120Y-5544180D01*
X12259230Y-9360180D02*
X12299230Y-9400180D01*
X12299230Y-9360180D02*
X12259230Y-9400180D01*
X12266660Y-5527400D02*
X12306660Y-5567400D01*
X12306660Y-5527400D02*
X12266660Y-5567400D01*
X12274000Y-6544000D02*
X12314000Y-6584000D01*
X12314000Y-6544000D02*
X12274000Y-6584000D01*
X12313020Y-5721170D02*
X12353020Y-5761170D01*
X12353020Y-5721170D02*
X12313020Y-5761170D01*
X12447200Y-7008880D02*
X12487200Y-7048880D01*
X12487200Y-7008880D02*
X12447200Y-7048880D01*
X12454900Y-5349290D02*
X12494900Y-5389290D01*
X12494900Y-5349290D02*
X12454900Y-5389290D01*
X12513970Y-6162270D02*
X12553970Y-6202270D01*
X12553970Y-6162270D02*
X12513970Y-6202270D01*
X12545780Y-6661700D02*
X12585780Y-6701700D01*
X12585780Y-6661700D02*
X12545780Y-6701700D01*
X12552000Y-7283330D02*
X12592000Y-7323330D01*
X12592000Y-7283330D02*
X12552000Y-7323330D01*
X12600480Y-4446180D02*
X12640480Y-4486180D01*
X12640480Y-4446180D02*
X12600480Y-4486180D01*
X12600480Y-5455000D02*
X12640480Y-5495000D01*
X12640480Y-5455000D02*
X12600480Y-5495000D01*
X12636240Y-5615000D02*
X12676240Y-5655000D01*
X12676240Y-5615000D02*
X12636240Y-5655000D01*
X12669120Y-6734370D02*
X12709120Y-6774370D01*
X12709120Y-6734370D02*
X12669120Y-6774370D01*
X12680330Y-6015000D02*
X12720330Y-6055000D01*
X12720330Y-6015000D02*
X12680330Y-6055000D01*
X12681790Y-4773170D02*
X12721790Y-4813170D01*
X12721790Y-4773170D02*
X12681790Y-4813170D01*
X12682580Y-4667710D02*
X12722580Y-4707710D01*
X12722580Y-4667710D02*
X12682580Y-4707710D01*
X12692060Y-3638330D02*
X12732060Y-3678330D01*
X12732060Y-3638330D02*
X12692060Y-3678330D01*
X12781970Y-4551950D02*
X12821970Y-4591950D01*
X12821970Y-4551950D02*
X12781970Y-4591950D01*
X12782000Y-7560000D02*
X12822000Y-7600000D01*
X12822000Y-7560000D02*
X12782000Y-7600000D01*
X12791520Y-5451210D02*
X12831520Y-5491210D01*
X12831520Y-5451210D02*
X12791520Y-5491210D01*
X12806000Y-7837560D02*
X12846000Y-7877560D01*
X12846000Y-7837560D02*
X12806000Y-7877560D01*
X12809130Y-5695000D02*
X12849130Y-5735000D01*
X12849130Y-5695000D02*
X12809130Y-5735000D01*
X12849800Y-5535000D02*
X12889800Y-5575000D01*
X12889800Y-5535000D02*
X12849800Y-5575000D01*
X12872310Y-4818940D02*
X12912310Y-4858940D01*
X12912310Y-4818940D02*
X12872310Y-4858940D01*
X12979340Y-5959750D02*
X13019340Y-5999750D01*
X13019340Y-5959750D02*
X12979340Y-5999750D01*
X12980000Y-8430000D02*
X13020000Y-8470000D01*
X13020000Y-8430000D02*
X12980000Y-8470000D01*
X12980000Y-8780000D02*
X13020000Y-8820000D01*
X13020000Y-8780000D02*
X12980000Y-8820000D01*
X12995760Y-5720180D02*
X13035760Y-5760180D01*
X13035760Y-5720180D02*
X12995760Y-5760180D01*
X13030000Y-7130000D02*
X13070000Y-7170000D01*
X13070000Y-7130000D02*
X13030000Y-7170000D01*
X13030000Y-8082000D02*
X13070000Y-8122000D01*
X13070000Y-8082000D02*
X13030000Y-8122000D01*
X13036000Y-7560000D02*
X13076000Y-7600000D01*
X13076000Y-7560000D02*
X13036000Y-7600000D01*
X13064190Y-5455000D02*
X13104190Y-5495000D01*
X13104190Y-5455000D02*
X13064190Y-5495000D01*
X13087910Y-5168470D02*
X13127910Y-5208470D01*
X13127910Y-5168470D02*
X13087910Y-5208470D01*
X13093860Y-5903180D02*
X13133860Y-5943180D01*
X13133860Y-5903180D02*
X13093860Y-5943180D01*
X13113050Y-4408080D02*
X13153050Y-4448080D01*
X13153050Y-4408080D02*
X13113050Y-4448080D01*
X13213150Y-7941110D02*
X13253150Y-7981110D01*
X13253150Y-7941110D02*
X13213150Y-7981110D01*
X13258250Y-3909480D02*
X13298250Y-3949480D01*
X13298250Y-3909480D02*
X13258250Y-3949480D01*
X13290000Y-3242000D02*
X13330000Y-3282000D01*
X13330000Y-3242000D02*
X13290000Y-3282000D01*
X13290000Y-3496000D02*
X13330000Y-3536000D01*
X13330000Y-3496000D02*
X13290000Y-3536000D01*
X13290000Y-6798000D02*
X13330000Y-6838000D01*
X13330000Y-6798000D02*
X13290000Y-6838000D01*
X13314000Y-7508930D02*
X13354000Y-7548930D01*
X13354000Y-7508930D02*
X13314000Y-7548930D01*
X13380000Y-5230000D02*
X13420000Y-5270000D01*
X13420000Y-5230000D02*
X13380000Y-5270000D01*
X13448280Y-5394290D02*
X13488280Y-5434290D01*
X13488280Y-5394290D02*
X13448280Y-5434290D01*
X13505030Y-5794010D02*
X13545030Y-5834010D01*
X13545030Y-5794010D02*
X13505030Y-5834010D01*
X13544000Y-3242000D02*
X13584000Y-3282000D01*
X13584000Y-3242000D02*
X13544000Y-3282000D01*
X13544000Y-4512000D02*
X13584000Y-4552000D01*
X13584000Y-4512000D02*
X13544000Y-4552000D01*
X13544000Y-6290000D02*
X13584000Y-6330000D01*
X13584000Y-6290000D02*
X13544000Y-6330000D01*
X13558500Y-9350390D02*
X13598500Y-9390390D01*
X13598500Y-9350390D02*
X13558500Y-9390390D01*
X13580000Y-7130000D02*
X13620000Y-7170000D01*
X13620000Y-7130000D02*
X13580000Y-7170000D01*
X13580000Y-7680000D02*
X13620000Y-7720000D01*
X13620000Y-7680000D02*
X13580000Y-7720000D01*
X13580000Y-8082000D02*
X13620000Y-8122000D01*
X13620000Y-8082000D02*
X13580000Y-8122000D01*
X13580000Y-8430000D02*
X13620000Y-8470000D01*
X13620000Y-8430000D02*
X13580000Y-8470000D01*
X13580000Y-8780000D02*
X13620000Y-8820000D01*
X13620000Y-8780000D02*
X13580000Y-8820000D01*
X13755680Y-6761000D02*
X13795680Y-6801000D01*
X13795680Y-6761000D02*
X13755680Y-6801000D01*
X13918170Y-5473160D02*
X13958170Y-5513160D01*
X13958170Y-5473160D02*
X13918170Y-5513160D01*
X13933380Y-6253850D02*
X13973380Y-6293850D01*
X13973380Y-6253850D02*
X13933380Y-6293850D01*
X14006050Y-8931970D02*
X14046050Y-8971970D01*
X14046050Y-8931970D02*
X14006050Y-8971970D01*
X14324000Y-8688420D02*
X14364000Y-8728420D01*
X14364000Y-8688420D02*
X14324000Y-8728420D01*
X14480000Y-4580000D02*
X14520000Y-4620000D01*
X14520000Y-4580000D02*
X14480000Y-4620000D01*
X14480000Y-4830000D02*
X14520000Y-4870000D01*
X14520000Y-4830000D02*
X14480000Y-4870000D01*
X14480000Y-5130000D02*
X14520000Y-5170000D01*
X14520000Y-5130000D02*
X14480000Y-5170000D01*
X14480000Y-5380000D02*
X14520000Y-5420000D01*
X14520000Y-5380000D02*
X14480000Y-5420000D01*
X14480000Y-5630000D02*
X14520000Y-5670000D01*
X14520000Y-5630000D02*
X14480000Y-5670000D01*
X14530000Y-6130000D02*
X14570000Y-6170000D01*
X14570000Y-6130000D02*
X14530000Y-6170000D01*
X14539880Y-9002970D02*
X14579880Y-9042970D01*
X14579880Y-9002970D02*
X14539880Y-9042970D01*
X14560000Y-3242000D02*
X14600000Y-3282000D01*
X14600000Y-3242000D02*
X14560000Y-3282000D01*
X14560000Y-3496000D02*
X14600000Y-3536000D01*
X14600000Y-3496000D02*
X14560000Y-3536000D01*
X14560000Y-3750000D02*
X14600000Y-3790000D01*
X14600000Y-3750000D02*
X14560000Y-3790000D01*
X14560000Y-4004000D02*
X14600000Y-4044000D01*
X14600000Y-4004000D02*
X14560000Y-4044000D01*
X14560000Y-6544000D02*
X14600000Y-6584000D01*
X14600000Y-6544000D02*
X14560000Y-6584000D01*
X14580000Y-2830000D02*
X14620000Y-2870000D01*
X14620000Y-2830000D02*
X14580000Y-2870000D01*
X14630000Y-6880000D02*
X14670000Y-6920000D01*
X14670000Y-6880000D02*
X14630000Y-6920000D01*
X14630000Y-7130000D02*
X14670000Y-7170000D01*
X14670000Y-7130000D02*
X14630000Y-7170000D01*
X14661740Y-5987590D02*
X14701740Y-6027590D01*
X14701740Y-5987590D02*
X14661740Y-6027590D01*
X14780000Y-7380000D02*
X14820000Y-7420000D01*
X14820000Y-7380000D02*
X14780000Y-7420000D01*
X14780000Y-7630000D02*
X14820000Y-7670000D01*
X14820000Y-7630000D02*
X14780000Y-7670000D01*
X14802860Y-5490090D02*
X14842860Y-5530090D01*
X14842860Y-5490090D02*
X14802860Y-5530090D01*
X14814000Y-3242000D02*
X14854000Y-3282000D01*
X14854000Y-3242000D02*
X14814000Y-3282000D01*
X14814000Y-3496000D02*
X14854000Y-3536000D01*
X14854000Y-3496000D02*
X14814000Y-3536000D01*
X14814000Y-3750000D02*
X14854000Y-3790000D01*
X14854000Y-3750000D02*
X14814000Y-3790000D01*
X14814000Y-8830000D02*
X14854000Y-8870000D01*
X14854000Y-8830000D02*
X14814000Y-8870000D01*
X14830000Y-2830000D02*
X14870000Y-2870000D01*
X14870000Y-2830000D02*
X14830000Y-2870000D01*
X14830000Y-6130000D02*
X14870000Y-6170000D01*
X14870000Y-6130000D02*
X14830000Y-6170000D01*
X14880000Y-4580000D02*
X14920000Y-4620000D01*
X14920000Y-4580000D02*
X14880000Y-4620000D01*
X14880000Y-4830000D02*
X14920000Y-4870000D01*
X14920000Y-4830000D02*
X14880000Y-4870000D01*
X14880000Y-5180000D02*
X14920000Y-5220000D01*
X14920000Y-5180000D02*
X14880000Y-5220000D01*
X14880000Y-6880000D02*
X14920000Y-6920000D01*
X14920000Y-6880000D02*
X14880000Y-6920000D01*
X14880000Y-8082000D02*
X14920000Y-8122000D01*
X14920000Y-8082000D02*
X14880000Y-8122000D01*
X14880000Y-8430000D02*
X14920000Y-8470000D01*
X14920000Y-8430000D02*
X14880000Y-8470000D01*
X14980000Y-6530000D02*
X15020000Y-6570000D01*
X15020000Y-6530000D02*
X14980000Y-6570000D01*
X15067350Y-5759190D02*
X15107350Y-5799190D01*
X15107350Y-5759190D02*
X15067350Y-5799190D01*
X15068000Y-3242000D02*
X15108000Y-3282000D01*
X15108000Y-3242000D02*
X15068000Y-3282000D01*
X15068000Y-3496000D02*
X15108000Y-3536000D01*
X15108000Y-3496000D02*
X15068000Y-3536000D01*
X15068000Y-8830000D02*
X15108000Y-8870000D01*
X15108000Y-8830000D02*
X15068000Y-8870000D01*
X15080000Y-2830000D02*
X15120000Y-2870000D01*
X15120000Y-2830000D02*
X15080000Y-2870000D01*
X15180000Y-6330000D02*
X15220000Y-6370000D01*
X15220000Y-6330000D02*
X15180000Y-6370000D01*
X15223700Y-4679420D02*
X15263700Y-4719420D01*
X15263700Y-4679420D02*
X15223700Y-4719420D01*
X15230000Y-6530000D02*
X15270000Y-6570000D01*
X15270000Y-6530000D02*
X15230000Y-6570000D01*
X15230000Y-6880000D02*
X15270000Y-6920000D01*
X15270000Y-6880000D02*
X15230000Y-6920000D01*
X15230000Y-7130000D02*
X15270000Y-7170000D01*
X15270000Y-7130000D02*
X15230000Y-7170000D01*
X15230000Y-7380000D02*
X15270000Y-7420000D01*
X15270000Y-7380000D02*
X15230000Y-7420000D01*
X15230000Y-7630000D02*
X15270000Y-7670000D01*
X15270000Y-7630000D02*
X15230000Y-7670000D01*
X15322000Y-3242000D02*
X15362000Y-3282000D01*
X15362000Y-3242000D02*
X15322000Y-3282000D01*
X15322000Y-5274000D02*
X15362000Y-5314000D01*
X15362000Y-5274000D02*
X15322000Y-5314000D01*
X15322000Y-5528000D02*
X15362000Y-5568000D01*
X15362000Y-5528000D02*
X15322000Y-5568000D01*
X15330000Y-2830000D02*
X15370000Y-2870000D01*
X15370000Y-2830000D02*
X15330000Y-2870000D01*
X15330000Y-4880000D02*
X15370000Y-4920000D01*
X15370000Y-4880000D02*
X15330000Y-4920000D01*
X15430000Y-6330000D02*
X15470000Y-6370000D01*
X15470000Y-6330000D02*
X15430000Y-6370000D01*
X15447190Y-8175570D02*
X15487190Y-8215570D01*
X15487190Y-8175570D02*
X15447190Y-8215570D01*
X15830000Y-8068000D02*
X15870000Y-8108000D01*
X15870000Y-8068000D02*
X15830000Y-8108000D01*
X15896360Y-7283330D02*
X15936360Y-7323330D01*
X15936360Y-7283330D02*
X15896360Y-7323330D01*
X16057160Y-7537330D02*
X16097160Y-7577330D01*
X16097160Y-7537330D02*
X16057160Y-7577330D01*
X16062570Y-9137420D02*
X16102570Y-9177420D01*
X16102570Y-9137420D02*
X16062570Y-9177420D01*
X16084000Y-2734000D02*
X16124000Y-2774000D01*
X16124000Y-2734000D02*
X16084000Y-2774000D01*
X16084000Y-3242000D02*
X16124000Y-3282000D01*
X16124000Y-3242000D02*
X16084000Y-3282000D01*
X16084000Y-3496000D02*
X16124000Y-3536000D01*
X16124000Y-3496000D02*
X16084000Y-3536000D01*
X16084000Y-3750000D02*
X16124000Y-3790000D01*
X16124000Y-3750000D02*
X16084000Y-3790000D01*
X16110100Y-4094000D02*
X16150100Y-4134000D01*
X16150100Y-4094000D02*
X16110100Y-4134000D01*
X16201660Y-8877500D02*
X16241660Y-8917500D01*
X16241660Y-8877500D02*
X16201660Y-8917500D01*
X16217440Y-8741890D02*
X16257440Y-8781890D01*
X16257440Y-8741890D02*
X16217440Y-8781890D01*
X16250030Y-9181100D02*
X16290030Y-9221100D01*
X16290030Y-9181100D02*
X16250030Y-9221100D01*
X16308410Y-9362330D02*
X16348410Y-9402330D01*
X16348410Y-9362330D02*
X16308410Y-9402330D01*
X16338000Y-2734000D02*
X16378000Y-2774000D01*
X16378000Y-2734000D02*
X16338000Y-2774000D01*
X16338000Y-3242000D02*
X16378000Y-3282000D01*
X16378000Y-3242000D02*
X16338000Y-3282000D01*
X16338000Y-3496000D02*
X16378000Y-3536000D01*
X16378000Y-3496000D02*
X16338000Y-3536000D01*
X16338000Y-3750000D02*
X16378000Y-3790000D01*
X16378000Y-3750000D02*
X16338000Y-3790000D01*
X16338000Y-4004000D02*
X16378000Y-4044000D01*
X16378000Y-4004000D02*
X16338000Y-4044000D01*
X16367850Y-9255260D02*
X16407850Y-9295260D01*
X16407850Y-9255260D02*
X16367850Y-9295260D01*
X16508730Y-8902490D02*
X16548730Y-8942490D01*
X16548730Y-8902490D02*
X16508730Y-8942490D01*
X16530000Y-4780000D02*
X16570000Y-4820000D01*
X16570000Y-4780000D02*
X16530000Y-4820000D01*
X16592000Y-3242000D02*
X16632000Y-3282000D01*
X16632000Y-3242000D02*
X16592000Y-3282000D01*
X16592000Y-3496000D02*
X16632000Y-3536000D01*
X16632000Y-3496000D02*
X16592000Y-3536000D01*
X16592000Y-3750000D02*
X16632000Y-3790000D01*
X16632000Y-3750000D02*
X16592000Y-3790000D01*
X16592000Y-4004000D02*
X16632000Y-4044000D01*
X16632000Y-4004000D02*
X16592000Y-4044000D01*
X16630000Y-5580000D02*
X16670000Y-5620000D01*
X16670000Y-5580000D02*
X16630000Y-5620000D01*
X16630000Y-5830000D02*
X16670000Y-5870000D01*
X16670000Y-5830000D02*
X16630000Y-5870000D01*
X16630000Y-6130000D02*
X16670000Y-6170000D01*
X16670000Y-6130000D02*
X16630000Y-6170000D01*
X16730000Y-5030000D02*
X16770000Y-5070000D01*
X16770000Y-5030000D02*
X16730000Y-5070000D01*
X16830000Y-6380000D02*
X16870000Y-6420000D01*
X16870000Y-6380000D02*
X16830000Y-6420000D01*
X16830000Y-7430000D02*
X16870000Y-7470000D01*
X16870000Y-7430000D02*
X16830000Y-7470000D01*
X16846000Y-3242000D02*
X16886000Y-3282000D01*
X16886000Y-3242000D02*
X16846000Y-3282000D01*
X16846000Y-3496000D02*
X16886000Y-3536000D01*
X16886000Y-3496000D02*
X16846000Y-3536000D01*
X16846000Y-3750000D02*
X16886000Y-3790000D01*
X16886000Y-3750000D02*
X16846000Y-3790000D01*
X16846000Y-4004000D02*
X16886000Y-4044000D01*
X16886000Y-4004000D02*
X16846000Y-4044000D01*
X16846000Y-5274000D02*
X16886000Y-5314000D01*
X16886000Y-5274000D02*
X16846000Y-5314000D01*
X16846000Y-6798000D02*
X16886000Y-6838000D01*
X16886000Y-6798000D02*
X16846000Y-6838000D01*
X16846000Y-7052000D02*
X16886000Y-7092000D01*
X16886000Y-7052000D02*
X16846000Y-7092000D01*
X16846000Y-8068000D02*
X16886000Y-8108000D01*
X16886000Y-8068000D02*
X16846000Y-8108000D01*
X16846000Y-8322000D02*
X16886000Y-8362000D01*
X16886000Y-8322000D02*
X16846000Y-8362000D01*
X16870000Y-9018260D02*
X16910000Y-9058260D01*
X16910000Y-9018260D02*
X16870000Y-9058260D01*
X17100000Y-2988000D02*
X17140000Y-3028000D01*
X17140000Y-2988000D02*
X17100000Y-3028000D01*
X17100000Y-3242000D02*
X17140000Y-3282000D01*
X17140000Y-3242000D02*
X17100000Y-3282000D01*
X17100000Y-3496000D02*
X17140000Y-3536000D01*
X17140000Y-3496000D02*
X17100000Y-3536000D01*
X17100000Y-3750000D02*
X17140000Y-3790000D01*
X17140000Y-3750000D02*
X17100000Y-3790000D01*
X17100000Y-4004000D02*
X17140000Y-4044000D01*
X17140000Y-4004000D02*
X17100000Y-4044000D01*
X17100000Y-4766000D02*
X17140000Y-4806000D01*
X17140000Y-4766000D02*
X17100000Y-4806000D01*
X17100000Y-5528000D02*
X17140000Y-5568000D01*
X17140000Y-5528000D02*
X17100000Y-5568000D01*
X17100000Y-7052000D02*
X17140000Y-7092000D01*
X17140000Y-7052000D02*
X17100000Y-7092000D01*
X17100000Y-8068000D02*
X17140000Y-8108000D01*
X17140000Y-8068000D02*
X17100000Y-8108000D01*
X17100000Y-8322000D02*
X17140000Y-8362000D01*
X17140000Y-8322000D02*
X17100000Y-8362000D01*
X17100000Y-9338000D02*
X17140000Y-9378000D01*
X17140000Y-9338000D02*
X17100000Y-9378000D01*
X17130000Y-6380000D02*
X17170000Y-6420000D01*
X17170000Y-6380000D02*
X17130000Y-6420000D01*
X17130000Y-7430000D02*
X17170000Y-7470000D01*
X17170000Y-7430000D02*
X17130000Y-7470000D01*
X17354000Y-2734000D02*
X17394000Y-2774000D01*
X17394000Y-2734000D02*
X17354000Y-2774000D01*
X17354000Y-2988000D02*
X17394000Y-3028000D01*
X17394000Y-2988000D02*
X17354000Y-3028000D01*
X17354000Y-3242000D02*
X17394000Y-3282000D01*
X17394000Y-3242000D02*
X17354000Y-3282000D01*
X17354000Y-3496000D02*
X17394000Y-3536000D01*
X17394000Y-3496000D02*
X17354000Y-3536000D01*
X17354000Y-3750000D02*
X17394000Y-3790000D01*
X17394000Y-3750000D02*
X17354000Y-3790000D01*
X17354000Y-4004000D02*
X17394000Y-4044000D01*
X17394000Y-4004000D02*
X17354000Y-4044000D01*
X17354000Y-4766000D02*
X17394000Y-4806000D01*
X17394000Y-4766000D02*
X17354000Y-4806000D01*
X17354000Y-5020000D02*
X17394000Y-5060000D01*
X17394000Y-5020000D02*
X17354000Y-5060000D01*
X17354000Y-9338000D02*
X17394000Y-9378000D01*
X17394000Y-9338000D02*
X17354000Y-9378000D01*
X17462070Y-8222110D02*
X17502070Y-8262110D01*
X17502070Y-8222110D02*
X17462070Y-8262110D01*
X17534170Y-8730450D02*
X17574170Y-8770450D01*
X17574170Y-8730450D02*
X17534170Y-8770450D01*
X17608000Y-2734000D02*
X17648000Y-2774000D01*
X17648000Y-2734000D02*
X17608000Y-2774000D01*
X17608000Y-2988000D02*
X17648000Y-3028000D01*
X17648000Y-2988000D02*
X17608000Y-3028000D01*
X17608000Y-3242000D02*
X17648000Y-3282000D01*
X17648000Y-3242000D02*
X17608000Y-3282000D01*
X17608000Y-3496000D02*
X17648000Y-3536000D01*
X17648000Y-3496000D02*
X17608000Y-3536000D01*
X17608000Y-3750000D02*
X17648000Y-3790000D01*
X17648000Y-3750000D02*
X17608000Y-3790000D01*
X17608000Y-4004000D02*
X17648000Y-4044000D01*
X17648000Y-4004000D02*
X17608000Y-4044000D01*
X17614730Y-8214920D02*
X17654730Y-8254920D01*
X17654730Y-8214920D02*
X17614730Y-8254920D01*
X17654160Y-9398250D02*
X17694160Y-9438250D01*
X17694160Y-9398250D02*
X17654160Y-9438250D01*
X17862000Y-2734000D02*
X17902000Y-2774000D01*
X17902000Y-2734000D02*
X17862000Y-2774000D01*
X17862000Y-2988000D02*
X17902000Y-3028000D01*
X17902000Y-2988000D02*
X17862000Y-3028000D01*
X17862000Y-3242000D02*
X17902000Y-3282000D01*
X17902000Y-3242000D02*
X17862000Y-3282000D01*
X17862000Y-3496000D02*
X17902000Y-3536000D01*
X17902000Y-3496000D02*
X17862000Y-3536000D01*
X17862000Y-3750000D02*
X17902000Y-3790000D01*
X17902000Y-3750000D02*
X17862000Y-3790000D01*
X17862000Y-4004000D02*
X17902000Y-4044000D01*
X17902000Y-4004000D02*
X17862000Y-4044000D01*
X17862000Y-5020000D02*
X17902000Y-5060000D01*
X17902000Y-5020000D02*
X17862000Y-5060000D01*
X17862000Y-5274000D02*
X17902000Y-5314000D01*
X17902000Y-5274000D02*
X17862000Y-5314000D01*
X17862000Y-5528000D02*
X17902000Y-5568000D01*
X17902000Y-5528000D02*
X17862000Y-5568000D01*
X17862000Y-9084000D02*
X17902000Y-9124000D01*
X17902000Y-9084000D02*
X17862000Y-9124000D01*
X17863640Y-7994360D02*
X17903640Y-8034360D01*
X17903640Y-7994360D02*
X17863640Y-8034360D01*
X17886000Y-9398240D02*
X17926000Y-9438240D01*
X17926000Y-9398240D02*
X17886000Y-9438240D01*
X18116000Y-2734000D02*
X18156000Y-2774000D01*
X18156000Y-2734000D02*
X18116000Y-2774000D01*
X18116000Y-2988000D02*
X18156000Y-3028000D01*
X18156000Y-2988000D02*
X18116000Y-3028000D01*
X18116000Y-3242000D02*
X18156000Y-3282000D01*
X18156000Y-3242000D02*
X18116000Y-3282000D01*
X18116000Y-3496000D02*
X18156000Y-3536000D01*
X18156000Y-3496000D02*
X18116000Y-3536000D01*
X18116000Y-3750000D02*
X18156000Y-3790000D01*
X18156000Y-3750000D02*
X18116000Y-3790000D01*
X18116000Y-4004000D02*
X18156000Y-4044000D01*
X18156000Y-4004000D02*
X18116000Y-4044000D01*
X18116000Y-4258000D02*
X18156000Y-4298000D01*
X18156000Y-4258000D02*
X18116000Y-4298000D01*
X18116000Y-4512000D02*
X18156000Y-4552000D01*
X18156000Y-4512000D02*
X18116000Y-4552000D01*
X18116000Y-5274000D02*
X18156000Y-5314000D01*
X18156000Y-5274000D02*
X18116000Y-5314000D01*
X18116000Y-5528000D02*
X18156000Y-5568000D01*
X18156000Y-5528000D02*
X18116000Y-5568000D01*
X18116000Y-5782000D02*
X18156000Y-5822000D01*
X18156000Y-5782000D02*
X18116000Y-5822000D01*
X18116000Y-6036000D02*
X18156000Y-6076000D01*
X18156000Y-6036000D02*
X18116000Y-6076000D01*
X18116000Y-6290000D02*
X18156000Y-6330000D01*
X18156000Y-6290000D02*
X18116000Y-6330000D01*
X18370000Y-2734000D02*
X18410000Y-2774000D01*
X18410000Y-2734000D02*
X18370000Y-2774000D01*
X18370000Y-2988000D02*
X18410000Y-3028000D01*
X18410000Y-2988000D02*
X18370000Y-3028000D01*
X18370000Y-3242000D02*
X18410000Y-3282000D01*
X18410000Y-3242000D02*
X18370000Y-3282000D01*
X18370000Y-3496000D02*
X18410000Y-3536000D01*
X18410000Y-3496000D02*
X18370000Y-3536000D01*
X18370000Y-3750000D02*
X18410000Y-3790000D01*
X18410000Y-3750000D02*
X18370000Y-3790000D01*
X18370000Y-4004000D02*
X18410000Y-4044000D01*
X18410000Y-4004000D02*
X18370000Y-4044000D01*
X18370000Y-4258000D02*
X18410000Y-4298000D01*
X18410000Y-4258000D02*
X18370000Y-4298000D01*
X18370000Y-4512000D02*
X18410000Y-4552000D01*
X18410000Y-4512000D02*
X18370000Y-4552000D01*
X18370000Y-4766000D02*
X18410000Y-4806000D01*
X18410000Y-4766000D02*
X18370000Y-4806000D01*
X18370000Y-5528000D02*
X18410000Y-5568000D01*
X18410000Y-5528000D02*
X18370000Y-5568000D01*
X18370000Y-5782000D02*
X18410000Y-5822000D01*
X18410000Y-5782000D02*
X18370000Y-5822000D01*
X18370000Y-6036000D02*
X18410000Y-6076000D01*
X18410000Y-6036000D02*
X18370000Y-6076000D01*
X18370000Y-6290000D02*
X18410000Y-6330000D01*
X18410000Y-6290000D02*
X18370000Y-6330000D01*
X18370000Y-6544000D02*
X18410000Y-6584000D01*
X18410000Y-6544000D02*
X18370000Y-6584000D01*
X18370000Y-6798000D02*
X18410000Y-6838000D01*
X18410000Y-6798000D02*
X18370000Y-6838000D01*
X18370000Y-7052000D02*
X18410000Y-7092000D01*
X18410000Y-7052000D02*
X18370000Y-7092000D01*
X18370000Y-7306000D02*
X18410000Y-7346000D01*
X18410000Y-7306000D02*
X18370000Y-7346000D01*
X18370000Y-7560000D02*
X18410000Y-7600000D01*
X18410000Y-7560000D02*
X18370000Y-7600000D01*
X18370000Y-7814000D02*
X18410000Y-7854000D01*
X18410000Y-7814000D02*
X18370000Y-7854000D01*
X18370000Y-8068000D02*
X18410000Y-8108000D01*
X18410000Y-8068000D02*
X18370000Y-8108000D01*
X18370000Y-8322000D02*
X18410000Y-8362000D01*
X18410000Y-8322000D02*
X18370000Y-8362000D01*
X18624000Y-2734000D02*
X18664000Y-2774000D01*
X18664000Y-2734000D02*
X18624000Y-2774000D01*
X18624000Y-2988000D02*
X18664000Y-3028000D01*
X18664000Y-2988000D02*
X18624000Y-3028000D01*
X18624000Y-3242000D02*
X18664000Y-3282000D01*
X18664000Y-3242000D02*
X18624000Y-3282000D01*
X18624000Y-3496000D02*
X18664000Y-3536000D01*
X18664000Y-3496000D02*
X18624000Y-3536000D01*
X18624000Y-3750000D02*
X18664000Y-3790000D01*
X18664000Y-3750000D02*
X18624000Y-3790000D01*
X18624000Y-4004000D02*
X18664000Y-4044000D01*
X18664000Y-4004000D02*
X18624000Y-4044000D01*
X18624000Y-4258000D02*
X18664000Y-4298000D01*
X18664000Y-4258000D02*
X18624000Y-4298000D01*
X18624000Y-4512000D02*
X18664000Y-4552000D01*
X18664000Y-4512000D02*
X18624000Y-4552000D01*
X18624000Y-4766000D02*
X18664000Y-4806000D01*
X18664000Y-4766000D02*
X18624000Y-4806000D01*
X18624000Y-5020000D02*
X18664000Y-5060000D01*
X18664000Y-5020000D02*
X18624000Y-5060000D01*
X18624000Y-5782000D02*
X18664000Y-5822000D01*
X18664000Y-5782000D02*
X18624000Y-5822000D01*
X18624000Y-6036000D02*
X18664000Y-6076000D01*
X18664000Y-6036000D02*
X18624000Y-6076000D01*
X18624000Y-6290000D02*
X18664000Y-6330000D01*
X18664000Y-6290000D02*
X18624000Y-6330000D01*
X18624000Y-6544000D02*
X18664000Y-6584000D01*
X18664000Y-6544000D02*
X18624000Y-6584000D01*
X18624000Y-6798000D02*
X18664000Y-6838000D01*
X18664000Y-6798000D02*
X18624000Y-6838000D01*
X18624000Y-7052000D02*
X18664000Y-7092000D01*
X18664000Y-7052000D02*
X18624000Y-7092000D01*
X18624000Y-7306000D02*
X18664000Y-7346000D01*
X18664000Y-7306000D02*
X18624000Y-7346000D01*
X18624000Y-7560000D02*
X18664000Y-7600000D01*
X18664000Y-7560000D02*
X18624000Y-7600000D01*
X18624000Y-7814000D02*
X18664000Y-7854000D01*
X18664000Y-7814000D02*
X18624000Y-7854000D01*
X18624000Y-8068000D02*
X18664000Y-8108000D01*
X18664000Y-8068000D02*
X18624000Y-8108000D01*
X18624000Y-8322000D02*
X18664000Y-8362000D01*
X18664000Y-8322000D02*
X18624000Y-8362000D01*
X18878000Y-2734000D02*
X18918000Y-2774000D01*
X18918000Y-2734000D02*
X18878000Y-2774000D01*
X18878000Y-2988000D02*
X18918000Y-3028000D01*
X18918000Y-2988000D02*
X18878000Y-3028000D01*
X18878000Y-3242000D02*
X18918000Y-3282000D01*
X18918000Y-3242000D02*
X18878000Y-3282000D01*
X18878000Y-3496000D02*
X18918000Y-3536000D01*
X18918000Y-3496000D02*
X18878000Y-3536000D01*
X18878000Y-3750000D02*
X18918000Y-3790000D01*
X18918000Y-3750000D02*
X18878000Y-3790000D01*
X18878000Y-4004000D02*
X18918000Y-4044000D01*
X18918000Y-4004000D02*
X18878000Y-4044000D01*
X18878000Y-4258000D02*
X18918000Y-4298000D01*
X18918000Y-4258000D02*
X18878000Y-4298000D01*
X18878000Y-4512000D02*
X18918000Y-4552000D01*
X18918000Y-4512000D02*
X18878000Y-4552000D01*
X18878000Y-4766000D02*
X18918000Y-4806000D01*
X18918000Y-4766000D02*
X18878000Y-4806000D01*
X18878000Y-5020000D02*
X18918000Y-5060000D01*
X18918000Y-5020000D02*
X18878000Y-5060000D01*
X18878000Y-5274000D02*
X18918000Y-5314000D01*
X18918000Y-5274000D02*
X18878000Y-5314000D01*
X18878000Y-9084000D02*
X18918000Y-9124000D01*
X18918000Y-9084000D02*
X18878000Y-9124000D01*
X19132000Y-2734000D02*
X19172000Y-2774000D01*
X19172000Y-2734000D02*
X19132000Y-2774000D01*
X19132000Y-2988000D02*
X19172000Y-3028000D01*
X19172000Y-2988000D02*
X19132000Y-3028000D01*
X19132000Y-3242000D02*
X19172000Y-3282000D01*
X19172000Y-3242000D02*
X19132000Y-3282000D01*
X19132000Y-3496000D02*
X19172000Y-3536000D01*
X19172000Y-3496000D02*
X19132000Y-3536000D01*
X19132000Y-3750000D02*
X19172000Y-3790000D01*
X19172000Y-3750000D02*
X19132000Y-3790000D01*
X19132000Y-4004000D02*
X19172000Y-4044000D01*
X19172000Y-4004000D02*
X19132000Y-4044000D01*
X19132000Y-4258000D02*
X19172000Y-4298000D01*
X19172000Y-4258000D02*
X19132000Y-4298000D01*
X19132000Y-4512000D02*
X19172000Y-4552000D01*
X19172000Y-4512000D02*
X19132000Y-4552000D01*
X19132000Y-4766000D02*
X19172000Y-4806000D01*
X19172000Y-4766000D02*
X19132000Y-4806000D01*
X19132000Y-5020000D02*
X19172000Y-5060000D01*
X19172000Y-5020000D02*
X19132000Y-5060000D01*
X19132000Y-5274000D02*
X19172000Y-5314000D01*
X19172000Y-5274000D02*
X19132000Y-5314000D01*
X19132000Y-5528000D02*
X19172000Y-5568000D01*
X19172000Y-5528000D02*
X19132000Y-5568000D01*
X19132000Y-5782000D02*
X19172000Y-5822000D01*
X19172000Y-5782000D02*
X19132000Y-5822000D01*
X19132000Y-6036000D02*
X19172000Y-6076000D01*
X19172000Y-6036000D02*
X19132000Y-6076000D01*
X19132000Y-6290000D02*
X19172000Y-6330000D01*
X19172000Y-6290000D02*
X19132000Y-6330000D01*
X19132000Y-6544000D02*
X19172000Y-6584000D01*
X19172000Y-6544000D02*
X19132000Y-6584000D01*
X19132000Y-6798000D02*
X19172000Y-6838000D01*
X19172000Y-6798000D02*
X19132000Y-6838000D01*
X19132000Y-7052000D02*
X19172000Y-7092000D01*
X19172000Y-7052000D02*
X19132000Y-7092000D01*
X19132000Y-7306000D02*
X19172000Y-7346000D01*
X19172000Y-7306000D02*
X19132000Y-7346000D01*
X19132000Y-7560000D02*
X19172000Y-7600000D01*
X19172000Y-7560000D02*
X19132000Y-7600000D01*
X19132000Y-7814000D02*
X19172000Y-7854000D01*
X19172000Y-7814000D02*
X19132000Y-7854000D01*
X19132000Y-8068000D02*
X19172000Y-8108000D01*
X19172000Y-8068000D02*
X19132000Y-8108000D01*
X19132000Y-8322000D02*
X19172000Y-8362000D01*
X19172000Y-8322000D02*
X19132000Y-8362000D01*
X19132000Y-8576000D02*
X19172000Y-8616000D01*
X19172000Y-8576000D02*
X19132000Y-8616000D01*
X19132000Y-8830000D02*
X19172000Y-8870000D01*
X19172000Y-8830000D02*
X19132000Y-8870000D01*
X19132000Y-9084000D02*
X19172000Y-9124000D01*
X19172000Y-9084000D02*
X19132000Y-9124000D01*
X14216000Y-2844000D02*
G75*
G02*
X14136000Y-2844000I-40000J0D01*
G01*
X14136000Y-2844000D02*
G75*
G02*
X14216000Y-2844000I40000J0D01*
G01*
X14216000Y-3098000D02*
G75*
G02*
X14136000Y-3098000I-40000J0D01*
G01*
X14136000Y-3098000D02*
G75*
G02*
X14216000Y-3098000I40000J0D01*
G01*
X14216000Y-3352000D02*
G75*
G02*
X14136000Y-3352000I-40000J0D01*
G01*
X14136000Y-3352000D02*
G75*
G02*
X14216000Y-3352000I40000J0D01*
G01*
X14216000Y-3606000D02*
G75*
G02*
X14136000Y-3606000I-40000J0D01*
G01*
X14136000Y-3606000D02*
G75*
G02*
X14216000Y-3606000I40000J0D01*
G01*
X14216000Y-3860000D02*
G75*
G02*
X14136000Y-3860000I-40000J0D01*
G01*
X14136000Y-3860000D02*
G75*
G02*
X14216000Y-3860000I40000J0D01*
G01*
X14216000Y-4114000D02*
G75*
G02*
X14136000Y-4114000I-40000J0D01*
G01*
X14136000Y-4114000D02*
G75*
G02*
X14216000Y-4114000I40000J0D01*
G01*
X14216000Y-4368000D02*
G75*
G02*
X14136000Y-4368000I-40000J0D01*
G01*
X14136000Y-4368000D02*
G75*
G02*
X14216000Y-4368000I40000J0D01*
G01*
X14216000Y-4622000D02*
G75*
G02*
X14136000Y-4622000I-40000J0D01*
G01*
X14136000Y-4622000D02*
G75*
G02*
X14216000Y-4622000I40000J0D01*
G01*
X14216000Y-4876000D02*
G75*
G02*
X14136000Y-4876000I-40000J0D01*
G01*
X14136000Y-4876000D02*
G75*
G02*
X14216000Y-4876000I40000J0D01*
G01*
X14216000Y-5130000D02*
G75*
G02*
X14136000Y-5130000I-40000J0D01*
G01*
X14136000Y-5130000D02*
G75*
G02*
X14216000Y-5130000I40000J0D01*
G01*
X14216000Y-5384000D02*
G75*
G02*
X14136000Y-5384000I-40000J0D01*
G01*
X14136000Y-5384000D02*
G75*
G02*
X14216000Y-5384000I40000J0D01*
G01*
X14216000Y-5638000D02*
G75*
G02*
X14136000Y-5638000I-40000J0D01*
G01*
X14136000Y-5638000D02*
G75*
G02*
X14216000Y-5638000I40000J0D01*
G01*
X14216000Y-5892000D02*
G75*
G02*
X14136000Y-5892000I-40000J0D01*
G01*
X14136000Y-5892000D02*
G75*
G02*
X14216000Y-5892000I40000J0D01*
G01*
X14216000Y-6146000D02*
G75*
G02*
X14136000Y-6146000I-40000J0D01*
G01*
X14136000Y-6146000D02*
G75*
G02*
X14216000Y-6146000I40000J0D01*
G01*
X14216000Y-6400000D02*
G75*
G02*
X14136000Y-6400000I-40000J0D01*
G01*
X14136000Y-6400000D02*
G75*
G02*
X14216000Y-6400000I40000J0D01*
G01*
X14216000Y-6654000D02*
G75*
G02*
X14136000Y-6654000I-40000J0D01*
G01*
X14136000Y-6654000D02*
G75*
G02*
X14216000Y-6654000I40000J0D01*
G01*
X14216000Y-6908000D02*
G75*
G02*
X14136000Y-6908000I-40000J0D01*
G01*
X14136000Y-6908000D02*
G75*
G02*
X14216000Y-6908000I40000J0D01*
G01*
X14216000Y-7162000D02*
G75*
G02*
X14136000Y-7162000I-40000J0D01*
G01*
X14136000Y-7162000D02*
G75*
G02*
X14216000Y-7162000I40000J0D01*
G01*
X14216000Y-7416000D02*
G75*
G02*
X14136000Y-7416000I-40000J0D01*
G01*
X14136000Y-7416000D02*
G75*
G02*
X14216000Y-7416000I40000J0D01*
G01*
X14216000Y-7670000D02*
G75*
G02*
X14136000Y-7670000I-40000J0D01*
G01*
X14136000Y-7670000D02*
G75*
G02*
X14216000Y-7670000I40000J0D01*
G01*
X15740000Y-2844000D02*
G75*
G02*
X15660000Y-2844000I-40000J0D01*
G01*
X15660000Y-2844000D02*
G75*
G02*
X15740000Y-2844000I40000J0D01*
G01*
X15740000Y-3098000D02*
G75*
G02*
X15660000Y-3098000I-40000J0D01*
G01*
X15660000Y-3098000D02*
G75*
G02*
X15740000Y-3098000I40000J0D01*
G01*
X15740000Y-3352000D02*
G75*
G02*
X15660000Y-3352000I-40000J0D01*
G01*
X15660000Y-3352000D02*
G75*
G02*
X15740000Y-3352000I40000J0D01*
G01*
X15740000Y-3606000D02*
G75*
G02*
X15660000Y-3606000I-40000J0D01*
G01*
X15660000Y-3606000D02*
G75*
G02*
X15740000Y-3606000I40000J0D01*
G01*
X15740000Y-3860000D02*
G75*
G02*
X15660000Y-3860000I-40000J0D01*
G01*
X15660000Y-3860000D02*
G75*
G02*
X15740000Y-3860000I40000J0D01*
G01*
X15740000Y-4114000D02*
G75*
G02*
X15660000Y-4114000I-40000J0D01*
G01*
X15660000Y-4114000D02*
G75*
G02*
X15740000Y-4114000I40000J0D01*
G01*
X15740000Y-4368000D02*
G75*
G02*
X15660000Y-4368000I-40000J0D01*
G01*
X15660000Y-4368000D02*
G75*
G02*
X15740000Y-4368000I40000J0D01*
G01*
X15740000Y-4622000D02*
G75*
G02*
X15660000Y-4622000I-40000J0D01*
G01*
X15660000Y-4622000D02*
G75*
G02*
X15740000Y-4622000I40000J0D01*
G01*
X15740000Y-4876000D02*
G75*
G02*
X15660000Y-4876000I-40000J0D01*
G01*
X15660000Y-4876000D02*
G75*
G02*
X15740000Y-4876000I40000J0D01*
G01*
X15740000Y-5130000D02*
G75*
G02*
X15660000Y-5130000I-40000J0D01*
G01*
X15660000Y-5130000D02*
G75*
G02*
X15740000Y-5130000I40000J0D01*
G01*
X15740000Y-5384000D02*
G75*
G02*
X15660000Y-5384000I-40000J0D01*
G01*
X15660000Y-5384000D02*
G75*
G02*
X15740000Y-5384000I40000J0D01*
G01*
X15740000Y-5638000D02*
G75*
G02*
X15660000Y-5638000I-40000J0D01*
G01*
X15660000Y-5638000D02*
G75*
G02*
X15740000Y-5638000I40000J0D01*
G01*
X15740000Y-5892000D02*
G75*
G02*
X15660000Y-5892000I-40000J0D01*
G01*
X15660000Y-5892000D02*
G75*
G02*
X15740000Y-5892000I40000J0D01*
G01*
X15740000Y-6146000D02*
G75*
G02*
X15660000Y-6146000I-40000J0D01*
G01*
X15660000Y-6146000D02*
G75*
G02*
X15740000Y-6146000I40000J0D01*
G01*
X15740000Y-6400000D02*
G75*
G02*
X15660000Y-6400000I-40000J0D01*
G01*
X15660000Y-6400000D02*
G75*
G02*
X15740000Y-6400000I40000J0D01*
G01*
X15740000Y-6654000D02*
G75*
G02*
X15660000Y-6654000I-40000J0D01*
G01*
X15660000Y-6654000D02*
G75*
G02*
X15740000Y-6654000I40000J0D01*
G01*
X15740000Y-6908000D02*
G75*
G02*
X15660000Y-6908000I-40000J0D01*
G01*
X15660000Y-6908000D02*
G75*
G02*
X15740000Y-6908000I40000J0D01*
G01*
X15740000Y-7162000D02*
G75*
G02*
X15660000Y-7162000I-40000J0D01*
G01*
X15660000Y-7162000D02*
G75*
G02*
X15740000Y-7162000I40000J0D01*
G01*
X15740000Y-7416000D02*
G75*
G02*
X15660000Y-7416000I-40000J0D01*
G01*
X15660000Y-7416000D02*
G75*
G02*
X15740000Y-7416000I40000J0D01*
G01*
X15740000Y-7670000D02*
G75*
G02*
X15660000Y-7670000I-40000J0D01*
G01*
X15660000Y-7670000D02*
G75*
G02*
X15740000Y-7670000I40000J0D01*
G01*
X16216000Y-4368000D02*
G75*
G02*
X16136000Y-4368000I-40000J0D01*
G01*
X16136000Y-4368000D02*
G75*
G02*
X16216000Y-4368000I40000J0D01*
G01*
X16216000Y-4622000D02*
G75*
G02*
X16136000Y-4622000I-40000J0D01*
G01*
X16136000Y-4622000D02*
G75*
G02*
X16216000Y-4622000I40000J0D01*
G01*
X16216000Y-4876000D02*
G75*
G02*
X16136000Y-4876000I-40000J0D01*
G01*
X16136000Y-4876000D02*
G75*
G02*
X16216000Y-4876000I40000J0D01*
G01*
X16216000Y-5130000D02*
G75*
G02*
X16136000Y-5130000I-40000J0D01*
G01*
X16136000Y-5130000D02*
G75*
G02*
X16216000Y-5130000I40000J0D01*
G01*
X16216000Y-5384000D02*
G75*
G02*
X16136000Y-5384000I-40000J0D01*
G01*
X16136000Y-5384000D02*
G75*
G02*
X16216000Y-5384000I40000J0D01*
G01*
X16216000Y-5638000D02*
G75*
G02*
X16136000Y-5638000I-40000J0D01*
G01*
X16136000Y-5638000D02*
G75*
G02*
X16216000Y-5638000I40000J0D01*
G01*
X16216000Y-5892000D02*
G75*
G02*
X16136000Y-5892000I-40000J0D01*
G01*
X16136000Y-5892000D02*
G75*
G02*
X16216000Y-5892000I40000J0D01*
G01*
X16216000Y-6146000D02*
G75*
G02*
X16136000Y-6146000I-40000J0D01*
G01*
X16136000Y-6146000D02*
G75*
G02*
X16216000Y-6146000I40000J0D01*
G01*
X16216000Y-6400000D02*
G75*
G02*
X16136000Y-6400000I-40000J0D01*
G01*
X16136000Y-6400000D02*
G75*
G02*
X16216000Y-6400000I40000J0D01*
G01*
X16216000Y-6654000D02*
G75*
G02*
X16136000Y-6654000I-40000J0D01*
G01*
X16136000Y-6654000D02*
G75*
G02*
X16216000Y-6654000I40000J0D01*
G01*
X16216000Y-6908000D02*
G75*
G02*
X16136000Y-6908000I-40000J0D01*
G01*
X16136000Y-6908000D02*
G75*
G02*
X16216000Y-6908000I40000J0D01*
G01*
X16216000Y-7162000D02*
G75*
G02*
X16136000Y-7162000I-40000J0D01*
G01*
X16136000Y-7162000D02*
G75*
G02*
X16216000Y-7162000I40000J0D01*
G01*
X16216000Y-7416000D02*
G75*
G02*
X16136000Y-7416000I-40000J0D01*
G01*
X16136000Y-7416000D02*
G75*
G02*
X16216000Y-7416000I40000J0D01*
G01*
X16216000Y-7670000D02*
G75*
G02*
X16136000Y-7670000I-40000J0D01*
G01*
X16136000Y-7670000D02*
G75*
G02*
X16216000Y-7670000I40000J0D01*
G01*
X17740000Y-4368000D02*
G75*
G02*
X17660000Y-4368000I-40000J0D01*
G01*
X17660000Y-4368000D02*
G75*
G02*
X17740000Y-4368000I40000J0D01*
G01*
X17740000Y-4622000D02*
G75*
G02*
X17660000Y-4622000I-40000J0D01*
G01*
X17660000Y-4622000D02*
G75*
G02*
X17740000Y-4622000I40000J0D01*
G01*
X17740000Y-4876000D02*
G75*
G02*
X17660000Y-4876000I-40000J0D01*
G01*
X17660000Y-4876000D02*
G75*
G02*
X17740000Y-4876000I40000J0D01*
G01*
X17740000Y-5130000D02*
G75*
G02*
X17660000Y-5130000I-40000J0D01*
G01*
X17660000Y-5130000D02*
G75*
G02*
X17740000Y-5130000I40000J0D01*
G01*
X17740000Y-5384000D02*
G75*
G02*
X17660000Y-5384000I-40000J0D01*
G01*
X17660000Y-5384000D02*
G75*
G02*
X17740000Y-5384000I40000J0D01*
G01*
X17740000Y-5638000D02*
G75*
G02*
X17660000Y-5638000I-40000J0D01*
G01*
X17660000Y-5638000D02*
G75*
G02*
X17740000Y-5638000I40000J0D01*
G01*
X17740000Y-5892000D02*
G75*
G02*
X17660000Y-5892000I-40000J0D01*
G01*
X17660000Y-5892000D02*
G75*
G02*
X17740000Y-5892000I40000J0D01*
G01*
X17740000Y-6146000D02*
G75*
G02*
X17660000Y-6146000I-40000J0D01*
G01*
X17660000Y-6146000D02*
G75*
G02*
X17740000Y-6146000I40000J0D01*
G01*
X17740000Y-6400000D02*
G75*
G02*
X17660000Y-6400000I-40000J0D01*
G01*
X17660000Y-6400000D02*
G75*
G02*
X17740000Y-6400000I40000J0D01*
G01*
X17740000Y-6654000D02*
G75*
G02*
X17660000Y-6654000I-40000J0D01*
G01*
X17660000Y-6654000D02*
G75*
G02*
X17740000Y-6654000I40000J0D01*
G01*
X17740000Y-6908000D02*
G75*
G02*
X17660000Y-6908000I-40000J0D01*
G01*
X17660000Y-6908000D02*
G75*
G02*
X17740000Y-6908000I40000J0D01*
G01*
X17740000Y-7162000D02*
G75*
G02*
X17660000Y-7162000I-40000J0D01*
G01*
X17660000Y-7162000D02*
G75*
G02*
X17740000Y-7162000I40000J0D01*
G01*
X17740000Y-7416000D02*
G75*
G02*
X17660000Y-7416000I-40000J0D01*
G01*
X17660000Y-7416000D02*
G75*
G02*
X17740000Y-7416000I40000J0D01*
G01*
X17740000Y-7670000D02*
G75*
G02*
X17660000Y-7670000I-40000J0D01*
G01*
X17660000Y-7670000D02*
G75*
G02*
X17740000Y-7670000I40000J0D01*
G01*
X18590000Y-8770510D02*
G75*
G02*
X18510000Y-8770510I-40000J0D01*
G01*
X18510000Y-8770510D02*
G75*
G02*
X18590000Y-8770510I40000J0D01*
G01*
X18840000Y-8770510D02*
G75*
G02*
X18760000Y-8770510I-40000J0D01*
G01*
X18760000Y-8770510D02*
G75*
G02*
X18840000Y-8770510I40000J0D01*
G01*
X11222500Y-3673500D02*
X11222500Y-3773500D01*
X11172500Y-3723500D02*
X11272500Y-3723500D01*
X11222500Y-3927500D02*
X11222500Y-4027500D01*
X11172500Y-3977500D02*
X11272500Y-3977500D01*
X11476500Y-3673500D02*
X11476500Y-3773500D01*
X11426500Y-3723500D02*
X11526500Y-3723500D01*
X11476500Y-3927500D02*
X11476500Y-4027500D01*
X11426500Y-3977500D02*
X11526500Y-3977500D01*
X11996500Y-3077500D02*
X11996500Y-3177500D01*
X11946500Y-3127500D02*
X12046500Y-3127500D01*
X11996500Y-3331500D02*
X11996500Y-3431500D01*
X11946500Y-3381500D02*
X12046500Y-3381500D01*
X12247500Y-4043500D02*
X12247500Y-4143500D01*
X12197500Y-4093500D02*
X12297500Y-4093500D01*
X12247500Y-4297500D02*
X12247500Y-4397500D01*
X12197500Y-4347500D02*
X12297500Y-4347500D01*
X12250500Y-3077500D02*
X12250500Y-3177500D01*
X12200500Y-3127500D02*
X12300500Y-3127500D01*
X12250500Y-3331500D02*
X12250500Y-3431500D01*
X12200500Y-3381500D02*
X12300500Y-3381500D01*
X12501500Y-4043500D02*
X12501500Y-4143500D01*
X12451500Y-4093500D02*
X12551500Y-4093500D01*
X12501500Y-4297500D02*
X12501500Y-4397500D01*
X12451500Y-4347500D02*
X12551500Y-4347500D01*
X12504500Y-3077500D02*
X12504500Y-3177500D01*
X12454500Y-3127500D02*
X12554500Y-3127500D01*
X12504500Y-3331500D02*
X12504500Y-3431500D01*
X12454500Y-3381500D02*
X12554500Y-3381500D01*
X12755500Y-4043500D02*
X12755500Y-4143500D01*
X12705500Y-4093500D02*
X12805500Y-4093500D01*
X12755500Y-4297500D02*
X12755500Y-4397500D01*
X12705500Y-4347500D02*
X12805500Y-4347500D01*
X12758500Y-3077500D02*
X12758500Y-3177500D01*
X12708500Y-3127500D02*
X12808500Y-3127500D01*
X12758500Y-3331500D02*
X12758500Y-3431500D01*
X12708500Y-3381500D02*
X12808500Y-3381500D01*
X13012500Y-3077500D02*
X13012500Y-3177500D01*
X12962500Y-3127500D02*
X13062500Y-3127500D01*
X13012500Y-3331500D02*
X13012500Y-3431500D01*
X12962500Y-3381500D02*
X13062500Y-3381500D01*
D11*
X10155776Y-10725284D02*
X10155776Y-10525284D01*
X10155776Y-10525284D02*
X10203395Y-10525284D01*
X10203395Y-10525284D02*
X10231966Y-10534808D01*
X10231966Y-10534808D02*
X10251014Y-10553855D01*
X10251014Y-10553855D02*
X10260538Y-10572903D01*
X10260538Y-10572903D02*
X10270062Y-10610998D01*
X10270062Y-10610998D02*
X10270062Y-10639570D01*
X10270062Y-10639570D02*
X10260538Y-10677665D01*
X10260538Y-10677665D02*
X10251014Y-10696712D01*
X10251014Y-10696712D02*
X10231966Y-10715760D01*
X10231966Y-10715760D02*
X10203395Y-10725284D01*
X10203395Y-10725284D02*
X10155776Y-10725284D01*
X10355776Y-10725284D02*
X10355776Y-10591950D01*
X10355776Y-10630046D02*
X10365300Y-10610998D01*
X10365300Y-10610998D02*
X10374823Y-10601474D01*
X10374823Y-10601474D02*
X10393871Y-10591950D01*
X10393871Y-10591950D02*
X10412919Y-10591950D01*
X10479585Y-10725284D02*
X10479585Y-10591950D01*
X10479585Y-10525284D02*
X10470062Y-10534808D01*
X10470062Y-10534808D02*
X10479585Y-10544331D01*
X10479585Y-10544331D02*
X10489109Y-10534808D01*
X10489109Y-10534808D02*
X10479585Y-10525284D01*
X10479585Y-10525284D02*
X10479585Y-10544331D01*
X10603395Y-10725284D02*
X10584347Y-10715760D01*
X10584347Y-10715760D02*
X10574823Y-10696712D01*
X10574823Y-10696712D02*
X10574823Y-10525284D01*
X10708157Y-10725284D02*
X10689109Y-10715760D01*
X10689109Y-10715760D02*
X10679585Y-10696712D01*
X10679585Y-10696712D02*
X10679585Y-10525284D01*
X10936728Y-10725284D02*
X10936728Y-10525284D01*
X10936728Y-10525284D02*
X11003395Y-10668141D01*
X11003395Y-10668141D02*
X11070062Y-10525284D01*
X11070062Y-10525284D02*
X11070062Y-10725284D01*
X11251014Y-10725284D02*
X11251014Y-10620522D01*
X11251014Y-10620522D02*
X11241490Y-10601474D01*
X11241490Y-10601474D02*
X11222442Y-10591950D01*
X11222442Y-10591950D02*
X11184347Y-10591950D01*
X11184347Y-10591950D02*
X11165300Y-10601474D01*
X11251014Y-10715760D02*
X11231966Y-10725284D01*
X11231966Y-10725284D02*
X11184347Y-10725284D01*
X11184347Y-10725284D02*
X11165300Y-10715760D01*
X11165300Y-10715760D02*
X11155776Y-10696712D01*
X11155776Y-10696712D02*
X11155776Y-10677665D01*
X11155776Y-10677665D02*
X11165300Y-10658617D01*
X11165300Y-10658617D02*
X11184347Y-10649093D01*
X11184347Y-10649093D02*
X11231966Y-10649093D01*
X11231966Y-10649093D02*
X11251014Y-10639570D01*
X11346252Y-10591950D02*
X11346252Y-10791950D01*
X11346252Y-10601474D02*
X11365300Y-10591950D01*
X11365300Y-10591950D02*
X11403395Y-10591950D01*
X11403395Y-10591950D02*
X11422442Y-10601474D01*
X11422442Y-10601474D02*
X11431966Y-10610998D01*
X11431966Y-10610998D02*
X11441490Y-10630046D01*
X11441490Y-10630046D02*
X11441490Y-10687189D01*
X11441490Y-10687189D02*
X11431966Y-10706236D01*
X11431966Y-10706236D02*
X11422442Y-10715760D01*
X11422442Y-10715760D02*
X11403395Y-10725284D01*
X11403395Y-10725284D02*
X11365300Y-10725284D01*
X11365300Y-10725284D02*
X11346252Y-10715760D01*
X11527204Y-10706236D02*
X11536728Y-10715760D01*
X11536728Y-10715760D02*
X11527204Y-10725284D01*
X11527204Y-10725284D02*
X11517681Y-10715760D01*
X11517681Y-10715760D02*
X11527204Y-10706236D01*
X11527204Y-10706236D02*
X11527204Y-10725284D01*
X11527204Y-10601474D02*
X11536728Y-10610998D01*
X11536728Y-10610998D02*
X11527204Y-10620522D01*
X11527204Y-10620522D02*
X11517681Y-10610998D01*
X11517681Y-10610998D02*
X11527204Y-10601474D01*
X11527204Y-10601474D02*
X11527204Y-10620522D01*
D10*
X9854999Y-11033800D02*
X9894999Y-11073800D01*
X9894999Y-11033800D02*
X9854999Y-11073800D01*
D11*
X10193871Y-10945284D02*
X10212919Y-10945284D01*
X10212919Y-10945284D02*
X10231966Y-10954808D01*
X10231966Y-10954808D02*
X10241490Y-10964331D01*
X10241490Y-10964331D02*
X10251014Y-10983379D01*
X10251014Y-10983379D02*
X10260538Y-11021474D01*
X10260538Y-11021474D02*
X10260538Y-11069093D01*
X10260538Y-11069093D02*
X10251014Y-11107189D01*
X10251014Y-11107189D02*
X10241490Y-11126236D01*
X10241490Y-11126236D02*
X10231966Y-11135760D01*
X10231966Y-11135760D02*
X10212919Y-11145284D01*
X10212919Y-11145284D02*
X10193871Y-11145284D01*
X10193871Y-11145284D02*
X10174823Y-11135760D01*
X10174823Y-11135760D02*
X10165300Y-11126236D01*
X10165300Y-11126236D02*
X10155776Y-11107189D01*
X10155776Y-11107189D02*
X10146252Y-11069093D01*
X10146252Y-11069093D02*
X10146252Y-11021474D01*
X10146252Y-11021474D02*
X10155776Y-10983379D01*
X10155776Y-10983379D02*
X10165300Y-10964331D01*
X10165300Y-10964331D02*
X10174823Y-10954808D01*
X10174823Y-10954808D02*
X10193871Y-10945284D01*
X10346252Y-11126236D02*
X10355776Y-11135760D01*
X10355776Y-11135760D02*
X10346252Y-11145284D01*
X10346252Y-11145284D02*
X10336728Y-11135760D01*
X10336728Y-11135760D02*
X10346252Y-11126236D01*
X10346252Y-11126236D02*
X10346252Y-11145284D01*
X10527204Y-11011950D02*
X10527204Y-11145284D01*
X10479585Y-10935760D02*
X10431966Y-11078617D01*
X10431966Y-11078617D02*
X10555776Y-11078617D01*
X10670062Y-10945284D02*
X10689109Y-10945284D01*
X10689109Y-10945284D02*
X10708157Y-10954808D01*
X10708157Y-10954808D02*
X10717681Y-10964331D01*
X10717681Y-10964331D02*
X10727204Y-10983379D01*
X10727204Y-10983379D02*
X10736728Y-11021474D01*
X10736728Y-11021474D02*
X10736728Y-11069093D01*
X10736728Y-11069093D02*
X10727204Y-11107189D01*
X10727204Y-11107189D02*
X10717681Y-11126236D01*
X10717681Y-11126236D02*
X10708157Y-11135760D01*
X10708157Y-11135760D02*
X10689109Y-11145284D01*
X10689109Y-11145284D02*
X10670062Y-11145284D01*
X10670062Y-11145284D02*
X10651014Y-11135760D01*
X10651014Y-11135760D02*
X10641490Y-11126236D01*
X10641490Y-11126236D02*
X10631966Y-11107189D01*
X10631966Y-11107189D02*
X10622443Y-11069093D01*
X10622443Y-11069093D02*
X10622443Y-11021474D01*
X10622443Y-11021474D02*
X10631966Y-10983379D01*
X10631966Y-10983379D02*
X10641490Y-10964331D01*
X10641490Y-10964331D02*
X10651014Y-10954808D01*
X10651014Y-10954808D02*
X10670062Y-10945284D01*
X10860538Y-10945284D02*
X10879585Y-10945284D01*
X10879585Y-10945284D02*
X10898633Y-10954808D01*
X10898633Y-10954808D02*
X10908157Y-10964331D01*
X10908157Y-10964331D02*
X10917681Y-10983379D01*
X10917681Y-10983379D02*
X10927204Y-11021474D01*
X10927204Y-11021474D02*
X10927204Y-11069093D01*
X10927204Y-11069093D02*
X10917681Y-11107189D01*
X10917681Y-11107189D02*
X10908157Y-11126236D01*
X10908157Y-11126236D02*
X10898633Y-11135760D01*
X10898633Y-11135760D02*
X10879585Y-11145284D01*
X10879585Y-11145284D02*
X10860538Y-11145284D01*
X10860538Y-11145284D02*
X10841490Y-11135760D01*
X10841490Y-11135760D02*
X10831966Y-11126236D01*
X10831966Y-11126236D02*
X10822443Y-11107189D01*
X10822443Y-11107189D02*
X10812919Y-11069093D01*
X10812919Y-11069093D02*
X10812919Y-11021474D01*
X10812919Y-11021474D02*
X10822443Y-10983379D01*
X10822443Y-10983379D02*
X10831966Y-10964331D01*
X10831966Y-10964331D02*
X10841490Y-10954808D01*
X10841490Y-10954808D02*
X10860538Y-10945284D01*
X11012919Y-11145284D02*
X11012919Y-11011950D01*
X11012919Y-11030998D02*
X11022443Y-11021474D01*
X11022443Y-11021474D02*
X11041490Y-11011950D01*
X11041490Y-11011950D02*
X11070062Y-11011950D01*
X11070062Y-11011950D02*
X11089109Y-11021474D01*
X11089109Y-11021474D02*
X11098633Y-11040522D01*
X11098633Y-11040522D02*
X11098633Y-11145284D01*
X11098633Y-11040522D02*
X11108157Y-11021474D01*
X11108157Y-11021474D02*
X11127204Y-11011950D01*
X11127204Y-11011950D02*
X11155776Y-11011950D01*
X11155776Y-11011950D02*
X11174824Y-11021474D01*
X11174824Y-11021474D02*
X11184347Y-11040522D01*
X11184347Y-11040522D02*
X11184347Y-11145284D01*
X11279585Y-11145284D02*
X11279585Y-11011950D01*
X11279585Y-11030998D02*
X11289109Y-11021474D01*
X11289109Y-11021474D02*
X11308157Y-11011950D01*
X11308157Y-11011950D02*
X11336728Y-11011950D01*
X11336728Y-11011950D02*
X11355776Y-11021474D01*
X11355776Y-11021474D02*
X11365300Y-11040522D01*
X11365300Y-11040522D02*
X11365300Y-11145284D01*
X11365300Y-11040522D02*
X11374823Y-11021474D01*
X11374823Y-11021474D02*
X11393871Y-11011950D01*
X11393871Y-11011950D02*
X11422442Y-11011950D01*
X11422442Y-11011950D02*
X11441490Y-11021474D01*
X11441490Y-11021474D02*
X11451014Y-11040522D01*
X11451014Y-11040522D02*
X11451014Y-11145284D01*
X11841490Y-10935760D02*
X11670062Y-11192903D01*
X12098633Y-10945284D02*
X12117681Y-10945284D01*
X12117681Y-10945284D02*
X12136728Y-10954808D01*
X12136728Y-10954808D02*
X12146252Y-10964331D01*
X12146252Y-10964331D02*
X12155776Y-10983379D01*
X12155776Y-10983379D02*
X12165300Y-11021474D01*
X12165300Y-11021474D02*
X12165300Y-11069093D01*
X12165300Y-11069093D02*
X12155776Y-11107189D01*
X12155776Y-11107189D02*
X12146252Y-11126236D01*
X12146252Y-11126236D02*
X12136728Y-11135760D01*
X12136728Y-11135760D02*
X12117681Y-11145284D01*
X12117681Y-11145284D02*
X12098633Y-11145284D01*
X12098633Y-11145284D02*
X12079585Y-11135760D01*
X12079585Y-11135760D02*
X12070062Y-11126236D01*
X12070062Y-11126236D02*
X12060538Y-11107189D01*
X12060538Y-11107189D02*
X12051014Y-11069093D01*
X12051014Y-11069093D02*
X12051014Y-11021474D01*
X12051014Y-11021474D02*
X12060538Y-10983379D01*
X12060538Y-10983379D02*
X12070062Y-10964331D01*
X12070062Y-10964331D02*
X12079585Y-10954808D01*
X12079585Y-10954808D02*
X12098633Y-10945284D01*
X12251014Y-11126236D02*
X12260538Y-11135760D01*
X12260538Y-11135760D02*
X12251014Y-11145284D01*
X12251014Y-11145284D02*
X12241490Y-11135760D01*
X12241490Y-11135760D02*
X12251014Y-11126236D01*
X12251014Y-11126236D02*
X12251014Y-11145284D01*
X12384347Y-10945284D02*
X12403395Y-10945284D01*
X12403395Y-10945284D02*
X12422443Y-10954808D01*
X12422443Y-10954808D02*
X12431966Y-10964331D01*
X12431966Y-10964331D02*
X12441490Y-10983379D01*
X12441490Y-10983379D02*
X12451014Y-11021474D01*
X12451014Y-11021474D02*
X12451014Y-11069093D01*
X12451014Y-11069093D02*
X12441490Y-11107189D01*
X12441490Y-11107189D02*
X12431966Y-11126236D01*
X12431966Y-11126236D02*
X12422443Y-11135760D01*
X12422443Y-11135760D02*
X12403395Y-11145284D01*
X12403395Y-11145284D02*
X12384347Y-11145284D01*
X12384347Y-11145284D02*
X12365300Y-11135760D01*
X12365300Y-11135760D02*
X12355776Y-11126236D01*
X12355776Y-11126236D02*
X12346252Y-11107189D01*
X12346252Y-11107189D02*
X12336728Y-11069093D01*
X12336728Y-11069093D02*
X12336728Y-11021474D01*
X12336728Y-11021474D02*
X12346252Y-10983379D01*
X12346252Y-10983379D02*
X12355776Y-10964331D01*
X12355776Y-10964331D02*
X12365300Y-10954808D01*
X12365300Y-10954808D02*
X12384347Y-10945284D01*
X12641490Y-11145284D02*
X12527205Y-11145284D01*
X12584347Y-11145284D02*
X12584347Y-10945284D01*
X12584347Y-10945284D02*
X12565300Y-10973855D01*
X12565300Y-10973855D02*
X12546252Y-10992903D01*
X12546252Y-10992903D02*
X12527205Y-11002427D01*
X12822443Y-10945284D02*
X12727205Y-10945284D01*
X12727205Y-10945284D02*
X12717681Y-11040522D01*
X12717681Y-11040522D02*
X12727205Y-11030998D01*
X12727205Y-11030998D02*
X12746252Y-11021474D01*
X12746252Y-11021474D02*
X12793871Y-11021474D01*
X12793871Y-11021474D02*
X12812919Y-11030998D01*
X12812919Y-11030998D02*
X12822443Y-11040522D01*
X12822443Y-11040522D02*
X12831966Y-11059570D01*
X12831966Y-11059570D02*
X12831966Y-11107189D01*
X12831966Y-11107189D02*
X12822443Y-11126236D01*
X12822443Y-11126236D02*
X12812919Y-11135760D01*
X12812919Y-11135760D02*
X12793871Y-11145284D01*
X12793871Y-11145284D02*
X12746252Y-11145284D01*
X12746252Y-11145284D02*
X12727205Y-11135760D01*
X12727205Y-11135760D02*
X12717681Y-11126236D01*
X12898633Y-10945284D02*
X13031966Y-10945284D01*
X13031966Y-10945284D02*
X12946252Y-11145284D01*
X13098633Y-10945284D02*
X13098633Y-10983379D01*
X13174824Y-10945284D02*
X13174824Y-10983379D01*
X13470062Y-11221474D02*
X13460538Y-11211950D01*
X13460538Y-11211950D02*
X13441490Y-11183379D01*
X13441490Y-11183379D02*
X13431967Y-11164331D01*
X13431967Y-11164331D02*
X13422443Y-11135760D01*
X13422443Y-11135760D02*
X13412919Y-11088141D01*
X13412919Y-11088141D02*
X13412919Y-11050046D01*
X13412919Y-11050046D02*
X13422443Y-11002427D01*
X13422443Y-11002427D02*
X13431967Y-10973855D01*
X13431967Y-10973855D02*
X13441490Y-10954808D01*
X13441490Y-10954808D02*
X13460538Y-10926236D01*
X13460538Y-10926236D02*
X13470062Y-10916712D01*
X13631967Y-11011950D02*
X13631967Y-11145284D01*
X13584347Y-10935760D02*
X13536728Y-11078617D01*
X13536728Y-11078617D02*
X13660538Y-11078617D01*
X13774824Y-10945284D02*
X13793871Y-10945284D01*
X13793871Y-10945284D02*
X13812919Y-10954808D01*
X13812919Y-10954808D02*
X13822443Y-10964331D01*
X13822443Y-10964331D02*
X13831967Y-10983379D01*
X13831967Y-10983379D02*
X13841490Y-11021474D01*
X13841490Y-11021474D02*
X13841490Y-11069093D01*
X13841490Y-11069093D02*
X13831967Y-11107189D01*
X13831967Y-11107189D02*
X13822443Y-11126236D01*
X13822443Y-11126236D02*
X13812919Y-11135760D01*
X13812919Y-11135760D02*
X13793871Y-11145284D01*
X13793871Y-11145284D02*
X13774824Y-11145284D01*
X13774824Y-11145284D02*
X13755776Y-11135760D01*
X13755776Y-11135760D02*
X13746252Y-11126236D01*
X13746252Y-11126236D02*
X13736728Y-11107189D01*
X13736728Y-11107189D02*
X13727205Y-11069093D01*
X13727205Y-11069093D02*
X13727205Y-11021474D01*
X13727205Y-11021474D02*
X13736728Y-10983379D01*
X13736728Y-10983379D02*
X13746252Y-10964331D01*
X13746252Y-10964331D02*
X13755776Y-10954808D01*
X13755776Y-10954808D02*
X13774824Y-10945284D01*
X14012919Y-11011950D02*
X14012919Y-11145284D01*
X13965300Y-10935760D02*
X13917681Y-11078617D01*
X13917681Y-11078617D02*
X14041490Y-11078617D01*
X14270062Y-11145284D02*
X14270062Y-10945284D01*
X14355776Y-11145284D02*
X14355776Y-11040522D01*
X14355776Y-11040522D02*
X14346252Y-11021474D01*
X14346252Y-11021474D02*
X14327205Y-11011950D01*
X14327205Y-11011950D02*
X14298633Y-11011950D01*
X14298633Y-11011950D02*
X14279586Y-11021474D01*
X14279586Y-11021474D02*
X14270062Y-11030998D01*
X14479586Y-11145284D02*
X14460538Y-11135760D01*
X14460538Y-11135760D02*
X14451014Y-11126236D01*
X14451014Y-11126236D02*
X14441490Y-11107189D01*
X14441490Y-11107189D02*
X14441490Y-11050046D01*
X14441490Y-11050046D02*
X14451014Y-11030998D01*
X14451014Y-11030998D02*
X14460538Y-11021474D01*
X14460538Y-11021474D02*
X14479586Y-11011950D01*
X14479586Y-11011950D02*
X14508157Y-11011950D01*
X14508157Y-11011950D02*
X14527205Y-11021474D01*
X14527205Y-11021474D02*
X14536729Y-11030998D01*
X14536729Y-11030998D02*
X14546252Y-11050046D01*
X14546252Y-11050046D02*
X14546252Y-11107189D01*
X14546252Y-11107189D02*
X14536729Y-11126236D01*
X14536729Y-11126236D02*
X14527205Y-11135760D01*
X14527205Y-11135760D02*
X14508157Y-11145284D01*
X14508157Y-11145284D02*
X14479586Y-11145284D01*
X14660538Y-11145284D02*
X14641490Y-11135760D01*
X14641490Y-11135760D02*
X14631967Y-11116712D01*
X14631967Y-11116712D02*
X14631967Y-10945284D01*
X14812919Y-11135760D02*
X14793871Y-11145284D01*
X14793871Y-11145284D02*
X14755776Y-11145284D01*
X14755776Y-11145284D02*
X14736729Y-11135760D01*
X14736729Y-11135760D02*
X14727205Y-11116712D01*
X14727205Y-11116712D02*
X14727205Y-11040522D01*
X14727205Y-11040522D02*
X14736729Y-11021474D01*
X14736729Y-11021474D02*
X14755776Y-11011950D01*
X14755776Y-11011950D02*
X14793871Y-11011950D01*
X14793871Y-11011950D02*
X14812919Y-11021474D01*
X14812919Y-11021474D02*
X14822443Y-11040522D01*
X14822443Y-11040522D02*
X14822443Y-11059570D01*
X14822443Y-11059570D02*
X14727205Y-11078617D01*
X14898633Y-11135760D02*
X14917681Y-11145284D01*
X14917681Y-11145284D02*
X14955776Y-11145284D01*
X14955776Y-11145284D02*
X14974824Y-11135760D01*
X14974824Y-11135760D02*
X14984348Y-11116712D01*
X14984348Y-11116712D02*
X14984348Y-11107189D01*
X14984348Y-11107189D02*
X14974824Y-11088141D01*
X14974824Y-11088141D02*
X14955776Y-11078617D01*
X14955776Y-11078617D02*
X14927205Y-11078617D01*
X14927205Y-11078617D02*
X14908157Y-11069093D01*
X14908157Y-11069093D02*
X14898633Y-11050046D01*
X14898633Y-11050046D02*
X14898633Y-11040522D01*
X14898633Y-11040522D02*
X14908157Y-11021474D01*
X14908157Y-11021474D02*
X14927205Y-11011950D01*
X14927205Y-11011950D02*
X14955776Y-11011950D01*
X14955776Y-11011950D02*
X14974824Y-11021474D01*
X15051014Y-11221474D02*
X15060538Y-11211950D01*
X15060538Y-11211950D02*
X15079586Y-11183379D01*
X15079586Y-11183379D02*
X15089110Y-11164331D01*
X15089110Y-11164331D02*
X15098633Y-11135760D01*
X15098633Y-11135760D02*
X15108157Y-11088141D01*
X15108157Y-11088141D02*
X15108157Y-11050046D01*
X15108157Y-11050046D02*
X15098633Y-11002427D01*
X15098633Y-11002427D02*
X15089110Y-10973855D01*
X15089110Y-10973855D02*
X15079586Y-10954808D01*
X15079586Y-10954808D02*
X15060538Y-10926236D01*
X15060538Y-10926236D02*
X15051014Y-10916712D01*
D10*
X9894999Y-11317800D02*
G75*
G02*
X9814999Y-11317800I-40000J0D01*
G01*
X9814999Y-11317800D02*
G75*
G02*
X9894999Y-11317800I40000J0D01*
G01*
D11*
X10193871Y-11209284D02*
X10212919Y-11209284D01*
X10212919Y-11209284D02*
X10231966Y-11218808D01*
X10231966Y-11218808D02*
X10241490Y-11228331D01*
X10241490Y-11228331D02*
X10251014Y-11247379D01*
X10251014Y-11247379D02*
X10260538Y-11285474D01*
X10260538Y-11285474D02*
X10260538Y-11333093D01*
X10260538Y-11333093D02*
X10251014Y-11371188D01*
X10251014Y-11371188D02*
X10241490Y-11390236D01*
X10241490Y-11390236D02*
X10231966Y-11399760D01*
X10231966Y-11399760D02*
X10212919Y-11409284D01*
X10212919Y-11409284D02*
X10193871Y-11409284D01*
X10193871Y-11409284D02*
X10174823Y-11399760D01*
X10174823Y-11399760D02*
X10165300Y-11390236D01*
X10165300Y-11390236D02*
X10155776Y-11371188D01*
X10155776Y-11371188D02*
X10146252Y-11333093D01*
X10146252Y-11333093D02*
X10146252Y-11285474D01*
X10146252Y-11285474D02*
X10155776Y-11247379D01*
X10155776Y-11247379D02*
X10165300Y-11228331D01*
X10165300Y-11228331D02*
X10174823Y-11218808D01*
X10174823Y-11218808D02*
X10193871Y-11209284D01*
X10346252Y-11390236D02*
X10355776Y-11399760D01*
X10355776Y-11399760D02*
X10346252Y-11409284D01*
X10346252Y-11409284D02*
X10336728Y-11399760D01*
X10336728Y-11399760D02*
X10346252Y-11390236D01*
X10346252Y-11390236D02*
X10346252Y-11409284D01*
X10470062Y-11294998D02*
X10451014Y-11285474D01*
X10451014Y-11285474D02*
X10441490Y-11275950D01*
X10441490Y-11275950D02*
X10431966Y-11256903D01*
X10431966Y-11256903D02*
X10431966Y-11247379D01*
X10431966Y-11247379D02*
X10441490Y-11228331D01*
X10441490Y-11228331D02*
X10451014Y-11218808D01*
X10451014Y-11218808D02*
X10470062Y-11209284D01*
X10470062Y-11209284D02*
X10508157Y-11209284D01*
X10508157Y-11209284D02*
X10527204Y-11218808D01*
X10527204Y-11218808D02*
X10536728Y-11228331D01*
X10536728Y-11228331D02*
X10546252Y-11247379D01*
X10546252Y-11247379D02*
X10546252Y-11256903D01*
X10546252Y-11256903D02*
X10536728Y-11275950D01*
X10536728Y-11275950D02*
X10527204Y-11285474D01*
X10527204Y-11285474D02*
X10508157Y-11294998D01*
X10508157Y-11294998D02*
X10470062Y-11294998D01*
X10470062Y-11294998D02*
X10451014Y-11304522D01*
X10451014Y-11304522D02*
X10441490Y-11314046D01*
X10441490Y-11314046D02*
X10431966Y-11333093D01*
X10431966Y-11333093D02*
X10431966Y-11371188D01*
X10431966Y-11371188D02*
X10441490Y-11390236D01*
X10441490Y-11390236D02*
X10451014Y-11399760D01*
X10451014Y-11399760D02*
X10470062Y-11409284D01*
X10470062Y-11409284D02*
X10508157Y-11409284D01*
X10508157Y-11409284D02*
X10527204Y-11399760D01*
X10527204Y-11399760D02*
X10536728Y-11390236D01*
X10536728Y-11390236D02*
X10546252Y-11371188D01*
X10546252Y-11371188D02*
X10546252Y-11333093D01*
X10546252Y-11333093D02*
X10536728Y-11314046D01*
X10536728Y-11314046D02*
X10527204Y-11304522D01*
X10527204Y-11304522D02*
X10508157Y-11294998D01*
X10670062Y-11209284D02*
X10689109Y-11209284D01*
X10689109Y-11209284D02*
X10708157Y-11218808D01*
X10708157Y-11218808D02*
X10717681Y-11228331D01*
X10717681Y-11228331D02*
X10727204Y-11247379D01*
X10727204Y-11247379D02*
X10736728Y-11285474D01*
X10736728Y-11285474D02*
X10736728Y-11333093D01*
X10736728Y-11333093D02*
X10727204Y-11371188D01*
X10727204Y-11371188D02*
X10717681Y-11390236D01*
X10717681Y-11390236D02*
X10708157Y-11399760D01*
X10708157Y-11399760D02*
X10689109Y-11409284D01*
X10689109Y-11409284D02*
X10670062Y-11409284D01*
X10670062Y-11409284D02*
X10651014Y-11399760D01*
X10651014Y-11399760D02*
X10641490Y-11390236D01*
X10641490Y-11390236D02*
X10631966Y-11371188D01*
X10631966Y-11371188D02*
X10622443Y-11333093D01*
X10622443Y-11333093D02*
X10622443Y-11285474D01*
X10622443Y-11285474D02*
X10631966Y-11247379D01*
X10631966Y-11247379D02*
X10641490Y-11228331D01*
X10641490Y-11228331D02*
X10651014Y-11218808D01*
X10651014Y-11218808D02*
X10670062Y-11209284D01*
X10860538Y-11209284D02*
X10879585Y-11209284D01*
X10879585Y-11209284D02*
X10898633Y-11218808D01*
X10898633Y-11218808D02*
X10908157Y-11228331D01*
X10908157Y-11228331D02*
X10917681Y-11247379D01*
X10917681Y-11247379D02*
X10927204Y-11285474D01*
X10927204Y-11285474D02*
X10927204Y-11333093D01*
X10927204Y-11333093D02*
X10917681Y-11371188D01*
X10917681Y-11371188D02*
X10908157Y-11390236D01*
X10908157Y-11390236D02*
X10898633Y-11399760D01*
X10898633Y-11399760D02*
X10879585Y-11409284D01*
X10879585Y-11409284D02*
X10860538Y-11409284D01*
X10860538Y-11409284D02*
X10841490Y-11399760D01*
X10841490Y-11399760D02*
X10831966Y-11390236D01*
X10831966Y-11390236D02*
X10822443Y-11371188D01*
X10822443Y-11371188D02*
X10812919Y-11333093D01*
X10812919Y-11333093D02*
X10812919Y-11285474D01*
X10812919Y-11285474D02*
X10822443Y-11247379D01*
X10822443Y-11247379D02*
X10831966Y-11228331D01*
X10831966Y-11228331D02*
X10841490Y-11218808D01*
X10841490Y-11218808D02*
X10860538Y-11209284D01*
X11012919Y-11409284D02*
X11012919Y-11275950D01*
X11012919Y-11294998D02*
X11022443Y-11285474D01*
X11022443Y-11285474D02*
X11041490Y-11275950D01*
X11041490Y-11275950D02*
X11070062Y-11275950D01*
X11070062Y-11275950D02*
X11089109Y-11285474D01*
X11089109Y-11285474D02*
X11098633Y-11304522D01*
X11098633Y-11304522D02*
X11098633Y-11409284D01*
X11098633Y-11304522D02*
X11108157Y-11285474D01*
X11108157Y-11285474D02*
X11127204Y-11275950D01*
X11127204Y-11275950D02*
X11155776Y-11275950D01*
X11155776Y-11275950D02*
X11174824Y-11285474D01*
X11174824Y-11285474D02*
X11184347Y-11304522D01*
X11184347Y-11304522D02*
X11184347Y-11409284D01*
X11279585Y-11409284D02*
X11279585Y-11275950D01*
X11279585Y-11294998D02*
X11289109Y-11285474D01*
X11289109Y-11285474D02*
X11308157Y-11275950D01*
X11308157Y-11275950D02*
X11336728Y-11275950D01*
X11336728Y-11275950D02*
X11355776Y-11285474D01*
X11355776Y-11285474D02*
X11365300Y-11304522D01*
X11365300Y-11304522D02*
X11365300Y-11409284D01*
X11365300Y-11304522D02*
X11374823Y-11285474D01*
X11374823Y-11285474D02*
X11393871Y-11275950D01*
X11393871Y-11275950D02*
X11422442Y-11275950D01*
X11422442Y-11275950D02*
X11441490Y-11285474D01*
X11441490Y-11285474D02*
X11451014Y-11304522D01*
X11451014Y-11304522D02*
X11451014Y-11409284D01*
X11841490Y-11199760D02*
X11670062Y-11456903D01*
X12098633Y-11209284D02*
X12117681Y-11209284D01*
X12117681Y-11209284D02*
X12136728Y-11218808D01*
X12136728Y-11218808D02*
X12146252Y-11228331D01*
X12146252Y-11228331D02*
X12155776Y-11247379D01*
X12155776Y-11247379D02*
X12165300Y-11285474D01*
X12165300Y-11285474D02*
X12165300Y-11333093D01*
X12165300Y-11333093D02*
X12155776Y-11371188D01*
X12155776Y-11371188D02*
X12146252Y-11390236D01*
X12146252Y-11390236D02*
X12136728Y-11399760D01*
X12136728Y-11399760D02*
X12117681Y-11409284D01*
X12117681Y-11409284D02*
X12098633Y-11409284D01*
X12098633Y-11409284D02*
X12079585Y-11399760D01*
X12079585Y-11399760D02*
X12070062Y-11390236D01*
X12070062Y-11390236D02*
X12060538Y-11371188D01*
X12060538Y-11371188D02*
X12051014Y-11333093D01*
X12051014Y-11333093D02*
X12051014Y-11285474D01*
X12051014Y-11285474D02*
X12060538Y-11247379D01*
X12060538Y-11247379D02*
X12070062Y-11228331D01*
X12070062Y-11228331D02*
X12079585Y-11218808D01*
X12079585Y-11218808D02*
X12098633Y-11209284D01*
X12251014Y-11390236D02*
X12260538Y-11399760D01*
X12260538Y-11399760D02*
X12251014Y-11409284D01*
X12251014Y-11409284D02*
X12241490Y-11399760D01*
X12241490Y-11399760D02*
X12251014Y-11390236D01*
X12251014Y-11390236D02*
X12251014Y-11409284D01*
X12384347Y-11209284D02*
X12403395Y-11209284D01*
X12403395Y-11209284D02*
X12422443Y-11218808D01*
X12422443Y-11218808D02*
X12431966Y-11228331D01*
X12431966Y-11228331D02*
X12441490Y-11247379D01*
X12441490Y-11247379D02*
X12451014Y-11285474D01*
X12451014Y-11285474D02*
X12451014Y-11333093D01*
X12451014Y-11333093D02*
X12441490Y-11371188D01*
X12441490Y-11371188D02*
X12431966Y-11390236D01*
X12431966Y-11390236D02*
X12422443Y-11399760D01*
X12422443Y-11399760D02*
X12403395Y-11409284D01*
X12403395Y-11409284D02*
X12384347Y-11409284D01*
X12384347Y-11409284D02*
X12365300Y-11399760D01*
X12365300Y-11399760D02*
X12355776Y-11390236D01*
X12355776Y-11390236D02*
X12346252Y-11371188D01*
X12346252Y-11371188D02*
X12336728Y-11333093D01*
X12336728Y-11333093D02*
X12336728Y-11285474D01*
X12336728Y-11285474D02*
X12346252Y-11247379D01*
X12346252Y-11247379D02*
X12355776Y-11228331D01*
X12355776Y-11228331D02*
X12365300Y-11218808D01*
X12365300Y-11218808D02*
X12384347Y-11209284D01*
X12517681Y-11209284D02*
X12641490Y-11209284D01*
X12641490Y-11209284D02*
X12574824Y-11285474D01*
X12574824Y-11285474D02*
X12603395Y-11285474D01*
X12603395Y-11285474D02*
X12622443Y-11294998D01*
X12622443Y-11294998D02*
X12631966Y-11304522D01*
X12631966Y-11304522D02*
X12641490Y-11323569D01*
X12641490Y-11323569D02*
X12641490Y-11371188D01*
X12641490Y-11371188D02*
X12631966Y-11390236D01*
X12631966Y-11390236D02*
X12622443Y-11399760D01*
X12622443Y-11399760D02*
X12603395Y-11409284D01*
X12603395Y-11409284D02*
X12546252Y-11409284D01*
X12546252Y-11409284D02*
X12527205Y-11399760D01*
X12527205Y-11399760D02*
X12517681Y-11390236D01*
X12831966Y-11409284D02*
X12717681Y-11409284D01*
X12774824Y-11409284D02*
X12774824Y-11209284D01*
X12774824Y-11209284D02*
X12755776Y-11237855D01*
X12755776Y-11237855D02*
X12736728Y-11256903D01*
X12736728Y-11256903D02*
X12717681Y-11266427D01*
X13012919Y-11209284D02*
X12917681Y-11209284D01*
X12917681Y-11209284D02*
X12908157Y-11304522D01*
X12908157Y-11304522D02*
X12917681Y-11294998D01*
X12917681Y-11294998D02*
X12936728Y-11285474D01*
X12936728Y-11285474D02*
X12984347Y-11285474D01*
X12984347Y-11285474D02*
X13003395Y-11294998D01*
X13003395Y-11294998D02*
X13012919Y-11304522D01*
X13012919Y-11304522D02*
X13022443Y-11323569D01*
X13022443Y-11323569D02*
X13022443Y-11371188D01*
X13022443Y-11371188D02*
X13012919Y-11390236D01*
X13012919Y-11390236D02*
X13003395Y-11399760D01*
X13003395Y-11399760D02*
X12984347Y-11409284D01*
X12984347Y-11409284D02*
X12936728Y-11409284D01*
X12936728Y-11409284D02*
X12917681Y-11399760D01*
X12917681Y-11399760D02*
X12908157Y-11390236D01*
X13098633Y-11209284D02*
X13098633Y-11247379D01*
X13174824Y-11209284D02*
X13174824Y-11247379D01*
X13470062Y-11485474D02*
X13460538Y-11475950D01*
X13460538Y-11475950D02*
X13441490Y-11447379D01*
X13441490Y-11447379D02*
X13431967Y-11428331D01*
X13431967Y-11428331D02*
X13422443Y-11399760D01*
X13422443Y-11399760D02*
X13412919Y-11352141D01*
X13412919Y-11352141D02*
X13412919Y-11314046D01*
X13412919Y-11314046D02*
X13422443Y-11266427D01*
X13422443Y-11266427D02*
X13431967Y-11237855D01*
X13431967Y-11237855D02*
X13441490Y-11218808D01*
X13441490Y-11218808D02*
X13460538Y-11190236D01*
X13460538Y-11190236D02*
X13470062Y-11180712D01*
X13527205Y-11209284D02*
X13660538Y-11209284D01*
X13660538Y-11209284D02*
X13574824Y-11409284D01*
X13774824Y-11209284D02*
X13793871Y-11209284D01*
X13793871Y-11209284D02*
X13812919Y-11218808D01*
X13812919Y-11218808D02*
X13822443Y-11228331D01*
X13822443Y-11228331D02*
X13831967Y-11247379D01*
X13831967Y-11247379D02*
X13841490Y-11285474D01*
X13841490Y-11285474D02*
X13841490Y-11333093D01*
X13841490Y-11333093D02*
X13831967Y-11371188D01*
X13831967Y-11371188D02*
X13822443Y-11390236D01*
X13822443Y-11390236D02*
X13812919Y-11399760D01*
X13812919Y-11399760D02*
X13793871Y-11409284D01*
X13793871Y-11409284D02*
X13774824Y-11409284D01*
X13774824Y-11409284D02*
X13755776Y-11399760D01*
X13755776Y-11399760D02*
X13746252Y-11390236D01*
X13746252Y-11390236D02*
X13736728Y-11371188D01*
X13736728Y-11371188D02*
X13727205Y-11333093D01*
X13727205Y-11333093D02*
X13727205Y-11285474D01*
X13727205Y-11285474D02*
X13736728Y-11247379D01*
X13736728Y-11247379D02*
X13746252Y-11228331D01*
X13746252Y-11228331D02*
X13755776Y-11218808D01*
X13755776Y-11218808D02*
X13774824Y-11209284D01*
X14079586Y-11409284D02*
X14079586Y-11209284D01*
X14165300Y-11409284D02*
X14165300Y-11304522D01*
X14165300Y-11304522D02*
X14155776Y-11285474D01*
X14155776Y-11285474D02*
X14136729Y-11275950D01*
X14136729Y-11275950D02*
X14108157Y-11275950D01*
X14108157Y-11275950D02*
X14089109Y-11285474D01*
X14089109Y-11285474D02*
X14079586Y-11294998D01*
X14289109Y-11409284D02*
X14270062Y-11399760D01*
X14270062Y-11399760D02*
X14260538Y-11390236D01*
X14260538Y-11390236D02*
X14251014Y-11371188D01*
X14251014Y-11371188D02*
X14251014Y-11314046D01*
X14251014Y-11314046D02*
X14260538Y-11294998D01*
X14260538Y-11294998D02*
X14270062Y-11285474D01*
X14270062Y-11285474D02*
X14289109Y-11275950D01*
X14289109Y-11275950D02*
X14317681Y-11275950D01*
X14317681Y-11275950D02*
X14336729Y-11285474D01*
X14336729Y-11285474D02*
X14346252Y-11294998D01*
X14346252Y-11294998D02*
X14355776Y-11314046D01*
X14355776Y-11314046D02*
X14355776Y-11371188D01*
X14355776Y-11371188D02*
X14346252Y-11390236D01*
X14346252Y-11390236D02*
X14336729Y-11399760D01*
X14336729Y-11399760D02*
X14317681Y-11409284D01*
X14317681Y-11409284D02*
X14289109Y-11409284D01*
X14470062Y-11409284D02*
X14451014Y-11399760D01*
X14451014Y-11399760D02*
X14441490Y-11380712D01*
X14441490Y-11380712D02*
X14441490Y-11209284D01*
X14622443Y-11399760D02*
X14603395Y-11409284D01*
X14603395Y-11409284D02*
X14565300Y-11409284D01*
X14565300Y-11409284D02*
X14546252Y-11399760D01*
X14546252Y-11399760D02*
X14536729Y-11380712D01*
X14536729Y-11380712D02*
X14536729Y-11304522D01*
X14536729Y-11304522D02*
X14546252Y-11285474D01*
X14546252Y-11285474D02*
X14565300Y-11275950D01*
X14565300Y-11275950D02*
X14603395Y-11275950D01*
X14603395Y-11275950D02*
X14622443Y-11285474D01*
X14622443Y-11285474D02*
X14631967Y-11304522D01*
X14631967Y-11304522D02*
X14631967Y-11323569D01*
X14631967Y-11323569D02*
X14536729Y-11342617D01*
X14708157Y-11399760D02*
X14727205Y-11409284D01*
X14727205Y-11409284D02*
X14765300Y-11409284D01*
X14765300Y-11409284D02*
X14784348Y-11399760D01*
X14784348Y-11399760D02*
X14793871Y-11380712D01*
X14793871Y-11380712D02*
X14793871Y-11371188D01*
X14793871Y-11371188D02*
X14784348Y-11352141D01*
X14784348Y-11352141D02*
X14765300Y-11342617D01*
X14765300Y-11342617D02*
X14736729Y-11342617D01*
X14736729Y-11342617D02*
X14717681Y-11333093D01*
X14717681Y-11333093D02*
X14708157Y-11314046D01*
X14708157Y-11314046D02*
X14708157Y-11304522D01*
X14708157Y-11304522D02*
X14717681Y-11285474D01*
X14717681Y-11285474D02*
X14736729Y-11275950D01*
X14736729Y-11275950D02*
X14765300Y-11275950D01*
X14765300Y-11275950D02*
X14784348Y-11285474D01*
X14860538Y-11485474D02*
X14870062Y-11475950D01*
X14870062Y-11475950D02*
X14889110Y-11447379D01*
X14889110Y-11447379D02*
X14898633Y-11428331D01*
X14898633Y-11428331D02*
X14908157Y-11399760D01*
X14908157Y-11399760D02*
X14917681Y-11352141D01*
X14917681Y-11352141D02*
X14917681Y-11314046D01*
X14917681Y-11314046D02*
X14908157Y-11266427D01*
X14908157Y-11266427D02*
X14898633Y-11237855D01*
X14898633Y-11237855D02*
X14889110Y-11218808D01*
X14889110Y-11218808D02*
X14870062Y-11190236D01*
X14870062Y-11190236D02*
X14860538Y-11180712D01*
D10*
X9844999Y-11531800D02*
X9844999Y-11631800D01*
X9794999Y-11581800D02*
X9894999Y-11581800D01*
D11*
X10260538Y-11673284D02*
X10146252Y-11673284D01*
X10203395Y-11673284D02*
X10203395Y-11473284D01*
X10203395Y-11473284D02*
X10184347Y-11501855D01*
X10184347Y-11501855D02*
X10165300Y-11520903D01*
X10165300Y-11520903D02*
X10146252Y-11530427D01*
X10346252Y-11654236D02*
X10355776Y-11663760D01*
X10355776Y-11663760D02*
X10346252Y-11673284D01*
X10346252Y-11673284D02*
X10336728Y-11663760D01*
X10336728Y-11663760D02*
X10346252Y-11654236D01*
X10346252Y-11654236D02*
X10346252Y-11673284D01*
X10479585Y-11473284D02*
X10498633Y-11473284D01*
X10498633Y-11473284D02*
X10517681Y-11482808D01*
X10517681Y-11482808D02*
X10527204Y-11492331D01*
X10527204Y-11492331D02*
X10536728Y-11511379D01*
X10536728Y-11511379D02*
X10546252Y-11549474D01*
X10546252Y-11549474D02*
X10546252Y-11597093D01*
X10546252Y-11597093D02*
X10536728Y-11635188D01*
X10536728Y-11635188D02*
X10527204Y-11654236D01*
X10527204Y-11654236D02*
X10517681Y-11663760D01*
X10517681Y-11663760D02*
X10498633Y-11673284D01*
X10498633Y-11673284D02*
X10479585Y-11673284D01*
X10479585Y-11673284D02*
X10460538Y-11663760D01*
X10460538Y-11663760D02*
X10451014Y-11654236D01*
X10451014Y-11654236D02*
X10441490Y-11635188D01*
X10441490Y-11635188D02*
X10431966Y-11597093D01*
X10431966Y-11597093D02*
X10431966Y-11549474D01*
X10431966Y-11549474D02*
X10441490Y-11511379D01*
X10441490Y-11511379D02*
X10451014Y-11492331D01*
X10451014Y-11492331D02*
X10460538Y-11482808D01*
X10460538Y-11482808D02*
X10479585Y-11473284D01*
X10670062Y-11473284D02*
X10689109Y-11473284D01*
X10689109Y-11473284D02*
X10708157Y-11482808D01*
X10708157Y-11482808D02*
X10717681Y-11492331D01*
X10717681Y-11492331D02*
X10727204Y-11511379D01*
X10727204Y-11511379D02*
X10736728Y-11549474D01*
X10736728Y-11549474D02*
X10736728Y-11597093D01*
X10736728Y-11597093D02*
X10727204Y-11635188D01*
X10727204Y-11635188D02*
X10717681Y-11654236D01*
X10717681Y-11654236D02*
X10708157Y-11663760D01*
X10708157Y-11663760D02*
X10689109Y-11673284D01*
X10689109Y-11673284D02*
X10670062Y-11673284D01*
X10670062Y-11673284D02*
X10651014Y-11663760D01*
X10651014Y-11663760D02*
X10641490Y-11654236D01*
X10641490Y-11654236D02*
X10631966Y-11635188D01*
X10631966Y-11635188D02*
X10622443Y-11597093D01*
X10622443Y-11597093D02*
X10622443Y-11549474D01*
X10622443Y-11549474D02*
X10631966Y-11511379D01*
X10631966Y-11511379D02*
X10641490Y-11492331D01*
X10641490Y-11492331D02*
X10651014Y-11482808D01*
X10651014Y-11482808D02*
X10670062Y-11473284D01*
X10860538Y-11473284D02*
X10879585Y-11473284D01*
X10879585Y-11473284D02*
X10898633Y-11482808D01*
X10898633Y-11482808D02*
X10908157Y-11492331D01*
X10908157Y-11492331D02*
X10917681Y-11511379D01*
X10917681Y-11511379D02*
X10927204Y-11549474D01*
X10927204Y-11549474D02*
X10927204Y-11597093D01*
X10927204Y-11597093D02*
X10917681Y-11635188D01*
X10917681Y-11635188D02*
X10908157Y-11654236D01*
X10908157Y-11654236D02*
X10898633Y-11663760D01*
X10898633Y-11663760D02*
X10879585Y-11673284D01*
X10879585Y-11673284D02*
X10860538Y-11673284D01*
X10860538Y-11673284D02*
X10841490Y-11663760D01*
X10841490Y-11663760D02*
X10831966Y-11654236D01*
X10831966Y-11654236D02*
X10822443Y-11635188D01*
X10822443Y-11635188D02*
X10812919Y-11597093D01*
X10812919Y-11597093D02*
X10812919Y-11549474D01*
X10812919Y-11549474D02*
X10822443Y-11511379D01*
X10822443Y-11511379D02*
X10831966Y-11492331D01*
X10831966Y-11492331D02*
X10841490Y-11482808D01*
X10841490Y-11482808D02*
X10860538Y-11473284D01*
X11012919Y-11673284D02*
X11012919Y-11539950D01*
X11012919Y-11558998D02*
X11022443Y-11549474D01*
X11022443Y-11549474D02*
X11041490Y-11539950D01*
X11041490Y-11539950D02*
X11070062Y-11539950D01*
X11070062Y-11539950D02*
X11089109Y-11549474D01*
X11089109Y-11549474D02*
X11098633Y-11568522D01*
X11098633Y-11568522D02*
X11098633Y-11673284D01*
X11098633Y-11568522D02*
X11108157Y-11549474D01*
X11108157Y-11549474D02*
X11127204Y-11539950D01*
X11127204Y-11539950D02*
X11155776Y-11539950D01*
X11155776Y-11539950D02*
X11174824Y-11549474D01*
X11174824Y-11549474D02*
X11184347Y-11568522D01*
X11184347Y-11568522D02*
X11184347Y-11673284D01*
X11279585Y-11673284D02*
X11279585Y-11539950D01*
X11279585Y-11558998D02*
X11289109Y-11549474D01*
X11289109Y-11549474D02*
X11308157Y-11539950D01*
X11308157Y-11539950D02*
X11336728Y-11539950D01*
X11336728Y-11539950D02*
X11355776Y-11549474D01*
X11355776Y-11549474D02*
X11365300Y-11568522D01*
X11365300Y-11568522D02*
X11365300Y-11673284D01*
X11365300Y-11568522D02*
X11374823Y-11549474D01*
X11374823Y-11549474D02*
X11393871Y-11539950D01*
X11393871Y-11539950D02*
X11422442Y-11539950D01*
X11422442Y-11539950D02*
X11441490Y-11549474D01*
X11441490Y-11549474D02*
X11451014Y-11568522D01*
X11451014Y-11568522D02*
X11451014Y-11673284D01*
X11841490Y-11463760D02*
X11670062Y-11720903D01*
X12098633Y-11473284D02*
X12117681Y-11473284D01*
X12117681Y-11473284D02*
X12136728Y-11482808D01*
X12136728Y-11482808D02*
X12146252Y-11492331D01*
X12146252Y-11492331D02*
X12155776Y-11511379D01*
X12155776Y-11511379D02*
X12165300Y-11549474D01*
X12165300Y-11549474D02*
X12165300Y-11597093D01*
X12165300Y-11597093D02*
X12155776Y-11635188D01*
X12155776Y-11635188D02*
X12146252Y-11654236D01*
X12146252Y-11654236D02*
X12136728Y-11663760D01*
X12136728Y-11663760D02*
X12117681Y-11673284D01*
X12117681Y-11673284D02*
X12098633Y-11673284D01*
X12098633Y-11673284D02*
X12079585Y-11663760D01*
X12079585Y-11663760D02*
X12070062Y-11654236D01*
X12070062Y-11654236D02*
X12060538Y-11635188D01*
X12060538Y-11635188D02*
X12051014Y-11597093D01*
X12051014Y-11597093D02*
X12051014Y-11549474D01*
X12051014Y-11549474D02*
X12060538Y-11511379D01*
X12060538Y-11511379D02*
X12070062Y-11492331D01*
X12070062Y-11492331D02*
X12079585Y-11482808D01*
X12079585Y-11482808D02*
X12098633Y-11473284D01*
X12251014Y-11654236D02*
X12260538Y-11663760D01*
X12260538Y-11663760D02*
X12251014Y-11673284D01*
X12251014Y-11673284D02*
X12241490Y-11663760D01*
X12241490Y-11663760D02*
X12251014Y-11654236D01*
X12251014Y-11654236D02*
X12251014Y-11673284D01*
X12384347Y-11473284D02*
X12403395Y-11473284D01*
X12403395Y-11473284D02*
X12422443Y-11482808D01*
X12422443Y-11482808D02*
X12431966Y-11492331D01*
X12431966Y-11492331D02*
X12441490Y-11511379D01*
X12441490Y-11511379D02*
X12451014Y-11549474D01*
X12451014Y-11549474D02*
X12451014Y-11597093D01*
X12451014Y-11597093D02*
X12441490Y-11635188D01*
X12441490Y-11635188D02*
X12431966Y-11654236D01*
X12431966Y-11654236D02*
X12422443Y-11663760D01*
X12422443Y-11663760D02*
X12403395Y-11673284D01*
X12403395Y-11673284D02*
X12384347Y-11673284D01*
X12384347Y-11673284D02*
X12365300Y-11663760D01*
X12365300Y-11663760D02*
X12355776Y-11654236D01*
X12355776Y-11654236D02*
X12346252Y-11635188D01*
X12346252Y-11635188D02*
X12336728Y-11597093D01*
X12336728Y-11597093D02*
X12336728Y-11549474D01*
X12336728Y-11549474D02*
X12346252Y-11511379D01*
X12346252Y-11511379D02*
X12355776Y-11492331D01*
X12355776Y-11492331D02*
X12365300Y-11482808D01*
X12365300Y-11482808D02*
X12384347Y-11473284D01*
X12517681Y-11473284D02*
X12641490Y-11473284D01*
X12641490Y-11473284D02*
X12574824Y-11549474D01*
X12574824Y-11549474D02*
X12603395Y-11549474D01*
X12603395Y-11549474D02*
X12622443Y-11558998D01*
X12622443Y-11558998D02*
X12631966Y-11568522D01*
X12631966Y-11568522D02*
X12641490Y-11587569D01*
X12641490Y-11587569D02*
X12641490Y-11635188D01*
X12641490Y-11635188D02*
X12631966Y-11654236D01*
X12631966Y-11654236D02*
X12622443Y-11663760D01*
X12622443Y-11663760D02*
X12603395Y-11673284D01*
X12603395Y-11673284D02*
X12546252Y-11673284D01*
X12546252Y-11673284D02*
X12527205Y-11663760D01*
X12527205Y-11663760D02*
X12517681Y-11654236D01*
X12736728Y-11673284D02*
X12774824Y-11673284D01*
X12774824Y-11673284D02*
X12793871Y-11663760D01*
X12793871Y-11663760D02*
X12803395Y-11654236D01*
X12803395Y-11654236D02*
X12822443Y-11625665D01*
X12822443Y-11625665D02*
X12831966Y-11587569D01*
X12831966Y-11587569D02*
X12831966Y-11511379D01*
X12831966Y-11511379D02*
X12822443Y-11492331D01*
X12822443Y-11492331D02*
X12812919Y-11482808D01*
X12812919Y-11482808D02*
X12793871Y-11473284D01*
X12793871Y-11473284D02*
X12755776Y-11473284D01*
X12755776Y-11473284D02*
X12736728Y-11482808D01*
X12736728Y-11482808D02*
X12727205Y-11492331D01*
X12727205Y-11492331D02*
X12717681Y-11511379D01*
X12717681Y-11511379D02*
X12717681Y-11558998D01*
X12717681Y-11558998D02*
X12727205Y-11578046D01*
X12727205Y-11578046D02*
X12736728Y-11587569D01*
X12736728Y-11587569D02*
X12755776Y-11597093D01*
X12755776Y-11597093D02*
X12793871Y-11597093D01*
X12793871Y-11597093D02*
X12812919Y-11587569D01*
X12812919Y-11587569D02*
X12822443Y-11578046D01*
X12822443Y-11578046D02*
X12831966Y-11558998D01*
X13003395Y-11539950D02*
X13003395Y-11673284D01*
X12955776Y-11463760D02*
X12908157Y-11606617D01*
X12908157Y-11606617D02*
X13031966Y-11606617D01*
X13098633Y-11473284D02*
X13098633Y-11511379D01*
X13174824Y-11473284D02*
X13174824Y-11511379D01*
X13470062Y-11749474D02*
X13460538Y-11739950D01*
X13460538Y-11739950D02*
X13441490Y-11711379D01*
X13441490Y-11711379D02*
X13431967Y-11692331D01*
X13431967Y-11692331D02*
X13422443Y-11663760D01*
X13422443Y-11663760D02*
X13412919Y-11616141D01*
X13412919Y-11616141D02*
X13412919Y-11578046D01*
X13412919Y-11578046D02*
X13422443Y-11530427D01*
X13422443Y-11530427D02*
X13431967Y-11501855D01*
X13431967Y-11501855D02*
X13441490Y-11482808D01*
X13441490Y-11482808D02*
X13460538Y-11454236D01*
X13460538Y-11454236D02*
X13470062Y-11444712D01*
X13536728Y-11492331D02*
X13546252Y-11482808D01*
X13546252Y-11482808D02*
X13565300Y-11473284D01*
X13565300Y-11473284D02*
X13612919Y-11473284D01*
X13612919Y-11473284D02*
X13631967Y-11482808D01*
X13631967Y-11482808D02*
X13641490Y-11492331D01*
X13641490Y-11492331D02*
X13651014Y-11511379D01*
X13651014Y-11511379D02*
X13651014Y-11530427D01*
X13651014Y-11530427D02*
X13641490Y-11558998D01*
X13641490Y-11558998D02*
X13527205Y-11673284D01*
X13527205Y-11673284D02*
X13651014Y-11673284D01*
X13774824Y-11473284D02*
X13793871Y-11473284D01*
X13793871Y-11473284D02*
X13812919Y-11482808D01*
X13812919Y-11482808D02*
X13822443Y-11492331D01*
X13822443Y-11492331D02*
X13831967Y-11511379D01*
X13831967Y-11511379D02*
X13841490Y-11549474D01*
X13841490Y-11549474D02*
X13841490Y-11597093D01*
X13841490Y-11597093D02*
X13831967Y-11635188D01*
X13831967Y-11635188D02*
X13822443Y-11654236D01*
X13822443Y-11654236D02*
X13812919Y-11663760D01*
X13812919Y-11663760D02*
X13793871Y-11673284D01*
X13793871Y-11673284D02*
X13774824Y-11673284D01*
X13774824Y-11673284D02*
X13755776Y-11663760D01*
X13755776Y-11663760D02*
X13746252Y-11654236D01*
X13746252Y-11654236D02*
X13736728Y-11635188D01*
X13736728Y-11635188D02*
X13727205Y-11597093D01*
X13727205Y-11597093D02*
X13727205Y-11549474D01*
X13727205Y-11549474D02*
X13736728Y-11511379D01*
X13736728Y-11511379D02*
X13746252Y-11492331D01*
X13746252Y-11492331D02*
X13755776Y-11482808D01*
X13755776Y-11482808D02*
X13774824Y-11473284D01*
X14079586Y-11673284D02*
X14079586Y-11473284D01*
X14165300Y-11673284D02*
X14165300Y-11568522D01*
X14165300Y-11568522D02*
X14155776Y-11549474D01*
X14155776Y-11549474D02*
X14136729Y-11539950D01*
X14136729Y-11539950D02*
X14108157Y-11539950D01*
X14108157Y-11539950D02*
X14089109Y-11549474D01*
X14089109Y-11549474D02*
X14079586Y-11558998D01*
X14289109Y-11673284D02*
X14270062Y-11663760D01*
X14270062Y-11663760D02*
X14260538Y-11654236D01*
X14260538Y-11654236D02*
X14251014Y-11635188D01*
X14251014Y-11635188D02*
X14251014Y-11578046D01*
X14251014Y-11578046D02*
X14260538Y-11558998D01*
X14260538Y-11558998D02*
X14270062Y-11549474D01*
X14270062Y-11549474D02*
X14289109Y-11539950D01*
X14289109Y-11539950D02*
X14317681Y-11539950D01*
X14317681Y-11539950D02*
X14336729Y-11549474D01*
X14336729Y-11549474D02*
X14346252Y-11558998D01*
X14346252Y-11558998D02*
X14355776Y-11578046D01*
X14355776Y-11578046D02*
X14355776Y-11635188D01*
X14355776Y-11635188D02*
X14346252Y-11654236D01*
X14346252Y-11654236D02*
X14336729Y-11663760D01*
X14336729Y-11663760D02*
X14317681Y-11673284D01*
X14317681Y-11673284D02*
X14289109Y-11673284D01*
X14470062Y-11673284D02*
X14451014Y-11663760D01*
X14451014Y-11663760D02*
X14441490Y-11644712D01*
X14441490Y-11644712D02*
X14441490Y-11473284D01*
X14622443Y-11663760D02*
X14603395Y-11673284D01*
X14603395Y-11673284D02*
X14565300Y-11673284D01*
X14565300Y-11673284D02*
X14546252Y-11663760D01*
X14546252Y-11663760D02*
X14536729Y-11644712D01*
X14536729Y-11644712D02*
X14536729Y-11568522D01*
X14536729Y-11568522D02*
X14546252Y-11549474D01*
X14546252Y-11549474D02*
X14565300Y-11539950D01*
X14565300Y-11539950D02*
X14603395Y-11539950D01*
X14603395Y-11539950D02*
X14622443Y-11549474D01*
X14622443Y-11549474D02*
X14631967Y-11568522D01*
X14631967Y-11568522D02*
X14631967Y-11587569D01*
X14631967Y-11587569D02*
X14536729Y-11606617D01*
X14708157Y-11663760D02*
X14727205Y-11673284D01*
X14727205Y-11673284D02*
X14765300Y-11673284D01*
X14765300Y-11673284D02*
X14784348Y-11663760D01*
X14784348Y-11663760D02*
X14793871Y-11644712D01*
X14793871Y-11644712D02*
X14793871Y-11635188D01*
X14793871Y-11635188D02*
X14784348Y-11616141D01*
X14784348Y-11616141D02*
X14765300Y-11606617D01*
X14765300Y-11606617D02*
X14736729Y-11606617D01*
X14736729Y-11606617D02*
X14717681Y-11597093D01*
X14717681Y-11597093D02*
X14708157Y-11578046D01*
X14708157Y-11578046D02*
X14708157Y-11568522D01*
X14708157Y-11568522D02*
X14717681Y-11549474D01*
X14717681Y-11549474D02*
X14736729Y-11539950D01*
X14736729Y-11539950D02*
X14765300Y-11539950D01*
X14765300Y-11539950D02*
X14784348Y-11549474D01*
X14860538Y-11749474D02*
X14870062Y-11739950D01*
X14870062Y-11739950D02*
X14889110Y-11711379D01*
X14889110Y-11711379D02*
X14898633Y-11692331D01*
X14898633Y-11692331D02*
X14908157Y-11663760D01*
X14908157Y-11663760D02*
X14917681Y-11616141D01*
X14917681Y-11616141D02*
X14917681Y-11578046D01*
X14917681Y-11578046D02*
X14908157Y-11530427D01*
X14908157Y-11530427D02*
X14898633Y-11501855D01*
X14898633Y-11501855D02*
X14889110Y-11482808D01*
X14889110Y-11482808D02*
X14870062Y-11454236D01*
X14870062Y-11454236D02*
X14860538Y-11444712D01*
M02*
