G04 #@! TF.GenerationSoftware,KiCad,Pcbnew,8.0.8*
G04 #@! TF.CreationDate,2025-02-14T11:24:39-05:00*
G04 #@! TF.ProjectId,Apple2CardCR,4170706c-6532-4436-9172-6443522e6b69,CR1.0A*
G04 #@! TF.SameCoordinates,Original*
G04 #@! TF.FileFunction,Legend,Top*
G04 #@! TF.FilePolarity,Positive*
%FSLAX46Y46*%
G04 Gerber Fmt 4.6, Leading zero omitted, Abs format (unit mm)*
G04 Created by KiCad (PCBNEW 8.0.8) date 2025-02-14 11:24:39*
%MOMM*%
%LPD*%
G01*
G04 APERTURE LIST*
G04 Aperture macros list*
%AMRoundRect*
0 Rectangle with rounded corners*
0 $1 Rounding radius*
0 $2 $3 $4 $5 $6 $7 $8 $9 X,Y pos of 4 corners*
0 Add a 4 corners polygon primitive as box body*
4,1,4,$2,$3,$4,$5,$6,$7,$8,$9,$2,$3,0*
0 Add four circle primitives for the rounded corners*
1,1,$1+$1,$2,$3*
1,1,$1+$1,$4,$5*
1,1,$1+$1,$6,$7*
1,1,$1+$1,$8,$9*
0 Add four rect primitives between the rounded corners*
20,1,$1+$1,$2,$3,$4,$5,0*
20,1,$1+$1,$4,$5,$6,$7,0*
20,1,$1+$1,$6,$7,$8,$9,0*
20,1,$1+$1,$8,$9,$2,$3,0*%
G04 Aperture macros list end*
%ADD10C,0.100000*%
%ADD11C,0.300000*%
%ADD12C,0.200000*%
%ADD13C,0.150000*%
%ADD14C,0.250000*%
%ADD15C,0.120000*%
%ADD16C,1.000000*%
%ADD17RoundRect,0.140000X-0.170000X0.140000X-0.170000X-0.140000X0.170000X-0.140000X0.170000X0.140000X0*%
%ADD18RoundRect,0.135000X-0.185000X0.135000X-0.185000X-0.135000X0.185000X-0.135000X0.185000X0.135000X0*%
%ADD19RoundRect,0.135000X-0.135000X-0.185000X0.135000X-0.185000X0.135000X0.185000X-0.135000X0.185000X0*%
%ADD20RoundRect,0.112500X0.112500X-0.187500X0.112500X0.187500X-0.112500X0.187500X-0.112500X-0.187500X0*%
%ADD21RoundRect,0.243750X0.456250X-0.243750X0.456250X0.243750X-0.456250X0.243750X-0.456250X-0.243750X0*%
%ADD22RoundRect,0.112500X-0.187500X-0.112500X0.187500X-0.112500X0.187500X0.112500X-0.187500X0.112500X0*%
%ADD23RoundRect,0.140000X0.170000X-0.140000X0.170000X0.140000X-0.170000X0.140000X-0.170000X-0.140000X0*%
%ADD24R,1.400000X1.600000*%
%ADD25R,2.200000X1.200000*%
%ADD26R,1.600000X0.700000*%
%ADD27R,1.400000X1.200000*%
%ADD28RoundRect,0.140000X0.140000X0.170000X-0.140000X0.170000X-0.140000X-0.170000X0.140000X-0.170000X0*%
%ADD29R,1.900000X8.530000*%
%ADD30R,1.270000X8.530000*%
%ADD31R,1.910000X8.530000*%
%ADD32RoundRect,0.112500X0.187500X0.112500X-0.187500X0.112500X-0.187500X-0.112500X0.187500X-0.112500X0*%
%ADD33R,0.550000X1.600000*%
%ADD34R,1.600000X0.550000*%
%ADD35R,1.700000X1.700000*%
%ADD36O,1.700000X1.700000*%
%ADD37R,2.000000X2.400000*%
%ADD38RoundRect,0.150000X0.150000X-0.825000X0.150000X0.825000X-0.150000X0.825000X-0.150000X-0.825000X0*%
%ADD39R,1.600000X1.600000*%
%ADD40O,1.600000X1.600000*%
%ADD41RoundRect,0.135000X0.185000X-0.135000X0.185000X0.135000X-0.185000X0.135000X-0.185000X-0.135000X0*%
%ADD42RoundRect,0.135000X0.135000X0.185000X-0.135000X0.185000X-0.135000X-0.185000X0.135000X-0.185000X0*%
%ADD43C,1.600000*%
G04 APERTURE END LIST*
D10*
X120872857Y-45894895D02*
X120872857Y-45094895D01*
X120872857Y-45094895D02*
X121139523Y-45666323D01*
X121139523Y-45666323D02*
X121406190Y-45094895D01*
X121406190Y-45094895D02*
X121406190Y-45894895D01*
X121787143Y-45894895D02*
X121787143Y-45094895D01*
X122129999Y-45856800D02*
X122244285Y-45894895D01*
X122244285Y-45894895D02*
X122434761Y-45894895D01*
X122434761Y-45894895D02*
X122510952Y-45856800D01*
X122510952Y-45856800D02*
X122549047Y-45818704D01*
X122549047Y-45818704D02*
X122587142Y-45742514D01*
X122587142Y-45742514D02*
X122587142Y-45666323D01*
X122587142Y-45666323D02*
X122549047Y-45590133D01*
X122549047Y-45590133D02*
X122510952Y-45552038D01*
X122510952Y-45552038D02*
X122434761Y-45513942D01*
X122434761Y-45513942D02*
X122282380Y-45475847D01*
X122282380Y-45475847D02*
X122206190Y-45437752D01*
X122206190Y-45437752D02*
X122168095Y-45399657D01*
X122168095Y-45399657D02*
X122129999Y-45323466D01*
X122129999Y-45323466D02*
X122129999Y-45247276D01*
X122129999Y-45247276D02*
X122168095Y-45171085D01*
X122168095Y-45171085D02*
X122206190Y-45132990D01*
X122206190Y-45132990D02*
X122282380Y-45094895D01*
X122282380Y-45094895D02*
X122472857Y-45094895D01*
X122472857Y-45094895D02*
X122587142Y-45132990D01*
X123082381Y-45094895D02*
X123234762Y-45094895D01*
X123234762Y-45094895D02*
X123310952Y-45132990D01*
X123310952Y-45132990D02*
X123387143Y-45209180D01*
X123387143Y-45209180D02*
X123425238Y-45361561D01*
X123425238Y-45361561D02*
X123425238Y-45628228D01*
X123425238Y-45628228D02*
X123387143Y-45780609D01*
X123387143Y-45780609D02*
X123310952Y-45856800D01*
X123310952Y-45856800D02*
X123234762Y-45894895D01*
X123234762Y-45894895D02*
X123082381Y-45894895D01*
X123082381Y-45894895D02*
X123006190Y-45856800D01*
X123006190Y-45856800D02*
X122930000Y-45780609D01*
X122930000Y-45780609D02*
X122891904Y-45628228D01*
X122891904Y-45628228D02*
X122891904Y-45361561D01*
X122891904Y-45361561D02*
X122930000Y-45209180D01*
X122930000Y-45209180D02*
X123006190Y-45132990D01*
X123006190Y-45132990D02*
X123082381Y-45094895D01*
D11*
X105757143Y-33219400D02*
X105971429Y-33290828D01*
X105971429Y-33290828D02*
X106328571Y-33290828D01*
X106328571Y-33290828D02*
X106471429Y-33219400D01*
X106471429Y-33219400D02*
X106542857Y-33147971D01*
X106542857Y-33147971D02*
X106614286Y-33005114D01*
X106614286Y-33005114D02*
X106614286Y-32862257D01*
X106614286Y-32862257D02*
X106542857Y-32719400D01*
X106542857Y-32719400D02*
X106471429Y-32647971D01*
X106471429Y-32647971D02*
X106328571Y-32576542D01*
X106328571Y-32576542D02*
X106042857Y-32505114D01*
X106042857Y-32505114D02*
X105900000Y-32433685D01*
X105900000Y-32433685D02*
X105828571Y-32362257D01*
X105828571Y-32362257D02*
X105757143Y-32219400D01*
X105757143Y-32219400D02*
X105757143Y-32076542D01*
X105757143Y-32076542D02*
X105828571Y-31933685D01*
X105828571Y-31933685D02*
X105900000Y-31862257D01*
X105900000Y-31862257D02*
X106042857Y-31790828D01*
X106042857Y-31790828D02*
X106400000Y-31790828D01*
X106400000Y-31790828D02*
X106614286Y-31862257D01*
X107257142Y-33290828D02*
X107257142Y-31790828D01*
X107257142Y-31790828D02*
X107614285Y-31790828D01*
X107614285Y-31790828D02*
X107828571Y-31862257D01*
X107828571Y-31862257D02*
X107971428Y-32005114D01*
X107971428Y-32005114D02*
X108042857Y-32147971D01*
X108042857Y-32147971D02*
X108114285Y-32433685D01*
X108114285Y-32433685D02*
X108114285Y-32647971D01*
X108114285Y-32647971D02*
X108042857Y-32933685D01*
X108042857Y-32933685D02*
X107971428Y-33076542D01*
X107971428Y-33076542D02*
X107828571Y-33219400D01*
X107828571Y-33219400D02*
X107614285Y-33290828D01*
X107614285Y-33290828D02*
X107257142Y-33290828D01*
X108685714Y-31933685D02*
X108757142Y-31862257D01*
X108757142Y-31862257D02*
X108900000Y-31790828D01*
X108900000Y-31790828D02*
X109257142Y-31790828D01*
X109257142Y-31790828D02*
X109400000Y-31862257D01*
X109400000Y-31862257D02*
X109471428Y-31933685D01*
X109471428Y-31933685D02*
X109542857Y-32076542D01*
X109542857Y-32076542D02*
X109542857Y-32219400D01*
X109542857Y-32219400D02*
X109471428Y-32433685D01*
X109471428Y-32433685D02*
X108614285Y-33290828D01*
X108614285Y-33290828D02*
X109542857Y-33290828D01*
D12*
X175685714Y-35046843D02*
X175285714Y-34475415D01*
X175000000Y-35046843D02*
X175000000Y-33846843D01*
X175000000Y-33846843D02*
X175457143Y-33846843D01*
X175457143Y-33846843D02*
X175571428Y-33903986D01*
X175571428Y-33903986D02*
X175628571Y-33961129D01*
X175628571Y-33961129D02*
X175685714Y-34075415D01*
X175685714Y-34075415D02*
X175685714Y-34246843D01*
X175685714Y-34246843D02*
X175628571Y-34361129D01*
X175628571Y-34361129D02*
X175571428Y-34418272D01*
X175571428Y-34418272D02*
X175457143Y-34475415D01*
X175457143Y-34475415D02*
X175000000Y-34475415D01*
X176657143Y-34989701D02*
X176542857Y-35046843D01*
X176542857Y-35046843D02*
X176314286Y-35046843D01*
X176314286Y-35046843D02*
X176200000Y-34989701D01*
X176200000Y-34989701D02*
X176142857Y-34875415D01*
X176142857Y-34875415D02*
X176142857Y-34418272D01*
X176142857Y-34418272D02*
X176200000Y-34303986D01*
X176200000Y-34303986D02*
X176314286Y-34246843D01*
X176314286Y-34246843D02*
X176542857Y-34246843D01*
X176542857Y-34246843D02*
X176657143Y-34303986D01*
X176657143Y-34303986D02*
X176714286Y-34418272D01*
X176714286Y-34418272D02*
X176714286Y-34532558D01*
X176714286Y-34532558D02*
X176142857Y-34646843D01*
X177228571Y-35046843D02*
X177228571Y-34246843D01*
X177228571Y-34361129D02*
X177285714Y-34303986D01*
X177285714Y-34303986D02*
X177399999Y-34246843D01*
X177399999Y-34246843D02*
X177571428Y-34246843D01*
X177571428Y-34246843D02*
X177685714Y-34303986D01*
X177685714Y-34303986D02*
X177742857Y-34418272D01*
X177742857Y-34418272D02*
X177742857Y-35046843D01*
X177742857Y-34418272D02*
X177799999Y-34303986D01*
X177799999Y-34303986D02*
X177914285Y-34246843D01*
X177914285Y-34246843D02*
X178085714Y-34246843D01*
X178085714Y-34246843D02*
X178199999Y-34303986D01*
X178199999Y-34303986D02*
X178257142Y-34418272D01*
X178257142Y-34418272D02*
X178257142Y-35046843D01*
X178828571Y-35046843D02*
X178828571Y-34246843D01*
X178828571Y-33846843D02*
X178771428Y-33903986D01*
X178771428Y-33903986D02*
X178828571Y-33961129D01*
X178828571Y-33961129D02*
X178885714Y-33903986D01*
X178885714Y-33903986D02*
X178828571Y-33846843D01*
X178828571Y-33846843D02*
X178828571Y-33961129D01*
X179285714Y-35046843D02*
X179914286Y-34246843D01*
X179285714Y-34246843D02*
X179914286Y-35046843D01*
X181685715Y-34418272D02*
X181857143Y-34475415D01*
X181857143Y-34475415D02*
X181914286Y-34532558D01*
X181914286Y-34532558D02*
X181971429Y-34646843D01*
X181971429Y-34646843D02*
X181971429Y-34818272D01*
X181971429Y-34818272D02*
X181914286Y-34932558D01*
X181914286Y-34932558D02*
X181857143Y-34989701D01*
X181857143Y-34989701D02*
X181742858Y-35046843D01*
X181742858Y-35046843D02*
X181285715Y-35046843D01*
X181285715Y-35046843D02*
X181285715Y-33846843D01*
X181285715Y-33846843D02*
X181685715Y-33846843D01*
X181685715Y-33846843D02*
X181800001Y-33903986D01*
X181800001Y-33903986D02*
X181857143Y-33961129D01*
X181857143Y-33961129D02*
X181914286Y-34075415D01*
X181914286Y-34075415D02*
X181914286Y-34189701D01*
X181914286Y-34189701D02*
X181857143Y-34303986D01*
X181857143Y-34303986D02*
X181800001Y-34361129D01*
X181800001Y-34361129D02*
X181685715Y-34418272D01*
X181685715Y-34418272D02*
X181285715Y-34418272D01*
X182371429Y-34246843D02*
X182657143Y-35046843D01*
X182942858Y-34246843D02*
X182657143Y-35046843D01*
X182657143Y-35046843D02*
X182542858Y-35332558D01*
X182542858Y-35332558D02*
X182485715Y-35389701D01*
X182485715Y-35389701D02*
X182371429Y-35446843D01*
X184828573Y-35046843D02*
X184828573Y-33846843D01*
X184828573Y-34989701D02*
X184714287Y-35046843D01*
X184714287Y-35046843D02*
X184485715Y-35046843D01*
X184485715Y-35046843D02*
X184371430Y-34989701D01*
X184371430Y-34989701D02*
X184314287Y-34932558D01*
X184314287Y-34932558D02*
X184257144Y-34818272D01*
X184257144Y-34818272D02*
X184257144Y-34475415D01*
X184257144Y-34475415D02*
X184314287Y-34361129D01*
X184314287Y-34361129D02*
X184371430Y-34303986D01*
X184371430Y-34303986D02*
X184485715Y-34246843D01*
X184485715Y-34246843D02*
X184714287Y-34246843D01*
X184714287Y-34246843D02*
X184828573Y-34303986D01*
X185914287Y-35046843D02*
X185914287Y-34418272D01*
X185914287Y-34418272D02*
X185857144Y-34303986D01*
X185857144Y-34303986D02*
X185742858Y-34246843D01*
X185742858Y-34246843D02*
X185514287Y-34246843D01*
X185514287Y-34246843D02*
X185400001Y-34303986D01*
X185914287Y-34989701D02*
X185800001Y-35046843D01*
X185800001Y-35046843D02*
X185514287Y-35046843D01*
X185514287Y-35046843D02*
X185400001Y-34989701D01*
X185400001Y-34989701D02*
X185342858Y-34875415D01*
X185342858Y-34875415D02*
X185342858Y-34761129D01*
X185342858Y-34761129D02*
X185400001Y-34646843D01*
X185400001Y-34646843D02*
X185514287Y-34589701D01*
X185514287Y-34589701D02*
X185800001Y-34589701D01*
X185800001Y-34589701D02*
X185914287Y-34532558D01*
X186485715Y-35046843D02*
X186485715Y-33846843D01*
X186485715Y-34303986D02*
X186600001Y-34246843D01*
X186600001Y-34246843D02*
X186828572Y-34246843D01*
X186828572Y-34246843D02*
X186942858Y-34303986D01*
X186942858Y-34303986D02*
X187000001Y-34361129D01*
X187000001Y-34361129D02*
X187057143Y-34475415D01*
X187057143Y-34475415D02*
X187057143Y-34818272D01*
X187057143Y-34818272D02*
X187000001Y-34932558D01*
X187000001Y-34932558D02*
X186942858Y-34989701D01*
X186942858Y-34989701D02*
X186828572Y-35046843D01*
X186828572Y-35046843D02*
X186600001Y-35046843D01*
X186600001Y-35046843D02*
X186485715Y-34989701D01*
X187742857Y-35046843D02*
X187628572Y-34989701D01*
X187628572Y-34989701D02*
X187571429Y-34932558D01*
X187571429Y-34932558D02*
X187514286Y-34818272D01*
X187514286Y-34818272D02*
X187514286Y-34475415D01*
X187514286Y-34475415D02*
X187571429Y-34361129D01*
X187571429Y-34361129D02*
X187628572Y-34303986D01*
X187628572Y-34303986D02*
X187742857Y-34246843D01*
X187742857Y-34246843D02*
X187914286Y-34246843D01*
X187914286Y-34246843D02*
X188028572Y-34303986D01*
X188028572Y-34303986D02*
X188085715Y-34361129D01*
X188085715Y-34361129D02*
X188142857Y-34475415D01*
X188142857Y-34475415D02*
X188142857Y-34818272D01*
X188142857Y-34818272D02*
X188085715Y-34932558D01*
X188085715Y-34932558D02*
X188028572Y-34989701D01*
X188028572Y-34989701D02*
X187914286Y-35046843D01*
X187914286Y-35046843D02*
X187742857Y-35046843D01*
X188657143Y-34246843D02*
X188657143Y-35046843D01*
X188657143Y-34361129D02*
X188714286Y-34303986D01*
X188714286Y-34303986D02*
X188828571Y-34246843D01*
X188828571Y-34246843D02*
X189000000Y-34246843D01*
X189000000Y-34246843D02*
X189114286Y-34303986D01*
X189114286Y-34303986D02*
X189171429Y-34418272D01*
X189171429Y-34418272D02*
X189171429Y-35046843D01*
X190200000Y-34989701D02*
X190085714Y-35046843D01*
X190085714Y-35046843D02*
X189857143Y-35046843D01*
X189857143Y-35046843D02*
X189742857Y-34989701D01*
X189742857Y-34989701D02*
X189685714Y-34875415D01*
X189685714Y-34875415D02*
X189685714Y-34418272D01*
X189685714Y-34418272D02*
X189742857Y-34303986D01*
X189742857Y-34303986D02*
X189857143Y-34246843D01*
X189857143Y-34246843D02*
X190085714Y-34246843D01*
X190085714Y-34246843D02*
X190200000Y-34303986D01*
X190200000Y-34303986D02*
X190257143Y-34418272D01*
X190257143Y-34418272D02*
X190257143Y-34532558D01*
X190257143Y-34532558D02*
X189685714Y-34646843D01*
X177685714Y-35778776D02*
X178085714Y-36978776D01*
X178085714Y-36978776D02*
X178485714Y-35778776D01*
X179342857Y-36921634D02*
X179228571Y-36978776D01*
X179228571Y-36978776D02*
X179000000Y-36978776D01*
X179000000Y-36978776D02*
X178885714Y-36921634D01*
X178885714Y-36921634D02*
X178828571Y-36807348D01*
X178828571Y-36807348D02*
X178828571Y-36350205D01*
X178828571Y-36350205D02*
X178885714Y-36235919D01*
X178885714Y-36235919D02*
X179000000Y-36178776D01*
X179000000Y-36178776D02*
X179228571Y-36178776D01*
X179228571Y-36178776D02*
X179342857Y-36235919D01*
X179342857Y-36235919D02*
X179400000Y-36350205D01*
X179400000Y-36350205D02*
X179400000Y-36464491D01*
X179400000Y-36464491D02*
X178828571Y-36578776D01*
X179914285Y-36978776D02*
X179914285Y-36178776D01*
X179914285Y-36407348D02*
X179971428Y-36293062D01*
X179971428Y-36293062D02*
X180028571Y-36235919D01*
X180028571Y-36235919D02*
X180142856Y-36178776D01*
X180142856Y-36178776D02*
X180257142Y-36178776D01*
X182199999Y-36978776D02*
X181514285Y-36978776D01*
X181857142Y-36978776D02*
X181857142Y-35778776D01*
X181857142Y-35778776D02*
X181742856Y-35950205D01*
X181742856Y-35950205D02*
X181628571Y-36064491D01*
X181628571Y-36064491D02*
X181514285Y-36121634D01*
X182714285Y-36864491D02*
X182771428Y-36921634D01*
X182771428Y-36921634D02*
X182714285Y-36978776D01*
X182714285Y-36978776D02*
X182657142Y-36921634D01*
X182657142Y-36921634D02*
X182714285Y-36864491D01*
X182714285Y-36864491D02*
X182714285Y-36978776D01*
X183514285Y-35778776D02*
X183628571Y-35778776D01*
X183628571Y-35778776D02*
X183742857Y-35835919D01*
X183742857Y-35835919D02*
X183800000Y-35893062D01*
X183800000Y-35893062D02*
X183857142Y-36007348D01*
X183857142Y-36007348D02*
X183914285Y-36235919D01*
X183914285Y-36235919D02*
X183914285Y-36521634D01*
X183914285Y-36521634D02*
X183857142Y-36750205D01*
X183857142Y-36750205D02*
X183800000Y-36864491D01*
X183800000Y-36864491D02*
X183742857Y-36921634D01*
X183742857Y-36921634D02*
X183628571Y-36978776D01*
X183628571Y-36978776D02*
X183514285Y-36978776D01*
X183514285Y-36978776D02*
X183400000Y-36921634D01*
X183400000Y-36921634D02*
X183342857Y-36864491D01*
X183342857Y-36864491D02*
X183285714Y-36750205D01*
X183285714Y-36750205D02*
X183228571Y-36521634D01*
X183228571Y-36521634D02*
X183228571Y-36235919D01*
X183228571Y-36235919D02*
X183285714Y-36007348D01*
X183285714Y-36007348D02*
X183342857Y-35893062D01*
X183342857Y-35893062D02*
X183400000Y-35835919D01*
X183400000Y-35835919D02*
X183514285Y-35778776D01*
X184942857Y-36978776D02*
X184942857Y-36350205D01*
X184942857Y-36350205D02*
X184885714Y-36235919D01*
X184885714Y-36235919D02*
X184771428Y-36178776D01*
X184771428Y-36178776D02*
X184542857Y-36178776D01*
X184542857Y-36178776D02*
X184428571Y-36235919D01*
X184942857Y-36921634D02*
X184828571Y-36978776D01*
X184828571Y-36978776D02*
X184542857Y-36978776D01*
X184542857Y-36978776D02*
X184428571Y-36921634D01*
X184428571Y-36921634D02*
X184371428Y-36807348D01*
X184371428Y-36807348D02*
X184371428Y-36693062D01*
X184371428Y-36693062D02*
X184428571Y-36578776D01*
X184428571Y-36578776D02*
X184542857Y-36521634D01*
X184542857Y-36521634D02*
X184828571Y-36521634D01*
X184828571Y-36521634D02*
X184942857Y-36464491D01*
X186199999Y-36864491D02*
X186142856Y-36921634D01*
X186142856Y-36921634D02*
X185971428Y-36978776D01*
X185971428Y-36978776D02*
X185857142Y-36978776D01*
X185857142Y-36978776D02*
X185685713Y-36921634D01*
X185685713Y-36921634D02*
X185571428Y-36807348D01*
X185571428Y-36807348D02*
X185514285Y-36693062D01*
X185514285Y-36693062D02*
X185457142Y-36464491D01*
X185457142Y-36464491D02*
X185457142Y-36293062D01*
X185457142Y-36293062D02*
X185514285Y-36064491D01*
X185514285Y-36064491D02*
X185571428Y-35950205D01*
X185571428Y-35950205D02*
X185685713Y-35835919D01*
X185685713Y-35835919D02*
X185857142Y-35778776D01*
X185857142Y-35778776D02*
X185971428Y-35778776D01*
X185971428Y-35778776D02*
X186142856Y-35835919D01*
X186142856Y-35835919D02*
X186199999Y-35893062D01*
X187399999Y-36978776D02*
X186999999Y-36407348D01*
X186714285Y-36978776D02*
X186714285Y-35778776D01*
X186714285Y-35778776D02*
X187171428Y-35778776D01*
X187171428Y-35778776D02*
X187285713Y-35835919D01*
X187285713Y-35835919D02*
X187342856Y-35893062D01*
X187342856Y-35893062D02*
X187399999Y-36007348D01*
X187399999Y-36007348D02*
X187399999Y-36178776D01*
X187399999Y-36178776D02*
X187342856Y-36293062D01*
X187342856Y-36293062D02*
X187285713Y-36350205D01*
X187285713Y-36350205D02*
X187171428Y-36407348D01*
X187171428Y-36407348D02*
X186714285Y-36407348D01*
X176800000Y-40728357D02*
X176742857Y-40785500D01*
X176742857Y-40785500D02*
X176571429Y-40842642D01*
X176571429Y-40842642D02*
X176457143Y-40842642D01*
X176457143Y-40842642D02*
X176285714Y-40785500D01*
X176285714Y-40785500D02*
X176171429Y-40671214D01*
X176171429Y-40671214D02*
X176114286Y-40556928D01*
X176114286Y-40556928D02*
X176057143Y-40328357D01*
X176057143Y-40328357D02*
X176057143Y-40156928D01*
X176057143Y-40156928D02*
X176114286Y-39928357D01*
X176114286Y-39928357D02*
X176171429Y-39814071D01*
X176171429Y-39814071D02*
X176285714Y-39699785D01*
X176285714Y-39699785D02*
X176457143Y-39642642D01*
X176457143Y-39642642D02*
X176571429Y-39642642D01*
X176571429Y-39642642D02*
X176742857Y-39699785D01*
X176742857Y-39699785D02*
X176800000Y-39756928D01*
X178000000Y-40728357D02*
X177942857Y-40785500D01*
X177942857Y-40785500D02*
X177771429Y-40842642D01*
X177771429Y-40842642D02*
X177657143Y-40842642D01*
X177657143Y-40842642D02*
X177485714Y-40785500D01*
X177485714Y-40785500D02*
X177371429Y-40671214D01*
X177371429Y-40671214D02*
X177314286Y-40556928D01*
X177314286Y-40556928D02*
X177257143Y-40328357D01*
X177257143Y-40328357D02*
X177257143Y-40156928D01*
X177257143Y-40156928D02*
X177314286Y-39928357D01*
X177314286Y-39928357D02*
X177371429Y-39814071D01*
X177371429Y-39814071D02*
X177485714Y-39699785D01*
X177485714Y-39699785D02*
X177657143Y-39642642D01*
X177657143Y-39642642D02*
X177771429Y-39642642D01*
X177771429Y-39642642D02*
X177942857Y-39699785D01*
X177942857Y-39699785D02*
X178000000Y-39756928D01*
X178514286Y-40385500D02*
X179428572Y-40385500D01*
X180400000Y-40214071D02*
X180571428Y-40271214D01*
X180571428Y-40271214D02*
X180628571Y-40328357D01*
X180628571Y-40328357D02*
X180685714Y-40442642D01*
X180685714Y-40442642D02*
X180685714Y-40614071D01*
X180685714Y-40614071D02*
X180628571Y-40728357D01*
X180628571Y-40728357D02*
X180571428Y-40785500D01*
X180571428Y-40785500D02*
X180457143Y-40842642D01*
X180457143Y-40842642D02*
X180000000Y-40842642D01*
X180000000Y-40842642D02*
X180000000Y-39642642D01*
X180000000Y-39642642D02*
X180400000Y-39642642D01*
X180400000Y-39642642D02*
X180514286Y-39699785D01*
X180514286Y-39699785D02*
X180571428Y-39756928D01*
X180571428Y-39756928D02*
X180628571Y-39871214D01*
X180628571Y-39871214D02*
X180628571Y-39985500D01*
X180628571Y-39985500D02*
X180571428Y-40099785D01*
X180571428Y-40099785D02*
X180514286Y-40156928D01*
X180514286Y-40156928D02*
X180400000Y-40214071D01*
X180400000Y-40214071D02*
X180000000Y-40214071D01*
X181428571Y-40271214D02*
X181428571Y-40842642D01*
X181028571Y-39642642D02*
X181428571Y-40271214D01*
X181428571Y-40271214D02*
X181828571Y-39642642D01*
X182228571Y-40385500D02*
X183142857Y-40385500D01*
X183657142Y-40785500D02*
X183828571Y-40842642D01*
X183828571Y-40842642D02*
X184114285Y-40842642D01*
X184114285Y-40842642D02*
X184228571Y-40785500D01*
X184228571Y-40785500D02*
X184285713Y-40728357D01*
X184285713Y-40728357D02*
X184342856Y-40614071D01*
X184342856Y-40614071D02*
X184342856Y-40499785D01*
X184342856Y-40499785D02*
X184285713Y-40385500D01*
X184285713Y-40385500D02*
X184228571Y-40328357D01*
X184228571Y-40328357D02*
X184114285Y-40271214D01*
X184114285Y-40271214D02*
X183885713Y-40214071D01*
X183885713Y-40214071D02*
X183771428Y-40156928D01*
X183771428Y-40156928D02*
X183714285Y-40099785D01*
X183714285Y-40099785D02*
X183657142Y-39985500D01*
X183657142Y-39985500D02*
X183657142Y-39871214D01*
X183657142Y-39871214D02*
X183714285Y-39756928D01*
X183714285Y-39756928D02*
X183771428Y-39699785D01*
X183771428Y-39699785D02*
X183885713Y-39642642D01*
X183885713Y-39642642D02*
X184171428Y-39642642D01*
X184171428Y-39642642D02*
X184342856Y-39699785D01*
X184799999Y-40499785D02*
X185371428Y-40499785D01*
X184685713Y-40842642D02*
X185085713Y-39642642D01*
X185085713Y-39642642D02*
X185485713Y-40842642D01*
X187314285Y-40042642D02*
X187314285Y-40842642D01*
X187028570Y-39585500D02*
X186742856Y-40442642D01*
X186742856Y-40442642D02*
X187485713Y-40442642D01*
X187942856Y-40728357D02*
X187999999Y-40785500D01*
X187999999Y-40785500D02*
X187942856Y-40842642D01*
X187942856Y-40842642D02*
X187885713Y-40785500D01*
X187885713Y-40785500D02*
X187942856Y-40728357D01*
X187942856Y-40728357D02*
X187942856Y-40842642D01*
X188742856Y-39642642D02*
X188857142Y-39642642D01*
X188857142Y-39642642D02*
X188971428Y-39699785D01*
X188971428Y-39699785D02*
X189028571Y-39756928D01*
X189028571Y-39756928D02*
X189085713Y-39871214D01*
X189085713Y-39871214D02*
X189142856Y-40099785D01*
X189142856Y-40099785D02*
X189142856Y-40385500D01*
X189142856Y-40385500D02*
X189085713Y-40614071D01*
X189085713Y-40614071D02*
X189028571Y-40728357D01*
X189028571Y-40728357D02*
X188971428Y-40785500D01*
X188971428Y-40785500D02*
X188857142Y-40842642D01*
X188857142Y-40842642D02*
X188742856Y-40842642D01*
X188742856Y-40842642D02*
X188628571Y-40785500D01*
X188628571Y-40785500D02*
X188571428Y-40728357D01*
X188571428Y-40728357D02*
X188514285Y-40614071D01*
X188514285Y-40614071D02*
X188457142Y-40385500D01*
X188457142Y-40385500D02*
X188457142Y-40099785D01*
X188457142Y-40099785D02*
X188514285Y-39871214D01*
X188514285Y-39871214D02*
X188571428Y-39756928D01*
X188571428Y-39756928D02*
X188628571Y-39699785D01*
X188628571Y-39699785D02*
X188742856Y-39642642D01*
D13*
X167285714Y-52525197D02*
X167333333Y-52477578D01*
X167333333Y-52477578D02*
X167428571Y-52429959D01*
X167428571Y-52429959D02*
X167666666Y-52429959D01*
X167666666Y-52429959D02*
X167761904Y-52477578D01*
X167761904Y-52477578D02*
X167809523Y-52525197D01*
X167809523Y-52525197D02*
X167857142Y-52620435D01*
X167857142Y-52620435D02*
X167857142Y-52715673D01*
X167857142Y-52715673D02*
X167809523Y-52858530D01*
X167809523Y-52858530D02*
X167238095Y-53429959D01*
X167238095Y-53429959D02*
X167857142Y-53429959D01*
X168190476Y-52429959D02*
X168857142Y-52429959D01*
X168857142Y-52429959D02*
X168428571Y-53429959D01*
X169809523Y-53334720D02*
X169761904Y-53382340D01*
X169761904Y-53382340D02*
X169619047Y-53429959D01*
X169619047Y-53429959D02*
X169523809Y-53429959D01*
X169523809Y-53429959D02*
X169380952Y-53382340D01*
X169380952Y-53382340D02*
X169285714Y-53287101D01*
X169285714Y-53287101D02*
X169238095Y-53191863D01*
X169238095Y-53191863D02*
X169190476Y-53001387D01*
X169190476Y-53001387D02*
X169190476Y-52858530D01*
X169190476Y-52858530D02*
X169238095Y-52668054D01*
X169238095Y-52668054D02*
X169285714Y-52572816D01*
X169285714Y-52572816D02*
X169380952Y-52477578D01*
X169380952Y-52477578D02*
X169523809Y-52429959D01*
X169523809Y-52429959D02*
X169619047Y-52429959D01*
X169619047Y-52429959D02*
X169761904Y-52477578D01*
X169761904Y-52477578D02*
X169809523Y-52525197D01*
X170666666Y-52429959D02*
X170476190Y-52429959D01*
X170476190Y-52429959D02*
X170380952Y-52477578D01*
X170380952Y-52477578D02*
X170333333Y-52525197D01*
X170333333Y-52525197D02*
X170238095Y-52668054D01*
X170238095Y-52668054D02*
X170190476Y-52858530D01*
X170190476Y-52858530D02*
X170190476Y-53239482D01*
X170190476Y-53239482D02*
X170238095Y-53334720D01*
X170238095Y-53334720D02*
X170285714Y-53382340D01*
X170285714Y-53382340D02*
X170380952Y-53429959D01*
X170380952Y-53429959D02*
X170571428Y-53429959D01*
X170571428Y-53429959D02*
X170666666Y-53382340D01*
X170666666Y-53382340D02*
X170714285Y-53334720D01*
X170714285Y-53334720D02*
X170761904Y-53239482D01*
X170761904Y-53239482D02*
X170761904Y-53001387D01*
X170761904Y-53001387D02*
X170714285Y-52906149D01*
X170714285Y-52906149D02*
X170666666Y-52858530D01*
X170666666Y-52858530D02*
X170571428Y-52810911D01*
X170571428Y-52810911D02*
X170380952Y-52810911D01*
X170380952Y-52810911D02*
X170285714Y-52858530D01*
X170285714Y-52858530D02*
X170238095Y-52906149D01*
X170238095Y-52906149D02*
X170190476Y-53001387D01*
X171619047Y-52763292D02*
X171619047Y-53429959D01*
X171380952Y-52382340D02*
X171142857Y-53096625D01*
X171142857Y-53096625D02*
X171761904Y-53096625D01*
X166809524Y-54135141D02*
X166857143Y-54087522D01*
X166857143Y-54087522D02*
X166952381Y-54039903D01*
X166952381Y-54039903D02*
X167190476Y-54039903D01*
X167190476Y-54039903D02*
X167285714Y-54087522D01*
X167285714Y-54087522D02*
X167333333Y-54135141D01*
X167333333Y-54135141D02*
X167380952Y-54230379D01*
X167380952Y-54230379D02*
X167380952Y-54325617D01*
X167380952Y-54325617D02*
X167333333Y-54468474D01*
X167333333Y-54468474D02*
X166761905Y-55039903D01*
X166761905Y-55039903D02*
X167380952Y-55039903D01*
X167714286Y-54039903D02*
X168380952Y-54039903D01*
X168380952Y-54039903D02*
X167952381Y-55039903D01*
X169333333Y-54944664D02*
X169285714Y-54992284D01*
X169285714Y-54992284D02*
X169142857Y-55039903D01*
X169142857Y-55039903D02*
X169047619Y-55039903D01*
X169047619Y-55039903D02*
X168904762Y-54992284D01*
X168904762Y-54992284D02*
X168809524Y-54897045D01*
X168809524Y-54897045D02*
X168761905Y-54801807D01*
X168761905Y-54801807D02*
X168714286Y-54611331D01*
X168714286Y-54611331D02*
X168714286Y-54468474D01*
X168714286Y-54468474D02*
X168761905Y-54277998D01*
X168761905Y-54277998D02*
X168809524Y-54182760D01*
X168809524Y-54182760D02*
X168904762Y-54087522D01*
X168904762Y-54087522D02*
X169047619Y-54039903D01*
X169047619Y-54039903D02*
X169142857Y-54039903D01*
X169142857Y-54039903D02*
X169285714Y-54087522D01*
X169285714Y-54087522D02*
X169333333Y-54135141D01*
X170285714Y-55039903D02*
X169714286Y-55039903D01*
X170000000Y-55039903D02*
X170000000Y-54039903D01*
X170000000Y-54039903D02*
X169904762Y-54182760D01*
X169904762Y-54182760D02*
X169809524Y-54277998D01*
X169809524Y-54277998D02*
X169714286Y-54325617D01*
X170666667Y-54135141D02*
X170714286Y-54087522D01*
X170714286Y-54087522D02*
X170809524Y-54039903D01*
X170809524Y-54039903D02*
X171047619Y-54039903D01*
X171047619Y-54039903D02*
X171142857Y-54087522D01*
X171142857Y-54087522D02*
X171190476Y-54135141D01*
X171190476Y-54135141D02*
X171238095Y-54230379D01*
X171238095Y-54230379D02*
X171238095Y-54325617D01*
X171238095Y-54325617D02*
X171190476Y-54468474D01*
X171190476Y-54468474D02*
X170619048Y-55039903D01*
X170619048Y-55039903D02*
X171238095Y-55039903D01*
X171809524Y-54468474D02*
X171714286Y-54420855D01*
X171714286Y-54420855D02*
X171666667Y-54373236D01*
X171666667Y-54373236D02*
X171619048Y-54277998D01*
X171619048Y-54277998D02*
X171619048Y-54230379D01*
X171619048Y-54230379D02*
X171666667Y-54135141D01*
X171666667Y-54135141D02*
X171714286Y-54087522D01*
X171714286Y-54087522D02*
X171809524Y-54039903D01*
X171809524Y-54039903D02*
X172000000Y-54039903D01*
X172000000Y-54039903D02*
X172095238Y-54087522D01*
X172095238Y-54087522D02*
X172142857Y-54135141D01*
X172142857Y-54135141D02*
X172190476Y-54230379D01*
X172190476Y-54230379D02*
X172190476Y-54277998D01*
X172190476Y-54277998D02*
X172142857Y-54373236D01*
X172142857Y-54373236D02*
X172095238Y-54420855D01*
X172095238Y-54420855D02*
X172000000Y-54468474D01*
X172000000Y-54468474D02*
X171809524Y-54468474D01*
X171809524Y-54468474D02*
X171714286Y-54516093D01*
X171714286Y-54516093D02*
X171666667Y-54563712D01*
X171666667Y-54563712D02*
X171619048Y-54658950D01*
X171619048Y-54658950D02*
X171619048Y-54849426D01*
X171619048Y-54849426D02*
X171666667Y-54944664D01*
X171666667Y-54944664D02*
X171714286Y-54992284D01*
X171714286Y-54992284D02*
X171809524Y-55039903D01*
X171809524Y-55039903D02*
X172000000Y-55039903D01*
X172000000Y-55039903D02*
X172095238Y-54992284D01*
X172095238Y-54992284D02*
X172142857Y-54944664D01*
X172142857Y-54944664D02*
X172190476Y-54849426D01*
X172190476Y-54849426D02*
X172190476Y-54658950D01*
X172190476Y-54658950D02*
X172142857Y-54563712D01*
X172142857Y-54563712D02*
X172095238Y-54516093D01*
X172095238Y-54516093D02*
X172000000Y-54468474D01*
X166809524Y-55745085D02*
X166857143Y-55697466D01*
X166857143Y-55697466D02*
X166952381Y-55649847D01*
X166952381Y-55649847D02*
X167190476Y-55649847D01*
X167190476Y-55649847D02*
X167285714Y-55697466D01*
X167285714Y-55697466D02*
X167333333Y-55745085D01*
X167333333Y-55745085D02*
X167380952Y-55840323D01*
X167380952Y-55840323D02*
X167380952Y-55935561D01*
X167380952Y-55935561D02*
X167333333Y-56078418D01*
X167333333Y-56078418D02*
X166761905Y-56649847D01*
X166761905Y-56649847D02*
X167380952Y-56649847D01*
X167714286Y-55649847D02*
X168380952Y-55649847D01*
X168380952Y-55649847D02*
X167952381Y-56649847D01*
X169333333Y-56554608D02*
X169285714Y-56602228D01*
X169285714Y-56602228D02*
X169142857Y-56649847D01*
X169142857Y-56649847D02*
X169047619Y-56649847D01*
X169047619Y-56649847D02*
X168904762Y-56602228D01*
X168904762Y-56602228D02*
X168809524Y-56506989D01*
X168809524Y-56506989D02*
X168761905Y-56411751D01*
X168761905Y-56411751D02*
X168714286Y-56221275D01*
X168714286Y-56221275D02*
X168714286Y-56078418D01*
X168714286Y-56078418D02*
X168761905Y-55887942D01*
X168761905Y-55887942D02*
X168809524Y-55792704D01*
X168809524Y-55792704D02*
X168904762Y-55697466D01*
X168904762Y-55697466D02*
X169047619Y-55649847D01*
X169047619Y-55649847D02*
X169142857Y-55649847D01*
X169142857Y-55649847D02*
X169285714Y-55697466D01*
X169285714Y-55697466D02*
X169333333Y-55745085D01*
X169714286Y-55745085D02*
X169761905Y-55697466D01*
X169761905Y-55697466D02*
X169857143Y-55649847D01*
X169857143Y-55649847D02*
X170095238Y-55649847D01*
X170095238Y-55649847D02*
X170190476Y-55697466D01*
X170190476Y-55697466D02*
X170238095Y-55745085D01*
X170238095Y-55745085D02*
X170285714Y-55840323D01*
X170285714Y-55840323D02*
X170285714Y-55935561D01*
X170285714Y-55935561D02*
X170238095Y-56078418D01*
X170238095Y-56078418D02*
X169666667Y-56649847D01*
X169666667Y-56649847D02*
X170285714Y-56649847D01*
X171190476Y-55649847D02*
X170714286Y-55649847D01*
X170714286Y-55649847D02*
X170666667Y-56126037D01*
X170666667Y-56126037D02*
X170714286Y-56078418D01*
X170714286Y-56078418D02*
X170809524Y-56030799D01*
X170809524Y-56030799D02*
X171047619Y-56030799D01*
X171047619Y-56030799D02*
X171142857Y-56078418D01*
X171142857Y-56078418D02*
X171190476Y-56126037D01*
X171190476Y-56126037D02*
X171238095Y-56221275D01*
X171238095Y-56221275D02*
X171238095Y-56459370D01*
X171238095Y-56459370D02*
X171190476Y-56554608D01*
X171190476Y-56554608D02*
X171142857Y-56602228D01*
X171142857Y-56602228D02*
X171047619Y-56649847D01*
X171047619Y-56649847D02*
X170809524Y-56649847D01*
X170809524Y-56649847D02*
X170714286Y-56602228D01*
X170714286Y-56602228D02*
X170666667Y-56554608D01*
X172095238Y-55649847D02*
X171904762Y-55649847D01*
X171904762Y-55649847D02*
X171809524Y-55697466D01*
X171809524Y-55697466D02*
X171761905Y-55745085D01*
X171761905Y-55745085D02*
X171666667Y-55887942D01*
X171666667Y-55887942D02*
X171619048Y-56078418D01*
X171619048Y-56078418D02*
X171619048Y-56459370D01*
X171619048Y-56459370D02*
X171666667Y-56554608D01*
X171666667Y-56554608D02*
X171714286Y-56602228D01*
X171714286Y-56602228D02*
X171809524Y-56649847D01*
X171809524Y-56649847D02*
X172000000Y-56649847D01*
X172000000Y-56649847D02*
X172095238Y-56602228D01*
X172095238Y-56602228D02*
X172142857Y-56554608D01*
X172142857Y-56554608D02*
X172190476Y-56459370D01*
X172190476Y-56459370D02*
X172190476Y-56221275D01*
X172190476Y-56221275D02*
X172142857Y-56126037D01*
X172142857Y-56126037D02*
X172095238Y-56078418D01*
X172095238Y-56078418D02*
X172000000Y-56030799D01*
X172000000Y-56030799D02*
X171809524Y-56030799D01*
X171809524Y-56030799D02*
X171714286Y-56078418D01*
X171714286Y-56078418D02*
X171666667Y-56126037D01*
X171666667Y-56126037D02*
X171619048Y-56221275D01*
X166809524Y-57355029D02*
X166857143Y-57307410D01*
X166857143Y-57307410D02*
X166952381Y-57259791D01*
X166952381Y-57259791D02*
X167190476Y-57259791D01*
X167190476Y-57259791D02*
X167285714Y-57307410D01*
X167285714Y-57307410D02*
X167333333Y-57355029D01*
X167333333Y-57355029D02*
X167380952Y-57450267D01*
X167380952Y-57450267D02*
X167380952Y-57545505D01*
X167380952Y-57545505D02*
X167333333Y-57688362D01*
X167333333Y-57688362D02*
X166761905Y-58259791D01*
X166761905Y-58259791D02*
X167380952Y-58259791D01*
X167952381Y-57688362D02*
X167857143Y-57640743D01*
X167857143Y-57640743D02*
X167809524Y-57593124D01*
X167809524Y-57593124D02*
X167761905Y-57497886D01*
X167761905Y-57497886D02*
X167761905Y-57450267D01*
X167761905Y-57450267D02*
X167809524Y-57355029D01*
X167809524Y-57355029D02*
X167857143Y-57307410D01*
X167857143Y-57307410D02*
X167952381Y-57259791D01*
X167952381Y-57259791D02*
X168142857Y-57259791D01*
X168142857Y-57259791D02*
X168238095Y-57307410D01*
X168238095Y-57307410D02*
X168285714Y-57355029D01*
X168285714Y-57355029D02*
X168333333Y-57450267D01*
X168333333Y-57450267D02*
X168333333Y-57497886D01*
X168333333Y-57497886D02*
X168285714Y-57593124D01*
X168285714Y-57593124D02*
X168238095Y-57640743D01*
X168238095Y-57640743D02*
X168142857Y-57688362D01*
X168142857Y-57688362D02*
X167952381Y-57688362D01*
X167952381Y-57688362D02*
X167857143Y-57735981D01*
X167857143Y-57735981D02*
X167809524Y-57783600D01*
X167809524Y-57783600D02*
X167761905Y-57878838D01*
X167761905Y-57878838D02*
X167761905Y-58069314D01*
X167761905Y-58069314D02*
X167809524Y-58164552D01*
X167809524Y-58164552D02*
X167857143Y-58212172D01*
X167857143Y-58212172D02*
X167952381Y-58259791D01*
X167952381Y-58259791D02*
X168142857Y-58259791D01*
X168142857Y-58259791D02*
X168238095Y-58212172D01*
X168238095Y-58212172D02*
X168285714Y-58164552D01*
X168285714Y-58164552D02*
X168333333Y-58069314D01*
X168333333Y-58069314D02*
X168333333Y-57878838D01*
X168333333Y-57878838D02*
X168285714Y-57783600D01*
X168285714Y-57783600D02*
X168238095Y-57735981D01*
X168238095Y-57735981D02*
X168142857Y-57688362D01*
X169333333Y-58164552D02*
X169285714Y-58212172D01*
X169285714Y-58212172D02*
X169142857Y-58259791D01*
X169142857Y-58259791D02*
X169047619Y-58259791D01*
X169047619Y-58259791D02*
X168904762Y-58212172D01*
X168904762Y-58212172D02*
X168809524Y-58116933D01*
X168809524Y-58116933D02*
X168761905Y-58021695D01*
X168761905Y-58021695D02*
X168714286Y-57831219D01*
X168714286Y-57831219D02*
X168714286Y-57688362D01*
X168714286Y-57688362D02*
X168761905Y-57497886D01*
X168761905Y-57497886D02*
X168809524Y-57402648D01*
X168809524Y-57402648D02*
X168904762Y-57307410D01*
X168904762Y-57307410D02*
X169047619Y-57259791D01*
X169047619Y-57259791D02*
X169142857Y-57259791D01*
X169142857Y-57259791D02*
X169285714Y-57307410D01*
X169285714Y-57307410D02*
X169333333Y-57355029D01*
X169714286Y-57355029D02*
X169761905Y-57307410D01*
X169761905Y-57307410D02*
X169857143Y-57259791D01*
X169857143Y-57259791D02*
X170095238Y-57259791D01*
X170095238Y-57259791D02*
X170190476Y-57307410D01*
X170190476Y-57307410D02*
X170238095Y-57355029D01*
X170238095Y-57355029D02*
X170285714Y-57450267D01*
X170285714Y-57450267D02*
X170285714Y-57545505D01*
X170285714Y-57545505D02*
X170238095Y-57688362D01*
X170238095Y-57688362D02*
X169666667Y-58259791D01*
X169666667Y-58259791D02*
X170285714Y-58259791D01*
X171190476Y-57259791D02*
X170714286Y-57259791D01*
X170714286Y-57259791D02*
X170666667Y-57735981D01*
X170666667Y-57735981D02*
X170714286Y-57688362D01*
X170714286Y-57688362D02*
X170809524Y-57640743D01*
X170809524Y-57640743D02*
X171047619Y-57640743D01*
X171047619Y-57640743D02*
X171142857Y-57688362D01*
X171142857Y-57688362D02*
X171190476Y-57735981D01*
X171190476Y-57735981D02*
X171238095Y-57831219D01*
X171238095Y-57831219D02*
X171238095Y-58069314D01*
X171238095Y-58069314D02*
X171190476Y-58164552D01*
X171190476Y-58164552D02*
X171142857Y-58212172D01*
X171142857Y-58212172D02*
X171047619Y-58259791D01*
X171047619Y-58259791D02*
X170809524Y-58259791D01*
X170809524Y-58259791D02*
X170714286Y-58212172D01*
X170714286Y-58212172D02*
X170666667Y-58164552D01*
X172095238Y-57259791D02*
X171904762Y-57259791D01*
X171904762Y-57259791D02*
X171809524Y-57307410D01*
X171809524Y-57307410D02*
X171761905Y-57355029D01*
X171761905Y-57355029D02*
X171666667Y-57497886D01*
X171666667Y-57497886D02*
X171619048Y-57688362D01*
X171619048Y-57688362D02*
X171619048Y-58069314D01*
X171619048Y-58069314D02*
X171666667Y-58164552D01*
X171666667Y-58164552D02*
X171714286Y-58212172D01*
X171714286Y-58212172D02*
X171809524Y-58259791D01*
X171809524Y-58259791D02*
X172000000Y-58259791D01*
X172000000Y-58259791D02*
X172095238Y-58212172D01*
X172095238Y-58212172D02*
X172142857Y-58164552D01*
X172142857Y-58164552D02*
X172190476Y-58069314D01*
X172190476Y-58069314D02*
X172190476Y-57831219D01*
X172190476Y-57831219D02*
X172142857Y-57735981D01*
X172142857Y-57735981D02*
X172095238Y-57688362D01*
X172095238Y-57688362D02*
X172000000Y-57640743D01*
X172000000Y-57640743D02*
X171809524Y-57640743D01*
X171809524Y-57640743D02*
X171714286Y-57688362D01*
X171714286Y-57688362D02*
X171666667Y-57735981D01*
X171666667Y-57735981D02*
X171619048Y-57831219D01*
X166809524Y-58964973D02*
X166857143Y-58917354D01*
X166857143Y-58917354D02*
X166952381Y-58869735D01*
X166952381Y-58869735D02*
X167190476Y-58869735D01*
X167190476Y-58869735D02*
X167285714Y-58917354D01*
X167285714Y-58917354D02*
X167333333Y-58964973D01*
X167333333Y-58964973D02*
X167380952Y-59060211D01*
X167380952Y-59060211D02*
X167380952Y-59155449D01*
X167380952Y-59155449D02*
X167333333Y-59298306D01*
X167333333Y-59298306D02*
X166761905Y-59869735D01*
X166761905Y-59869735D02*
X167380952Y-59869735D01*
X167714286Y-58869735D02*
X168380952Y-58869735D01*
X168380952Y-58869735D02*
X167952381Y-59869735D01*
X169333333Y-59774496D02*
X169285714Y-59822116D01*
X169285714Y-59822116D02*
X169142857Y-59869735D01*
X169142857Y-59869735D02*
X169047619Y-59869735D01*
X169047619Y-59869735D02*
X168904762Y-59822116D01*
X168904762Y-59822116D02*
X168809524Y-59726877D01*
X168809524Y-59726877D02*
X168761905Y-59631639D01*
X168761905Y-59631639D02*
X168714286Y-59441163D01*
X168714286Y-59441163D02*
X168714286Y-59298306D01*
X168714286Y-59298306D02*
X168761905Y-59107830D01*
X168761905Y-59107830D02*
X168809524Y-59012592D01*
X168809524Y-59012592D02*
X168904762Y-58917354D01*
X168904762Y-58917354D02*
X169047619Y-58869735D01*
X169047619Y-58869735D02*
X169142857Y-58869735D01*
X169142857Y-58869735D02*
X169285714Y-58917354D01*
X169285714Y-58917354D02*
X169333333Y-58964973D01*
X170238095Y-58869735D02*
X169761905Y-58869735D01*
X169761905Y-58869735D02*
X169714286Y-59345925D01*
X169714286Y-59345925D02*
X169761905Y-59298306D01*
X169761905Y-59298306D02*
X169857143Y-59250687D01*
X169857143Y-59250687D02*
X170095238Y-59250687D01*
X170095238Y-59250687D02*
X170190476Y-59298306D01*
X170190476Y-59298306D02*
X170238095Y-59345925D01*
X170238095Y-59345925D02*
X170285714Y-59441163D01*
X170285714Y-59441163D02*
X170285714Y-59679258D01*
X170285714Y-59679258D02*
X170238095Y-59774496D01*
X170238095Y-59774496D02*
X170190476Y-59822116D01*
X170190476Y-59822116D02*
X170095238Y-59869735D01*
X170095238Y-59869735D02*
X169857143Y-59869735D01*
X169857143Y-59869735D02*
X169761905Y-59822116D01*
X169761905Y-59822116D02*
X169714286Y-59774496D01*
X171238095Y-59869735D02*
X170666667Y-59869735D01*
X170952381Y-59869735D02*
X170952381Y-58869735D01*
X170952381Y-58869735D02*
X170857143Y-59012592D01*
X170857143Y-59012592D02*
X170761905Y-59107830D01*
X170761905Y-59107830D02*
X170666667Y-59155449D01*
X171619048Y-58964973D02*
X171666667Y-58917354D01*
X171666667Y-58917354D02*
X171761905Y-58869735D01*
X171761905Y-58869735D02*
X172000000Y-58869735D01*
X172000000Y-58869735D02*
X172095238Y-58917354D01*
X172095238Y-58917354D02*
X172142857Y-58964973D01*
X172142857Y-58964973D02*
X172190476Y-59060211D01*
X172190476Y-59060211D02*
X172190476Y-59155449D01*
X172190476Y-59155449D02*
X172142857Y-59298306D01*
X172142857Y-59298306D02*
X171571429Y-59869735D01*
X171571429Y-59869735D02*
X172190476Y-59869735D01*
X166190476Y-60479679D02*
X166428571Y-61479679D01*
X166428571Y-61479679D02*
X166619047Y-60765393D01*
X166619047Y-60765393D02*
X166809523Y-61479679D01*
X166809523Y-61479679D02*
X167047619Y-60479679D01*
X167380952Y-60574917D02*
X167428571Y-60527298D01*
X167428571Y-60527298D02*
X167523809Y-60479679D01*
X167523809Y-60479679D02*
X167761904Y-60479679D01*
X167761904Y-60479679D02*
X167857142Y-60527298D01*
X167857142Y-60527298D02*
X167904761Y-60574917D01*
X167904761Y-60574917D02*
X167952380Y-60670155D01*
X167952380Y-60670155D02*
X167952380Y-60765393D01*
X167952380Y-60765393D02*
X167904761Y-60908250D01*
X167904761Y-60908250D02*
X167333333Y-61479679D01*
X167333333Y-61479679D02*
X167952380Y-61479679D01*
X168285714Y-60479679D02*
X168952380Y-60479679D01*
X168952380Y-60479679D02*
X168523809Y-61479679D01*
X169904761Y-61384440D02*
X169857142Y-61432060D01*
X169857142Y-61432060D02*
X169714285Y-61479679D01*
X169714285Y-61479679D02*
X169619047Y-61479679D01*
X169619047Y-61479679D02*
X169476190Y-61432060D01*
X169476190Y-61432060D02*
X169380952Y-61336821D01*
X169380952Y-61336821D02*
X169333333Y-61241583D01*
X169333333Y-61241583D02*
X169285714Y-61051107D01*
X169285714Y-61051107D02*
X169285714Y-60908250D01*
X169285714Y-60908250D02*
X169333333Y-60717774D01*
X169333333Y-60717774D02*
X169380952Y-60622536D01*
X169380952Y-60622536D02*
X169476190Y-60527298D01*
X169476190Y-60527298D02*
X169619047Y-60479679D01*
X169619047Y-60479679D02*
X169714285Y-60479679D01*
X169714285Y-60479679D02*
X169857142Y-60527298D01*
X169857142Y-60527298D02*
X169904761Y-60574917D01*
X170809523Y-60479679D02*
X170333333Y-60479679D01*
X170333333Y-60479679D02*
X170285714Y-60955869D01*
X170285714Y-60955869D02*
X170333333Y-60908250D01*
X170333333Y-60908250D02*
X170428571Y-60860631D01*
X170428571Y-60860631D02*
X170666666Y-60860631D01*
X170666666Y-60860631D02*
X170761904Y-60908250D01*
X170761904Y-60908250D02*
X170809523Y-60955869D01*
X170809523Y-60955869D02*
X170857142Y-61051107D01*
X170857142Y-61051107D02*
X170857142Y-61289202D01*
X170857142Y-61289202D02*
X170809523Y-61384440D01*
X170809523Y-61384440D02*
X170761904Y-61432060D01*
X170761904Y-61432060D02*
X170666666Y-61479679D01*
X170666666Y-61479679D02*
X170428571Y-61479679D01*
X170428571Y-61479679D02*
X170333333Y-61432060D01*
X170333333Y-61432060D02*
X170285714Y-61384440D01*
X171809523Y-61479679D02*
X171238095Y-61479679D01*
X171523809Y-61479679D02*
X171523809Y-60479679D01*
X171523809Y-60479679D02*
X171428571Y-60622536D01*
X171428571Y-60622536D02*
X171333333Y-60717774D01*
X171333333Y-60717774D02*
X171238095Y-60765393D01*
X172190476Y-60574917D02*
X172238095Y-60527298D01*
X172238095Y-60527298D02*
X172333333Y-60479679D01*
X172333333Y-60479679D02*
X172571428Y-60479679D01*
X172571428Y-60479679D02*
X172666666Y-60527298D01*
X172666666Y-60527298D02*
X172714285Y-60574917D01*
X172714285Y-60574917D02*
X172761904Y-60670155D01*
X172761904Y-60670155D02*
X172761904Y-60765393D01*
X172761904Y-60765393D02*
X172714285Y-60908250D01*
X172714285Y-60908250D02*
X172142857Y-61479679D01*
X172142857Y-61479679D02*
X172761904Y-61479679D01*
X117523810Y-40754819D02*
X117523810Y-39754819D01*
X118571428Y-40659580D02*
X118523809Y-40707200D01*
X118523809Y-40707200D02*
X118380952Y-40754819D01*
X118380952Y-40754819D02*
X118285714Y-40754819D01*
X118285714Y-40754819D02*
X118142857Y-40707200D01*
X118142857Y-40707200D02*
X118047619Y-40611961D01*
X118047619Y-40611961D02*
X118000000Y-40516723D01*
X118000000Y-40516723D02*
X117952381Y-40326247D01*
X117952381Y-40326247D02*
X117952381Y-40183390D01*
X117952381Y-40183390D02*
X118000000Y-39992914D01*
X118000000Y-39992914D02*
X118047619Y-39897676D01*
X118047619Y-39897676D02*
X118142857Y-39802438D01*
X118142857Y-39802438D02*
X118285714Y-39754819D01*
X118285714Y-39754819D02*
X118380952Y-39754819D01*
X118380952Y-39754819D02*
X118523809Y-39802438D01*
X118523809Y-39802438D02*
X118571428Y-39850057D01*
X118952381Y-40707200D02*
X119095238Y-40754819D01*
X119095238Y-40754819D02*
X119333333Y-40754819D01*
X119333333Y-40754819D02*
X119428571Y-40707200D01*
X119428571Y-40707200D02*
X119476190Y-40659580D01*
X119476190Y-40659580D02*
X119523809Y-40564342D01*
X119523809Y-40564342D02*
X119523809Y-40469104D01*
X119523809Y-40469104D02*
X119476190Y-40373866D01*
X119476190Y-40373866D02*
X119428571Y-40326247D01*
X119428571Y-40326247D02*
X119333333Y-40278628D01*
X119333333Y-40278628D02*
X119142857Y-40231009D01*
X119142857Y-40231009D02*
X119047619Y-40183390D01*
X119047619Y-40183390D02*
X119000000Y-40135771D01*
X119000000Y-40135771D02*
X118952381Y-40040533D01*
X118952381Y-40040533D02*
X118952381Y-39945295D01*
X118952381Y-39945295D02*
X119000000Y-39850057D01*
X119000000Y-39850057D02*
X119047619Y-39802438D01*
X119047619Y-39802438D02*
X119142857Y-39754819D01*
X119142857Y-39754819D02*
X119380952Y-39754819D01*
X119380952Y-39754819D02*
X119523809Y-39802438D01*
X119952381Y-40754819D02*
X119952381Y-39754819D01*
X119952381Y-39754819D02*
X120333333Y-39754819D01*
X120333333Y-39754819D02*
X120428571Y-39802438D01*
X120428571Y-39802438D02*
X120476190Y-39850057D01*
X120476190Y-39850057D02*
X120523809Y-39945295D01*
X120523809Y-39945295D02*
X120523809Y-40088152D01*
X120523809Y-40088152D02*
X120476190Y-40183390D01*
X120476190Y-40183390D02*
X120428571Y-40231009D01*
X120428571Y-40231009D02*
X120333333Y-40278628D01*
X120333333Y-40278628D02*
X119952381Y-40278628D01*
D11*
X105354761Y-74189901D02*
X105597618Y-74270853D01*
X105597618Y-74270853D02*
X106002380Y-74270853D01*
X106002380Y-74270853D02*
X106164285Y-74189901D01*
X106164285Y-74189901D02*
X106245237Y-74108948D01*
X106245237Y-74108948D02*
X106326190Y-73947043D01*
X106326190Y-73947043D02*
X106326190Y-73785139D01*
X106326190Y-73785139D02*
X106245237Y-73623234D01*
X106245237Y-73623234D02*
X106164285Y-73542281D01*
X106164285Y-73542281D02*
X106002380Y-73461329D01*
X106002380Y-73461329D02*
X105678571Y-73380377D01*
X105678571Y-73380377D02*
X105516666Y-73299424D01*
X105516666Y-73299424D02*
X105435713Y-73218472D01*
X105435713Y-73218472D02*
X105354761Y-73056567D01*
X105354761Y-73056567D02*
X105354761Y-72894662D01*
X105354761Y-72894662D02*
X105435713Y-72732758D01*
X105435713Y-72732758D02*
X105516666Y-72651805D01*
X105516666Y-72651805D02*
X105678571Y-72570853D01*
X105678571Y-72570853D02*
X106083332Y-72570853D01*
X106083332Y-72570853D02*
X106326190Y-72651805D01*
X107054761Y-74270853D02*
X107054761Y-72570853D01*
X107054761Y-72570853D02*
X107459523Y-72570853D01*
X107459523Y-72570853D02*
X107702380Y-72651805D01*
X107702380Y-72651805D02*
X107864285Y-72813710D01*
X107864285Y-72813710D02*
X107945238Y-72975615D01*
X107945238Y-72975615D02*
X108026190Y-73299424D01*
X108026190Y-73299424D02*
X108026190Y-73542281D01*
X108026190Y-73542281D02*
X107945238Y-73866091D01*
X107945238Y-73866091D02*
X107864285Y-74027996D01*
X107864285Y-74027996D02*
X107702380Y-74189901D01*
X107702380Y-74189901D02*
X107459523Y-74270853D01*
X107459523Y-74270853D02*
X107054761Y-74270853D01*
X109645238Y-74270853D02*
X108673809Y-74270853D01*
X109159523Y-74270853D02*
X109159523Y-72570853D01*
X109159523Y-72570853D02*
X108997619Y-72813710D01*
X108997619Y-72813710D02*
X108835714Y-72975615D01*
X108835714Y-72975615D02*
X108673809Y-73056567D01*
D13*
X179454646Y-48629104D02*
X179930836Y-48629104D01*
X179359408Y-48914819D02*
X179692741Y-47914819D01*
X179692741Y-47914819D02*
X180026074Y-48914819D01*
X180359408Y-48248152D02*
X180359408Y-49248152D01*
X180359408Y-48295771D02*
X180454646Y-48248152D01*
X180454646Y-48248152D02*
X180645122Y-48248152D01*
X180645122Y-48248152D02*
X180740360Y-48295771D01*
X180740360Y-48295771D02*
X180787979Y-48343390D01*
X180787979Y-48343390D02*
X180835598Y-48438628D01*
X180835598Y-48438628D02*
X180835598Y-48724342D01*
X180835598Y-48724342D02*
X180787979Y-48819580D01*
X180787979Y-48819580D02*
X180740360Y-48867200D01*
X180740360Y-48867200D02*
X180645122Y-48914819D01*
X180645122Y-48914819D02*
X180454646Y-48914819D01*
X180454646Y-48914819D02*
X180359408Y-48867200D01*
X181264170Y-48248152D02*
X181264170Y-49248152D01*
X181264170Y-48295771D02*
X181359408Y-48248152D01*
X181359408Y-48248152D02*
X181549884Y-48248152D01*
X181549884Y-48248152D02*
X181645122Y-48295771D01*
X181645122Y-48295771D02*
X181692741Y-48343390D01*
X181692741Y-48343390D02*
X181740360Y-48438628D01*
X181740360Y-48438628D02*
X181740360Y-48724342D01*
X181740360Y-48724342D02*
X181692741Y-48819580D01*
X181692741Y-48819580D02*
X181645122Y-48867200D01*
X181645122Y-48867200D02*
X181549884Y-48914819D01*
X181549884Y-48914819D02*
X181359408Y-48914819D01*
X181359408Y-48914819D02*
X181264170Y-48867200D01*
X182311789Y-48914819D02*
X182216551Y-48867200D01*
X182216551Y-48867200D02*
X182168932Y-48771961D01*
X182168932Y-48771961D02*
X182168932Y-47914819D01*
X183073694Y-48867200D02*
X182978456Y-48914819D01*
X182978456Y-48914819D02*
X182787980Y-48914819D01*
X182787980Y-48914819D02*
X182692742Y-48867200D01*
X182692742Y-48867200D02*
X182645123Y-48771961D01*
X182645123Y-48771961D02*
X182645123Y-48391009D01*
X182645123Y-48391009D02*
X182692742Y-48295771D01*
X182692742Y-48295771D02*
X182787980Y-48248152D01*
X182787980Y-48248152D02*
X182978456Y-48248152D01*
X182978456Y-48248152D02*
X183073694Y-48295771D01*
X183073694Y-48295771D02*
X183121313Y-48391009D01*
X183121313Y-48391009D02*
X183121313Y-48486247D01*
X183121313Y-48486247D02*
X182645123Y-48581485D01*
X184216552Y-49248152D02*
X184454647Y-49248152D01*
X184454647Y-49248152D02*
X184454647Y-47819580D01*
X184454647Y-47819580D02*
X184216552Y-47819580D01*
X185264171Y-49248152D02*
X185026076Y-49248152D01*
X185026076Y-49248152D02*
X185026076Y-47819580D01*
X185026076Y-47819580D02*
X185264171Y-47819580D01*
X186740362Y-48391009D02*
X186407029Y-48391009D01*
X186407029Y-48914819D02*
X186407029Y-47914819D01*
X186407029Y-47914819D02*
X186883219Y-47914819D01*
X187407029Y-48914819D02*
X187311791Y-48867200D01*
X187311791Y-48867200D02*
X187264172Y-48819580D01*
X187264172Y-48819580D02*
X187216553Y-48724342D01*
X187216553Y-48724342D02*
X187216553Y-48438628D01*
X187216553Y-48438628D02*
X187264172Y-48343390D01*
X187264172Y-48343390D02*
X187311791Y-48295771D01*
X187311791Y-48295771D02*
X187407029Y-48248152D01*
X187407029Y-48248152D02*
X187549886Y-48248152D01*
X187549886Y-48248152D02*
X187645124Y-48295771D01*
X187645124Y-48295771D02*
X187692743Y-48343390D01*
X187692743Y-48343390D02*
X187740362Y-48438628D01*
X187740362Y-48438628D02*
X187740362Y-48724342D01*
X187740362Y-48724342D02*
X187692743Y-48819580D01*
X187692743Y-48819580D02*
X187645124Y-48867200D01*
X187645124Y-48867200D02*
X187549886Y-48914819D01*
X187549886Y-48914819D02*
X187407029Y-48914819D01*
X188168934Y-48914819D02*
X188168934Y-48248152D01*
X188168934Y-48438628D02*
X188216553Y-48343390D01*
X188216553Y-48343390D02*
X188264172Y-48295771D01*
X188264172Y-48295771D02*
X188359410Y-48248152D01*
X188359410Y-48248152D02*
X188454648Y-48248152D01*
X189168934Y-48867200D02*
X189073696Y-48914819D01*
X189073696Y-48914819D02*
X188883220Y-48914819D01*
X188883220Y-48914819D02*
X188787982Y-48867200D01*
X188787982Y-48867200D02*
X188740363Y-48771961D01*
X188740363Y-48771961D02*
X188740363Y-48391009D01*
X188740363Y-48391009D02*
X188787982Y-48295771D01*
X188787982Y-48295771D02*
X188883220Y-48248152D01*
X188883220Y-48248152D02*
X189073696Y-48248152D01*
X189073696Y-48248152D02*
X189168934Y-48295771D01*
X189168934Y-48295771D02*
X189216553Y-48391009D01*
X189216553Y-48391009D02*
X189216553Y-48486247D01*
X189216553Y-48486247D02*
X188740363Y-48581485D01*
X189549887Y-48248152D02*
X189787982Y-48914819D01*
X189787982Y-48914819D02*
X190026077Y-48248152D01*
X190787982Y-48867200D02*
X190692744Y-48914819D01*
X190692744Y-48914819D02*
X190502268Y-48914819D01*
X190502268Y-48914819D02*
X190407030Y-48867200D01*
X190407030Y-48867200D02*
X190359411Y-48771961D01*
X190359411Y-48771961D02*
X190359411Y-48391009D01*
X190359411Y-48391009D02*
X190407030Y-48295771D01*
X190407030Y-48295771D02*
X190502268Y-48248152D01*
X190502268Y-48248152D02*
X190692744Y-48248152D01*
X190692744Y-48248152D02*
X190787982Y-48295771D01*
X190787982Y-48295771D02*
X190835601Y-48391009D01*
X190835601Y-48391009D02*
X190835601Y-48486247D01*
X190835601Y-48486247D02*
X190359411Y-48581485D01*
X191264173Y-48914819D02*
X191264173Y-48248152D01*
X191264173Y-48438628D02*
X191311792Y-48343390D01*
X191311792Y-48343390D02*
X191359411Y-48295771D01*
X191359411Y-48295771D02*
X191454649Y-48248152D01*
X191454649Y-48248152D02*
X191549887Y-48248152D01*
X191883221Y-48819580D02*
X191930840Y-48867200D01*
X191930840Y-48867200D02*
X191883221Y-48914819D01*
X191883221Y-48914819D02*
X191835602Y-48867200D01*
X191835602Y-48867200D02*
X191883221Y-48819580D01*
X191883221Y-48819580D02*
X191883221Y-48914819D01*
X191883221Y-48533866D02*
X191835602Y-47962438D01*
X191835602Y-47962438D02*
X191883221Y-47914819D01*
X191883221Y-47914819D02*
X191930840Y-47962438D01*
X191930840Y-47962438D02*
X191883221Y-48533866D01*
X191883221Y-48533866D02*
X191883221Y-47914819D01*
X132640714Y-31209819D02*
X132069286Y-31209819D01*
X132355000Y-31209819D02*
X132355000Y-30209819D01*
X132355000Y-30209819D02*
X132259762Y-30352676D01*
X132259762Y-30352676D02*
X132164524Y-30447914D01*
X132164524Y-30447914D02*
X132069286Y-30495533D01*
X146047619Y-36383390D02*
X145952381Y-36335771D01*
X145952381Y-36335771D02*
X145904762Y-36288152D01*
X145904762Y-36288152D02*
X145857143Y-36192914D01*
X145857143Y-36192914D02*
X145857143Y-36145295D01*
X145857143Y-36145295D02*
X145904762Y-36050057D01*
X145904762Y-36050057D02*
X145952381Y-36002438D01*
X145952381Y-36002438D02*
X146047619Y-35954819D01*
X146047619Y-35954819D02*
X146238095Y-35954819D01*
X146238095Y-35954819D02*
X146333333Y-36002438D01*
X146333333Y-36002438D02*
X146380952Y-36050057D01*
X146380952Y-36050057D02*
X146428571Y-36145295D01*
X146428571Y-36145295D02*
X146428571Y-36192914D01*
X146428571Y-36192914D02*
X146380952Y-36288152D01*
X146380952Y-36288152D02*
X146333333Y-36335771D01*
X146333333Y-36335771D02*
X146238095Y-36383390D01*
X146238095Y-36383390D02*
X146047619Y-36383390D01*
X146047619Y-36383390D02*
X145952381Y-36431009D01*
X145952381Y-36431009D02*
X145904762Y-36478628D01*
X145904762Y-36478628D02*
X145857143Y-36573866D01*
X145857143Y-36573866D02*
X145857143Y-36764342D01*
X145857143Y-36764342D02*
X145904762Y-36859580D01*
X145904762Y-36859580D02*
X145952381Y-36907200D01*
X145952381Y-36907200D02*
X146047619Y-36954819D01*
X146047619Y-36954819D02*
X146238095Y-36954819D01*
X146238095Y-36954819D02*
X146333333Y-36907200D01*
X146333333Y-36907200D02*
X146380952Y-36859580D01*
X146380952Y-36859580D02*
X146428571Y-36764342D01*
X146428571Y-36764342D02*
X146428571Y-36573866D01*
X146428571Y-36573866D02*
X146380952Y-36478628D01*
X146380952Y-36478628D02*
X146333333Y-36431009D01*
X146333333Y-36431009D02*
X146238095Y-36383390D01*
X146809524Y-36050057D02*
X146857143Y-36002438D01*
X146857143Y-36002438D02*
X146952381Y-35954819D01*
X146952381Y-35954819D02*
X147190476Y-35954819D01*
X147190476Y-35954819D02*
X147285714Y-36002438D01*
X147285714Y-36002438D02*
X147333333Y-36050057D01*
X147333333Y-36050057D02*
X147380952Y-36145295D01*
X147380952Y-36145295D02*
X147380952Y-36240533D01*
X147380952Y-36240533D02*
X147333333Y-36383390D01*
X147333333Y-36383390D02*
X146761905Y-36954819D01*
X146761905Y-36954819D02*
X147380952Y-36954819D01*
X148380952Y-36859580D02*
X148333333Y-36907200D01*
X148333333Y-36907200D02*
X148190476Y-36954819D01*
X148190476Y-36954819D02*
X148095238Y-36954819D01*
X148095238Y-36954819D02*
X147952381Y-36907200D01*
X147952381Y-36907200D02*
X147857143Y-36811961D01*
X147857143Y-36811961D02*
X147809524Y-36716723D01*
X147809524Y-36716723D02*
X147761905Y-36526247D01*
X147761905Y-36526247D02*
X147761905Y-36383390D01*
X147761905Y-36383390D02*
X147809524Y-36192914D01*
X147809524Y-36192914D02*
X147857143Y-36097676D01*
X147857143Y-36097676D02*
X147952381Y-36002438D01*
X147952381Y-36002438D02*
X148095238Y-35954819D01*
X148095238Y-35954819D02*
X148190476Y-35954819D01*
X148190476Y-35954819D02*
X148333333Y-36002438D01*
X148333333Y-36002438D02*
X148380952Y-36050057D01*
X149285714Y-35954819D02*
X148809524Y-35954819D01*
X148809524Y-35954819D02*
X148761905Y-36431009D01*
X148761905Y-36431009D02*
X148809524Y-36383390D01*
X148809524Y-36383390D02*
X148904762Y-36335771D01*
X148904762Y-36335771D02*
X149142857Y-36335771D01*
X149142857Y-36335771D02*
X149238095Y-36383390D01*
X149238095Y-36383390D02*
X149285714Y-36431009D01*
X149285714Y-36431009D02*
X149333333Y-36526247D01*
X149333333Y-36526247D02*
X149333333Y-36764342D01*
X149333333Y-36764342D02*
X149285714Y-36859580D01*
X149285714Y-36859580D02*
X149238095Y-36907200D01*
X149238095Y-36907200D02*
X149142857Y-36954819D01*
X149142857Y-36954819D02*
X148904762Y-36954819D01*
X148904762Y-36954819D02*
X148809524Y-36907200D01*
X148809524Y-36907200D02*
X148761905Y-36859580D01*
X150238095Y-35954819D02*
X149761905Y-35954819D01*
X149761905Y-35954819D02*
X149714286Y-36431009D01*
X149714286Y-36431009D02*
X149761905Y-36383390D01*
X149761905Y-36383390D02*
X149857143Y-36335771D01*
X149857143Y-36335771D02*
X150095238Y-36335771D01*
X150095238Y-36335771D02*
X150190476Y-36383390D01*
X150190476Y-36383390D02*
X150238095Y-36431009D01*
X150238095Y-36431009D02*
X150285714Y-36526247D01*
X150285714Y-36526247D02*
X150285714Y-36764342D01*
X150285714Y-36764342D02*
X150238095Y-36859580D01*
X150238095Y-36859580D02*
X150190476Y-36907200D01*
X150190476Y-36907200D02*
X150095238Y-36954819D01*
X150095238Y-36954819D02*
X149857143Y-36954819D01*
X149857143Y-36954819D02*
X149761905Y-36907200D01*
X149761905Y-36907200D02*
X149714286Y-36859580D01*
X150666667Y-36669104D02*
X151142857Y-36669104D01*
X150571429Y-36954819D02*
X150904762Y-35954819D01*
X150904762Y-35954819D02*
X151238095Y-36954819D01*
D10*
X125399895Y-38265550D02*
X124599895Y-38265550D01*
X124599895Y-38265550D02*
X125171323Y-37998884D01*
X125171323Y-37998884D02*
X124599895Y-37732217D01*
X124599895Y-37732217D02*
X125399895Y-37732217D01*
X124599895Y-37198883D02*
X124599895Y-37046502D01*
X124599895Y-37046502D02*
X124637990Y-36970312D01*
X124637990Y-36970312D02*
X124714180Y-36894121D01*
X124714180Y-36894121D02*
X124866561Y-36856026D01*
X124866561Y-36856026D02*
X125133228Y-36856026D01*
X125133228Y-36856026D02*
X125285609Y-36894121D01*
X125285609Y-36894121D02*
X125361800Y-36970312D01*
X125361800Y-36970312D02*
X125399895Y-37046502D01*
X125399895Y-37046502D02*
X125399895Y-37198883D01*
X125399895Y-37198883D02*
X125361800Y-37275074D01*
X125361800Y-37275074D02*
X125285609Y-37351264D01*
X125285609Y-37351264D02*
X125133228Y-37389360D01*
X125133228Y-37389360D02*
X124866561Y-37389360D01*
X124866561Y-37389360D02*
X124714180Y-37351264D01*
X124714180Y-37351264D02*
X124637990Y-37275074D01*
X124637990Y-37275074D02*
X124599895Y-37198883D01*
X125361800Y-36551265D02*
X125399895Y-36436979D01*
X125399895Y-36436979D02*
X125399895Y-36246503D01*
X125399895Y-36246503D02*
X125361800Y-36170312D01*
X125361800Y-36170312D02*
X125323704Y-36132217D01*
X125323704Y-36132217D02*
X125247514Y-36094122D01*
X125247514Y-36094122D02*
X125171323Y-36094122D01*
X125171323Y-36094122D02*
X125095133Y-36132217D01*
X125095133Y-36132217D02*
X125057038Y-36170312D01*
X125057038Y-36170312D02*
X125018942Y-36246503D01*
X125018942Y-36246503D02*
X124980847Y-36398884D01*
X124980847Y-36398884D02*
X124942752Y-36475074D01*
X124942752Y-36475074D02*
X124904657Y-36513169D01*
X124904657Y-36513169D02*
X124828466Y-36551265D01*
X124828466Y-36551265D02*
X124752276Y-36551265D01*
X124752276Y-36551265D02*
X124676085Y-36513169D01*
X124676085Y-36513169D02*
X124637990Y-36475074D01*
X124637990Y-36475074D02*
X124599895Y-36398884D01*
X124599895Y-36398884D02*
X124599895Y-36208407D01*
X124599895Y-36208407D02*
X124637990Y-36094122D01*
X125399895Y-35751264D02*
X124599895Y-35751264D01*
X127913704Y-37236979D02*
X127951800Y-37275075D01*
X127951800Y-37275075D02*
X127989895Y-37389360D01*
X127989895Y-37389360D02*
X127989895Y-37465551D01*
X127989895Y-37465551D02*
X127951800Y-37579837D01*
X127951800Y-37579837D02*
X127875609Y-37656027D01*
X127875609Y-37656027D02*
X127799419Y-37694122D01*
X127799419Y-37694122D02*
X127647038Y-37732218D01*
X127647038Y-37732218D02*
X127532752Y-37732218D01*
X127532752Y-37732218D02*
X127380371Y-37694122D01*
X127380371Y-37694122D02*
X127304180Y-37656027D01*
X127304180Y-37656027D02*
X127227990Y-37579837D01*
X127227990Y-37579837D02*
X127189895Y-37465551D01*
X127189895Y-37465551D02*
X127189895Y-37389360D01*
X127189895Y-37389360D02*
X127227990Y-37275075D01*
X127227990Y-37275075D02*
X127266085Y-37236979D01*
X127951800Y-36932218D02*
X127989895Y-36817932D01*
X127989895Y-36817932D02*
X127989895Y-36627456D01*
X127989895Y-36627456D02*
X127951800Y-36551265D01*
X127951800Y-36551265D02*
X127913704Y-36513170D01*
X127913704Y-36513170D02*
X127837514Y-36475075D01*
X127837514Y-36475075D02*
X127761323Y-36475075D01*
X127761323Y-36475075D02*
X127685133Y-36513170D01*
X127685133Y-36513170D02*
X127647038Y-36551265D01*
X127647038Y-36551265D02*
X127608942Y-36627456D01*
X127608942Y-36627456D02*
X127570847Y-36779837D01*
X127570847Y-36779837D02*
X127532752Y-36856027D01*
X127532752Y-36856027D02*
X127494657Y-36894122D01*
X127494657Y-36894122D02*
X127418466Y-36932218D01*
X127418466Y-36932218D02*
X127342276Y-36932218D01*
X127342276Y-36932218D02*
X127266085Y-36894122D01*
X127266085Y-36894122D02*
X127227990Y-36856027D01*
X127227990Y-36856027D02*
X127189895Y-36779837D01*
X127189895Y-36779837D02*
X127189895Y-36589360D01*
X127189895Y-36589360D02*
X127227990Y-36475075D01*
X127189895Y-36208408D02*
X127189895Y-35713170D01*
X127189895Y-35713170D02*
X127494657Y-35979836D01*
X127494657Y-35979836D02*
X127494657Y-35865551D01*
X127494657Y-35865551D02*
X127532752Y-35789360D01*
X127532752Y-35789360D02*
X127570847Y-35751265D01*
X127570847Y-35751265D02*
X127647038Y-35713170D01*
X127647038Y-35713170D02*
X127837514Y-35713170D01*
X127837514Y-35713170D02*
X127913704Y-35751265D01*
X127913704Y-35751265D02*
X127951800Y-35789360D01*
X127951800Y-35789360D02*
X127989895Y-35865551D01*
X127989895Y-35865551D02*
X127989895Y-36094122D01*
X127989895Y-36094122D02*
X127951800Y-36170313D01*
X127951800Y-36170313D02*
X127913704Y-36208408D01*
X126967800Y-37804599D02*
X126967800Y-35640789D01*
D11*
X181266441Y-29351223D02*
X181266441Y-27151223D01*
X181266441Y-27151223D02*
X181790251Y-27151223D01*
X181790251Y-27151223D02*
X182104536Y-27255985D01*
X182104536Y-27255985D02*
X182314060Y-27465509D01*
X182314060Y-27465509D02*
X182418822Y-27675033D01*
X182418822Y-27675033D02*
X182523584Y-28094081D01*
X182523584Y-28094081D02*
X182523584Y-28408366D01*
X182523584Y-28408366D02*
X182418822Y-28827414D01*
X182418822Y-28827414D02*
X182314060Y-29036938D01*
X182314060Y-29036938D02*
X182104536Y-29246462D01*
X182104536Y-29246462D02*
X181790251Y-29351223D01*
X181790251Y-29351223D02*
X181266441Y-29351223D01*
X183361679Y-28722652D02*
X184409298Y-28722652D01*
X183152155Y-29351223D02*
X183885489Y-27151223D01*
X183885489Y-27151223D02*
X184618822Y-29351223D01*
X185352155Y-29351223D02*
X185352155Y-27151223D01*
X185352155Y-27151223D02*
X186609298Y-29351223D01*
X186609298Y-29351223D02*
X186609298Y-27151223D01*
X189123583Y-30084557D02*
X189647393Y-30084557D01*
X189647393Y-30084557D02*
X189647393Y-26941700D01*
X189647393Y-26941700D02*
X189123583Y-26941700D01*
X191428345Y-30084557D02*
X190904536Y-30084557D01*
X190904536Y-30084557D02*
X190904536Y-26941700D01*
X190904536Y-26941700D02*
X191428345Y-26941700D01*
X172780728Y-32683577D02*
X172675966Y-32788339D01*
X172675966Y-32788339D02*
X172361680Y-32893100D01*
X172361680Y-32893100D02*
X172152156Y-32893100D01*
X172152156Y-32893100D02*
X171837871Y-32788339D01*
X171837871Y-32788339D02*
X171628347Y-32578815D01*
X171628347Y-32578815D02*
X171523585Y-32369291D01*
X171523585Y-32369291D02*
X171418823Y-31950243D01*
X171418823Y-31950243D02*
X171418823Y-31635958D01*
X171418823Y-31635958D02*
X171523585Y-31216910D01*
X171523585Y-31216910D02*
X171628347Y-31007386D01*
X171628347Y-31007386D02*
X171837871Y-30797862D01*
X171837871Y-30797862D02*
X172152156Y-30693100D01*
X172152156Y-30693100D02*
X172361680Y-30693100D01*
X172361680Y-30693100D02*
X172675966Y-30797862D01*
X172675966Y-30797862D02*
X172780728Y-30902624D01*
X174142633Y-30693100D02*
X174561680Y-30693100D01*
X174561680Y-30693100D02*
X174771204Y-30797862D01*
X174771204Y-30797862D02*
X174980728Y-31007386D01*
X174980728Y-31007386D02*
X175085490Y-31426434D01*
X175085490Y-31426434D02*
X175085490Y-32159767D01*
X175085490Y-32159767D02*
X174980728Y-32578815D01*
X174980728Y-32578815D02*
X174771204Y-32788339D01*
X174771204Y-32788339D02*
X174561680Y-32893100D01*
X174561680Y-32893100D02*
X174142633Y-32893100D01*
X174142633Y-32893100D02*
X173933109Y-32788339D01*
X173933109Y-32788339D02*
X173723585Y-32578815D01*
X173723585Y-32578815D02*
X173618823Y-32159767D01*
X173618823Y-32159767D02*
X173618823Y-31426434D01*
X173618823Y-31426434D02*
X173723585Y-31007386D01*
X173723585Y-31007386D02*
X173933109Y-30797862D01*
X173933109Y-30797862D02*
X174142633Y-30693100D01*
X176028347Y-32893100D02*
X176028347Y-30693100D01*
X176028347Y-30693100D02*
X177285490Y-32893100D01*
X177285490Y-32893100D02*
X177285490Y-30693100D01*
X178018823Y-30693100D02*
X179275966Y-30693100D01*
X178647395Y-32893100D02*
X178647395Y-30693100D01*
X181266442Y-32893100D02*
X180533109Y-31845481D01*
X180009299Y-32893100D02*
X180009299Y-30693100D01*
X180009299Y-30693100D02*
X180847394Y-30693100D01*
X180847394Y-30693100D02*
X181056918Y-30797862D01*
X181056918Y-30797862D02*
X181161680Y-30902624D01*
X181161680Y-30902624D02*
X181266442Y-31112148D01*
X181266442Y-31112148D02*
X181266442Y-31426434D01*
X181266442Y-31426434D02*
X181161680Y-31635958D01*
X181161680Y-31635958D02*
X181056918Y-31740719D01*
X181056918Y-31740719D02*
X180847394Y-31845481D01*
X180847394Y-31845481D02*
X180009299Y-31845481D01*
X182628347Y-30693100D02*
X183047394Y-30693100D01*
X183047394Y-30693100D02*
X183256918Y-30797862D01*
X183256918Y-30797862D02*
X183466442Y-31007386D01*
X183466442Y-31007386D02*
X183571204Y-31426434D01*
X183571204Y-31426434D02*
X183571204Y-32159767D01*
X183571204Y-32159767D02*
X183466442Y-32578815D01*
X183466442Y-32578815D02*
X183256918Y-32788339D01*
X183256918Y-32788339D02*
X183047394Y-32893100D01*
X183047394Y-32893100D02*
X182628347Y-32893100D01*
X182628347Y-32893100D02*
X182418823Y-32788339D01*
X182418823Y-32788339D02*
X182209299Y-32578815D01*
X182209299Y-32578815D02*
X182104537Y-32159767D01*
X182104537Y-32159767D02*
X182104537Y-31426434D01*
X182104537Y-31426434D02*
X182209299Y-31007386D01*
X182209299Y-31007386D02*
X182418823Y-30797862D01*
X182418823Y-30797862D02*
X182628347Y-30693100D01*
X185561680Y-32893100D02*
X184514061Y-32893100D01*
X184514061Y-32893100D02*
X184514061Y-30693100D01*
X187342632Y-32893100D02*
X186295013Y-32893100D01*
X186295013Y-32893100D02*
X186295013Y-30693100D01*
X188075965Y-31740719D02*
X188809298Y-31740719D01*
X189123584Y-32893100D02*
X188075965Y-32893100D01*
X188075965Y-32893100D02*
X188075965Y-30693100D01*
X188075965Y-30693100D02*
X189123584Y-30693100D01*
X191323584Y-32893100D02*
X190590251Y-31845481D01*
X190066441Y-32893100D02*
X190066441Y-30693100D01*
X190066441Y-30693100D02*
X190904536Y-30693100D01*
X190904536Y-30693100D02*
X191114060Y-30797862D01*
X191114060Y-30797862D02*
X191218822Y-30902624D01*
X191218822Y-30902624D02*
X191323584Y-31112148D01*
X191323584Y-31112148D02*
X191323584Y-31426434D01*
X191323584Y-31426434D02*
X191218822Y-31635958D01*
X191218822Y-31635958D02*
X191114060Y-31740719D01*
X191114060Y-31740719D02*
X190904536Y-31845481D01*
X190904536Y-31845481D02*
X190066441Y-31845481D01*
D14*
X117269380Y-38526003D02*
X117317000Y-38573622D01*
X117317000Y-38573622D02*
X117364619Y-38716479D01*
X117364619Y-38716479D02*
X117364619Y-38811717D01*
X117364619Y-38811717D02*
X117317000Y-38954574D01*
X117317000Y-38954574D02*
X117221761Y-39049812D01*
X117221761Y-39049812D02*
X117126523Y-39097431D01*
X117126523Y-39097431D02*
X116936047Y-39145050D01*
X116936047Y-39145050D02*
X116793190Y-39145050D01*
X116793190Y-39145050D02*
X116602714Y-39097431D01*
X116602714Y-39097431D02*
X116507476Y-39049812D01*
X116507476Y-39049812D02*
X116412238Y-38954574D01*
X116412238Y-38954574D02*
X116364619Y-38811717D01*
X116364619Y-38811717D02*
X116364619Y-38716479D01*
X116364619Y-38716479D02*
X116412238Y-38573622D01*
X116412238Y-38573622D02*
X116459857Y-38526003D01*
X117317000Y-38145050D02*
X117364619Y-38002193D01*
X117364619Y-38002193D02*
X117364619Y-37764098D01*
X117364619Y-37764098D02*
X117317000Y-37668860D01*
X117317000Y-37668860D02*
X117269380Y-37621241D01*
X117269380Y-37621241D02*
X117174142Y-37573622D01*
X117174142Y-37573622D02*
X117078904Y-37573622D01*
X117078904Y-37573622D02*
X116983666Y-37621241D01*
X116983666Y-37621241D02*
X116936047Y-37668860D01*
X116936047Y-37668860D02*
X116888428Y-37764098D01*
X116888428Y-37764098D02*
X116840809Y-37954574D01*
X116840809Y-37954574D02*
X116793190Y-38049812D01*
X116793190Y-38049812D02*
X116745571Y-38097431D01*
X116745571Y-38097431D02*
X116650333Y-38145050D01*
X116650333Y-38145050D02*
X116555095Y-38145050D01*
X116555095Y-38145050D02*
X116459857Y-38097431D01*
X116459857Y-38097431D02*
X116412238Y-38049812D01*
X116412238Y-38049812D02*
X116364619Y-37954574D01*
X116364619Y-37954574D02*
X116364619Y-37716479D01*
X116364619Y-37716479D02*
X116412238Y-37573622D01*
D10*
X120537990Y-28469687D02*
X120499895Y-28545877D01*
X120499895Y-28545877D02*
X120499895Y-28660163D01*
X120499895Y-28660163D02*
X120537990Y-28774449D01*
X120537990Y-28774449D02*
X120614180Y-28850639D01*
X120614180Y-28850639D02*
X120690371Y-28888734D01*
X120690371Y-28888734D02*
X120842752Y-28926830D01*
X120842752Y-28926830D02*
X120957038Y-28926830D01*
X120957038Y-28926830D02*
X121109419Y-28888734D01*
X121109419Y-28888734D02*
X121185609Y-28850639D01*
X121185609Y-28850639D02*
X121261800Y-28774449D01*
X121261800Y-28774449D02*
X121299895Y-28660163D01*
X121299895Y-28660163D02*
X121299895Y-28583972D01*
X121299895Y-28583972D02*
X121261800Y-28469687D01*
X121261800Y-28469687D02*
X121223704Y-28431591D01*
X121223704Y-28431591D02*
X120957038Y-28431591D01*
X120957038Y-28431591D02*
X120957038Y-28583972D01*
X121299895Y-28088734D02*
X120499895Y-28088734D01*
X120499895Y-28088734D02*
X121299895Y-27631591D01*
X121299895Y-27631591D02*
X120499895Y-27631591D01*
X121299895Y-27250639D02*
X120499895Y-27250639D01*
X120499895Y-27250639D02*
X120499895Y-27060163D01*
X120499895Y-27060163D02*
X120537990Y-26945877D01*
X120537990Y-26945877D02*
X120614180Y-26869687D01*
X120614180Y-26869687D02*
X120690371Y-26831592D01*
X120690371Y-26831592D02*
X120842752Y-26793496D01*
X120842752Y-26793496D02*
X120957038Y-26793496D01*
X120957038Y-26793496D02*
X121109419Y-26831592D01*
X121109419Y-26831592D02*
X121185609Y-26869687D01*
X121185609Y-26869687D02*
X121261800Y-26945877D01*
X121261800Y-26945877D02*
X121299895Y-27060163D01*
X121299895Y-27060163D02*
X121299895Y-27250639D01*
X123472857Y-39314895D02*
X123472857Y-38514895D01*
X123472857Y-38514895D02*
X123739523Y-39086323D01*
X123739523Y-39086323D02*
X124006190Y-38514895D01*
X124006190Y-38514895D02*
X124006190Y-39314895D01*
X124539524Y-38514895D02*
X124691905Y-38514895D01*
X124691905Y-38514895D02*
X124768095Y-38552990D01*
X124768095Y-38552990D02*
X124844286Y-38629180D01*
X124844286Y-38629180D02*
X124882381Y-38781561D01*
X124882381Y-38781561D02*
X124882381Y-39048228D01*
X124882381Y-39048228D02*
X124844286Y-39200609D01*
X124844286Y-39200609D02*
X124768095Y-39276800D01*
X124768095Y-39276800D02*
X124691905Y-39314895D01*
X124691905Y-39314895D02*
X124539524Y-39314895D01*
X124539524Y-39314895D02*
X124463333Y-39276800D01*
X124463333Y-39276800D02*
X124387143Y-39200609D01*
X124387143Y-39200609D02*
X124349047Y-39048228D01*
X124349047Y-39048228D02*
X124349047Y-38781561D01*
X124349047Y-38781561D02*
X124387143Y-38629180D01*
X124387143Y-38629180D02*
X124463333Y-38552990D01*
X124463333Y-38552990D02*
X124539524Y-38514895D01*
X125187142Y-39276800D02*
X125301428Y-39314895D01*
X125301428Y-39314895D02*
X125491904Y-39314895D01*
X125491904Y-39314895D02*
X125568095Y-39276800D01*
X125568095Y-39276800D02*
X125606190Y-39238704D01*
X125606190Y-39238704D02*
X125644285Y-39162514D01*
X125644285Y-39162514D02*
X125644285Y-39086323D01*
X125644285Y-39086323D02*
X125606190Y-39010133D01*
X125606190Y-39010133D02*
X125568095Y-38972038D01*
X125568095Y-38972038D02*
X125491904Y-38933942D01*
X125491904Y-38933942D02*
X125339523Y-38895847D01*
X125339523Y-38895847D02*
X125263333Y-38857752D01*
X125263333Y-38857752D02*
X125225238Y-38819657D01*
X125225238Y-38819657D02*
X125187142Y-38743466D01*
X125187142Y-38743466D02*
X125187142Y-38667276D01*
X125187142Y-38667276D02*
X125225238Y-38591085D01*
X125225238Y-38591085D02*
X125263333Y-38552990D01*
X125263333Y-38552990D02*
X125339523Y-38514895D01*
X125339523Y-38514895D02*
X125530000Y-38514895D01*
X125530000Y-38514895D02*
X125644285Y-38552990D01*
X125987143Y-39314895D02*
X125987143Y-38514895D01*
D11*
X105354761Y-48689901D02*
X105597618Y-48770853D01*
X105597618Y-48770853D02*
X106002380Y-48770853D01*
X106002380Y-48770853D02*
X106164285Y-48689901D01*
X106164285Y-48689901D02*
X106245237Y-48608948D01*
X106245237Y-48608948D02*
X106326190Y-48447043D01*
X106326190Y-48447043D02*
X106326190Y-48285139D01*
X106326190Y-48285139D02*
X106245237Y-48123234D01*
X106245237Y-48123234D02*
X106164285Y-48042281D01*
X106164285Y-48042281D02*
X106002380Y-47961329D01*
X106002380Y-47961329D02*
X105678571Y-47880377D01*
X105678571Y-47880377D02*
X105516666Y-47799424D01*
X105516666Y-47799424D02*
X105435713Y-47718472D01*
X105435713Y-47718472D02*
X105354761Y-47556567D01*
X105354761Y-47556567D02*
X105354761Y-47394662D01*
X105354761Y-47394662D02*
X105435713Y-47232758D01*
X105435713Y-47232758D02*
X105516666Y-47151805D01*
X105516666Y-47151805D02*
X105678571Y-47070853D01*
X105678571Y-47070853D02*
X106083332Y-47070853D01*
X106083332Y-47070853D02*
X106326190Y-47151805D01*
X107054761Y-48770853D02*
X107054761Y-47070853D01*
X107054761Y-47070853D02*
X107459523Y-47070853D01*
X107459523Y-47070853D02*
X107702380Y-47151805D01*
X107702380Y-47151805D02*
X107864285Y-47313710D01*
X107864285Y-47313710D02*
X107945238Y-47475615D01*
X107945238Y-47475615D02*
X108026190Y-47799424D01*
X108026190Y-47799424D02*
X108026190Y-48042281D01*
X108026190Y-48042281D02*
X107945238Y-48366091D01*
X107945238Y-48366091D02*
X107864285Y-48527996D01*
X107864285Y-48527996D02*
X107702380Y-48689901D01*
X107702380Y-48689901D02*
X107459523Y-48770853D01*
X107459523Y-48770853D02*
X107054761Y-48770853D01*
X108673809Y-47232758D02*
X108754761Y-47151805D01*
X108754761Y-47151805D02*
X108916666Y-47070853D01*
X108916666Y-47070853D02*
X109321428Y-47070853D01*
X109321428Y-47070853D02*
X109483333Y-47151805D01*
X109483333Y-47151805D02*
X109564285Y-47232758D01*
X109564285Y-47232758D02*
X109645238Y-47394662D01*
X109645238Y-47394662D02*
X109645238Y-47556567D01*
X109645238Y-47556567D02*
X109564285Y-47799424D01*
X109564285Y-47799424D02*
X108592857Y-48770853D01*
X108592857Y-48770853D02*
X109645238Y-48770853D01*
D10*
X126313704Y-28426830D02*
X126351800Y-28469687D01*
X126351800Y-28469687D02*
X126389895Y-28588734D01*
X126389895Y-28588734D02*
X126389895Y-28664925D01*
X126389895Y-28664925D02*
X126351800Y-28774449D01*
X126351800Y-28774449D02*
X126275609Y-28841115D01*
X126275609Y-28841115D02*
X126199419Y-28869687D01*
X126199419Y-28869687D02*
X126047038Y-28888734D01*
X126047038Y-28888734D02*
X125932752Y-28874449D01*
X125932752Y-28874449D02*
X125780371Y-28817306D01*
X125780371Y-28817306D02*
X125704180Y-28769687D01*
X125704180Y-28769687D02*
X125627990Y-28683972D01*
X125627990Y-28683972D02*
X125589895Y-28564925D01*
X125589895Y-28564925D02*
X125589895Y-28488734D01*
X125589895Y-28488734D02*
X125627990Y-28379211D01*
X125627990Y-28379211D02*
X125666085Y-28345877D01*
X126351800Y-28126830D02*
X126389895Y-28017306D01*
X126389895Y-28017306D02*
X126389895Y-27826830D01*
X126389895Y-27826830D02*
X126351800Y-27745877D01*
X126351800Y-27745877D02*
X126313704Y-27703020D01*
X126313704Y-27703020D02*
X126237514Y-27655401D01*
X126237514Y-27655401D02*
X126161323Y-27645877D01*
X126161323Y-27645877D02*
X126085133Y-27674449D01*
X126085133Y-27674449D02*
X126047038Y-27707782D01*
X126047038Y-27707782D02*
X126008942Y-27779211D01*
X126008942Y-27779211D02*
X125970847Y-27926830D01*
X125970847Y-27926830D02*
X125932752Y-27998258D01*
X125932752Y-27998258D02*
X125894657Y-28031591D01*
X125894657Y-28031591D02*
X125818466Y-28060163D01*
X125818466Y-28060163D02*
X125742276Y-28050639D01*
X125742276Y-28050639D02*
X125666085Y-28003020D01*
X125666085Y-28003020D02*
X125627990Y-27960163D01*
X125627990Y-27960163D02*
X125589895Y-27879211D01*
X125589895Y-27879211D02*
X125589895Y-27688734D01*
X125589895Y-27688734D02*
X125627990Y-27579211D01*
X125666085Y-27279210D02*
X125627990Y-27236353D01*
X125627990Y-27236353D02*
X125589895Y-27155401D01*
X125589895Y-27155401D02*
X125589895Y-26964925D01*
X125589895Y-26964925D02*
X125627990Y-26893496D01*
X125627990Y-26893496D02*
X125666085Y-26860163D01*
X125666085Y-26860163D02*
X125742276Y-26831591D01*
X125742276Y-26831591D02*
X125818466Y-26841115D01*
X125818466Y-26841115D02*
X125932752Y-26893496D01*
X125932752Y-26893496D02*
X126389895Y-27407782D01*
X126389895Y-27407782D02*
X126389895Y-26912544D01*
X125367800Y-28999211D02*
X125367800Y-26835401D01*
X127100476Y-38552990D02*
X127024286Y-38514895D01*
X127024286Y-38514895D02*
X126910000Y-38514895D01*
X126910000Y-38514895D02*
X126795714Y-38552990D01*
X126795714Y-38552990D02*
X126719524Y-38629180D01*
X126719524Y-38629180D02*
X126681429Y-38705371D01*
X126681429Y-38705371D02*
X126643333Y-38857752D01*
X126643333Y-38857752D02*
X126643333Y-38972038D01*
X126643333Y-38972038D02*
X126681429Y-39124419D01*
X126681429Y-39124419D02*
X126719524Y-39200609D01*
X126719524Y-39200609D02*
X126795714Y-39276800D01*
X126795714Y-39276800D02*
X126910000Y-39314895D01*
X126910000Y-39314895D02*
X126986191Y-39314895D01*
X126986191Y-39314895D02*
X127100476Y-39276800D01*
X127100476Y-39276800D02*
X127138572Y-39238704D01*
X127138572Y-39238704D02*
X127138572Y-38972038D01*
X127138572Y-38972038D02*
X126986191Y-38972038D01*
X127481429Y-39314895D02*
X127481429Y-38514895D01*
X127481429Y-38514895D02*
X127938572Y-39314895D01*
X127938572Y-39314895D02*
X127938572Y-38514895D01*
X128319524Y-39314895D02*
X128319524Y-38514895D01*
X128319524Y-38514895D02*
X128510000Y-38514895D01*
X128510000Y-38514895D02*
X128624286Y-38552990D01*
X128624286Y-38552990D02*
X128700476Y-38629180D01*
X128700476Y-38629180D02*
X128738571Y-38705371D01*
X128738571Y-38705371D02*
X128776667Y-38857752D01*
X128776667Y-38857752D02*
X128776667Y-38972038D01*
X128776667Y-38972038D02*
X128738571Y-39124419D01*
X128738571Y-39124419D02*
X128700476Y-39200609D01*
X128700476Y-39200609D02*
X128624286Y-39276800D01*
X128624286Y-39276800D02*
X128510000Y-39314895D01*
X128510000Y-39314895D02*
X128319524Y-39314895D01*
X127324762Y-45944895D02*
X127058095Y-45563942D01*
X126867619Y-45944895D02*
X126867619Y-45144895D01*
X126867619Y-45144895D02*
X127172381Y-45144895D01*
X127172381Y-45144895D02*
X127248571Y-45182990D01*
X127248571Y-45182990D02*
X127286666Y-45221085D01*
X127286666Y-45221085D02*
X127324762Y-45297276D01*
X127324762Y-45297276D02*
X127324762Y-45411561D01*
X127324762Y-45411561D02*
X127286666Y-45487752D01*
X127286666Y-45487752D02*
X127248571Y-45525847D01*
X127248571Y-45525847D02*
X127172381Y-45563942D01*
X127172381Y-45563942D02*
X126867619Y-45563942D01*
X127667619Y-45525847D02*
X127934285Y-45525847D01*
X128048571Y-45944895D02*
X127667619Y-45944895D01*
X127667619Y-45944895D02*
X127667619Y-45144895D01*
X127667619Y-45144895D02*
X128048571Y-45144895D01*
X128353333Y-45906800D02*
X128467619Y-45944895D01*
X128467619Y-45944895D02*
X128658095Y-45944895D01*
X128658095Y-45944895D02*
X128734286Y-45906800D01*
X128734286Y-45906800D02*
X128772381Y-45868704D01*
X128772381Y-45868704D02*
X128810476Y-45792514D01*
X128810476Y-45792514D02*
X128810476Y-45716323D01*
X128810476Y-45716323D02*
X128772381Y-45640133D01*
X128772381Y-45640133D02*
X128734286Y-45602038D01*
X128734286Y-45602038D02*
X128658095Y-45563942D01*
X128658095Y-45563942D02*
X128505714Y-45525847D01*
X128505714Y-45525847D02*
X128429524Y-45487752D01*
X128429524Y-45487752D02*
X128391429Y-45449657D01*
X128391429Y-45449657D02*
X128353333Y-45373466D01*
X128353333Y-45373466D02*
X128353333Y-45297276D01*
X128353333Y-45297276D02*
X128391429Y-45221085D01*
X128391429Y-45221085D02*
X128429524Y-45182990D01*
X128429524Y-45182990D02*
X128505714Y-45144895D01*
X128505714Y-45144895D02*
X128696191Y-45144895D01*
X128696191Y-45144895D02*
X128810476Y-45182990D01*
X118285133Y-28888734D02*
X118285133Y-28279211D01*
X118589895Y-28583972D02*
X117980371Y-28583972D01*
X117789895Y-27517306D02*
X117789895Y-27898258D01*
X117789895Y-27898258D02*
X118170847Y-27936354D01*
X118170847Y-27936354D02*
X118132752Y-27898258D01*
X118132752Y-27898258D02*
X118094657Y-27822068D01*
X118094657Y-27822068D02*
X118094657Y-27631592D01*
X118094657Y-27631592D02*
X118132752Y-27555401D01*
X118132752Y-27555401D02*
X118170847Y-27517306D01*
X118170847Y-27517306D02*
X118247038Y-27479211D01*
X118247038Y-27479211D02*
X118437514Y-27479211D01*
X118437514Y-27479211D02*
X118513704Y-27517306D01*
X118513704Y-27517306D02*
X118551800Y-27555401D01*
X118551800Y-27555401D02*
X118589895Y-27631592D01*
X118589895Y-27631592D02*
X118589895Y-27822068D01*
X118589895Y-27822068D02*
X118551800Y-27898258D01*
X118551800Y-27898258D02*
X118513704Y-27936354D01*
X117789895Y-27250639D02*
X118589895Y-26983972D01*
X118589895Y-26983972D02*
X117789895Y-26717306D01*
D11*
X100757143Y-33219400D02*
X100971429Y-33290828D01*
X100971429Y-33290828D02*
X101328571Y-33290828D01*
X101328571Y-33290828D02*
X101471429Y-33219400D01*
X101471429Y-33219400D02*
X101542857Y-33147971D01*
X101542857Y-33147971D02*
X101614286Y-33005114D01*
X101614286Y-33005114D02*
X101614286Y-32862257D01*
X101614286Y-32862257D02*
X101542857Y-32719400D01*
X101542857Y-32719400D02*
X101471429Y-32647971D01*
X101471429Y-32647971D02*
X101328571Y-32576542D01*
X101328571Y-32576542D02*
X101042857Y-32505114D01*
X101042857Y-32505114D02*
X100900000Y-32433685D01*
X100900000Y-32433685D02*
X100828571Y-32362257D01*
X100828571Y-32362257D02*
X100757143Y-32219400D01*
X100757143Y-32219400D02*
X100757143Y-32076542D01*
X100757143Y-32076542D02*
X100828571Y-31933685D01*
X100828571Y-31933685D02*
X100900000Y-31862257D01*
X100900000Y-31862257D02*
X101042857Y-31790828D01*
X101042857Y-31790828D02*
X101400000Y-31790828D01*
X101400000Y-31790828D02*
X101614286Y-31862257D01*
X102257142Y-33290828D02*
X102257142Y-31790828D01*
X102257142Y-31790828D02*
X102614285Y-31790828D01*
X102614285Y-31790828D02*
X102828571Y-31862257D01*
X102828571Y-31862257D02*
X102971428Y-32005114D01*
X102971428Y-32005114D02*
X103042857Y-32147971D01*
X103042857Y-32147971D02*
X103114285Y-32433685D01*
X103114285Y-32433685D02*
X103114285Y-32647971D01*
X103114285Y-32647971D02*
X103042857Y-32933685D01*
X103042857Y-32933685D02*
X102971428Y-33076542D01*
X102971428Y-33076542D02*
X102828571Y-33219400D01*
X102828571Y-33219400D02*
X102614285Y-33290828D01*
X102614285Y-33290828D02*
X102257142Y-33290828D01*
X104542857Y-33290828D02*
X103685714Y-33290828D01*
X104114285Y-33290828D02*
X104114285Y-31790828D01*
X104114285Y-31790828D02*
X103971428Y-32005114D01*
X103971428Y-32005114D02*
X103828571Y-32147971D01*
X103828571Y-32147971D02*
X103685714Y-32219400D01*
D13*
X125850000Y-57616033D02*
X126183333Y-57616033D01*
X125783333Y-57816033D02*
X126016667Y-57116033D01*
X126016667Y-57116033D02*
X126250000Y-57816033D01*
X126383333Y-57116033D02*
X126783333Y-57116033D01*
X126583333Y-57816033D02*
X126583333Y-57116033D01*
X127016666Y-57816033D02*
X127016666Y-57116033D01*
X127016666Y-57116033D02*
X127250000Y-57616033D01*
X127250000Y-57616033D02*
X127483333Y-57116033D01*
X127483333Y-57116033D02*
X127483333Y-57816033D01*
X127816666Y-57449366D02*
X128050000Y-57449366D01*
X128150000Y-57816033D02*
X127816666Y-57816033D01*
X127816666Y-57816033D02*
X127816666Y-57116033D01*
X127816666Y-57116033D02*
X128150000Y-57116033D01*
X128816666Y-57149366D02*
X128749999Y-57116033D01*
X128749999Y-57116033D02*
X128649999Y-57116033D01*
X128649999Y-57116033D02*
X128549999Y-57149366D01*
X128549999Y-57149366D02*
X128483333Y-57216033D01*
X128483333Y-57216033D02*
X128449999Y-57282700D01*
X128449999Y-57282700D02*
X128416666Y-57416033D01*
X128416666Y-57416033D02*
X128416666Y-57516033D01*
X128416666Y-57516033D02*
X128449999Y-57649366D01*
X128449999Y-57649366D02*
X128483333Y-57716033D01*
X128483333Y-57716033D02*
X128549999Y-57782700D01*
X128549999Y-57782700D02*
X128649999Y-57816033D01*
X128649999Y-57816033D02*
X128716666Y-57816033D01*
X128716666Y-57816033D02*
X128816666Y-57782700D01*
X128816666Y-57782700D02*
X128849999Y-57749366D01*
X128849999Y-57749366D02*
X128849999Y-57516033D01*
X128849999Y-57516033D02*
X128716666Y-57516033D01*
X129116666Y-57616033D02*
X129449999Y-57616033D01*
X129049999Y-57816033D02*
X129283333Y-57116033D01*
X129283333Y-57116033D02*
X129516666Y-57816033D01*
X129683333Y-57116033D02*
X130116666Y-57116033D01*
X130116666Y-57116033D02*
X129883333Y-57382700D01*
X129883333Y-57382700D02*
X129983333Y-57382700D01*
X129983333Y-57382700D02*
X130049999Y-57416033D01*
X130049999Y-57416033D02*
X130083333Y-57449366D01*
X130083333Y-57449366D02*
X130116666Y-57516033D01*
X130116666Y-57516033D02*
X130116666Y-57682700D01*
X130116666Y-57682700D02*
X130083333Y-57749366D01*
X130083333Y-57749366D02*
X130049999Y-57782700D01*
X130049999Y-57782700D02*
X129983333Y-57816033D01*
X129983333Y-57816033D02*
X129783333Y-57816033D01*
X129783333Y-57816033D02*
X129716666Y-57782700D01*
X129716666Y-57782700D02*
X129683333Y-57749366D01*
X130383333Y-57182700D02*
X130416666Y-57149366D01*
X130416666Y-57149366D02*
X130483333Y-57116033D01*
X130483333Y-57116033D02*
X130650000Y-57116033D01*
X130650000Y-57116033D02*
X130716666Y-57149366D01*
X130716666Y-57149366D02*
X130750000Y-57182700D01*
X130750000Y-57182700D02*
X130783333Y-57249366D01*
X130783333Y-57249366D02*
X130783333Y-57316033D01*
X130783333Y-57316033D02*
X130750000Y-57416033D01*
X130750000Y-57416033D02*
X130350000Y-57816033D01*
X130350000Y-57816033D02*
X130783333Y-57816033D01*
X131183333Y-57416033D02*
X131116667Y-57382700D01*
X131116667Y-57382700D02*
X131083333Y-57349366D01*
X131083333Y-57349366D02*
X131050000Y-57282700D01*
X131050000Y-57282700D02*
X131050000Y-57249366D01*
X131050000Y-57249366D02*
X131083333Y-57182700D01*
X131083333Y-57182700D02*
X131116667Y-57149366D01*
X131116667Y-57149366D02*
X131183333Y-57116033D01*
X131183333Y-57116033D02*
X131316667Y-57116033D01*
X131316667Y-57116033D02*
X131383333Y-57149366D01*
X131383333Y-57149366D02*
X131416667Y-57182700D01*
X131416667Y-57182700D02*
X131450000Y-57249366D01*
X131450000Y-57249366D02*
X131450000Y-57282700D01*
X131450000Y-57282700D02*
X131416667Y-57349366D01*
X131416667Y-57349366D02*
X131383333Y-57382700D01*
X131383333Y-57382700D02*
X131316667Y-57416033D01*
X131316667Y-57416033D02*
X131183333Y-57416033D01*
X131183333Y-57416033D02*
X131116667Y-57449366D01*
X131116667Y-57449366D02*
X131083333Y-57482700D01*
X131083333Y-57482700D02*
X131050000Y-57549366D01*
X131050000Y-57549366D02*
X131050000Y-57682700D01*
X131050000Y-57682700D02*
X131083333Y-57749366D01*
X131083333Y-57749366D02*
X131116667Y-57782700D01*
X131116667Y-57782700D02*
X131183333Y-57816033D01*
X131183333Y-57816033D02*
X131316667Y-57816033D01*
X131316667Y-57816033D02*
X131383333Y-57782700D01*
X131383333Y-57782700D02*
X131416667Y-57749366D01*
X131416667Y-57749366D02*
X131450000Y-57682700D01*
X131450000Y-57682700D02*
X131450000Y-57549366D01*
X131450000Y-57549366D02*
X131416667Y-57482700D01*
X131416667Y-57482700D02*
X131383333Y-57449366D01*
X131383333Y-57449366D02*
X131316667Y-57416033D01*
X131750000Y-57816033D02*
X131750000Y-57116033D01*
X131750000Y-57116033D02*
X132016667Y-57116033D01*
X132016667Y-57116033D02*
X132083334Y-57149366D01*
X132083334Y-57149366D02*
X132116667Y-57182700D01*
X132116667Y-57182700D02*
X132150000Y-57249366D01*
X132150000Y-57249366D02*
X132150000Y-57349366D01*
X132150000Y-57349366D02*
X132116667Y-57416033D01*
X132116667Y-57416033D02*
X132083334Y-57449366D01*
X132083334Y-57449366D02*
X132016667Y-57482700D01*
X132016667Y-57482700D02*
X131750000Y-57482700D01*
D11*
X110871428Y-32442614D02*
X111371428Y-32442614D01*
X111585714Y-33228328D02*
X110871428Y-33228328D01*
X110871428Y-33228328D02*
X110871428Y-31728328D01*
X110871428Y-31728328D02*
X111585714Y-31728328D01*
X112014286Y-31728328D02*
X112871429Y-31728328D01*
X112442857Y-33228328D02*
X112442857Y-31728328D01*
X113371428Y-33228328D02*
X113371428Y-31728328D01*
X113371428Y-32442614D02*
X114228571Y-32442614D01*
X114228571Y-33228328D02*
X114228571Y-31728328D01*
D13*
X174333333Y-85954819D02*
X174999999Y-85954819D01*
X174999999Y-85954819D02*
X174571428Y-86954819D01*
X175809523Y-86288152D02*
X175809523Y-86954819D01*
X175571428Y-85907200D02*
X175333333Y-86621485D01*
X175333333Y-86621485D02*
X175952380Y-86621485D01*
X176333333Y-86954819D02*
X176333333Y-85954819D01*
X176333333Y-86431009D02*
X176904761Y-86431009D01*
X176904761Y-86954819D02*
X176904761Y-85954819D01*
X177952380Y-86859580D02*
X177904761Y-86907200D01*
X177904761Y-86907200D02*
X177761904Y-86954819D01*
X177761904Y-86954819D02*
X177666666Y-86954819D01*
X177666666Y-86954819D02*
X177523809Y-86907200D01*
X177523809Y-86907200D02*
X177428571Y-86811961D01*
X177428571Y-86811961D02*
X177380952Y-86716723D01*
X177380952Y-86716723D02*
X177333333Y-86526247D01*
X177333333Y-86526247D02*
X177333333Y-86383390D01*
X177333333Y-86383390D02*
X177380952Y-86192914D01*
X177380952Y-86192914D02*
X177428571Y-86097676D01*
X177428571Y-86097676D02*
X177523809Y-86002438D01*
X177523809Y-86002438D02*
X177666666Y-85954819D01*
X177666666Y-85954819D02*
X177761904Y-85954819D01*
X177761904Y-85954819D02*
X177904761Y-86002438D01*
X177904761Y-86002438D02*
X177952380Y-86050057D01*
X178238095Y-85954819D02*
X178809523Y-85954819D01*
X178523809Y-86954819D02*
X178523809Y-85954819D01*
X179333333Y-85954819D02*
X179428571Y-85954819D01*
X179428571Y-85954819D02*
X179523809Y-86002438D01*
X179523809Y-86002438D02*
X179571428Y-86050057D01*
X179571428Y-86050057D02*
X179619047Y-86145295D01*
X179619047Y-86145295D02*
X179666666Y-86335771D01*
X179666666Y-86335771D02*
X179666666Y-86573866D01*
X179666666Y-86573866D02*
X179619047Y-86764342D01*
X179619047Y-86764342D02*
X179571428Y-86859580D01*
X179571428Y-86859580D02*
X179523809Y-86907200D01*
X179523809Y-86907200D02*
X179428571Y-86954819D01*
X179428571Y-86954819D02*
X179333333Y-86954819D01*
X179333333Y-86954819D02*
X179238095Y-86907200D01*
X179238095Y-86907200D02*
X179190476Y-86859580D01*
X179190476Y-86859580D02*
X179142857Y-86764342D01*
X179142857Y-86764342D02*
X179095238Y-86573866D01*
X179095238Y-86573866D02*
X179095238Y-86335771D01*
X179095238Y-86335771D02*
X179142857Y-86145295D01*
X179142857Y-86145295D02*
X179190476Y-86050057D01*
X179190476Y-86050057D02*
X179238095Y-86002438D01*
X179238095Y-86002438D02*
X179333333Y-85954819D01*
X180285714Y-85954819D02*
X180380952Y-85954819D01*
X180380952Y-85954819D02*
X180476190Y-86002438D01*
X180476190Y-86002438D02*
X180523809Y-86050057D01*
X180523809Y-86050057D02*
X180571428Y-86145295D01*
X180571428Y-86145295D02*
X180619047Y-86335771D01*
X180619047Y-86335771D02*
X180619047Y-86573866D01*
X180619047Y-86573866D02*
X180571428Y-86764342D01*
X180571428Y-86764342D02*
X180523809Y-86859580D01*
X180523809Y-86859580D02*
X180476190Y-86907200D01*
X180476190Y-86907200D02*
X180380952Y-86954819D01*
X180380952Y-86954819D02*
X180285714Y-86954819D01*
X180285714Y-86954819D02*
X180190476Y-86907200D01*
X180190476Y-86907200D02*
X180142857Y-86859580D01*
X180142857Y-86859580D02*
X180095238Y-86764342D01*
X180095238Y-86764342D02*
X180047619Y-86573866D01*
X180047619Y-86573866D02*
X180047619Y-86335771D01*
X180047619Y-86335771D02*
X180095238Y-86145295D01*
X180095238Y-86145295D02*
X180142857Y-86050057D01*
X180142857Y-86050057D02*
X180190476Y-86002438D01*
X180190476Y-86002438D02*
X180285714Y-85954819D01*
D10*
X130451800Y-37770313D02*
X130489895Y-37656027D01*
X130489895Y-37656027D02*
X130489895Y-37465551D01*
X130489895Y-37465551D02*
X130451800Y-37389360D01*
X130451800Y-37389360D02*
X130413704Y-37351265D01*
X130413704Y-37351265D02*
X130337514Y-37313170D01*
X130337514Y-37313170D02*
X130261323Y-37313170D01*
X130261323Y-37313170D02*
X130185133Y-37351265D01*
X130185133Y-37351265D02*
X130147038Y-37389360D01*
X130147038Y-37389360D02*
X130108942Y-37465551D01*
X130108942Y-37465551D02*
X130070847Y-37617932D01*
X130070847Y-37617932D02*
X130032752Y-37694122D01*
X130032752Y-37694122D02*
X129994657Y-37732217D01*
X129994657Y-37732217D02*
X129918466Y-37770313D01*
X129918466Y-37770313D02*
X129842276Y-37770313D01*
X129842276Y-37770313D02*
X129766085Y-37732217D01*
X129766085Y-37732217D02*
X129727990Y-37694122D01*
X129727990Y-37694122D02*
X129689895Y-37617932D01*
X129689895Y-37617932D02*
X129689895Y-37427455D01*
X129689895Y-37427455D02*
X129727990Y-37313170D01*
X130413704Y-36513169D02*
X130451800Y-36551265D01*
X130451800Y-36551265D02*
X130489895Y-36665550D01*
X130489895Y-36665550D02*
X130489895Y-36741741D01*
X130489895Y-36741741D02*
X130451800Y-36856027D01*
X130451800Y-36856027D02*
X130375609Y-36932217D01*
X130375609Y-36932217D02*
X130299419Y-36970312D01*
X130299419Y-36970312D02*
X130147038Y-37008408D01*
X130147038Y-37008408D02*
X130032752Y-37008408D01*
X130032752Y-37008408D02*
X129880371Y-36970312D01*
X129880371Y-36970312D02*
X129804180Y-36932217D01*
X129804180Y-36932217D02*
X129727990Y-36856027D01*
X129727990Y-36856027D02*
X129689895Y-36741741D01*
X129689895Y-36741741D02*
X129689895Y-36665550D01*
X129689895Y-36665550D02*
X129727990Y-36551265D01*
X129727990Y-36551265D02*
X129766085Y-36513169D01*
X130489895Y-36170312D02*
X129689895Y-36170312D01*
X130489895Y-35713169D02*
X130032752Y-36056027D01*
X129689895Y-35713169D02*
X130147038Y-36170312D01*
D12*
X133550000Y-30697247D02*
X133788095Y-31697247D01*
X133788095Y-31697247D02*
X133978571Y-30982961D01*
X133978571Y-30982961D02*
X134169047Y-31697247D01*
X134169047Y-31697247D02*
X134407143Y-30697247D01*
X134788095Y-31697247D02*
X134788095Y-30697247D01*
X135169047Y-30697247D02*
X135835713Y-30697247D01*
X135835713Y-30697247D02*
X135169047Y-31697247D01*
X135169047Y-31697247D02*
X135835713Y-31697247D01*
X136216666Y-31697247D02*
X136216666Y-30697247D01*
X136216666Y-30697247D02*
X136788094Y-31697247D01*
X136788094Y-31697247D02*
X136788094Y-30697247D01*
X137264285Y-31173437D02*
X137597618Y-31173437D01*
X137740475Y-31697247D02*
X137264285Y-31697247D01*
X137264285Y-31697247D02*
X137264285Y-30697247D01*
X137264285Y-30697247D02*
X137740475Y-30697247D01*
X138026190Y-30697247D02*
X138597618Y-30697247D01*
X138311904Y-31697247D02*
X138311904Y-30697247D01*
X133716667Y-32307191D02*
X133954762Y-33307191D01*
X133954762Y-33307191D02*
X134145238Y-32592905D01*
X134145238Y-32592905D02*
X134335714Y-33307191D01*
X134335714Y-33307191D02*
X134573810Y-32307191D01*
X135430952Y-32307191D02*
X134954762Y-32307191D01*
X134954762Y-32307191D02*
X134907143Y-32783381D01*
X134907143Y-32783381D02*
X134954762Y-32735762D01*
X134954762Y-32735762D02*
X135050000Y-32688143D01*
X135050000Y-32688143D02*
X135288095Y-32688143D01*
X135288095Y-32688143D02*
X135383333Y-32735762D01*
X135383333Y-32735762D02*
X135430952Y-32783381D01*
X135430952Y-32783381D02*
X135478571Y-32878619D01*
X135478571Y-32878619D02*
X135478571Y-33116714D01*
X135478571Y-33116714D02*
X135430952Y-33211952D01*
X135430952Y-33211952D02*
X135383333Y-33259572D01*
X135383333Y-33259572D02*
X135288095Y-33307191D01*
X135288095Y-33307191D02*
X135050000Y-33307191D01*
X135050000Y-33307191D02*
X134954762Y-33259572D01*
X134954762Y-33259572D02*
X134907143Y-33211952D01*
X136383333Y-32307191D02*
X135907143Y-32307191D01*
X135907143Y-32307191D02*
X135859524Y-32783381D01*
X135859524Y-32783381D02*
X135907143Y-32735762D01*
X135907143Y-32735762D02*
X136002381Y-32688143D01*
X136002381Y-32688143D02*
X136240476Y-32688143D01*
X136240476Y-32688143D02*
X136335714Y-32735762D01*
X136335714Y-32735762D02*
X136383333Y-32783381D01*
X136383333Y-32783381D02*
X136430952Y-32878619D01*
X136430952Y-32878619D02*
X136430952Y-33116714D01*
X136430952Y-33116714D02*
X136383333Y-33211952D01*
X136383333Y-33211952D02*
X136335714Y-33259572D01*
X136335714Y-33259572D02*
X136240476Y-33307191D01*
X136240476Y-33307191D02*
X136002381Y-33307191D01*
X136002381Y-33307191D02*
X135907143Y-33259572D01*
X135907143Y-33259572D02*
X135859524Y-33211952D01*
X137050000Y-32307191D02*
X137145238Y-32307191D01*
X137145238Y-32307191D02*
X137240476Y-32354810D01*
X137240476Y-32354810D02*
X137288095Y-32402429D01*
X137288095Y-32402429D02*
X137335714Y-32497667D01*
X137335714Y-32497667D02*
X137383333Y-32688143D01*
X137383333Y-32688143D02*
X137383333Y-32926238D01*
X137383333Y-32926238D02*
X137335714Y-33116714D01*
X137335714Y-33116714D02*
X137288095Y-33211952D01*
X137288095Y-33211952D02*
X137240476Y-33259572D01*
X137240476Y-33259572D02*
X137145238Y-33307191D01*
X137145238Y-33307191D02*
X137050000Y-33307191D01*
X137050000Y-33307191D02*
X136954762Y-33259572D01*
X136954762Y-33259572D02*
X136907143Y-33211952D01*
X136907143Y-33211952D02*
X136859524Y-33116714D01*
X136859524Y-33116714D02*
X136811905Y-32926238D01*
X136811905Y-32926238D02*
X136811905Y-32688143D01*
X136811905Y-32688143D02*
X136859524Y-32497667D01*
X136859524Y-32497667D02*
X136907143Y-32402429D01*
X136907143Y-32402429D02*
X136954762Y-32354810D01*
X136954762Y-32354810D02*
X137050000Y-32307191D01*
X138002381Y-32307191D02*
X138097619Y-32307191D01*
X138097619Y-32307191D02*
X138192857Y-32354810D01*
X138192857Y-32354810D02*
X138240476Y-32402429D01*
X138240476Y-32402429D02*
X138288095Y-32497667D01*
X138288095Y-32497667D02*
X138335714Y-32688143D01*
X138335714Y-32688143D02*
X138335714Y-32926238D01*
X138335714Y-32926238D02*
X138288095Y-33116714D01*
X138288095Y-33116714D02*
X138240476Y-33211952D01*
X138240476Y-33211952D02*
X138192857Y-33259572D01*
X138192857Y-33259572D02*
X138097619Y-33307191D01*
X138097619Y-33307191D02*
X138002381Y-33307191D01*
X138002381Y-33307191D02*
X137907143Y-33259572D01*
X137907143Y-33259572D02*
X137859524Y-33211952D01*
X137859524Y-33211952D02*
X137811905Y-33116714D01*
X137811905Y-33116714D02*
X137764286Y-32926238D01*
X137764286Y-32926238D02*
X137764286Y-32688143D01*
X137764286Y-32688143D02*
X137811905Y-32497667D01*
X137811905Y-32497667D02*
X137859524Y-32402429D01*
X137859524Y-32402429D02*
X137907143Y-32354810D01*
X137907143Y-32354810D02*
X138002381Y-32307191D01*
D13*
X161968714Y-41687819D02*
X161397286Y-41687819D01*
X161683000Y-41687819D02*
X161683000Y-40687819D01*
X161683000Y-40687819D02*
X161587762Y-40830676D01*
X161587762Y-40830676D02*
X161492524Y-40925914D01*
X161492524Y-40925914D02*
X161397286Y-40973533D01*
X129399819Y-68639285D02*
X129399819Y-69210713D01*
X129399819Y-68924999D02*
X128399819Y-68924999D01*
X128399819Y-68924999D02*
X128542676Y-69020237D01*
X128542676Y-69020237D02*
X128637914Y-69115475D01*
X128637914Y-69115475D02*
X128685533Y-69210713D01*
D10*
X122889895Y-38265550D02*
X122089895Y-38265550D01*
X122089895Y-38265550D02*
X122661323Y-37998884D01*
X122661323Y-37998884D02*
X122089895Y-37732217D01*
X122089895Y-37732217D02*
X122889895Y-37732217D01*
X122889895Y-37351264D02*
X122089895Y-37351264D01*
X122851800Y-37008408D02*
X122889895Y-36894122D01*
X122889895Y-36894122D02*
X122889895Y-36703646D01*
X122889895Y-36703646D02*
X122851800Y-36627455D01*
X122851800Y-36627455D02*
X122813704Y-36589360D01*
X122813704Y-36589360D02*
X122737514Y-36551265D01*
X122737514Y-36551265D02*
X122661323Y-36551265D01*
X122661323Y-36551265D02*
X122585133Y-36589360D01*
X122585133Y-36589360D02*
X122547038Y-36627455D01*
X122547038Y-36627455D02*
X122508942Y-36703646D01*
X122508942Y-36703646D02*
X122470847Y-36856027D01*
X122470847Y-36856027D02*
X122432752Y-36932217D01*
X122432752Y-36932217D02*
X122394657Y-36970312D01*
X122394657Y-36970312D02*
X122318466Y-37008408D01*
X122318466Y-37008408D02*
X122242276Y-37008408D01*
X122242276Y-37008408D02*
X122166085Y-36970312D01*
X122166085Y-36970312D02*
X122127990Y-36932217D01*
X122127990Y-36932217D02*
X122089895Y-36856027D01*
X122089895Y-36856027D02*
X122089895Y-36665550D01*
X122089895Y-36665550D02*
X122127990Y-36551265D01*
X122089895Y-36056026D02*
X122089895Y-35903645D01*
X122089895Y-35903645D02*
X122127990Y-35827455D01*
X122127990Y-35827455D02*
X122204180Y-35751264D01*
X122204180Y-35751264D02*
X122356561Y-35713169D01*
X122356561Y-35713169D02*
X122623228Y-35713169D01*
X122623228Y-35713169D02*
X122775609Y-35751264D01*
X122775609Y-35751264D02*
X122851800Y-35827455D01*
X122851800Y-35827455D02*
X122889895Y-35903645D01*
X122889895Y-35903645D02*
X122889895Y-36056026D01*
X122889895Y-36056026D02*
X122851800Y-36132217D01*
X122851800Y-36132217D02*
X122775609Y-36208407D01*
X122775609Y-36208407D02*
X122623228Y-36246503D01*
X122623228Y-36246503D02*
X122356561Y-36246503D01*
X122356561Y-36246503D02*
X122204180Y-36208407D01*
X122204180Y-36208407D02*
X122127990Y-36132217D01*
X122127990Y-36132217D02*
X122089895Y-36056026D01*
D11*
X161499999Y-29615828D02*
X161499999Y-28115828D01*
X161499999Y-28115828D02*
X162071428Y-28115828D01*
X162071428Y-28115828D02*
X162214285Y-28187257D01*
X162214285Y-28187257D02*
X162285714Y-28258685D01*
X162285714Y-28258685D02*
X162357142Y-28401542D01*
X162357142Y-28401542D02*
X162357142Y-28615828D01*
X162357142Y-28615828D02*
X162285714Y-28758685D01*
X162285714Y-28758685D02*
X162214285Y-28830114D01*
X162214285Y-28830114D02*
X162071428Y-28901542D01*
X162071428Y-28901542D02*
X161499999Y-28901542D01*
X162857142Y-28115828D02*
X163214285Y-29615828D01*
X163214285Y-29615828D02*
X163499999Y-28544400D01*
X163499999Y-28544400D02*
X163785714Y-29615828D01*
X163785714Y-29615828D02*
X164142857Y-28115828D01*
X165571428Y-29615828D02*
X165071428Y-28901542D01*
X164714285Y-29615828D02*
X164714285Y-28115828D01*
X164714285Y-28115828D02*
X165285714Y-28115828D01*
X165285714Y-28115828D02*
X165428571Y-28187257D01*
X165428571Y-28187257D02*
X165500000Y-28258685D01*
X165500000Y-28258685D02*
X165571428Y-28401542D01*
X165571428Y-28401542D02*
X165571428Y-28615828D01*
X165571428Y-28615828D02*
X165500000Y-28758685D01*
X165500000Y-28758685D02*
X165428571Y-28830114D01*
X165428571Y-28830114D02*
X165285714Y-28901542D01*
X165285714Y-28901542D02*
X164714285Y-28901542D01*
D14*
X110269380Y-39026003D02*
X110317000Y-39073622D01*
X110317000Y-39073622D02*
X110364619Y-39216479D01*
X110364619Y-39216479D02*
X110364619Y-39311717D01*
X110364619Y-39311717D02*
X110317000Y-39454574D01*
X110317000Y-39454574D02*
X110221761Y-39549812D01*
X110221761Y-39549812D02*
X110126523Y-39597431D01*
X110126523Y-39597431D02*
X109936047Y-39645050D01*
X109936047Y-39645050D02*
X109793190Y-39645050D01*
X109793190Y-39645050D02*
X109602714Y-39597431D01*
X109602714Y-39597431D02*
X109507476Y-39549812D01*
X109507476Y-39549812D02*
X109412238Y-39454574D01*
X109412238Y-39454574D02*
X109364619Y-39311717D01*
X109364619Y-39311717D02*
X109364619Y-39216479D01*
X109364619Y-39216479D02*
X109412238Y-39073622D01*
X109412238Y-39073622D02*
X109459857Y-39026003D01*
X110317000Y-38645050D02*
X110364619Y-38502193D01*
X110364619Y-38502193D02*
X110364619Y-38264098D01*
X110364619Y-38264098D02*
X110317000Y-38168860D01*
X110317000Y-38168860D02*
X110269380Y-38121241D01*
X110269380Y-38121241D02*
X110174142Y-38073622D01*
X110174142Y-38073622D02*
X110078904Y-38073622D01*
X110078904Y-38073622D02*
X109983666Y-38121241D01*
X109983666Y-38121241D02*
X109936047Y-38168860D01*
X109936047Y-38168860D02*
X109888428Y-38264098D01*
X109888428Y-38264098D02*
X109840809Y-38454574D01*
X109840809Y-38454574D02*
X109793190Y-38549812D01*
X109793190Y-38549812D02*
X109745571Y-38597431D01*
X109745571Y-38597431D02*
X109650333Y-38645050D01*
X109650333Y-38645050D02*
X109555095Y-38645050D01*
X109555095Y-38645050D02*
X109459857Y-38597431D01*
X109459857Y-38597431D02*
X109412238Y-38549812D01*
X109412238Y-38549812D02*
X109364619Y-38454574D01*
X109364619Y-38454574D02*
X109364619Y-38216479D01*
X109364619Y-38216479D02*
X109412238Y-38073622D01*
X109459857Y-37692669D02*
X109412238Y-37645050D01*
X109412238Y-37645050D02*
X109364619Y-37549812D01*
X109364619Y-37549812D02*
X109364619Y-37311717D01*
X109364619Y-37311717D02*
X109412238Y-37216479D01*
X109412238Y-37216479D02*
X109459857Y-37168860D01*
X109459857Y-37168860D02*
X109555095Y-37121241D01*
X109555095Y-37121241D02*
X109650333Y-37121241D01*
X109650333Y-37121241D02*
X109793190Y-37168860D01*
X109793190Y-37168860D02*
X110364619Y-37740288D01*
X110364619Y-37740288D02*
X110364619Y-37121241D01*
D13*
X154267333Y-86112819D02*
X154933999Y-86112819D01*
X154933999Y-86112819D02*
X154505428Y-87112819D01*
X155743523Y-86446152D02*
X155743523Y-87112819D01*
X155505428Y-86065200D02*
X155267333Y-86779485D01*
X155267333Y-86779485D02*
X155886380Y-86779485D01*
X156267333Y-87112819D02*
X156267333Y-86112819D01*
X156267333Y-86589009D02*
X156838761Y-86589009D01*
X156838761Y-87112819D02*
X156838761Y-86112819D01*
X157886380Y-87017580D02*
X157838761Y-87065200D01*
X157838761Y-87065200D02*
X157695904Y-87112819D01*
X157695904Y-87112819D02*
X157600666Y-87112819D01*
X157600666Y-87112819D02*
X157457809Y-87065200D01*
X157457809Y-87065200D02*
X157362571Y-86969961D01*
X157362571Y-86969961D02*
X157314952Y-86874723D01*
X157314952Y-86874723D02*
X157267333Y-86684247D01*
X157267333Y-86684247D02*
X157267333Y-86541390D01*
X157267333Y-86541390D02*
X157314952Y-86350914D01*
X157314952Y-86350914D02*
X157362571Y-86255676D01*
X157362571Y-86255676D02*
X157457809Y-86160438D01*
X157457809Y-86160438D02*
X157600666Y-86112819D01*
X157600666Y-86112819D02*
X157695904Y-86112819D01*
X157695904Y-86112819D02*
X157838761Y-86160438D01*
X157838761Y-86160438D02*
X157886380Y-86208057D01*
X158172095Y-86112819D02*
X158743523Y-86112819D01*
X158457809Y-87112819D02*
X158457809Y-86112819D01*
X158981619Y-86112819D02*
X159600666Y-86112819D01*
X159600666Y-86112819D02*
X159267333Y-86493771D01*
X159267333Y-86493771D02*
X159410190Y-86493771D01*
X159410190Y-86493771D02*
X159505428Y-86541390D01*
X159505428Y-86541390D02*
X159553047Y-86589009D01*
X159553047Y-86589009D02*
X159600666Y-86684247D01*
X159600666Y-86684247D02*
X159600666Y-86922342D01*
X159600666Y-86922342D02*
X159553047Y-87017580D01*
X159553047Y-87017580D02*
X159505428Y-87065200D01*
X159505428Y-87065200D02*
X159410190Y-87112819D01*
X159410190Y-87112819D02*
X159124476Y-87112819D01*
X159124476Y-87112819D02*
X159029238Y-87065200D01*
X159029238Y-87065200D02*
X158981619Y-87017580D01*
X159981619Y-86208057D02*
X160029238Y-86160438D01*
X160029238Y-86160438D02*
X160124476Y-86112819D01*
X160124476Y-86112819D02*
X160362571Y-86112819D01*
X160362571Y-86112819D02*
X160457809Y-86160438D01*
X160457809Y-86160438D02*
X160505428Y-86208057D01*
X160505428Y-86208057D02*
X160553047Y-86303295D01*
X160553047Y-86303295D02*
X160553047Y-86398533D01*
X160553047Y-86398533D02*
X160505428Y-86541390D01*
X160505428Y-86541390D02*
X159934000Y-87112819D01*
X159934000Y-87112819D02*
X160553047Y-87112819D01*
D10*
X124011428Y-45886800D02*
X124125714Y-45924895D01*
X124125714Y-45924895D02*
X124316190Y-45924895D01*
X124316190Y-45924895D02*
X124392381Y-45886800D01*
X124392381Y-45886800D02*
X124430476Y-45848704D01*
X124430476Y-45848704D02*
X124468571Y-45772514D01*
X124468571Y-45772514D02*
X124468571Y-45696323D01*
X124468571Y-45696323D02*
X124430476Y-45620133D01*
X124430476Y-45620133D02*
X124392381Y-45582038D01*
X124392381Y-45582038D02*
X124316190Y-45543942D01*
X124316190Y-45543942D02*
X124163809Y-45505847D01*
X124163809Y-45505847D02*
X124087619Y-45467752D01*
X124087619Y-45467752D02*
X124049524Y-45429657D01*
X124049524Y-45429657D02*
X124011428Y-45353466D01*
X124011428Y-45353466D02*
X124011428Y-45277276D01*
X124011428Y-45277276D02*
X124049524Y-45201085D01*
X124049524Y-45201085D02*
X124087619Y-45162990D01*
X124087619Y-45162990D02*
X124163809Y-45124895D01*
X124163809Y-45124895D02*
X124354286Y-45124895D01*
X124354286Y-45124895D02*
X124468571Y-45162990D01*
X125268572Y-45848704D02*
X125230476Y-45886800D01*
X125230476Y-45886800D02*
X125116191Y-45924895D01*
X125116191Y-45924895D02*
X125040000Y-45924895D01*
X125040000Y-45924895D02*
X124925714Y-45886800D01*
X124925714Y-45886800D02*
X124849524Y-45810609D01*
X124849524Y-45810609D02*
X124811429Y-45734419D01*
X124811429Y-45734419D02*
X124773333Y-45582038D01*
X124773333Y-45582038D02*
X124773333Y-45467752D01*
X124773333Y-45467752D02*
X124811429Y-45315371D01*
X124811429Y-45315371D02*
X124849524Y-45239180D01*
X124849524Y-45239180D02*
X124925714Y-45162990D01*
X124925714Y-45162990D02*
X125040000Y-45124895D01*
X125040000Y-45124895D02*
X125116191Y-45124895D01*
X125116191Y-45124895D02*
X125230476Y-45162990D01*
X125230476Y-45162990D02*
X125268572Y-45201085D01*
X125611429Y-45924895D02*
X125611429Y-45124895D01*
X126068572Y-45924895D02*
X125725714Y-45467752D01*
X126068572Y-45124895D02*
X125611429Y-45582038D01*
X130443704Y-29126830D02*
X130481800Y-29169687D01*
X130481800Y-29169687D02*
X130519895Y-29288734D01*
X130519895Y-29288734D02*
X130519895Y-29364925D01*
X130519895Y-29364925D02*
X130481800Y-29474449D01*
X130481800Y-29474449D02*
X130405609Y-29541115D01*
X130405609Y-29541115D02*
X130329419Y-29569687D01*
X130329419Y-29569687D02*
X130177038Y-29588734D01*
X130177038Y-29588734D02*
X130062752Y-29574449D01*
X130062752Y-29574449D02*
X129910371Y-29517306D01*
X129910371Y-29517306D02*
X129834180Y-29469687D01*
X129834180Y-29469687D02*
X129757990Y-29383972D01*
X129757990Y-29383972D02*
X129719895Y-29264925D01*
X129719895Y-29264925D02*
X129719895Y-29188734D01*
X129719895Y-29188734D02*
X129757990Y-29079211D01*
X129757990Y-29079211D02*
X129796085Y-29045877D01*
X130481800Y-28826830D02*
X130519895Y-28717306D01*
X130519895Y-28717306D02*
X130519895Y-28526830D01*
X130519895Y-28526830D02*
X130481800Y-28445877D01*
X130481800Y-28445877D02*
X130443704Y-28403020D01*
X130443704Y-28403020D02*
X130367514Y-28355401D01*
X130367514Y-28355401D02*
X130291323Y-28345877D01*
X130291323Y-28345877D02*
X130215133Y-28374449D01*
X130215133Y-28374449D02*
X130177038Y-28407782D01*
X130177038Y-28407782D02*
X130138942Y-28479211D01*
X130138942Y-28479211D02*
X130100847Y-28626830D01*
X130100847Y-28626830D02*
X130062752Y-28698258D01*
X130062752Y-28698258D02*
X130024657Y-28731591D01*
X130024657Y-28731591D02*
X129948466Y-28760163D01*
X129948466Y-28760163D02*
X129872276Y-28750639D01*
X129872276Y-28750639D02*
X129796085Y-28703020D01*
X129796085Y-28703020D02*
X129757990Y-28660163D01*
X129757990Y-28660163D02*
X129719895Y-28579211D01*
X129719895Y-28579211D02*
X129719895Y-28388734D01*
X129719895Y-28388734D02*
X129757990Y-28279211D01*
X129497800Y-29699211D02*
X129497800Y-28297306D01*
D13*
X132833333Y-69359580D02*
X132785714Y-69407200D01*
X132785714Y-69407200D02*
X132642857Y-69454819D01*
X132642857Y-69454819D02*
X132547619Y-69454819D01*
X132547619Y-69454819D02*
X132404762Y-69407200D01*
X132404762Y-69407200D02*
X132309524Y-69311961D01*
X132309524Y-69311961D02*
X132261905Y-69216723D01*
X132261905Y-69216723D02*
X132214286Y-69026247D01*
X132214286Y-69026247D02*
X132214286Y-68883390D01*
X132214286Y-68883390D02*
X132261905Y-68692914D01*
X132261905Y-68692914D02*
X132309524Y-68597676D01*
X132309524Y-68597676D02*
X132404762Y-68502438D01*
X132404762Y-68502438D02*
X132547619Y-68454819D01*
X132547619Y-68454819D02*
X132642857Y-68454819D01*
X132642857Y-68454819D02*
X132785714Y-68502438D01*
X132785714Y-68502438D02*
X132833333Y-68550057D01*
X133214286Y-68550057D02*
X133261905Y-68502438D01*
X133261905Y-68502438D02*
X133357143Y-68454819D01*
X133357143Y-68454819D02*
X133595238Y-68454819D01*
X133595238Y-68454819D02*
X133690476Y-68502438D01*
X133690476Y-68502438D02*
X133738095Y-68550057D01*
X133738095Y-68550057D02*
X133785714Y-68645295D01*
X133785714Y-68645295D02*
X133785714Y-68740533D01*
X133785714Y-68740533D02*
X133738095Y-68883390D01*
X133738095Y-68883390D02*
X133166667Y-69454819D01*
X133166667Y-69454819D02*
X133785714Y-69454819D01*
X108404819Y-88031904D02*
X109214342Y-88031904D01*
X109214342Y-88031904D02*
X109309580Y-87984285D01*
X109309580Y-87984285D02*
X109357200Y-87936666D01*
X109357200Y-87936666D02*
X109404819Y-87841428D01*
X109404819Y-87841428D02*
X109404819Y-87650952D01*
X109404819Y-87650952D02*
X109357200Y-87555714D01*
X109357200Y-87555714D02*
X109309580Y-87508095D01*
X109309580Y-87508095D02*
X109214342Y-87460476D01*
X109214342Y-87460476D02*
X108404819Y-87460476D01*
X108404819Y-86508095D02*
X108404819Y-86984285D01*
X108404819Y-86984285D02*
X108881009Y-87031904D01*
X108881009Y-87031904D02*
X108833390Y-86984285D01*
X108833390Y-86984285D02*
X108785771Y-86889047D01*
X108785771Y-86889047D02*
X108785771Y-86650952D01*
X108785771Y-86650952D02*
X108833390Y-86555714D01*
X108833390Y-86555714D02*
X108881009Y-86508095D01*
X108881009Y-86508095D02*
X108976247Y-86460476D01*
X108976247Y-86460476D02*
X109214342Y-86460476D01*
X109214342Y-86460476D02*
X109309580Y-86508095D01*
X109309580Y-86508095D02*
X109357200Y-86555714D01*
X109357200Y-86555714D02*
X109404819Y-86650952D01*
X109404819Y-86650952D02*
X109404819Y-86889047D01*
X109404819Y-86889047D02*
X109357200Y-86984285D01*
X109357200Y-86984285D02*
X109309580Y-87031904D01*
X128238095Y-54954819D02*
X128238095Y-55764342D01*
X128238095Y-55764342D02*
X128285714Y-55859580D01*
X128285714Y-55859580D02*
X128333333Y-55907200D01*
X128333333Y-55907200D02*
X128428571Y-55954819D01*
X128428571Y-55954819D02*
X128619047Y-55954819D01*
X128619047Y-55954819D02*
X128714285Y-55907200D01*
X128714285Y-55907200D02*
X128761904Y-55859580D01*
X128761904Y-55859580D02*
X128809523Y-55764342D01*
X128809523Y-55764342D02*
X128809523Y-54954819D01*
X129809523Y-55954819D02*
X129238095Y-55954819D01*
X129523809Y-55954819D02*
X129523809Y-54954819D01*
X129523809Y-54954819D02*
X129428571Y-55097676D01*
X129428571Y-55097676D02*
X129333333Y-55192914D01*
X129333333Y-55192914D02*
X129238095Y-55240533D01*
X151674819Y-87261904D02*
X152484342Y-87261904D01*
X152484342Y-87261904D02*
X152579580Y-87214285D01*
X152579580Y-87214285D02*
X152627200Y-87166666D01*
X152627200Y-87166666D02*
X152674819Y-87071428D01*
X152674819Y-87071428D02*
X152674819Y-86880952D01*
X152674819Y-86880952D02*
X152627200Y-86785714D01*
X152627200Y-86785714D02*
X152579580Y-86738095D01*
X152579580Y-86738095D02*
X152484342Y-86690476D01*
X152484342Y-86690476D02*
X151674819Y-86690476D01*
X151770057Y-86261904D02*
X151722438Y-86214285D01*
X151722438Y-86214285D02*
X151674819Y-86119047D01*
X151674819Y-86119047D02*
X151674819Y-85880952D01*
X151674819Y-85880952D02*
X151722438Y-85785714D01*
X151722438Y-85785714D02*
X151770057Y-85738095D01*
X151770057Y-85738095D02*
X151865295Y-85690476D01*
X151865295Y-85690476D02*
X151960533Y-85690476D01*
X151960533Y-85690476D02*
X152103390Y-85738095D01*
X152103390Y-85738095D02*
X152674819Y-86309523D01*
X152674819Y-86309523D02*
X152674819Y-85690476D01*
X104736819Y-58929904D02*
X105546342Y-58929904D01*
X105546342Y-58929904D02*
X105641580Y-58882285D01*
X105641580Y-58882285D02*
X105689200Y-58834666D01*
X105689200Y-58834666D02*
X105736819Y-58739428D01*
X105736819Y-58739428D02*
X105736819Y-58548952D01*
X105736819Y-58548952D02*
X105689200Y-58453714D01*
X105689200Y-58453714D02*
X105641580Y-58406095D01*
X105641580Y-58406095D02*
X105546342Y-58358476D01*
X105546342Y-58358476D02*
X104736819Y-58358476D01*
X104736819Y-57453714D02*
X104736819Y-57644190D01*
X104736819Y-57644190D02*
X104784438Y-57739428D01*
X104784438Y-57739428D02*
X104832057Y-57787047D01*
X104832057Y-57787047D02*
X104974914Y-57882285D01*
X104974914Y-57882285D02*
X105165390Y-57929904D01*
X105165390Y-57929904D02*
X105546342Y-57929904D01*
X105546342Y-57929904D02*
X105641580Y-57882285D01*
X105641580Y-57882285D02*
X105689200Y-57834666D01*
X105689200Y-57834666D02*
X105736819Y-57739428D01*
X105736819Y-57739428D02*
X105736819Y-57548952D01*
X105736819Y-57548952D02*
X105689200Y-57453714D01*
X105689200Y-57453714D02*
X105641580Y-57406095D01*
X105641580Y-57406095D02*
X105546342Y-57358476D01*
X105546342Y-57358476D02*
X105308247Y-57358476D01*
X105308247Y-57358476D02*
X105213009Y-57406095D01*
X105213009Y-57406095D02*
X105165390Y-57453714D01*
X105165390Y-57453714D02*
X105117771Y-57548952D01*
X105117771Y-57548952D02*
X105117771Y-57739428D01*
X105117771Y-57739428D02*
X105165390Y-57834666D01*
X105165390Y-57834666D02*
X105213009Y-57882285D01*
X105213009Y-57882285D02*
X105308247Y-57929904D01*
X148558095Y-25694819D02*
X148558095Y-26504342D01*
X148558095Y-26504342D02*
X148605714Y-26599580D01*
X148605714Y-26599580D02*
X148653333Y-26647200D01*
X148653333Y-26647200D02*
X148748571Y-26694819D01*
X148748571Y-26694819D02*
X148939047Y-26694819D01*
X148939047Y-26694819D02*
X149034285Y-26647200D01*
X149034285Y-26647200D02*
X149081904Y-26599580D01*
X149081904Y-26599580D02*
X149129523Y-26504342D01*
X149129523Y-26504342D02*
X149129523Y-25694819D01*
X150034285Y-26028152D02*
X150034285Y-26694819D01*
X149796190Y-25647200D02*
X149558095Y-26361485D01*
X149558095Y-26361485D02*
X150177142Y-26361485D01*
X171674819Y-87261904D02*
X172484342Y-87261904D01*
X172484342Y-87261904D02*
X172579580Y-87214285D01*
X172579580Y-87214285D02*
X172627200Y-87166666D01*
X172627200Y-87166666D02*
X172674819Y-87071428D01*
X172674819Y-87071428D02*
X172674819Y-86880952D01*
X172674819Y-86880952D02*
X172627200Y-86785714D01*
X172627200Y-86785714D02*
X172579580Y-86738095D01*
X172579580Y-86738095D02*
X172484342Y-86690476D01*
X172484342Y-86690476D02*
X171674819Y-86690476D01*
X171674819Y-86309523D02*
X171674819Y-85690476D01*
X171674819Y-85690476D02*
X172055771Y-86023809D01*
X172055771Y-86023809D02*
X172055771Y-85880952D01*
X172055771Y-85880952D02*
X172103390Y-85785714D01*
X172103390Y-85785714D02*
X172151009Y-85738095D01*
X172151009Y-85738095D02*
X172246247Y-85690476D01*
X172246247Y-85690476D02*
X172484342Y-85690476D01*
X172484342Y-85690476D02*
X172579580Y-85738095D01*
X172579580Y-85738095D02*
X172627200Y-85785714D01*
X172627200Y-85785714D02*
X172674819Y-85880952D01*
X172674819Y-85880952D02*
X172674819Y-86166666D01*
X172674819Y-86166666D02*
X172627200Y-86261904D01*
X172627200Y-86261904D02*
X172579580Y-86309523D01*
X136333333Y-69359580D02*
X136285714Y-69407200D01*
X136285714Y-69407200D02*
X136142857Y-69454819D01*
X136142857Y-69454819D02*
X136047619Y-69454819D01*
X136047619Y-69454819D02*
X135904762Y-69407200D01*
X135904762Y-69407200D02*
X135809524Y-69311961D01*
X135809524Y-69311961D02*
X135761905Y-69216723D01*
X135761905Y-69216723D02*
X135714286Y-69026247D01*
X135714286Y-69026247D02*
X135714286Y-68883390D01*
X135714286Y-68883390D02*
X135761905Y-68692914D01*
X135761905Y-68692914D02*
X135809524Y-68597676D01*
X135809524Y-68597676D02*
X135904762Y-68502438D01*
X135904762Y-68502438D02*
X136047619Y-68454819D01*
X136047619Y-68454819D02*
X136142857Y-68454819D01*
X136142857Y-68454819D02*
X136285714Y-68502438D01*
X136285714Y-68502438D02*
X136333333Y-68550057D01*
X136666667Y-68454819D02*
X137285714Y-68454819D01*
X137285714Y-68454819D02*
X136952381Y-68835771D01*
X136952381Y-68835771D02*
X137095238Y-68835771D01*
X137095238Y-68835771D02*
X137190476Y-68883390D01*
X137190476Y-68883390D02*
X137238095Y-68931009D01*
X137238095Y-68931009D02*
X137285714Y-69026247D01*
X137285714Y-69026247D02*
X137285714Y-69264342D01*
X137285714Y-69264342D02*
X137238095Y-69359580D01*
X137238095Y-69359580D02*
X137190476Y-69407200D01*
X137190476Y-69407200D02*
X137095238Y-69454819D01*
X137095238Y-69454819D02*
X136809524Y-69454819D01*
X136809524Y-69454819D02*
X136714286Y-69407200D01*
X136714286Y-69407200D02*
X136666667Y-69359580D01*
X168603095Y-40849819D02*
X168603095Y-41659342D01*
X168603095Y-41659342D02*
X168650714Y-41754580D01*
X168650714Y-41754580D02*
X168698333Y-41802200D01*
X168698333Y-41802200D02*
X168793571Y-41849819D01*
X168793571Y-41849819D02*
X168984047Y-41849819D01*
X168984047Y-41849819D02*
X169079285Y-41802200D01*
X169079285Y-41802200D02*
X169126904Y-41754580D01*
X169126904Y-41754580D02*
X169174523Y-41659342D01*
X169174523Y-41659342D02*
X169174523Y-40849819D01*
X169698333Y-41849819D02*
X169888809Y-41849819D01*
X169888809Y-41849819D02*
X169984047Y-41802200D01*
X169984047Y-41802200D02*
X170031666Y-41754580D01*
X170031666Y-41754580D02*
X170126904Y-41611723D01*
X170126904Y-41611723D02*
X170174523Y-41421247D01*
X170174523Y-41421247D02*
X170174523Y-41040295D01*
X170174523Y-41040295D02*
X170126904Y-40945057D01*
X170126904Y-40945057D02*
X170079285Y-40897438D01*
X170079285Y-40897438D02*
X169984047Y-40849819D01*
X169984047Y-40849819D02*
X169793571Y-40849819D01*
X169793571Y-40849819D02*
X169698333Y-40897438D01*
X169698333Y-40897438D02*
X169650714Y-40945057D01*
X169650714Y-40945057D02*
X169603095Y-41040295D01*
X169603095Y-41040295D02*
X169603095Y-41278390D01*
X169603095Y-41278390D02*
X169650714Y-41373628D01*
X169650714Y-41373628D02*
X169698333Y-41421247D01*
X169698333Y-41421247D02*
X169793571Y-41468866D01*
X169793571Y-41468866D02*
X169984047Y-41468866D01*
X169984047Y-41468866D02*
X170079285Y-41421247D01*
X170079285Y-41421247D02*
X170126904Y-41373628D01*
X170126904Y-41373628D02*
X170174523Y-41278390D01*
X119266666Y-42054819D02*
X119266666Y-42769104D01*
X119266666Y-42769104D02*
X119219047Y-42911961D01*
X119219047Y-42911961D02*
X119123809Y-43007200D01*
X119123809Y-43007200D02*
X118980952Y-43054819D01*
X118980952Y-43054819D02*
X118885714Y-43054819D01*
X120266666Y-43054819D02*
X119695238Y-43054819D01*
X119980952Y-43054819D02*
X119980952Y-42054819D01*
X119980952Y-42054819D02*
X119885714Y-42197676D01*
X119885714Y-42197676D02*
X119790476Y-42292914D01*
X119790476Y-42292914D02*
X119695238Y-42340533D01*
X116899819Y-32728333D02*
X117614104Y-32728333D01*
X117614104Y-32728333D02*
X117756961Y-32775952D01*
X117756961Y-32775952D02*
X117852200Y-32871190D01*
X117852200Y-32871190D02*
X117899819Y-33014047D01*
X117899819Y-33014047D02*
X117899819Y-33109285D01*
X116899819Y-31823571D02*
X116899819Y-32014047D01*
X116899819Y-32014047D02*
X116947438Y-32109285D01*
X116947438Y-32109285D02*
X116995057Y-32156904D01*
X116995057Y-32156904D02*
X117137914Y-32252142D01*
X117137914Y-32252142D02*
X117328390Y-32299761D01*
X117328390Y-32299761D02*
X117709342Y-32299761D01*
X117709342Y-32299761D02*
X117804580Y-32252142D01*
X117804580Y-32252142D02*
X117852200Y-32204523D01*
X117852200Y-32204523D02*
X117899819Y-32109285D01*
X117899819Y-32109285D02*
X117899819Y-31918809D01*
X117899819Y-31918809D02*
X117852200Y-31823571D01*
X117852200Y-31823571D02*
X117804580Y-31775952D01*
X117804580Y-31775952D02*
X117709342Y-31728333D01*
X117709342Y-31728333D02*
X117471247Y-31728333D01*
X117471247Y-31728333D02*
X117376009Y-31775952D01*
X117376009Y-31775952D02*
X117328390Y-31823571D01*
X117328390Y-31823571D02*
X117280771Y-31918809D01*
X117280771Y-31918809D02*
X117280771Y-32109285D01*
X117280771Y-32109285D02*
X117328390Y-32204523D01*
X117328390Y-32204523D02*
X117376009Y-32252142D01*
X117376009Y-32252142D02*
X117471247Y-32299761D01*
X186157142Y-91759580D02*
X186109523Y-91807200D01*
X186109523Y-91807200D02*
X185966666Y-91854819D01*
X185966666Y-91854819D02*
X185871428Y-91854819D01*
X185871428Y-91854819D02*
X185728571Y-91807200D01*
X185728571Y-91807200D02*
X185633333Y-91711961D01*
X185633333Y-91711961D02*
X185585714Y-91616723D01*
X185585714Y-91616723D02*
X185538095Y-91426247D01*
X185538095Y-91426247D02*
X185538095Y-91283390D01*
X185538095Y-91283390D02*
X185585714Y-91092914D01*
X185585714Y-91092914D02*
X185633333Y-90997676D01*
X185633333Y-90997676D02*
X185728571Y-90902438D01*
X185728571Y-90902438D02*
X185871428Y-90854819D01*
X185871428Y-90854819D02*
X185966666Y-90854819D01*
X185966666Y-90854819D02*
X186109523Y-90902438D01*
X186109523Y-90902438D02*
X186157142Y-90950057D01*
X187109523Y-91854819D02*
X186538095Y-91854819D01*
X186823809Y-91854819D02*
X186823809Y-90854819D01*
X186823809Y-90854819D02*
X186728571Y-90997676D01*
X186728571Y-90997676D02*
X186633333Y-91092914D01*
X186633333Y-91092914D02*
X186538095Y-91140533D01*
X187966666Y-91188152D02*
X187966666Y-91854819D01*
X187728571Y-90807200D02*
X187490476Y-91521485D01*
X187490476Y-91521485D02*
X188109523Y-91521485D01*
X185347618Y-84454819D02*
X184776190Y-84454819D01*
X185061904Y-84454819D02*
X185061904Y-83454819D01*
X185061904Y-83454819D02*
X184966666Y-83597676D01*
X184966666Y-83597676D02*
X184871428Y-83692914D01*
X184871428Y-83692914D02*
X184776190Y-83740533D01*
X185966666Y-83454819D02*
X186061904Y-83454819D01*
X186061904Y-83454819D02*
X186157142Y-83502438D01*
X186157142Y-83502438D02*
X186204761Y-83550057D01*
X186204761Y-83550057D02*
X186252380Y-83645295D01*
X186252380Y-83645295D02*
X186299999Y-83835771D01*
X186299999Y-83835771D02*
X186299999Y-84073866D01*
X186299999Y-84073866D02*
X186252380Y-84264342D01*
X186252380Y-84264342D02*
X186204761Y-84359580D01*
X186204761Y-84359580D02*
X186157142Y-84407200D01*
X186157142Y-84407200D02*
X186061904Y-84454819D01*
X186061904Y-84454819D02*
X185966666Y-84454819D01*
X185966666Y-84454819D02*
X185871428Y-84407200D01*
X185871428Y-84407200D02*
X185823809Y-84359580D01*
X185823809Y-84359580D02*
X185776190Y-84264342D01*
X185776190Y-84264342D02*
X185728571Y-84073866D01*
X185728571Y-84073866D02*
X185728571Y-83835771D01*
X185728571Y-83835771D02*
X185776190Y-83645295D01*
X185776190Y-83645295D02*
X185823809Y-83550057D01*
X185823809Y-83550057D02*
X185871428Y-83502438D01*
X185871428Y-83502438D02*
X185966666Y-83454819D01*
X187919047Y-83788152D02*
X187919047Y-84454819D01*
X187490476Y-83788152D02*
X187490476Y-84311961D01*
X187490476Y-84311961D02*
X187538095Y-84407200D01*
X187538095Y-84407200D02*
X187633333Y-84454819D01*
X187633333Y-84454819D02*
X187776190Y-84454819D01*
X187776190Y-84454819D02*
X187871428Y-84407200D01*
X187871428Y-84407200D02*
X187919047Y-84359580D01*
X188728571Y-83931009D02*
X188395238Y-83931009D01*
X188395238Y-84454819D02*
X188395238Y-83454819D01*
X188395238Y-83454819D02*
X188871428Y-83454819D01*
D15*
G04 #@! TO.C,C2*
X131140000Y-68892164D02*
X131140000Y-69107836D01*
X131860000Y-68892164D02*
X131860000Y-69107836D01*
G04 #@! TO.C,R24*
X106270000Y-34906359D02*
X106270000Y-35213641D01*
X107030000Y-34906359D02*
X107030000Y-35213641D01*
G04 #@! TO.C,R15*
X115846359Y-69120000D02*
X116153641Y-69120000D01*
X115846359Y-69880000D02*
X116153641Y-69880000D01*
G04 #@! TO.C,D8*
X180650000Y-80610000D02*
X180650000Y-77950000D01*
X180650000Y-80610000D02*
X182350000Y-80610000D01*
X182350000Y-80610000D02*
X182350000Y-77950000D01*
G04 #@! TO.C,D1*
X106590000Y-28550000D02*
X106590000Y-31235000D01*
X106590000Y-31235000D02*
X108510000Y-31235000D01*
X108510000Y-31235000D02*
X108510000Y-28550000D01*
G04 #@! TO.C,D5*
X117390000Y-81150000D02*
X117390000Y-82850000D01*
X117390000Y-81150000D02*
X120050000Y-81150000D01*
X117390000Y-82850000D02*
X120050000Y-82850000D01*
G04 #@! TO.C,C8*
X179440000Y-42667836D02*
X179440000Y-42452164D01*
X180160000Y-42667836D02*
X180160000Y-42452164D01*
D14*
G04 #@! TO.C,U5*
X103895000Y-90676000D02*
X111007000Y-90676000D01*
X111007000Y-75944000D02*
X103895000Y-75944000D01*
X112220000Y-86104000D02*
X112220000Y-89152000D01*
D15*
G04 #@! TO.C,D11*
X111351000Y-28550000D02*
X111351000Y-31235000D01*
X111351000Y-31235000D02*
X113271000Y-31235000D01*
X113271000Y-31235000D02*
X113271000Y-28550000D01*
G04 #@! TO.C,C10*
X153140000Y-81607836D02*
X153140000Y-81392164D01*
X153860000Y-81607836D02*
X153860000Y-81392164D01*
G04 #@! TO.C,C9*
X128607836Y-63640000D02*
X128392164Y-63640000D01*
X128607836Y-64360000D02*
X128392164Y-64360000D01*
G04 #@! TO.C,C6*
X116640000Y-56607836D02*
X116640000Y-56392164D01*
X117360000Y-56607836D02*
X117360000Y-56392164D01*
G04 #@! TO.C,R3*
X114846359Y-34120000D02*
X115153641Y-34120000D01*
X114846359Y-34880000D02*
X115153641Y-34880000D01*
G04 #@! TO.C,D9*
X101690000Y-28612500D02*
X101690000Y-31297500D01*
X101690000Y-31297500D02*
X103610000Y-31297500D01*
X103610000Y-31297500D02*
X103610000Y-28612500D01*
G04 #@! TO.C,R13*
X103270000Y-34958859D02*
X103270000Y-35266141D01*
X104030000Y-34958859D02*
X104030000Y-35266141D01*
G04 #@! TO.C,D4*
X121110000Y-58150000D02*
X118450000Y-58150000D01*
X121110000Y-59850000D02*
X118450000Y-59850000D01*
X121110000Y-59850000D02*
X121110000Y-58150000D01*
D13*
G04 #@! TO.C,U1*
X125425000Y-53925000D02*
X125425000Y-54250000D01*
X125425000Y-53925000D02*
X125750000Y-53925000D01*
X125425000Y-61175000D02*
X125425000Y-60850000D01*
X125425000Y-61175000D02*
X125650000Y-61175000D01*
X132675000Y-53925000D02*
X132350000Y-53925000D01*
X132675000Y-53925000D02*
X132675000Y-54250000D01*
X132675000Y-61175000D02*
X132350000Y-61175000D01*
X132675000Y-61175000D02*
X132675000Y-60850000D01*
D15*
X125710000Y-61940000D02*
X125240000Y-62280000D01*
X125240000Y-61600000D01*
X125710000Y-61940000D01*
G36*
X125710000Y-61940000D02*
G01*
X125240000Y-62280000D01*
X125240000Y-61600000D01*
X125710000Y-61940000D01*
G37*
G04 #@! TO.C,J2*
X110895000Y-35905000D02*
X116095000Y-35905000D01*
X110895000Y-38505000D02*
X110895000Y-35905000D01*
X110895000Y-41105000D02*
X110895000Y-39775000D01*
X112225000Y-41105000D02*
X110895000Y-41105000D01*
X113495000Y-38505000D02*
X110895000Y-38505000D01*
X113495000Y-41105000D02*
X113495000Y-38505000D01*
X113495000Y-41105000D02*
X116095000Y-41105000D01*
X116095000Y-41105000D02*
X116095000Y-35905000D01*
G04 #@! TO.C,Y1*
X130450000Y-64200000D02*
X130450000Y-67800000D01*
X130450000Y-67800000D02*
X136200000Y-67800000D01*
X136200000Y-64200000D02*
X130450000Y-64200000D01*
G04 #@! TO.C,R26*
X101270000Y-34958859D02*
X101270000Y-35266141D01*
X102030000Y-34958859D02*
X102030000Y-35266141D01*
G04 #@! TO.C,R25*
X114846359Y-29670000D02*
X115153641Y-29670000D01*
X114846359Y-30430000D02*
X115153641Y-30430000D01*
G04 #@! TO.C,R16*
X136620000Y-56846359D02*
X136620000Y-57153641D01*
X137380000Y-56846359D02*
X137380000Y-57153641D01*
G04 #@! TO.C,U2*
X153065000Y-86500000D02*
X153065000Y-84550000D01*
X153065000Y-86500000D02*
X153065000Y-88450000D01*
X161935000Y-86500000D02*
X161935000Y-84550000D01*
X161935000Y-86500000D02*
X161935000Y-88450000D01*
X153130000Y-89200000D02*
X152800000Y-89440000D01*
X152800000Y-88960000D01*
X153130000Y-89200000D01*
G36*
X153130000Y-89200000D02*
G01*
X152800000Y-89440000D01*
X152800000Y-88960000D01*
X153130000Y-89200000D01*
G37*
D14*
G04 #@! TO.C,U6*
X103857000Y-65534000D02*
X110969000Y-65534000D01*
X110969000Y-50802000D02*
X103857000Y-50802000D01*
X112182000Y-60962000D02*
X112182000Y-64010000D01*
D15*
G04 #@! TO.C,U4*
X140430000Y-27050000D02*
X140430000Y-78090000D01*
X140430000Y-78090000D02*
X158330000Y-78090000D01*
X142920000Y-27110000D02*
X142920000Y-78030000D01*
X142920000Y-78030000D02*
X155840000Y-78030000D01*
X148380000Y-27110000D02*
X142920000Y-27110000D01*
X155840000Y-27110000D02*
X150380000Y-27110000D01*
X155840000Y-78030000D02*
X155840000Y-27110000D01*
X158330000Y-27050000D02*
X140430000Y-27050000D01*
X158330000Y-78090000D02*
X158330000Y-27050000D01*
X150380000Y-27110000D02*
G75*
G02*
X148380000Y-27110000I-1000000J0D01*
G01*
G04 #@! TO.C,R12*
X115620000Y-56346359D02*
X115620000Y-56653641D01*
X116380000Y-56346359D02*
X116380000Y-56653641D01*
G04 #@! TO.C,R2*
X111846359Y-34120000D02*
X112153641Y-34120000D01*
X111846359Y-34880000D02*
X112153641Y-34880000D01*
G04 #@! TO.C,C5*
X116140000Y-81607836D02*
X116140000Y-81392164D01*
X116860000Y-81607836D02*
X116860000Y-81392164D01*
G04 #@! TO.C,U3*
X173065000Y-86500000D02*
X173065000Y-84550000D01*
X173065000Y-86500000D02*
X173065000Y-88450000D01*
X181935000Y-86500000D02*
X181935000Y-84550000D01*
X181935000Y-86500000D02*
X181935000Y-88450000D01*
X173130000Y-89200000D02*
X172800000Y-89440000D01*
X172800000Y-88960000D01*
X173130000Y-89200000D01*
G36*
X173130000Y-89200000D02*
G01*
X172800000Y-89440000D01*
X172800000Y-88960000D01*
X173130000Y-89200000D01*
G37*
G04 #@! TO.C,C3*
X134640000Y-68892164D02*
X134640000Y-69107836D01*
X135360000Y-68892164D02*
X135360000Y-69107836D01*
G04 #@! TO.C,R19*
X169620000Y-28591141D02*
X169620000Y-28283859D01*
X170380000Y-28591141D02*
X170380000Y-28283859D01*
G04 #@! TO.C,R9*
X131503641Y-49770000D02*
X131196359Y-49770000D01*
X131503641Y-50530000D02*
X131196359Y-50530000D01*
G04 #@! TO.C,R1*
X179460000Y-44596359D02*
X179460000Y-44903641D01*
X180220000Y-44596359D02*
X180220000Y-44903641D01*
G04 #@! TO.C,U9*
X160430000Y-42290000D02*
X160430000Y-78090000D01*
X160430000Y-78090000D02*
X178330000Y-78090000D01*
X162920000Y-42350000D02*
X162920000Y-78030000D01*
X162920000Y-78030000D02*
X175840000Y-78030000D01*
X168380000Y-42350000D02*
X162920000Y-42350000D01*
X175840000Y-42350000D02*
X170380000Y-42350000D01*
X175840000Y-78030000D02*
X175840000Y-42350000D01*
X178330000Y-42290000D02*
X160430000Y-42290000D01*
X178330000Y-78090000D02*
X178330000Y-42290000D01*
X170380000Y-42350000D02*
G75*
G02*
X168380000Y-42350000I-1000000J0D01*
G01*
G04 #@! TO.C,D3*
X120610000Y-83200000D02*
X117950000Y-83200000D01*
X120610000Y-84900000D02*
X117950000Y-84900000D01*
X120610000Y-84900000D02*
X120610000Y-83200000D01*
G04 #@! TO.C,R10*
X102270000Y-35266141D02*
X102270000Y-34958859D01*
X103030000Y-35266141D02*
X103030000Y-34958859D01*
G04 #@! TO.C,D10*
X166540000Y-27937500D02*
X166540000Y-30622500D01*
X166540000Y-30622500D02*
X168460000Y-30622500D01*
X168460000Y-30622500D02*
X168460000Y-27937500D01*
G04 #@! TO.C,R14*
X108270000Y-34896359D02*
X108270000Y-35203641D01*
X109030000Y-34896359D02*
X109030000Y-35203641D01*
G04 #@! TO.C,R17*
X136653641Y-55120000D02*
X136346359Y-55120000D01*
X136653641Y-55880000D02*
X136346359Y-55880000D01*
G04 #@! TO.C,J1*
X121145000Y-39605000D02*
X128885000Y-39605000D01*
X121145000Y-42205000D02*
X121145000Y-39605000D01*
X121145000Y-44805000D02*
X121145000Y-43475000D01*
X122475000Y-44805000D02*
X121145000Y-44805000D01*
X123745000Y-42205000D02*
X121145000Y-42205000D01*
X123745000Y-44805000D02*
X123745000Y-42205000D01*
X123745000Y-44805000D02*
X128885000Y-44805000D01*
X128885000Y-44805000D02*
X128885000Y-39605000D01*
G04 #@! TO.C,C11*
X173191000Y-81151836D02*
X173191000Y-80936164D01*
X173911000Y-81151836D02*
X173911000Y-80936164D01*
G04 #@! TO.C,R11*
X115120000Y-81346359D02*
X115120000Y-81653641D01*
X115880000Y-81346359D02*
X115880000Y-81653641D01*
G04 #@! TO.C,J6*
X118635000Y-29945000D02*
X118635000Y-35145000D01*
X128855000Y-29945000D02*
X118635000Y-29945000D01*
X128855000Y-29945000D02*
X128855000Y-32545000D01*
X128855000Y-32545000D02*
X131455000Y-32545000D01*
X130125000Y-29945000D02*
X131455000Y-29945000D01*
X131455000Y-29945000D02*
X131455000Y-31275000D01*
X131455000Y-32545000D02*
X131455000Y-35145000D01*
X131455000Y-35145000D02*
X118635000Y-35145000D01*
G04 #@! TO.C,C7*
X137167836Y-42110000D02*
X136952164Y-42110000D01*
X137167836Y-42830000D02*
X136952164Y-42830000D01*
G04 #@! TO.C,C14*
X184149000Y-87989100D02*
X184149000Y-87421100D01*
X184189000Y-88223100D02*
X184189000Y-87187100D01*
X184229000Y-88382100D02*
X184229000Y-87028100D01*
X184269000Y-88510100D02*
X184269000Y-86900100D01*
X184309000Y-88620100D02*
X184309000Y-86790100D01*
X184349000Y-88716100D02*
X184349000Y-86694100D01*
X184389000Y-88803100D02*
X184389000Y-86607100D01*
X184429000Y-88883100D02*
X184429000Y-86527100D01*
X184469000Y-86665100D02*
X184469000Y-86454100D01*
X184469000Y-88956100D02*
X184469000Y-88745100D01*
X184509000Y-86665100D02*
X184509000Y-86386100D01*
X184509000Y-89024100D02*
X184509000Y-88745100D01*
X184549000Y-86665100D02*
X184549000Y-86322100D01*
X184549000Y-89088100D02*
X184549000Y-88745100D01*
X184589000Y-86665100D02*
X184589000Y-86262100D01*
X184589000Y-89148100D02*
X184589000Y-88745100D01*
X184629000Y-86665100D02*
X184629000Y-86205100D01*
X184629000Y-89205100D02*
X184629000Y-88745100D01*
X184669000Y-86665100D02*
X184669000Y-86151100D01*
X184669000Y-89259100D02*
X184669000Y-88745100D01*
X184709000Y-86665100D02*
X184709000Y-86100100D01*
X184709000Y-89310100D02*
X184709000Y-88745100D01*
X184749000Y-86665100D02*
X184749000Y-86052100D01*
X184749000Y-89358100D02*
X184749000Y-88745100D01*
X184789000Y-86665100D02*
X184789000Y-86006100D01*
X184789000Y-89404100D02*
X184789000Y-88745100D01*
X184829000Y-86665100D02*
X184829000Y-85962100D01*
X184829000Y-89448100D02*
X184829000Y-88745100D01*
X184869000Y-86665100D02*
X184869000Y-85920100D01*
X184869000Y-89490100D02*
X184869000Y-88745100D01*
X184909000Y-86665100D02*
X184909000Y-85879100D01*
X184909000Y-89531100D02*
X184909000Y-88745100D01*
X184949000Y-86665100D02*
X184949000Y-85841100D01*
X184949000Y-89569100D02*
X184949000Y-88745100D01*
X184989000Y-86665100D02*
X184989000Y-85804100D01*
X184989000Y-89606100D02*
X184989000Y-88745100D01*
X185029000Y-86665100D02*
X185029000Y-85768100D01*
X185029000Y-89642100D02*
X185029000Y-88745100D01*
X185069000Y-86665100D02*
X185069000Y-85734100D01*
X185069000Y-89676100D02*
X185069000Y-88745100D01*
X185109000Y-86665100D02*
X185109000Y-85701100D01*
X185109000Y-89709100D02*
X185109000Y-88745100D01*
X185149000Y-86665100D02*
X185149000Y-85670100D01*
X185149000Y-89740100D02*
X185149000Y-88745100D01*
X185189000Y-86665100D02*
X185189000Y-85640100D01*
X185189000Y-89770100D02*
X185189000Y-88745100D01*
X185229000Y-86665100D02*
X185229000Y-85610100D01*
X185229000Y-89800100D02*
X185229000Y-88745100D01*
X185269000Y-86665100D02*
X185269000Y-85583100D01*
X185269000Y-89827100D02*
X185269000Y-88745100D01*
X185309000Y-86665100D02*
X185309000Y-85556100D01*
X185309000Y-89854100D02*
X185309000Y-88745100D01*
X185349000Y-86665100D02*
X185349000Y-85530100D01*
X185349000Y-89880100D02*
X185349000Y-88745100D01*
X185389000Y-86665100D02*
X185389000Y-85505100D01*
X185389000Y-89905100D02*
X185389000Y-88745100D01*
X185429000Y-86665100D02*
X185429000Y-85481100D01*
X185429000Y-89929100D02*
X185429000Y-88745100D01*
X185469000Y-86665100D02*
X185469000Y-85458100D01*
X185469000Y-89952100D02*
X185469000Y-88745100D01*
X185509000Y-86665100D02*
X185509000Y-85437100D01*
X185509000Y-89973100D02*
X185509000Y-88745100D01*
X185549000Y-86665100D02*
X185549000Y-85415100D01*
X185549000Y-89995100D02*
X185549000Y-88745100D01*
X185589000Y-86665100D02*
X185589000Y-85395100D01*
X185589000Y-90015100D02*
X185589000Y-88745100D01*
X185629000Y-86665100D02*
X185629000Y-85376100D01*
X185629000Y-90034100D02*
X185629000Y-88745100D01*
X185669000Y-86665100D02*
X185669000Y-85357100D01*
X185669000Y-90053100D02*
X185669000Y-88745100D01*
X185709000Y-86665100D02*
X185709000Y-85340100D01*
X185709000Y-90070100D02*
X185709000Y-88745100D01*
X185749000Y-86665100D02*
X185749000Y-85323100D01*
X185749000Y-90087100D02*
X185749000Y-88745100D01*
X185789000Y-86665100D02*
X185789000Y-85307100D01*
X185789000Y-90103100D02*
X185789000Y-88745100D01*
X185829000Y-86665100D02*
X185829000Y-85291100D01*
X185829000Y-90119100D02*
X185829000Y-88745100D01*
X185869000Y-86665100D02*
X185869000Y-85277100D01*
X185869000Y-90133100D02*
X185869000Y-88745100D01*
X185909000Y-86665100D02*
X185909000Y-85263100D01*
X185909000Y-90147100D02*
X185909000Y-88745100D01*
X185949000Y-86665100D02*
X185949000Y-85250100D01*
X185949000Y-90160100D02*
X185949000Y-88745100D01*
X185989000Y-86665100D02*
X185989000Y-85237100D01*
X185989000Y-90173100D02*
X185989000Y-88745100D01*
X186029000Y-86665100D02*
X186029000Y-85225100D01*
X186029000Y-90185100D02*
X186029000Y-88745100D01*
X186070000Y-86665100D02*
X186070000Y-85214100D01*
X186070000Y-90196100D02*
X186070000Y-88745100D01*
X186110000Y-86665100D02*
X186110000Y-85204100D01*
X186110000Y-90206100D02*
X186110000Y-88745100D01*
X186150000Y-86665100D02*
X186150000Y-85194100D01*
X186150000Y-90216100D02*
X186150000Y-88745100D01*
X186190000Y-86665100D02*
X186190000Y-85185100D01*
X186190000Y-90225100D02*
X186190000Y-88745100D01*
X186230000Y-86665100D02*
X186230000Y-85177100D01*
X186230000Y-90233100D02*
X186230000Y-88745100D01*
X186270000Y-86665100D02*
X186270000Y-85169100D01*
X186270000Y-90241100D02*
X186270000Y-88745100D01*
X186310000Y-86665100D02*
X186310000Y-85162100D01*
X186310000Y-90248100D02*
X186310000Y-88745100D01*
X186350000Y-86665100D02*
X186350000Y-85155100D01*
X186350000Y-90255100D02*
X186350000Y-88745100D01*
X186390000Y-86665100D02*
X186390000Y-85149100D01*
X186390000Y-90261100D02*
X186390000Y-88745100D01*
X186430000Y-86665100D02*
X186430000Y-85144100D01*
X186430000Y-90266100D02*
X186430000Y-88745100D01*
X186470000Y-86665100D02*
X186470000Y-85140100D01*
X186470000Y-90270100D02*
X186470000Y-88745100D01*
X186510000Y-86665100D02*
X186510000Y-85136100D01*
X186510000Y-90274100D02*
X186510000Y-88745100D01*
X186550000Y-90278100D02*
X186550000Y-85132100D01*
X186590000Y-90281100D02*
X186590000Y-85129100D01*
X186630000Y-90283100D02*
X186630000Y-85127100D01*
X186670000Y-90284100D02*
X186670000Y-85126100D01*
X186710000Y-90285100D02*
X186710000Y-85125100D01*
X186750000Y-90285100D02*
X186750000Y-85125100D01*
X189304775Y-89430100D02*
X189304775Y-88930100D01*
X189554775Y-89180100D02*
X189054775Y-89180100D01*
X189370000Y-87705100D02*
G75*
G02*
X184130000Y-87705100I-2620000J0D01*
G01*
X184130000Y-87705100D02*
G75*
G02*
X189370000Y-87705100I2620000J0D01*
G01*
G04 #@! TO.C,R8*
X107270000Y-35213641D02*
X107270000Y-34906359D01*
X108030000Y-35213641D02*
X108030000Y-34906359D01*
G04 #@! TO.C,C1*
X129107836Y-50740000D02*
X128892164Y-50740000D01*
X129107836Y-51460000D02*
X128892164Y-51460000D01*
G04 #@! TO.C,D6*
X117890000Y-56150000D02*
X117890000Y-57850000D01*
X117890000Y-56150000D02*
X120550000Y-56150000D01*
X117890000Y-57850000D02*
X120550000Y-57850000D01*
G04 #@! TD*
D16*
G04 #@! TO.C,U5*
X102120000Y-86360000D03*
X102120000Y-78360000D03*
G04 #@! TD*
G04 #@! TO.C,U6*
X102082000Y-61218000D03*
X102082000Y-53218000D03*
G04 #@! TD*
%LPC*%
D17*
G04 #@! TO.C,C2*
X131500000Y-68520000D03*
X131500000Y-69480000D03*
G04 #@! TD*
D18*
G04 #@! TO.C,R24*
X106650000Y-34550000D03*
X106650000Y-35570000D03*
G04 #@! TD*
D19*
G04 #@! TO.C,R15*
X115490000Y-69500000D03*
X116510000Y-69500000D03*
G04 #@! TD*
D20*
G04 #@! TO.C,D8*
X181500000Y-80050000D03*
X181500000Y-77950000D03*
G04 #@! TD*
D21*
G04 #@! TO.C,D1*
X107550000Y-30487500D03*
X107550000Y-28612500D03*
G04 #@! TD*
D22*
G04 #@! TO.C,D5*
X117950000Y-82000000D03*
X120050000Y-82000000D03*
G04 #@! TD*
D23*
G04 #@! TO.C,C8*
X179800000Y-43040000D03*
X179800000Y-42080000D03*
G04 #@! TD*
D24*
G04 #@! TO.C,U5*
X112020000Y-90160000D03*
D16*
X102120000Y-86360000D03*
X102120000Y-78360000D03*
D25*
X102520000Y-75560000D03*
D26*
X112620000Y-85560000D03*
X112620000Y-84460000D03*
X112620000Y-83360000D03*
X112620000Y-82260000D03*
X112620000Y-81160000D03*
X112620000Y-80060000D03*
X112620000Y-78960000D03*
X112620000Y-77860000D03*
X112620000Y-76760000D03*
D27*
X112020000Y-75560000D03*
D25*
X102420000Y-91060000D03*
G04 #@! TD*
D21*
G04 #@! TO.C,D11*
X112311000Y-30487500D03*
X112311000Y-28612500D03*
G04 #@! TD*
D23*
G04 #@! TO.C,C10*
X153500000Y-81980000D03*
X153500000Y-81020000D03*
G04 #@! TD*
D28*
G04 #@! TO.C,C9*
X128980000Y-64000000D03*
X128020000Y-64000000D03*
G04 #@! TD*
D23*
G04 #@! TO.C,C6*
X117000000Y-56980000D03*
X117000000Y-56020000D03*
G04 #@! TD*
D19*
G04 #@! TO.C,R3*
X114490000Y-34500000D03*
X115510000Y-34500000D03*
G04 #@! TD*
D21*
G04 #@! TO.C,D9*
X102650000Y-30550000D03*
X102650000Y-28675000D03*
G04 #@! TD*
D29*
G04 #@! TO.C,BUS1*
X120386000Y-99050000D03*
D30*
X123180000Y-99050000D03*
X125720000Y-99050000D03*
X128260000Y-99050000D03*
X130800000Y-99050000D03*
X133340000Y-99050000D03*
X135880000Y-99050000D03*
X138420000Y-99050000D03*
X140960000Y-99050000D03*
X143500000Y-99050000D03*
X146040000Y-99050000D03*
X148580000Y-99050000D03*
X151120000Y-99050000D03*
X153660000Y-99050000D03*
X156200000Y-99050000D03*
X158740000Y-99050000D03*
X161280000Y-99050000D03*
X163820000Y-99050000D03*
X166360000Y-99050000D03*
X168900000Y-99050000D03*
X171440000Y-99050000D03*
X173980000Y-99050000D03*
X176520000Y-99050000D03*
X179060000Y-99050000D03*
D31*
X181854000Y-99050000D03*
G04 #@! TD*
D18*
G04 #@! TO.C,R13*
X103650000Y-34602500D03*
X103650000Y-35622500D03*
G04 #@! TD*
D32*
G04 #@! TO.C,D4*
X120550000Y-59000000D03*
X118450000Y-59000000D03*
G04 #@! TD*
D33*
G04 #@! TO.C,U1*
X126250000Y-61800000D03*
X127050000Y-61800000D03*
X127850000Y-61800000D03*
X128650000Y-61800000D03*
X129450000Y-61800000D03*
X130250000Y-61800000D03*
X131050000Y-61800000D03*
X131850000Y-61800000D03*
D34*
X133300000Y-60350000D03*
X133300000Y-59550000D03*
X133300000Y-58750000D03*
X133300000Y-57950000D03*
X133300000Y-57150000D03*
X133300000Y-56350000D03*
X133300000Y-55550000D03*
X133300000Y-54750000D03*
D33*
X131850000Y-53300000D03*
X131050000Y-53300000D03*
X130250000Y-53300000D03*
X129450000Y-53300000D03*
X128650000Y-53300000D03*
X127850000Y-53300000D03*
X127050000Y-53300000D03*
X126250000Y-53300000D03*
D34*
X124800000Y-54750000D03*
X124800000Y-55550000D03*
X124800000Y-56350000D03*
X124800000Y-57150000D03*
X124800000Y-57950000D03*
X124800000Y-58750000D03*
X124800000Y-59550000D03*
X124800000Y-60350000D03*
G04 #@! TD*
D35*
G04 #@! TO.C,J2*
X112225000Y-39775000D03*
D36*
X112225000Y-37235000D03*
X114765000Y-39775000D03*
X114765000Y-37235000D03*
G04 #@! TD*
D37*
G04 #@! TO.C,Y1*
X131650000Y-66000000D03*
X135350000Y-66000000D03*
G04 #@! TD*
D18*
G04 #@! TO.C,R26*
X101650000Y-34602500D03*
X101650000Y-35622500D03*
G04 #@! TD*
D19*
G04 #@! TO.C,R25*
X114490000Y-30050000D03*
X115510000Y-30050000D03*
G04 #@! TD*
D18*
G04 #@! TO.C,R16*
X137000000Y-56490000D03*
X137000000Y-57510000D03*
G04 #@! TD*
D38*
G04 #@! TO.C,U2*
X153690000Y-88975000D03*
X154960000Y-88975000D03*
X156230000Y-88975000D03*
X157500000Y-88975000D03*
X158770000Y-88975000D03*
X160040000Y-88975000D03*
X161310000Y-88975000D03*
X161310000Y-84025000D03*
X160040000Y-84025000D03*
X158770000Y-84025000D03*
X157500000Y-84025000D03*
X156230000Y-84025000D03*
X154960000Y-84025000D03*
X153690000Y-84025000D03*
G04 #@! TD*
D24*
G04 #@! TO.C,U6*
X111982000Y-65018000D03*
D16*
X102082000Y-61218000D03*
X102082000Y-53218000D03*
D25*
X102482000Y-50418000D03*
D26*
X112582000Y-60418000D03*
X112582000Y-59318000D03*
X112582000Y-58218000D03*
X112582000Y-57118000D03*
X112582000Y-56018000D03*
X112582000Y-54918000D03*
X112582000Y-53818000D03*
X112582000Y-52718000D03*
X112582000Y-51618000D03*
D27*
X111982000Y-50418000D03*
D25*
X102382000Y-65918000D03*
G04 #@! TD*
D39*
G04 #@! TO.C,U4*
X141760000Y-28440000D03*
D40*
X141760000Y-30980000D03*
X141760000Y-33520000D03*
X141760000Y-36060000D03*
X141760000Y-38600000D03*
X141760000Y-41140000D03*
X141760000Y-43680000D03*
X141760000Y-46220000D03*
X141760000Y-48760000D03*
X141760000Y-51300000D03*
X141760000Y-53840000D03*
X141760000Y-56380000D03*
X141760000Y-58920000D03*
X141760000Y-61460000D03*
X141760000Y-64000000D03*
X141760000Y-66540000D03*
X141760000Y-69080000D03*
X141760000Y-71620000D03*
X141760000Y-74160000D03*
X141760000Y-76700000D03*
X157000000Y-76700000D03*
X157000000Y-74160000D03*
X157000000Y-71620000D03*
X157000000Y-69080000D03*
X157000000Y-66540000D03*
X157000000Y-64000000D03*
X157000000Y-61460000D03*
X157000000Y-58920000D03*
X157000000Y-56380000D03*
X157000000Y-53840000D03*
X157000000Y-51300000D03*
X157000000Y-48760000D03*
X157000000Y-46220000D03*
X157000000Y-43680000D03*
X157000000Y-41140000D03*
X157000000Y-38600000D03*
X157000000Y-36060000D03*
X157000000Y-33520000D03*
X157000000Y-30980000D03*
X157000000Y-28440000D03*
G04 #@! TD*
D18*
G04 #@! TO.C,R12*
X116000000Y-55990000D03*
X116000000Y-57010000D03*
G04 #@! TD*
D19*
G04 #@! TO.C,R2*
X111490000Y-34500000D03*
X112510000Y-34500000D03*
G04 #@! TD*
D23*
G04 #@! TO.C,C5*
X116500000Y-81980000D03*
X116500000Y-81020000D03*
G04 #@! TD*
D38*
G04 #@! TO.C,U3*
X173690000Y-88975000D03*
X174960000Y-88975000D03*
X176230000Y-88975000D03*
X177500000Y-88975000D03*
X178770000Y-88975000D03*
X180040000Y-88975000D03*
X181310000Y-88975000D03*
X181310000Y-84025000D03*
X180040000Y-84025000D03*
X178770000Y-84025000D03*
X177500000Y-84025000D03*
X176230000Y-84025000D03*
X174960000Y-84025000D03*
X173690000Y-84025000D03*
G04 #@! TD*
D17*
G04 #@! TO.C,C3*
X135000000Y-68520000D03*
X135000000Y-69480000D03*
G04 #@! TD*
D41*
G04 #@! TO.C,R19*
X170000000Y-28947500D03*
X170000000Y-27927500D03*
G04 #@! TD*
D42*
G04 #@! TO.C,R9*
X131860000Y-50150000D03*
X130840000Y-50150000D03*
G04 #@! TD*
D18*
G04 #@! TO.C,R1*
X179840000Y-44240000D03*
X179840000Y-45260000D03*
G04 #@! TD*
D39*
G04 #@! TO.C,U9*
X161760000Y-43680000D03*
D40*
X161760000Y-46220000D03*
X161760000Y-48760000D03*
X161760000Y-51300000D03*
X161760000Y-53840000D03*
X161760000Y-56380000D03*
X161760000Y-58920000D03*
X161760000Y-61460000D03*
X161760000Y-64000000D03*
X161760000Y-66540000D03*
X161760000Y-69080000D03*
X161760000Y-71620000D03*
X161760000Y-74160000D03*
X161760000Y-76700000D03*
X177000000Y-76700000D03*
X177000000Y-74160000D03*
X177000000Y-71620000D03*
X177000000Y-69080000D03*
X177000000Y-66540000D03*
X177000000Y-64000000D03*
X177000000Y-61460000D03*
X177000000Y-58920000D03*
X177000000Y-56380000D03*
X177000000Y-53840000D03*
X177000000Y-51300000D03*
X177000000Y-48760000D03*
X177000000Y-46220000D03*
X177000000Y-43680000D03*
G04 #@! TD*
D32*
G04 #@! TO.C,D3*
X120050000Y-84050000D03*
X117950000Y-84050000D03*
G04 #@! TD*
D41*
G04 #@! TO.C,R10*
X102650000Y-35622500D03*
X102650000Y-34602500D03*
G04 #@! TD*
D21*
G04 #@! TO.C,D10*
X167500000Y-29875000D03*
X167500000Y-28000000D03*
G04 #@! TD*
D18*
G04 #@! TO.C,R14*
X108650000Y-34540000D03*
X108650000Y-35560000D03*
G04 #@! TD*
D42*
G04 #@! TO.C,R17*
X137010000Y-55500000D03*
X135990000Y-55500000D03*
G04 #@! TD*
D35*
G04 #@! TO.C,J1*
X122475000Y-43475000D03*
D36*
X122475000Y-40935000D03*
X125015000Y-43475000D03*
X125015000Y-40935000D03*
X127555000Y-43475000D03*
X127555000Y-40935000D03*
G04 #@! TD*
D23*
G04 #@! TO.C,C11*
X173551000Y-81524000D03*
X173551000Y-80564000D03*
G04 #@! TD*
D18*
G04 #@! TO.C,R11*
X115500000Y-80990000D03*
X115500000Y-82010000D03*
G04 #@! TD*
D35*
G04 #@! TO.C,J6*
X130125000Y-31275000D03*
D36*
X130125000Y-33815000D03*
X127585000Y-31275000D03*
X127585000Y-33815000D03*
X125045000Y-31275000D03*
X125045000Y-33815000D03*
X122505000Y-31275000D03*
X122505000Y-33815000D03*
X119965000Y-31275000D03*
X119965000Y-33815000D03*
G04 #@! TD*
D28*
G04 #@! TO.C,C7*
X137540000Y-42470000D03*
X136580000Y-42470000D03*
G04 #@! TD*
D39*
G04 #@! TO.C,C14*
X188000000Y-87705100D03*
D43*
X185500000Y-87705100D03*
G04 #@! TD*
D41*
G04 #@! TO.C,R8*
X107650000Y-35570000D03*
X107650000Y-34550000D03*
G04 #@! TD*
D28*
G04 #@! TO.C,C1*
X129480000Y-51100000D03*
X128520000Y-51100000D03*
G04 #@! TD*
D22*
G04 #@! TO.C,D6*
X118450000Y-57000000D03*
X120550000Y-57000000D03*
G04 #@! TD*
%LPD*%
M02*
