M48
; DRILL file {KiCad 8.0.8} date 2025-02-14T11:24:39-0500
; FORMAT={-:-/ absolute / metric / decimal}
; #@! TF.CreationDate,2025-02-14T11:24:39-05:00
; #@! TF.GenerationSoftware,Kicad,Pcbnew,8.0.8
; #@! TF.FileFunction,Plated,1,2,PTH
FMAT,2
METRIC
; #@! TA.AperFunction,Plated,PTH,ViaDrill
T1C0.400
; #@! TA.AperFunction,Plated,PTH,ComponentDrill
T2C0.800
; #@! TA.AperFunction,Plated,PTH,ComponentDrill
T3C1.000
%
G90
G05
T1
X100.08Y-27.54
X100.08Y-30.08
X100.08Y-32.62
X100.08Y-35.16
X100.08Y-37.7
X100.08Y-40.24
X100.08Y-42.78
X100.08Y-45.32
X100.08Y-47.86
X100.08Y-50.4
X100.08Y-52.94
X100.08Y-55.48
X100.08Y-58.02
X100.08Y-60.56
X100.08Y-63.1
X100.08Y-65.64
X100.08Y-68.18
X100.08Y-70.72
X100.08Y-73.26
X100.08Y-75.8
X100.08Y-78.34
X100.08Y-80.88
X100.08Y-83.42
X100.08Y-85.96
X100.08Y-88.5
X100.08Y-91.04
X102.62Y-37.7
X102.62Y-40.24
X102.62Y-42.78
X102.62Y-45.32
X102.62Y-47.86
X102.62Y-55.48
X102.62Y-58.02
X102.62Y-63.1
X102.62Y-68.18
X102.62Y-70.72
X102.62Y-73.26
X102.62Y-80.88
X102.62Y-83.42
X102.62Y-88.5
X104.591Y-34.602
X104.591Y-84.46
X105.16Y-27.54
X105.16Y-30.08
X105.16Y-32.62
X105.16Y-88.5
X105.16Y-91.04
X105.69Y-35.329
X107.7Y-37.7
X107.7Y-42.78
X107.7Y-45.32
X107.7Y-47.86
X107.7Y-50.4
X107.7Y-52.94
X107.7Y-55.48
X107.7Y-58.02
X107.7Y-60.56
X107.7Y-63.1
X107.7Y-65.64
X107.7Y-68.18
X107.7Y-70.72
X107.7Y-73.26
X107.7Y-75.8
X107.7Y-78.34
X107.7Y-80.88
X107.7Y-83.42
X107.7Y-85.96
X107.7Y-88.5
X107.7Y-91.04
X109.825Y-34.241
X110.24Y-27.54
X110.24Y-30.08
X110.24Y-58.02
X110.24Y-60.56
X110.24Y-63.1
X110.24Y-65.64
X110.24Y-68.18
X110.24Y-70.72
X110.24Y-83.42
X110.24Y-85.96
X110.24Y-88.5
X110.24Y-91.04
X111.0Y-43.0
X111.0Y-46.0
X112.78Y-32.62
X112.78Y-68.18
X113.5Y-43.0
X113.5Y-45.5
X113.993Y-59.4
X114.696Y-83.36
X114.741Y-58.293
X115.32Y-27.54
X115.32Y-32.62
X115.32Y-85.96
X115.32Y-88.5
X115.32Y-91.04
X115.435Y-77.892
X116.264Y-53.856
X116.5Y-42.0
X117.0Y-46.0
X117.0Y-48.0
X117.86Y-70.72
X117.86Y-75.8
X117.86Y-78.34
X117.86Y-85.96
X117.86Y-88.5
X117.86Y-91.04
X118.779Y-27.313
X120.263Y-83.025
X120.4Y-40.24
X120.4Y-50.4
X120.4Y-63.1
X120.4Y-65.64
X120.4Y-85.96
X120.4Y-88.5
X120.4Y-91.04
X121.191Y-55.242
X122.792Y-93.802
X122.867Y-55.474
X122.94Y-65.64
X123.33Y-57.412
X124.672Y-70.289
X124.749Y-53.693
X125.34Y-61.823
X125.658Y-66.817
X125.72Y-73.033
X126.205Y-44.662
X126.205Y-54.75
X126.562Y-56.35
X126.891Y-67.544
X127.003Y-60.35
X127.018Y-47.932
X127.026Y-46.877
X127.121Y-36.583
X128.02Y-45.719
X128.02Y-75.8
X128.115Y-54.712
X128.26Y-78.576
X128.291Y-57.15
X128.698Y-55.55
X128.923Y-48.389
X129.993Y-59.797
X130.0Y-84.5
X130.0Y-88.0
X130.158Y-57.402
X130.5Y-71.5
X130.5Y-81.02
X130.56Y-75.8
X130.842Y-54.75
X131.079Y-51.885
X131.139Y-59.232
X131.331Y-44.281
X132.332Y-79.611
X132.782Y-39.295
X133.1Y-32.62
X133.1Y-35.16
X133.1Y-68.18
X133.34Y-75.289
X134.0Y-52.5
X134.683Y-54.143
X135.25Y-58.14
X135.64Y-32.62
X135.64Y-45.32
X135.64Y-63.1
X135.785Y-93.704
X136.0Y-71.5
X136.0Y-77.0
X136.0Y-81.02
X136.0Y-84.5
X136.0Y-88.0
X137.757Y-67.81
X139.382Y-54.932
X139.534Y-62.738
X140.261Y-89.52
X143.44Y-87.084
X145.0Y-46.0
X145.0Y-48.5
X145.0Y-51.5
X145.0Y-54.0
X145.0Y-56.5
X145.5Y-61.5
X145.599Y-90.23
X145.8Y-32.62
X145.8Y-35.16
X145.8Y-37.7
X145.8Y-40.24
X145.8Y-65.64
X146.0Y-28.5
X146.5Y-69.0
X146.5Y-71.5
X146.817Y-60.076
X148.0Y-74.0
X148.0Y-76.5
X148.229Y-55.101
X148.34Y-32.62
X148.34Y-35.16
X148.34Y-37.7
X148.34Y-88.5
X148.5Y-28.5
X148.5Y-61.5
X149.0Y-46.0
X149.0Y-48.5
X149.0Y-52.0
X149.0Y-69.0
X149.0Y-81.02
X149.0Y-84.5
X150.0Y-65.5
X150.874Y-57.792
X150.88Y-32.62
X150.88Y-35.16
X150.88Y-88.5
X151.0Y-28.5
X152.0Y-63.5
X152.437Y-46.994
X152.5Y-65.5
X152.5Y-69.0
X152.5Y-71.5
X152.5Y-74.0
X152.5Y-76.5
X153.42Y-32.62
X153.42Y-52.94
X153.42Y-55.48
X153.5Y-28.5
X153.5Y-49.0
X154.5Y-63.5
X154.672Y-81.956
X158.5Y-80.88
X159.164Y-73.033
X160.772Y-75.573
X160.826Y-91.574
X161.04Y-27.54
X161.04Y-32.62
X161.04Y-35.16
X161.04Y-37.7
X161.301Y-41.14
X162.217Y-88.975
X162.374Y-87.619
X162.7Y-92.011
X163.284Y-93.823
X163.58Y-27.54
X163.58Y-32.62
X163.58Y-35.16
X163.58Y-37.7
X163.58Y-40.24
X163.879Y-92.753
X165.287Y-89.225
X165.5Y-48.0
X166.12Y-32.62
X166.12Y-35.16
X166.12Y-37.7
X166.12Y-40.24
X166.5Y-56.0
X166.5Y-58.5
X166.5Y-61.5
X167.5Y-50.5
X168.5Y-64.0
X168.5Y-74.5
X168.66Y-32.62
X168.66Y-35.16
X168.66Y-37.7
X168.66Y-40.24
X168.66Y-52.94
X168.66Y-68.18
X168.66Y-70.72
X168.66Y-80.88
X168.66Y-83.42
X168.9Y-90.383
X171.2Y-30.08
X171.2Y-32.62
X171.2Y-35.16
X171.2Y-37.7
X171.2Y-40.24
X171.2Y-47.86
X171.2Y-55.48
X171.2Y-70.72
X171.2Y-80.88
X171.2Y-83.42
X171.2Y-93.58
X171.5Y-64.0
X171.5Y-74.5
X173.74Y-27.54
X173.74Y-30.08
X173.74Y-32.62
X173.74Y-35.16
X173.74Y-37.7
X173.74Y-40.24
X173.74Y-47.86
X173.74Y-50.4
X173.74Y-93.58
X174.821Y-82.421
X175.542Y-87.504
X176.28Y-27.54
X176.28Y-30.08
X176.28Y-32.62
X176.28Y-35.16
X176.28Y-37.7
X176.28Y-40.24
X176.347Y-82.349
X176.742Y-94.182
X178.82Y-27.54
X178.82Y-30.08
X178.82Y-32.62
X178.82Y-35.16
X178.82Y-37.7
X178.82Y-40.24
X178.82Y-50.4
X178.82Y-52.94
X178.82Y-55.48
X178.82Y-91.04
X178.836Y-80.144
X179.06Y-94.182
X181.36Y-27.54
X181.36Y-30.08
X181.36Y-32.62
X181.36Y-35.16
X181.36Y-37.7
X181.36Y-40.24
X181.36Y-42.78
X181.36Y-45.32
X181.36Y-52.94
X181.36Y-55.48
X181.36Y-58.02
X181.36Y-60.56
X181.36Y-63.1
X183.9Y-27.54
X183.9Y-30.08
X183.9Y-32.62
X183.9Y-35.16
X183.9Y-37.7
X183.9Y-40.24
X183.9Y-42.78
X183.9Y-45.32
X183.9Y-47.86
X183.9Y-55.48
X183.9Y-58.02
X183.9Y-60.56
X183.9Y-63.1
X183.9Y-65.64
X183.9Y-68.18
X183.9Y-70.72
X183.9Y-73.26
X183.9Y-75.8
X183.9Y-78.34
X183.9Y-80.88
X183.9Y-83.42
X186.44Y-27.54
X186.44Y-30.08
X186.44Y-32.62
X186.44Y-35.16
X186.44Y-37.7
X186.44Y-40.24
X186.44Y-42.78
X186.44Y-45.32
X186.44Y-47.86
X186.44Y-50.4
X186.44Y-58.02
X186.44Y-60.56
X186.44Y-63.1
X186.44Y-65.64
X186.44Y-68.18
X186.44Y-70.72
X186.44Y-73.26
X186.44Y-75.8
X186.44Y-78.34
X186.44Y-80.88
X186.44Y-83.42
X188.98Y-27.54
X188.98Y-30.08
X188.98Y-32.62
X188.98Y-35.16
X188.98Y-37.7
X188.98Y-40.24
X188.98Y-42.78
X188.98Y-45.32
X188.98Y-47.86
X188.98Y-50.4
X188.98Y-52.94
X188.98Y-91.04
X191.52Y-27.54
X191.52Y-30.08
X191.52Y-32.62
X191.52Y-35.16
X191.52Y-37.7
X191.52Y-40.24
X191.52Y-42.78
X191.52Y-45.32
X191.52Y-47.86
X191.52Y-50.4
X191.52Y-52.94
X191.52Y-55.48
X191.52Y-58.02
X191.52Y-60.56
X191.52Y-63.1
X191.52Y-65.64
X191.52Y-68.18
X191.52Y-70.72
X191.52Y-73.26
X191.52Y-75.8
X191.52Y-78.34
X191.52Y-80.88
X191.52Y-83.42
X191.52Y-85.96
X191.52Y-88.5
X191.52Y-91.04
T2
X141.76Y-28.44
X141.76Y-30.98
X141.76Y-33.52
X141.76Y-36.06
X141.76Y-38.6
X141.76Y-41.14
X141.76Y-43.68
X141.76Y-46.22
X141.76Y-48.76
X141.76Y-51.3
X141.76Y-53.84
X141.76Y-56.38
X141.76Y-58.92
X141.76Y-61.46
X141.76Y-64.0
X141.76Y-66.54
X141.76Y-69.08
X141.76Y-71.62
X141.76Y-74.16
X141.76Y-76.7
X157.0Y-28.44
X157.0Y-30.98
X157.0Y-33.52
X157.0Y-36.06
X157.0Y-38.6
X157.0Y-41.14
X157.0Y-43.68
X157.0Y-46.22
X157.0Y-48.76
X157.0Y-51.3
X157.0Y-53.84
X157.0Y-56.38
X157.0Y-58.92
X157.0Y-61.46
X157.0Y-64.0
X157.0Y-66.54
X157.0Y-69.08
X157.0Y-71.62
X157.0Y-74.16
X157.0Y-76.7
X161.76Y-43.68
X161.76Y-46.22
X161.76Y-48.76
X161.76Y-51.3
X161.76Y-53.84
X161.76Y-56.38
X161.76Y-58.92
X161.76Y-61.46
X161.76Y-64.0
X161.76Y-66.54
X161.76Y-69.08
X161.76Y-71.62
X161.76Y-74.16
X161.76Y-76.7
X177.0Y-43.68
X177.0Y-46.22
X177.0Y-48.76
X177.0Y-51.3
X177.0Y-53.84
X177.0Y-56.38
X177.0Y-58.92
X177.0Y-61.46
X177.0Y-64.0
X177.0Y-66.54
X177.0Y-69.08
X177.0Y-71.62
X177.0Y-74.16
X177.0Y-76.7
X185.5Y-87.705
X188.0Y-87.705
T3
X112.225Y-37.235
X112.225Y-39.775
X114.765Y-37.235
X114.765Y-39.775
X119.965Y-31.275
X119.965Y-33.815
X122.475Y-40.935
X122.475Y-43.475
X122.505Y-31.275
X122.505Y-33.815
X125.015Y-40.935
X125.015Y-43.475
X125.045Y-31.275
X125.045Y-33.815
X127.555Y-40.935
X127.555Y-43.475
X127.585Y-31.275
X127.585Y-33.815
X130.125Y-31.275
X130.125Y-33.815
M30
