G04 #@! TF.GenerationSoftware,KiCad,Pcbnew,8.0.8*
G04 #@! TF.CreationDate,2025-02-14T11:24:38-05:00*
G04 #@! TF.ProjectId,Apple2CardCR,4170706c-6532-4436-9172-6443522e6b69,CR1.0A*
G04 #@! TF.SameCoordinates,Original*
G04 #@! TF.FileFunction,Copper,L2,Bot*
G04 #@! TF.FilePolarity,Positive*
%FSLAX46Y46*%
G04 Gerber Fmt 4.6, Leading zero omitted, Abs format (unit mm)*
G04 Created by KiCad (PCBNEW 8.0.8) date 2025-02-14 11:24:38*
%MOMM*%
%LPD*%
G01*
G04 APERTURE LIST*
G04 #@! TA.AperFunction,SMDPad,CuDef*
%ADD10R,1.910000X8.530000*%
G04 #@! TD*
G04 #@! TA.AperFunction,SMDPad,CuDef*
%ADD11R,1.270000X8.530000*%
G04 #@! TD*
G04 #@! TA.AperFunction,ComponentPad*
%ADD12R,1.700000X1.700000*%
G04 #@! TD*
G04 #@! TA.AperFunction,ComponentPad*
%ADD13O,1.700000X1.700000*%
G04 #@! TD*
G04 #@! TA.AperFunction,ComponentPad*
%ADD14R,1.600000X1.600000*%
G04 #@! TD*
G04 #@! TA.AperFunction,ComponentPad*
%ADD15O,1.600000X1.600000*%
G04 #@! TD*
G04 #@! TA.AperFunction,ComponentPad*
%ADD16C,1.600000*%
G04 #@! TD*
G04 #@! TA.AperFunction,ViaPad*
%ADD17C,0.800000*%
G04 #@! TD*
G04 #@! TA.AperFunction,Conductor*
%ADD18C,0.250000*%
G04 #@! TD*
G04 APERTURE END LIST*
D10*
G04 #@! TO.P,BUS1,26,GND*
G04 #@! TO.N,GND*
X181854000Y-99050000D03*
D11*
G04 #@! TO.P,BUS1,27,DMA_IN*
G04 #@! TO.N,Net-(BUS1-DMA_IN)*
X179060000Y-99050000D03*
G04 #@! TO.P,BUS1,28,INT_IN*
G04 #@! TO.N,Net-(BUS1-INT_IN)*
X176520000Y-99050000D03*
G04 #@! TO.P,BUS1,29,~{NMI}*
G04 #@! TO.N,unconnected-(BUS1-~{NMI}-Pad29)*
X173980000Y-99050000D03*
G04 #@! TO.P,BUS1,30,~{IRQ}*
G04 #@! TO.N,unconnected-(BUS1-~{IRQ}-Pad30)*
X171440000Y-99050000D03*
G04 #@! TO.P,BUS1,31,~{RES}*
G04 #@! TO.N,RES*
X168900000Y-99050000D03*
G04 #@! TO.P,BUS1,32,~{INH}*
G04 #@! TO.N,unconnected-(BUS1-~{INH}-Pad32)*
X166360000Y-99050000D03*
G04 #@! TO.P,BUS1,33,-12V*
G04 #@! TO.N,unconnected-(BUS1--12V-Pad33)*
X163820000Y-99050000D03*
G04 #@! TO.P,BUS1,34,-5V*
G04 #@! TO.N,unconnected-(BUS1--5V-Pad34)*
X161280000Y-99050000D03*
G04 #@! TO.P,BUS1,35,NC*
G04 #@! TO.N,unconnected-(BUS1-NC-Pad35)*
X158740000Y-99050000D03*
G04 #@! TO.P,BUS1,36,7M*
G04 #@! TO.N,unconnected-(BUS1-7M-Pad36)*
X156200000Y-99050000D03*
G04 #@! TO.P,BUS1,37,Q3*
G04 #@! TO.N,unconnected-(BUS1-Q3-Pad37)*
X153660000Y-99050000D03*
G04 #@! TO.P,BUS1,38,PHASE1*
G04 #@! TO.N,unconnected-(BUS1-PHASE1-Pad38)*
X151120000Y-99050000D03*
G04 #@! TO.P,BUS1,39,USER_1*
G04 #@! TO.N,unconnected-(BUS1-USER_1-Pad39)*
X148580000Y-99050000D03*
G04 #@! TO.P,BUS1,40,PHASE0*
G04 #@! TO.N,unconnected-(BUS1-PHASE0-Pad40)*
X146040000Y-99050000D03*
G04 #@! TO.P,BUS1,41,~{DEVICE_SELECT}*
G04 #@! TO.N,DS*
X143500000Y-99050000D03*
G04 #@! TO.P,BUS1,42,D7*
G04 #@! TO.N,D7*
X140960000Y-99050000D03*
G04 #@! TO.P,BUS1,43,D6*
G04 #@! TO.N,D6*
X138420000Y-99050000D03*
G04 #@! TO.P,BUS1,44,D5*
G04 #@! TO.N,D5*
X135880000Y-99050000D03*
G04 #@! TO.P,BUS1,45,D4*
G04 #@! TO.N,D4*
X133340000Y-99050000D03*
G04 #@! TO.P,BUS1,46,D3*
G04 #@! TO.N,D3*
X130800000Y-99050000D03*
G04 #@! TO.P,BUS1,47,D2*
G04 #@! TO.N,D2*
X128260000Y-99050000D03*
G04 #@! TO.P,BUS1,48,D1*
G04 #@! TO.N,D1*
X125720000Y-99050000D03*
G04 #@! TO.P,BUS1,49,D0*
G04 #@! TO.N,D0*
X123180000Y-99050000D03*
D10*
G04 #@! TO.P,BUS1,50,+12V*
G04 #@! TO.N,unconnected-(BUS1-+12V-Pad50)*
X120386000Y-99050000D03*
G04 #@! TD*
D12*
G04 #@! TO.P,J2,1,Pin_1*
G04 #@! TO.N,CS2*
X112225000Y-39775000D03*
D13*
G04 #@! TO.P,J2,2,Pin_2*
G04 #@! TO.N,Net-(J2-Pin_2)*
X112225000Y-37235000D03*
G04 #@! TO.P,J2,3,Pin_3*
G04 #@! TO.N,CS*
X114765000Y-39775000D03*
G04 #@! TO.P,J2,4,Pin_4*
G04 #@! TO.N,Net-(J2-Pin_4)*
X114765000Y-37235000D03*
G04 #@! TD*
D14*
G04 #@! TO.P,U4,1,PA3*
G04 #@! TO.N,PD3*
X141760000Y-28440000D03*
D15*
G04 #@! TO.P,U4,2,PA2*
G04 #@! TO.N,PD2*
X141760000Y-30980000D03*
G04 #@! TO.P,U4,3,PA1*
G04 #@! TO.N,PD1*
X141760000Y-33520000D03*
G04 #@! TO.P,U4,4,PA0*
G04 #@! TO.N,PD0*
X141760000Y-36060000D03*
G04 #@! TO.P,U4,5,~{RD}*
G04 #@! TO.N,Net-(U4-~{RD})*
X141760000Y-38600000D03*
G04 #@! TO.P,U4,6,~{CS}*
G04 #@! TO.N,GND*
X141760000Y-41140000D03*
G04 #@! TO.P,U4,7,GND*
X141760000Y-43680000D03*
G04 #@! TO.P,U4,8,A1*
G04 #@! TO.N,A1*
X141760000Y-46220000D03*
G04 #@! TO.P,U4,9,A0*
G04 #@! TO.N,A0*
X141760000Y-48760000D03*
G04 #@! TO.P,U4,10,PC7*
G04 #@! TO.N,OBFA*
X141760000Y-51300000D03*
G04 #@! TO.P,U4,11,PC6*
G04 #@! TO.N,ACKA*
X141760000Y-53840000D03*
G04 #@! TO.P,U4,12,PC5*
G04 #@! TO.N,IBFA*
X141760000Y-56380000D03*
G04 #@! TO.P,U4,13,PC4*
G04 #@! TO.N,STBA*
X141760000Y-58920000D03*
G04 #@! TO.P,U4,14,PC0*
G04 #@! TO.N,PC0*
X141760000Y-61460000D03*
G04 #@! TO.P,U4,15,PC1*
G04 #@! TO.N,PC1*
X141760000Y-64000000D03*
G04 #@! TO.P,U4,16,PC2*
G04 #@! TO.N,PC2*
X141760000Y-66540000D03*
G04 #@! TO.P,U4,17,PC3*
G04 #@! TO.N,unconnected-(U4-PC3-Pad17)*
X141760000Y-69080000D03*
G04 #@! TO.P,U4,18,PB0*
G04 #@! TO.N,PB0*
X141760000Y-71620000D03*
G04 #@! TO.P,U4,19,PB1*
G04 #@! TO.N,PB1*
X141760000Y-74160000D03*
G04 #@! TO.P,U4,20,PB2*
G04 #@! TO.N,PB2*
X141760000Y-76700000D03*
G04 #@! TO.P,U4,21,PB3*
G04 #@! TO.N,PB3*
X157000000Y-76700000D03*
G04 #@! TO.P,U4,22,PB4*
G04 #@! TO.N,unconnected-(U4-PB4-Pad22)*
X157000000Y-74160000D03*
G04 #@! TO.P,U4,23,PB5*
G04 #@! TO.N,unconnected-(U4-PB5-Pad23)*
X157000000Y-71620000D03*
G04 #@! TO.P,U4,24,PB6*
G04 #@! TO.N,unconnected-(U4-PB6-Pad24)*
X157000000Y-69080000D03*
G04 #@! TO.P,U4,25,PB7*
G04 #@! TO.N,unconnected-(U4-PB7-Pad25)*
X157000000Y-66540000D03*
G04 #@! TO.P,U4,26,VCC*
G04 #@! TO.N,+5V*
X157000000Y-64000000D03*
G04 #@! TO.P,U4,27,D7*
G04 #@! TO.N,D7*
X157000000Y-61460000D03*
G04 #@! TO.P,U4,28,D6*
G04 #@! TO.N,D6*
X157000000Y-58920000D03*
G04 #@! TO.P,U4,29,D5*
G04 #@! TO.N,D5*
X157000000Y-56380000D03*
G04 #@! TO.P,U4,30,D4*
G04 #@! TO.N,D4*
X157000000Y-53840000D03*
G04 #@! TO.P,U4,31,D3*
G04 #@! TO.N,D3*
X157000000Y-51300000D03*
G04 #@! TO.P,U4,32,D2*
G04 #@! TO.N,D2*
X157000000Y-48760000D03*
G04 #@! TO.P,U4,33,D1*
G04 #@! TO.N,D1*
X157000000Y-46220000D03*
G04 #@! TO.P,U4,34,D0*
G04 #@! TO.N,D0*
X157000000Y-43680000D03*
G04 #@! TO.P,U4,35,RESET*
G04 #@! TO.N,Net-(U4-RESET)*
X157000000Y-41140000D03*
G04 #@! TO.P,U4,36,~{WR}*
G04 #@! TO.N,Net-(U4-~{WR})*
X157000000Y-38600000D03*
G04 #@! TO.P,U4,37,PA7*
G04 #@! TO.N,PD7*
X157000000Y-36060000D03*
G04 #@! TO.P,U4,38,PA6*
G04 #@! TO.N,PD6*
X157000000Y-33520000D03*
G04 #@! TO.P,U4,39,PA5*
G04 #@! TO.N,PD5*
X157000000Y-30980000D03*
G04 #@! TO.P,U4,40,PA4*
G04 #@! TO.N,PD4*
X157000000Y-28440000D03*
G04 #@! TD*
D14*
G04 #@! TO.P,U9,1,A14*
G04 #@! TO.N,Net-(U9-A10)*
X161760000Y-43680000D03*
D15*
G04 #@! TO.P,U9,2,A12*
X161760000Y-46220000D03*
G04 #@! TO.P,U9,3,A7*
G04 #@! TO.N,A7*
X161760000Y-48760000D03*
G04 #@! TO.P,U9,4,A6*
G04 #@! TO.N,A6*
X161760000Y-51300000D03*
G04 #@! TO.P,U9,5,A5*
G04 #@! TO.N,A5*
X161760000Y-53840000D03*
G04 #@! TO.P,U9,6,A4*
G04 #@! TO.N,A4*
X161760000Y-56380000D03*
G04 #@! TO.P,U9,7,A3*
G04 #@! TO.N,A3*
X161760000Y-58920000D03*
G04 #@! TO.P,U9,8,A2*
G04 #@! TO.N,A2*
X161760000Y-61460000D03*
G04 #@! TO.P,U9,9,A1*
G04 #@! TO.N,A1*
X161760000Y-64000000D03*
G04 #@! TO.P,U9,10,A0*
G04 #@! TO.N,A0*
X161760000Y-66540000D03*
G04 #@! TO.P,U9,11,D0*
G04 #@! TO.N,D0*
X161760000Y-69080000D03*
G04 #@! TO.P,U9,12,D1*
G04 #@! TO.N,D1*
X161760000Y-71620000D03*
G04 #@! TO.P,U9,13,D2*
G04 #@! TO.N,D2*
X161760000Y-74160000D03*
G04 #@! TO.P,U9,14,GND*
G04 #@! TO.N,GND*
X161760000Y-76700000D03*
G04 #@! TO.P,U9,15,D3*
G04 #@! TO.N,D3*
X177000000Y-76700000D03*
G04 #@! TO.P,U9,16,D4*
G04 #@! TO.N,D4*
X177000000Y-74160000D03*
G04 #@! TO.P,U9,17,D5*
G04 #@! TO.N,D5*
X177000000Y-71620000D03*
G04 #@! TO.P,U9,18,D6*
G04 #@! TO.N,D6*
X177000000Y-69080000D03*
G04 #@! TO.P,U9,19,D7*
G04 #@! TO.N,D7*
X177000000Y-66540000D03*
G04 #@! TO.P,U9,20,~{CS}*
G04 #@! TO.N,IOSEL*
X177000000Y-64000000D03*
G04 #@! TO.P,U9,21,A10*
G04 #@! TO.N,Net-(U9-A10)*
X177000000Y-61460000D03*
G04 #@! TO.P,U9,22,~{OE}*
G04 #@! TO.N,Net-(U9-~{OE})*
X177000000Y-58920000D03*
G04 #@! TO.P,U9,23,A11*
G04 #@! TO.N,Net-(U9-A10)*
X177000000Y-56380000D03*
G04 #@! TO.P,U9,24,A9*
X177000000Y-53840000D03*
G04 #@! TO.P,U9,25,A8*
X177000000Y-51300000D03*
G04 #@! TO.P,U9,26,A13*
X177000000Y-48760000D03*
G04 #@! TO.P,U9,27,~{WE}*
X177000000Y-46220000D03*
G04 #@! TO.P,U9,28,VCC*
G04 #@! TO.N,+5V*
X177000000Y-43680000D03*
G04 #@! TD*
D12*
G04 #@! TO.P,J1,1,Pin_1*
G04 #@! TO.N,MISO*
X122475000Y-43475000D03*
D13*
G04 #@! TO.P,J1,2,Pin_2*
G04 #@! TO.N,+5V*
X122475000Y-40935000D03*
G04 #@! TO.P,J1,3,Pin_3*
G04 #@! TO.N,SCK*
X125015000Y-43475000D03*
G04 #@! TO.P,J1,4,Pin_4*
G04 #@! TO.N,MOSI*
X125015000Y-40935000D03*
G04 #@! TO.P,J1,5,Pin_5*
G04 #@! TO.N,RESET*
X127555000Y-43475000D03*
G04 #@! TO.P,J1,6,Pin_6*
G04 #@! TO.N,GND*
X127555000Y-40935000D03*
G04 #@! TD*
D12*
G04 #@! TO.P,J6,1,Pin_1*
G04 #@! TO.N,Net-(J6-Pin_1)*
X130125000Y-31275000D03*
D13*
G04 #@! TO.P,J6,2,Pin_2*
G04 #@! TO.N,SCK*
X130125000Y-33815000D03*
G04 #@! TO.P,J6,3,Pin_3*
G04 #@! TO.N,Net-(J6-Pin_3)*
X127585000Y-31275000D03*
G04 #@! TO.P,J6,4,Pin_4*
G04 #@! TO.N,CS3*
X127585000Y-33815000D03*
G04 #@! TO.P,J6,5,Pin_5*
G04 #@! TO.N,unconnected-(J6-Pin_5-Pad5)*
X125045000Y-31275000D03*
G04 #@! TO.P,J6,6,Pin_6*
G04 #@! TO.N,MOSI*
X125045000Y-33815000D03*
G04 #@! TO.P,J6,7,Pin_7*
G04 #@! TO.N,GND*
X122505000Y-31275000D03*
G04 #@! TO.P,J6,8,Pin_8*
G04 #@! TO.N,MISO*
X122505000Y-33815000D03*
G04 #@! TO.P,J6,9,Pin_9*
G04 #@! TO.N,+5V*
X119965000Y-31275000D03*
G04 #@! TO.P,J6,10,Pin_10*
G04 #@! TO.N,unconnected-(J6-Pin_10-Pad10)*
X119965000Y-33815000D03*
G04 #@! TD*
D14*
G04 #@! TO.P,C14,1*
G04 #@! TO.N,+5V*
X188000000Y-87705100D03*
D16*
G04 #@! TO.P,C14,2*
G04 #@! TO.N,GND*
X185500000Y-87705100D03*
G04 #@! TD*
D17*
G04 #@! TO.N,IOSEL*
X174820700Y-82421100D03*
G04 #@! TO.N,A0*
X137756800Y-67810000D03*
X122792300Y-93801800D03*
G04 #@! TO.N,A1*
X152437000Y-46994200D03*
X140260500Y-89519700D03*
G04 #@! TO.N,A2*
X162374400Y-87618900D03*
G04 #@! TO.N,A3*
X160825700Y-91574200D03*
G04 #@! TO.N,A4*
X162700300Y-92011000D03*
G04 #@! TO.N,A5*
X139533800Y-62738500D03*
X135785000Y-93703900D03*
G04 #@! TO.N,A6*
X163878500Y-92752600D03*
G04 #@! TO.N,A7*
X163284100Y-93823300D03*
G04 #@! TO.N,Net-(BUS1-INT_IN)*
X176741600Y-94182500D03*
G04 #@! TO.N,+5V*
X131079100Y-51884700D03*
X131330500Y-44280800D03*
X125657800Y-66817000D03*
X154671900Y-81955700D03*
X120262700Y-83025000D03*
G04 #@! TO.N,GND*
X100080000Y-88500000D03*
X117860000Y-70720000D03*
X149000000Y-81020000D03*
X116500000Y-42000000D03*
X145000000Y-51500000D03*
X112780000Y-68180000D03*
X173740000Y-40240000D03*
X166500000Y-56000000D03*
X107700000Y-50400000D03*
X183900000Y-55480000D03*
X188980000Y-40240000D03*
X107700000Y-52940000D03*
X100080000Y-37700000D03*
X110240000Y-85960000D03*
X110240000Y-65640000D03*
X102620000Y-88500000D03*
X176280000Y-35160000D03*
X188980000Y-32620000D03*
X191520000Y-91040000D03*
X107700000Y-55480000D03*
X176280000Y-37700000D03*
X149000000Y-84500000D03*
X165500000Y-48000000D03*
X117860000Y-75800000D03*
X130000000Y-88000000D03*
X102620000Y-70720000D03*
X181360000Y-60560000D03*
X133100000Y-32620000D03*
X105160000Y-91040000D03*
X178820000Y-35160000D03*
X181360000Y-42780000D03*
X191520000Y-63100000D03*
X107700000Y-83420000D03*
X153500000Y-28500000D03*
X120400000Y-63100000D03*
X168500000Y-74500000D03*
X186440000Y-83420000D03*
X191520000Y-42780000D03*
X148340000Y-32620000D03*
X183900000Y-58020000D03*
X145800000Y-65640000D03*
X146500000Y-71500000D03*
X107700000Y-75800000D03*
X176280000Y-32620000D03*
X110240000Y-70720000D03*
X117860000Y-85960000D03*
X188980000Y-27540000D03*
X107700000Y-65640000D03*
X171200000Y-47860000D03*
X186440000Y-70720000D03*
X152000000Y-63500000D03*
X181360000Y-30080000D03*
X191520000Y-55480000D03*
X102620000Y-83420000D03*
X191520000Y-27540000D03*
X178820000Y-30080000D03*
X107700000Y-88500000D03*
X148000000Y-74000000D03*
X120400000Y-88500000D03*
X105160000Y-88500000D03*
X100080000Y-40240000D03*
X168660000Y-80880000D03*
X191520000Y-73260000D03*
X110240000Y-83420000D03*
X171200000Y-30080000D03*
X191520000Y-50400000D03*
X115320000Y-32620000D03*
X148340000Y-37700000D03*
X173740000Y-32620000D03*
X145000000Y-56500000D03*
X191520000Y-60560000D03*
X183900000Y-37700000D03*
X133100000Y-68180000D03*
X178820000Y-50400000D03*
X151000000Y-28500000D03*
X171500000Y-64000000D03*
X111000000Y-46000000D03*
X136000000Y-81020000D03*
X146500000Y-69000000D03*
X150000000Y-65500000D03*
X183900000Y-63100000D03*
X191520000Y-88500000D03*
X153420000Y-32620000D03*
X183900000Y-30080000D03*
X173740000Y-35160000D03*
X102620000Y-55480000D03*
X102620000Y-37700000D03*
X100080000Y-50400000D03*
X110240000Y-60560000D03*
X191520000Y-58020000D03*
X107700000Y-78340000D03*
X171200000Y-37700000D03*
X166120000Y-35160000D03*
X191520000Y-85960000D03*
X107700000Y-70720000D03*
X191520000Y-75800000D03*
X115320000Y-88500000D03*
X191520000Y-30080000D03*
X163580000Y-32620000D03*
X186440000Y-30080000D03*
X186440000Y-73260000D03*
X186440000Y-63100000D03*
X178820000Y-27540000D03*
X102620000Y-40240000D03*
X171200000Y-80880000D03*
X152500000Y-74000000D03*
X135640000Y-32620000D03*
X148000000Y-76500000D03*
X166500000Y-61500000D03*
X186440000Y-37700000D03*
X191520000Y-37700000D03*
X183900000Y-40240000D03*
X102620000Y-63100000D03*
X107700000Y-60560000D03*
X105160000Y-27540000D03*
X161040000Y-37700000D03*
X150880000Y-32620000D03*
X150880000Y-35160000D03*
X107700000Y-58020000D03*
X183900000Y-73260000D03*
X152500000Y-76500000D03*
X105160000Y-30080000D03*
X149000000Y-48500000D03*
X176280000Y-27540000D03*
X145800000Y-32620000D03*
X188980000Y-37700000D03*
X183900000Y-35160000D03*
X183900000Y-27540000D03*
X113500000Y-43000000D03*
X171200000Y-55480000D03*
X130560000Y-75800000D03*
X100080000Y-30080000D03*
X191520000Y-40240000D03*
X186440000Y-40240000D03*
X181360000Y-35160000D03*
X188980000Y-35160000D03*
X186440000Y-78340000D03*
X181360000Y-27540000D03*
X117000000Y-46000000D03*
X150880000Y-88500000D03*
X100080000Y-42780000D03*
X152500000Y-65500000D03*
X100080000Y-45320000D03*
X181360000Y-52940000D03*
X136000000Y-77000000D03*
X178820000Y-40240000D03*
X168660000Y-40240000D03*
X152500000Y-69000000D03*
X181360000Y-40240000D03*
X168660000Y-35160000D03*
X110240000Y-63100000D03*
X186440000Y-27540000D03*
X166120000Y-40240000D03*
X186440000Y-60560000D03*
X110240000Y-91040000D03*
X168660000Y-37700000D03*
X102620000Y-45320000D03*
X100080000Y-70720000D03*
X100080000Y-91040000D03*
X153500000Y-49000000D03*
X130000000Y-84500000D03*
X171200000Y-70720000D03*
X145800000Y-35160000D03*
X191520000Y-52940000D03*
X107700000Y-68180000D03*
X183900000Y-70720000D03*
X173740000Y-30080000D03*
X120400000Y-50400000D03*
X130500000Y-81020000D03*
X188980000Y-50400000D03*
X128020000Y-75800000D03*
X191520000Y-35160000D03*
X188980000Y-52940000D03*
X183900000Y-42780000D03*
X181360000Y-45320000D03*
X168660000Y-52940000D03*
X100080000Y-85960000D03*
X115320000Y-85960000D03*
X110240000Y-30080000D03*
X173740000Y-47860000D03*
X166120000Y-37700000D03*
X100080000Y-52940000D03*
X186440000Y-80880000D03*
X102620000Y-58020000D03*
X100080000Y-27540000D03*
X153420000Y-52940000D03*
X171200000Y-93580000D03*
X163580000Y-40240000D03*
X186440000Y-47860000D03*
X178820000Y-32620000D03*
X152500000Y-71500000D03*
X102620000Y-47860000D03*
X183900000Y-83420000D03*
X171200000Y-32620000D03*
X136000000Y-71500000D03*
X145800000Y-40240000D03*
X183900000Y-47860000D03*
X183900000Y-80880000D03*
X161040000Y-27540000D03*
X110240000Y-58020000D03*
X186440000Y-45320000D03*
X100080000Y-32620000D03*
X148500000Y-61500000D03*
X102620000Y-80880000D03*
X191520000Y-45320000D03*
X133100000Y-35160000D03*
X186440000Y-32620000D03*
X100080000Y-83420000D03*
X134000000Y-52500000D03*
X171200000Y-35160000D03*
X191520000Y-78340000D03*
X176280000Y-40240000D03*
X188980000Y-45320000D03*
X145500000Y-61500000D03*
X191520000Y-83420000D03*
X100080000Y-75800000D03*
X173740000Y-93580000D03*
X171200000Y-83420000D03*
X168500000Y-64000000D03*
X145000000Y-46000000D03*
X126891200Y-67543700D03*
X163580000Y-27540000D03*
X183900000Y-65640000D03*
X166120000Y-32620000D03*
X100080000Y-35160000D03*
X120400000Y-65640000D03*
X168660000Y-32620000D03*
X107700000Y-47860000D03*
X111000000Y-43000000D03*
X117860000Y-78340000D03*
X188980000Y-42780000D03*
X110240000Y-68180000D03*
X100080000Y-68180000D03*
X168660000Y-68180000D03*
X100080000Y-73260000D03*
X145000000Y-48500000D03*
X191520000Y-70720000D03*
X183900000Y-75800000D03*
X148340000Y-35160000D03*
X181360000Y-32620000D03*
X120400000Y-40240000D03*
X107700000Y-37700000D03*
X178820000Y-52940000D03*
X183900000Y-60560000D03*
X161040000Y-35160000D03*
X186440000Y-68180000D03*
X100080000Y-65640000D03*
X107700000Y-91040000D03*
X186440000Y-58020000D03*
X168660000Y-70720000D03*
X176280000Y-30080000D03*
X188980000Y-91040000D03*
X173740000Y-50400000D03*
X186440000Y-35160000D03*
X149000000Y-69000000D03*
X183900000Y-32620000D03*
X167500000Y-50500000D03*
X135640000Y-63100000D03*
X113500000Y-45500000D03*
X186440000Y-50400000D03*
X146000000Y-28500000D03*
X136000000Y-84500000D03*
X100080000Y-47860000D03*
X191520000Y-32620000D03*
X110240000Y-88500000D03*
X100080000Y-60560000D03*
X171500000Y-74500000D03*
X161040000Y-32620000D03*
X117860000Y-88500000D03*
X107700000Y-45320000D03*
X171200000Y-40240000D03*
X117860000Y-91040000D03*
X163580000Y-37700000D03*
X145800000Y-37700000D03*
X163580000Y-35160000D03*
X120400000Y-85960000D03*
X178820000Y-91040000D03*
X181360000Y-55480000D03*
X136000000Y-88000000D03*
X166500000Y-58500000D03*
X173740000Y-27540000D03*
X120400000Y-91040000D03*
X110240000Y-27540000D03*
X102620000Y-68180000D03*
X183900000Y-78340000D03*
X107700000Y-85960000D03*
X153420000Y-55480000D03*
X100080000Y-80880000D03*
X100080000Y-78340000D03*
X145000000Y-54000000D03*
X107700000Y-73260000D03*
X112780000Y-32620000D03*
X154500000Y-63500000D03*
X188980000Y-47860000D03*
X100080000Y-63100000D03*
X173740000Y-37700000D03*
X186440000Y-65640000D03*
X102620000Y-73260000D03*
X115320000Y-91040000D03*
X178820000Y-37700000D03*
X105160000Y-32620000D03*
X181360000Y-58020000D03*
X107700000Y-80880000D03*
X162216600Y-88975000D03*
X191520000Y-68180000D03*
X191520000Y-80880000D03*
X100080000Y-58020000D03*
X100080000Y-55480000D03*
X102620000Y-42780000D03*
X148340000Y-88500000D03*
X158500000Y-80880000D03*
X117000000Y-48000000D03*
X178820000Y-55480000D03*
X181360000Y-63100000D03*
X130500000Y-71500000D03*
X135250300Y-58140100D03*
X178836400Y-80143600D03*
X122940000Y-65640000D03*
X168660000Y-83420000D03*
X183900000Y-68180000D03*
X186440000Y-42780000D03*
X115320000Y-27540000D03*
X183900000Y-45320000D03*
X186440000Y-75800000D03*
X107700000Y-63100000D03*
X135640000Y-45320000D03*
X148500000Y-28500000D03*
X149000000Y-46000000D03*
X107700000Y-42780000D03*
X188980000Y-30080000D03*
X191520000Y-65640000D03*
X191520000Y-47860000D03*
X181360000Y-37700000D03*
X149000000Y-52000000D03*
G04 #@! TO.N,Net-(BUS1-DMA_IN)*
X179060000Y-94182400D03*
G04 #@! TO.N,RES*
X168900000Y-90382600D03*
G04 #@! TO.N,DS*
X145598800Y-90229700D03*
G04 #@! TO.N,D4*
X159163600Y-73033300D03*
X133340000Y-75289300D03*
G04 #@! TO.N,D3*
X132331500Y-79611100D03*
X160771600Y-75573300D03*
G04 #@! TO.N,D2*
X128260000Y-78575600D03*
G04 #@! TO.N,D1*
X125720000Y-73033300D03*
G04 #@! TO.N,D0*
X124672000Y-70288800D03*
G04 #@! TO.N,RESET*
X123330200Y-57411700D03*
G04 #@! TO.N,CS2*
X128291300Y-57150000D03*
X105690300Y-35329300D03*
G04 #@! TO.N,MISO*
X130841900Y-54750000D03*
X115435400Y-77892500D03*
X116264300Y-53855700D03*
G04 #@! TO.N,SCK*
X128923100Y-48389400D03*
G04 #@! TO.N,MOSI*
X128698000Y-55550000D03*
G04 #@! TO.N,CS*
X126562400Y-56350000D03*
G04 #@! TO.N,PD1*
X131138600Y-59231800D03*
G04 #@! TO.N,PD0*
X125339700Y-61822700D03*
G04 #@! TO.N,PD2*
X129993400Y-59797500D03*
G04 #@! TO.N,PD3*
X127003300Y-60350000D03*
G04 #@! TO.N,PD4*
X121191200Y-55241800D03*
X118779200Y-27313300D03*
G04 #@! TO.N,PD5*
X146817400Y-60075900D03*
G04 #@! TO.N,PD6*
X150873500Y-57791900D03*
G04 #@! TO.N,PD7*
X148228600Y-55100900D03*
G04 #@! TO.N,Net-(U6-~{CS})*
X113993300Y-59400300D03*
X109825300Y-34240700D03*
G04 #@! TO.N,Net-(U5-~{CS})*
X104591500Y-34602500D03*
X104591500Y-84460000D03*
G04 #@! TO.N,Net-(U5-DI)*
X114740600Y-58293200D03*
X114695600Y-83360000D03*
X134682800Y-54142900D03*
G04 #@! TO.N,Net-(U9-~{OE})*
X175541700Y-87504500D03*
G04 #@! TO.N,Net-(U4-~{WR})*
X165287300Y-89224900D03*
G04 #@! TO.N,Net-(U4-~{RD})*
X143440000Y-87084200D03*
G04 #@! TO.N,OBFA*
X126204800Y-44661800D03*
X122866600Y-55474000D03*
G04 #@! TO.N,ACKA*
X126204800Y-54750000D03*
X127017900Y-47931700D03*
G04 #@! TO.N,STBA*
X128115200Y-54712100D03*
X128019700Y-45719500D03*
G04 #@! TO.N,IBFA*
X139381700Y-54931600D03*
X127025800Y-46877100D03*
X124749000Y-53692900D03*
G04 #@! TO.N,Net-(U4-RESET)*
X176347300Y-82349200D03*
X161301000Y-41140000D03*
G04 #@! TO.N,CS3*
X127120600Y-36583300D03*
X130157600Y-57401800D03*
X132782500Y-39294800D03*
G04 #@! TD*
D18*
G04 #@! TO.N,IOSEL*
X176759500Y-65126700D02*
X174820700Y-67065500D01*
X177000000Y-65126700D02*
X176759500Y-65126700D01*
X177000000Y-64000000D02*
X177000000Y-65126700D01*
X174820700Y-67065500D02*
X174820700Y-82421100D01*
G04 #@! TO.N,A0*
X137756800Y-53610200D02*
X137756800Y-67810000D01*
X137756800Y-67810000D02*
X136213700Y-69353100D01*
X136213700Y-69353100D02*
X124579700Y-69353100D01*
X141480300Y-49886700D02*
X137756800Y-53610200D01*
X122792300Y-71140500D02*
X122792300Y-93801800D01*
X124579700Y-69353100D02*
X122792300Y-71140500D01*
X141760000Y-49886700D02*
X141480300Y-49886700D01*
X141760000Y-48760000D02*
X141760000Y-49886700D01*
G04 #@! TO.N,A1*
X161760000Y-64000000D02*
X161760000Y-62873300D01*
X160633300Y-62028400D02*
X161478200Y-62873300D01*
X142936800Y-82753900D02*
X140260500Y-85430200D01*
X160181600Y-45262900D02*
X160181600Y-47307300D01*
X141760000Y-46220000D02*
X141760000Y-47346700D01*
X160181600Y-47307300D02*
X160633300Y-47759000D01*
X142041700Y-47346700D02*
X142936800Y-48241800D01*
X156563200Y-42509700D02*
X157428400Y-42509700D01*
X140260500Y-85430200D02*
X140260500Y-89519700D01*
X157428400Y-42509700D02*
X160181600Y-45262900D01*
X160633300Y-47759000D02*
X160633300Y-62028400D01*
X161478200Y-62873300D02*
X161760000Y-62873300D01*
X152437000Y-46994200D02*
X152437000Y-46635900D01*
X142936800Y-48241800D02*
X142936800Y-82753900D01*
X152437000Y-46635900D02*
X156563200Y-42509700D01*
X141760000Y-47346700D02*
X142041700Y-47346700D01*
G04 #@! TO.N,A2*
X162898300Y-62598300D02*
X161760000Y-61460000D01*
X162374400Y-87618900D02*
X162374400Y-78598200D01*
X162898300Y-78074300D02*
X162898300Y-62598300D01*
X162374400Y-78598200D02*
X162898300Y-78074300D01*
G04 #@! TO.N,A3*
X163384000Y-78473800D02*
X162988800Y-78869000D01*
X161760000Y-60046700D02*
X162028300Y-60046700D01*
X163384000Y-61402400D02*
X163384000Y-78473800D01*
X163101100Y-87317900D02*
X163101100Y-89298800D01*
X161760000Y-58920000D02*
X161760000Y-60046700D01*
X162988800Y-78869000D02*
X162988800Y-87205600D01*
X162988800Y-87205600D02*
X163101100Y-87317900D01*
X163101100Y-89298800D02*
X160825700Y-91574200D01*
X162028300Y-60046700D02*
X163384000Y-61402400D01*
G04 #@! TO.N,A4*
X161760000Y-56380000D02*
X161760000Y-57506700D01*
X163440500Y-79056200D02*
X163440500Y-87018500D01*
X161760000Y-57506700D02*
X162041700Y-57506700D01*
X163892200Y-59357200D02*
X163892200Y-78604500D01*
X163552800Y-87130800D02*
X163552800Y-91158500D01*
X163440500Y-87018500D02*
X163552800Y-87130800D01*
X163892200Y-78604500D02*
X163440500Y-79056200D01*
X162041700Y-57506700D02*
X163892200Y-59357200D01*
X163552800Y-91158500D02*
X162700300Y-92011000D01*
G04 #@! TO.N,A5*
X139533800Y-89955100D02*
X135785000Y-93703900D01*
X139533800Y-62738500D02*
X139533800Y-89955100D01*
G04 #@! TO.N,A6*
X163894500Y-79241000D02*
X163894500Y-86833700D01*
X162041700Y-52426700D02*
X164343900Y-54728900D01*
X161760000Y-52426700D02*
X162041700Y-52426700D01*
X164343900Y-54728900D02*
X164343900Y-78791600D01*
X163894500Y-86833700D02*
X164004500Y-86943700D01*
X164004500Y-86943700D02*
X164004500Y-92626600D01*
X164004500Y-92626600D02*
X163878500Y-92752600D01*
X161760000Y-51300000D02*
X161760000Y-52426700D01*
X164343900Y-78791600D02*
X163894500Y-79241000D01*
G04 #@! TO.N,A7*
X162041700Y-49886700D02*
X164795600Y-52640600D01*
X164560600Y-89525800D02*
X164795600Y-89760800D01*
X163869900Y-93823300D02*
X163284100Y-93823300D01*
X164795600Y-92897600D02*
X163869900Y-93823300D01*
X164795600Y-89760800D02*
X164795600Y-92897600D01*
X164560600Y-88924000D02*
X164560600Y-89525800D01*
X164795600Y-88689000D02*
X164560600Y-88924000D01*
X164795600Y-52640600D02*
X164795600Y-88689000D01*
X161760000Y-49886700D02*
X162041700Y-49886700D01*
X161760000Y-48760000D02*
X161760000Y-49886700D01*
G04 #@! TO.N,Net-(BUS1-INT_IN)*
X176741600Y-94236700D02*
X176741600Y-94182500D01*
X176520000Y-94458300D02*
X176741600Y-94236700D01*
X176520000Y-99050000D02*
X176520000Y-94458300D01*
G04 #@! TO.N,+5V*
X188000000Y-87705100D02*
X188000000Y-55525000D01*
X119965000Y-31275000D02*
X119965000Y-32451700D01*
X120262700Y-72212100D02*
X125657800Y-66817000D01*
X188000000Y-55525000D02*
X177281700Y-44806700D01*
X121298300Y-38581600D02*
X122475000Y-39758300D01*
X157000000Y-64000000D02*
X157000000Y-65126700D01*
X177000000Y-43680000D02*
X177000000Y-44806700D01*
X177281700Y-44806700D02*
X177000000Y-44806700D01*
X120262700Y-83025000D02*
X120262700Y-72212100D01*
X156718300Y-65126700D02*
X154671900Y-67173100D01*
X120332800Y-32451700D02*
X121298300Y-33417200D01*
X157000000Y-65126700D02*
X156718300Y-65126700D01*
X122475000Y-40935000D02*
X122475000Y-39758300D01*
X119965000Y-32451700D02*
X120332800Y-32451700D01*
X131330500Y-44280800D02*
X131330500Y-51633300D01*
X154671900Y-67173100D02*
X154671900Y-81955700D01*
X131330500Y-51633300D02*
X131079100Y-51884700D01*
X121298300Y-33417200D02*
X121298300Y-38581600D01*
G04 #@! TO.N,GND*
X125382500Y-32451700D02*
X126378300Y-33447500D01*
X122505000Y-31275000D02*
X123681700Y-31275000D01*
X141760000Y-43680000D02*
X141760000Y-44806700D01*
X123681700Y-31642800D02*
X124490600Y-32451700D01*
X161647700Y-77939000D02*
X161647700Y-88406100D01*
X135409500Y-50875500D02*
X141478300Y-44806700D01*
X123681700Y-31275000D02*
X123681700Y-31642800D01*
X126378300Y-33447500D02*
X126378300Y-38581600D01*
X181854000Y-88439400D02*
X182588300Y-87705100D01*
X141760000Y-43680000D02*
X141760000Y-41140000D01*
X135250300Y-59184600D02*
X126891200Y-67543700D01*
X185500000Y-87705100D02*
X182588300Y-87705100D01*
X127555000Y-40935000D02*
X127555000Y-39758300D01*
X141478300Y-44806700D02*
X141760000Y-44806700D01*
X182588300Y-87705100D02*
X182588300Y-83895500D01*
X182588300Y-83895500D02*
X178836400Y-80143600D01*
X126378300Y-38581600D02*
X127555000Y-39758300D01*
X135250300Y-58140100D02*
X135250300Y-59184600D01*
X124490600Y-32451700D02*
X125382500Y-32451700D01*
X181854000Y-99050000D02*
X181854000Y-88439400D01*
X161760000Y-76700000D02*
X161760000Y-77826700D01*
X135409500Y-57980900D02*
X135409500Y-50875500D01*
X135250300Y-58140100D02*
X135409500Y-57980900D01*
X161647700Y-88406100D02*
X162216600Y-88975000D01*
X161760000Y-77826700D02*
X161647700Y-77939000D01*
G04 #@! TO.N,Net-(BUS1-DMA_IN)*
X179060000Y-99050000D02*
X179060000Y-94182400D01*
G04 #@! TO.N,RES*
X168900000Y-99050000D02*
X168900000Y-90382600D01*
G04 #@! TO.N,DS*
X143500000Y-99050000D02*
X143500000Y-92328500D01*
X143500000Y-92328500D02*
X145598800Y-90229700D01*
G04 #@! TO.N,D7*
X145351300Y-73979300D02*
X156743900Y-62586700D01*
X140960000Y-92867500D02*
X145351300Y-88476200D01*
X140960000Y-99050000D02*
X140960000Y-92867500D01*
X157000000Y-61460000D02*
X157000000Y-62586700D01*
X145351300Y-88476200D02*
X145351300Y-73979300D01*
X156743900Y-62586700D02*
X157000000Y-62586700D01*
G04 #@! TO.N,D6*
X138420000Y-99050000D02*
X138420000Y-94458300D01*
X156718300Y-60046700D02*
X157000000Y-60046700D01*
X157000000Y-58920000D02*
X157000000Y-60046700D01*
X144795100Y-88083200D02*
X144795100Y-71969900D01*
X144795100Y-71969900D02*
X156718300Y-60046700D01*
X138420000Y-94458300D02*
X144795100Y-88083200D01*
G04 #@! TO.N,D5*
X136349600Y-94458300D02*
X141985200Y-88822700D01*
X157000000Y-56380000D02*
X157000000Y-57506700D01*
X135880000Y-94458300D02*
X136349600Y-94458300D01*
X142742000Y-88822700D02*
X144343400Y-87221300D01*
X144343400Y-69881600D02*
X156718300Y-57506700D01*
X141985200Y-88822700D02*
X142742000Y-88822700D01*
X156718300Y-57506700D02*
X157000000Y-57506700D01*
X135880000Y-99050000D02*
X135880000Y-94458300D01*
X144343400Y-87221300D02*
X144343400Y-69881600D01*
G04 #@! TO.N,D4*
X157000000Y-54966700D02*
X157279600Y-54966700D01*
X157000000Y-53840000D02*
X157000000Y-54966700D01*
X133340000Y-99050000D02*
X133340000Y-75289300D01*
X158329200Y-56016300D02*
X158329200Y-72198900D01*
X158329200Y-72198900D02*
X159163600Y-73033300D01*
X157279600Y-54966700D02*
X158329200Y-56016300D01*
G04 #@! TO.N,D3*
X158780900Y-70972700D02*
X159890400Y-72082200D01*
X157281700Y-52426700D02*
X158780900Y-53925900D01*
X132331500Y-79611100D02*
X132331500Y-92926800D01*
X157000000Y-52426700D02*
X157281700Y-52426700D01*
X132331500Y-92926800D02*
X130800000Y-94458300D01*
X130800000Y-99050000D02*
X130800000Y-94458300D01*
X159890400Y-72082200D02*
X159890400Y-74692100D01*
X157000000Y-51300000D02*
X157000000Y-52426700D01*
X159890400Y-74692100D02*
X160771600Y-75573300D01*
X158780900Y-53925900D02*
X158780900Y-70972700D01*
G04 #@! TO.N,D2*
X160633300Y-72188400D02*
X160633300Y-70384000D01*
X128260000Y-99050000D02*
X128260000Y-78575600D01*
X157281700Y-49886700D02*
X157000000Y-49886700D01*
X161760000Y-73033300D02*
X161478200Y-73033300D01*
X161760000Y-74160000D02*
X161760000Y-73033300D01*
X160633300Y-70384000D02*
X159234100Y-68984800D01*
X159234100Y-51839100D02*
X157281700Y-49886700D01*
X157000000Y-48760000D02*
X157000000Y-49886700D01*
X161478200Y-73033300D02*
X160633300Y-72188400D01*
X159234100Y-68984800D02*
X159234100Y-51839100D01*
G04 #@! TO.N,D1*
X161760000Y-70493300D02*
X161477700Y-70493300D01*
X161760000Y-71620000D02*
X161760000Y-70493300D01*
X159729300Y-68744900D02*
X159729300Y-49794300D01*
X157281700Y-47346700D02*
X157000000Y-47346700D01*
X125720000Y-99050000D02*
X125720000Y-73033300D01*
X159729300Y-49794300D02*
X157281700Y-47346700D01*
X161477700Y-70493300D02*
X159729300Y-68744900D01*
X157000000Y-46220000D02*
X157000000Y-47346700D01*
G04 #@! TO.N,D0*
X123180000Y-94458300D02*
X124672000Y-92966300D01*
X157000000Y-44806700D02*
X157212900Y-44806700D01*
X160181600Y-47946100D02*
X160181600Y-66656600D01*
X123180000Y-99050000D02*
X123180000Y-94458300D01*
X159729900Y-47323700D02*
X159729900Y-47494400D01*
X161760000Y-69080000D02*
X161760000Y-67953300D01*
X161478300Y-67953300D02*
X161760000Y-67953300D01*
X159729900Y-47494400D02*
X160181600Y-47946100D01*
X160181600Y-66656600D02*
X161478300Y-67953300D01*
X157212900Y-44806700D02*
X159729900Y-47323700D01*
X157000000Y-43680000D02*
X157000000Y-44806700D01*
X124672000Y-92966300D02*
X124672000Y-70288800D01*
G04 #@! TO.N,RESET*
X127555000Y-43475000D02*
X127555000Y-44651700D01*
X123593300Y-48613400D02*
X123593300Y-57148600D01*
X127555000Y-44651700D02*
X123593300Y-48613400D01*
X123593300Y-57148600D02*
X123330200Y-57411700D01*
G04 #@! TO.N,CS2*
X111857200Y-38598300D02*
X111048300Y-37789400D01*
X112225000Y-39775000D02*
X112225000Y-48077300D01*
X111048300Y-37789400D02*
X111048300Y-34390800D01*
X112225000Y-38598300D02*
X111857200Y-38598300D01*
X112225000Y-39186600D02*
X112225000Y-39775000D01*
X112225000Y-48077300D02*
X122793600Y-58645900D01*
X110171400Y-33513900D02*
X107505700Y-33513900D01*
X122793600Y-58645900D02*
X126795400Y-58645900D01*
X126795400Y-58645900D02*
X128291300Y-57150000D01*
X112225000Y-39186600D02*
X112225000Y-38598300D01*
X111048300Y-34390800D02*
X110171400Y-33513900D01*
X107505700Y-33513900D02*
X105690300Y-35329300D01*
G04 #@! TO.N,MISO*
X123651700Y-36138400D02*
X123651700Y-41489400D01*
X122505000Y-33815000D02*
X122505000Y-34991700D01*
X115435400Y-61921700D02*
X116264300Y-61092800D01*
X115435400Y-77892500D02*
X115435400Y-61921700D01*
X116264300Y-61092800D02*
X116264300Y-53855700D01*
X122505000Y-34991700D02*
X123651700Y-36138400D01*
X130841900Y-54750000D02*
X130884300Y-54792400D01*
X123651700Y-41489400D02*
X122842800Y-42298300D01*
X122842800Y-42298300D02*
X122475000Y-42298300D01*
X127494300Y-61092800D02*
X116264300Y-61092800D01*
X122475000Y-43475000D02*
X122475000Y-42298300D01*
X130884300Y-57702800D02*
X127494300Y-61092800D01*
X130884300Y-54792400D02*
X130884300Y-57702800D01*
G04 #@! TO.N,SCK*
X130125000Y-34991700D02*
X129198200Y-35918500D01*
X129198200Y-48114300D02*
X128923100Y-48389400D01*
X130125000Y-33815000D02*
X130125000Y-34991700D01*
X129198200Y-35918500D02*
X129198200Y-48114300D01*
G04 #@! TO.N,MOSI*
X127909700Y-42111700D02*
X128746500Y-42948500D01*
X128196400Y-48690300D02*
X128874300Y-49368200D01*
X125045000Y-34991700D02*
X125015000Y-35021700D01*
X128196400Y-48088500D02*
X128196400Y-48690300D01*
X126191700Y-41302800D02*
X127000600Y-42111700D01*
X128746500Y-42948500D02*
X128746500Y-47538400D01*
X125015000Y-35021700D02*
X125015000Y-40935000D01*
X128874300Y-55373700D02*
X128698000Y-55550000D01*
X126191700Y-40935000D02*
X126191700Y-41302800D01*
X125015000Y-40935000D02*
X126191700Y-40935000D01*
X128874300Y-49368200D02*
X128874300Y-55373700D01*
X128746500Y-47538400D02*
X128196400Y-48088500D01*
X125045000Y-33815000D02*
X125045000Y-34991700D01*
X127000600Y-42111700D02*
X127909700Y-42111700D01*
G04 #@! TO.N,CS*
X114765000Y-39775000D02*
X114765000Y-40951700D01*
X126562400Y-56350000D02*
X124763000Y-58149400D01*
X123038100Y-58149400D02*
X114765100Y-49876400D01*
X114765100Y-40951700D02*
X114765000Y-40951700D01*
X114765100Y-49876400D02*
X114765100Y-40951700D01*
X124763000Y-58149400D02*
X123038100Y-58149400D01*
G04 #@! TO.N,PD1*
X141760000Y-33520000D02*
X141760000Y-34646700D01*
X132437000Y-57933400D02*
X131138600Y-59231800D01*
X141478300Y-34646700D02*
X132437000Y-43688000D01*
X132437000Y-43688000D02*
X132437000Y-57933400D01*
X141760000Y-34646700D02*
X141478300Y-34646700D01*
G04 #@! TO.N,PD0*
X141760000Y-36060000D02*
X141760000Y-37186700D01*
X132888700Y-58579400D02*
X129645400Y-61822700D01*
X141478300Y-37186700D02*
X132888700Y-45776300D01*
X132888700Y-45776300D02*
X132888700Y-58579400D01*
X141760000Y-37186700D02*
X141478300Y-37186700D01*
X129645400Y-61822700D02*
X125339700Y-61822700D01*
G04 #@! TO.N,PD2*
X129993400Y-59343200D02*
X129993400Y-59797500D01*
X130553400Y-43031500D02*
X130553400Y-51382500D01*
X130339700Y-52382200D02*
X131583100Y-53625600D01*
X130553400Y-51382500D02*
X130339700Y-51596200D01*
X141760000Y-30980000D02*
X141760000Y-32106700D01*
X131583100Y-57753500D02*
X129993400Y-59343200D01*
X141760000Y-32106700D02*
X141478200Y-32106700D01*
X141478200Y-32106700D02*
X130553400Y-43031500D01*
X131583100Y-53625600D02*
X131583100Y-57753500D01*
X130339700Y-51596200D02*
X130339700Y-52382200D01*
G04 #@! TO.N,PD3*
X129424800Y-49243200D02*
X129424800Y-57928500D01*
X129649900Y-49018100D02*
X129424800Y-49243200D01*
X129424800Y-57928500D02*
X127003300Y-60350000D01*
X129649900Y-41395100D02*
X129649900Y-49018100D01*
X141478300Y-29566700D02*
X129649900Y-41395100D01*
X141760000Y-28440000D02*
X141760000Y-29566700D01*
X141760000Y-29566700D02*
X141478300Y-29566700D01*
G04 #@! TO.N,PD4*
X118779200Y-52829800D02*
X118779200Y-27313300D01*
X121191200Y-55241800D02*
X118779200Y-52829800D01*
G04 #@! TO.N,PD5*
X146817400Y-42007600D02*
X156718300Y-32106700D01*
X156718300Y-32106700D02*
X157000000Y-32106700D01*
X146817400Y-60075900D02*
X146817400Y-42007600D01*
X157000000Y-30980000D02*
X157000000Y-32106700D01*
G04 #@! TO.N,PD6*
X150873500Y-40491500D02*
X150873500Y-57791900D01*
X157000000Y-33520000D02*
X157000000Y-34646700D01*
X156718300Y-34646700D02*
X150873500Y-40491500D01*
X157000000Y-34646700D02*
X156718300Y-34646700D01*
G04 #@! TO.N,PD7*
X151163200Y-58532800D02*
X150548500Y-58532800D01*
X151600300Y-58095700D02*
X151163200Y-58532800D01*
X157000000Y-37186700D02*
X156718300Y-37186700D01*
X148228600Y-56212900D02*
X148228600Y-55100900D01*
X151600300Y-42304700D02*
X151600300Y-58095700D01*
X157000000Y-36060000D02*
X157000000Y-37186700D01*
X156718300Y-37186700D02*
X151600300Y-42304700D01*
X150548500Y-58532800D02*
X148228600Y-56212900D01*
G04 #@! TO.N,Net-(U6-~{CS})*
X113993300Y-59400300D02*
X109825300Y-55232300D01*
X109825300Y-55232300D02*
X109825300Y-34240700D01*
G04 #@! TO.N,Net-(U5-~{CS})*
X104591500Y-34602500D02*
X104591500Y-84460000D01*
G04 #@! TO.N,Net-(U5-DI)*
X116632600Y-77781600D02*
X115785200Y-78629000D01*
X126064300Y-66090300D02*
X125356900Y-66090300D01*
X125356900Y-66090300D02*
X116632600Y-74814600D01*
X114740600Y-58293200D02*
X114740600Y-77559700D01*
X114740600Y-77559700D02*
X114695600Y-77604700D01*
X115785200Y-78629000D02*
X114695600Y-78629000D01*
X114695600Y-77604700D02*
X114695600Y-78629000D01*
X134682800Y-54142900D02*
X134682800Y-57471800D01*
X134682800Y-57471800D02*
X126064300Y-66090300D01*
X116632600Y-74814600D02*
X116632600Y-77781600D01*
X114695600Y-78629000D02*
X114695600Y-83360000D01*
G04 #@! TO.N,Net-(U9-~{OE})*
X177928800Y-85117400D02*
X175541700Y-87504500D01*
X178137800Y-79814200D02*
X177928800Y-80023200D01*
X175845700Y-60074300D02*
X175845700Y-61940300D01*
X177376900Y-62730000D02*
X178137800Y-63490900D01*
X178137800Y-63490900D02*
X178137800Y-79814200D01*
X177000000Y-58920000D02*
X175845700Y-60074300D01*
X176635400Y-62730000D02*
X177376900Y-62730000D01*
X175845700Y-61940300D02*
X176635400Y-62730000D01*
X177928800Y-80023200D02*
X177928800Y-85117400D01*
G04 #@! TO.N,Net-(U4-~{WR})*
X161431300Y-47490000D02*
X162158200Y-47490000D01*
X165287300Y-50619100D02*
X165287300Y-89224900D01*
X157000000Y-39726700D02*
X157281700Y-39726700D01*
X160633300Y-43078300D02*
X160633300Y-46692000D01*
X157000000Y-38600000D02*
X157000000Y-39726700D01*
X157281700Y-39726700D02*
X160633300Y-43078300D01*
X162158200Y-47490000D02*
X165287300Y-50619100D01*
X160633300Y-46692000D02*
X161431300Y-47490000D01*
G04 #@! TO.N,Net-(U4-~{RD})*
X143440000Y-41125000D02*
X142041700Y-39726700D01*
X143440000Y-87084200D02*
X143440000Y-41125000D01*
X142041700Y-39726700D02*
X141760000Y-39726700D01*
X141760000Y-38600000D02*
X141760000Y-39726700D01*
G04 #@! TO.N,OBFA*
X122866600Y-55474000D02*
X122866600Y-48000000D01*
X122866600Y-48000000D02*
X126204800Y-44661800D01*
G04 #@! TO.N,ACKA*
X127017900Y-53936900D02*
X126204800Y-54750000D01*
X127017900Y-47931700D02*
X127017900Y-53936900D01*
G04 #@! TO.N,STBA*
X128115200Y-54712100D02*
X127744700Y-54341600D01*
X128074400Y-45774200D02*
X128019700Y-45719500D01*
X128074400Y-47571700D02*
X128074400Y-45774200D01*
X127744700Y-54341600D02*
X127744700Y-47901400D01*
X127744700Y-47901400D02*
X128074400Y-47571700D01*
G04 #@! TO.N,IBFA*
X140633300Y-56380000D02*
X140633300Y-56183200D01*
X124749000Y-49153900D02*
X127025800Y-46877100D01*
X141760000Y-56380000D02*
X140633300Y-56380000D01*
X140633300Y-56183200D02*
X139381700Y-54931600D01*
X124749000Y-53692900D02*
X124749000Y-49153900D01*
G04 #@! TO.N,Net-(U4-RESET)*
X176347300Y-82349200D02*
X175548600Y-83147900D01*
X175548600Y-83147900D02*
X174474700Y-83147900D01*
X173967200Y-53806200D02*
X161301000Y-41140000D01*
X174474700Y-83147900D02*
X173967200Y-82640400D01*
X173967200Y-82640400D02*
X173967200Y-53806200D01*
G04 #@! TO.N,CS3*
X127120600Y-35456100D02*
X127120600Y-36583300D01*
X127585000Y-34991700D02*
X127120600Y-35456100D01*
X132782500Y-39294800D02*
X130101600Y-41975700D01*
X130101600Y-41975700D02*
X130101600Y-49209100D01*
X130101600Y-49209100D02*
X129876500Y-49434200D01*
X129876500Y-49434200D02*
X129876500Y-57120700D01*
X129876500Y-57120700D02*
X130157600Y-57401800D01*
X127585000Y-33815000D02*
X127585000Y-34991700D01*
G04 #@! TO.N,Net-(U9-A10)*
X177281800Y-57506700D02*
X177000000Y-57506700D01*
X178126700Y-59488400D02*
X178126700Y-58351600D01*
X177000000Y-61460000D02*
X177000000Y-60333300D01*
X161760000Y-46220000D02*
X161760000Y-43680000D01*
X177000000Y-51300000D02*
X177000000Y-53840000D01*
X178126700Y-58351600D02*
X177281800Y-57506700D01*
X177000000Y-48760000D02*
X177000000Y-51300000D01*
X177000000Y-56380000D02*
X177000000Y-57506700D01*
X177281800Y-60333300D02*
X178126700Y-59488400D01*
X177000000Y-53840000D02*
X177000000Y-56380000D01*
X177000000Y-60333300D02*
X177281800Y-60333300D01*
X177000000Y-46220000D02*
X177000000Y-48760000D01*
G04 #@! TD*
G04 #@! TA.AperFunction,Conductor*
G04 #@! TO.N,GND*
G36*
X192028421Y-25411035D02*
G01*
X192186636Y-25425775D01*
X192207762Y-25429610D01*
X192298103Y-25454250D01*
X192356220Y-25470102D01*
X192376368Y-25477525D01*
X192515611Y-25543019D01*
X192534176Y-25553805D01*
X192660036Y-25642340D01*
X192676462Y-25656168D01*
X192785158Y-25765082D01*
X192798953Y-25781536D01*
X192887232Y-25907570D01*
X192897982Y-25926158D01*
X192963199Y-26065541D01*
X192970580Y-26085703D01*
X193010772Y-26234234D01*
X193014565Y-26255368D01*
X193028988Y-26413615D01*
X193029500Y-26424870D01*
X193029500Y-93464158D01*
X193028965Y-93475665D01*
X193014207Y-93634008D01*
X193010371Y-93655133D01*
X192969843Y-93803710D01*
X192962421Y-93823857D01*
X192896869Y-93963220D01*
X192886083Y-93981784D01*
X192797473Y-94107751D01*
X192783645Y-94124177D01*
X192674640Y-94232963D01*
X192658188Y-94246757D01*
X192532042Y-94335117D01*
X192513456Y-94345866D01*
X192373965Y-94411139D01*
X192353803Y-94418521D01*
X192205146Y-94458752D01*
X192184013Y-94462546D01*
X192025632Y-94476988D01*
X192014372Y-94477500D01*
X184272650Y-94477500D01*
X184266500Y-94483650D01*
X184266500Y-94876000D01*
X184246815Y-94943039D01*
X184194011Y-94988794D01*
X184142500Y-95000000D01*
X183433000Y-95000000D01*
X183365961Y-94980315D01*
X183320206Y-94927511D01*
X183309000Y-94876000D01*
X183309000Y-94737172D01*
X183308999Y-94737155D01*
X183302598Y-94677627D01*
X183302596Y-94677620D01*
X183252354Y-94542913D01*
X183252350Y-94542906D01*
X183166190Y-94427812D01*
X183166187Y-94427809D01*
X183051093Y-94341649D01*
X183051086Y-94341645D01*
X182916379Y-94291403D01*
X182916372Y-94291401D01*
X182856844Y-94285000D01*
X182054000Y-94285000D01*
X182054000Y-95000000D01*
X181654000Y-95000000D01*
X181654000Y-94285000D01*
X180851155Y-94285000D01*
X180791627Y-94291401D01*
X180791620Y-94291403D01*
X180656913Y-94341645D01*
X180656906Y-94341649D01*
X180541812Y-94427809D01*
X180541809Y-94427812D01*
X180455649Y-94542906D01*
X180455646Y-94542911D01*
X180417717Y-94644604D01*
X180375845Y-94700537D01*
X180310381Y-94724954D01*
X180242108Y-94710102D01*
X180192703Y-94660697D01*
X180185357Y-94644612D01*
X180145889Y-94538796D01*
X180058261Y-94421739D01*
X180058259Y-94421737D01*
X180031246Y-94401516D01*
X180012735Y-94387659D01*
X179970865Y-94331726D01*
X179963725Y-94275432D01*
X179973504Y-94182400D01*
X179953542Y-93992472D01*
X179894561Y-93810950D01*
X179894529Y-93810850D01*
X179894528Y-93810849D01*
X179894527Y-93810844D01*
X179799040Y-93645456D01*
X179671253Y-93503534D01*
X179516752Y-93391282D01*
X179342288Y-93313606D01*
X179342286Y-93313605D01*
X179155487Y-93273900D01*
X178964513Y-93273900D01*
X178777714Y-93313605D01*
X178603246Y-93391283D01*
X178448745Y-93503535D01*
X178320959Y-93645457D01*
X178225473Y-93810843D01*
X178225470Y-93810850D01*
X178166459Y-93992468D01*
X178166458Y-93992472D01*
X178149038Y-94158218D01*
X178146496Y-94182401D01*
X178156273Y-94275432D01*
X178143703Y-94344162D01*
X178107265Y-94387657D01*
X178061740Y-94421737D01*
X177974111Y-94538795D01*
X177923011Y-94675795D01*
X177923011Y-94675797D01*
X177916500Y-94736345D01*
X177916500Y-94876000D01*
X177896815Y-94943039D01*
X177844011Y-94988794D01*
X177792500Y-95000000D01*
X177787500Y-95000000D01*
X177720461Y-94980315D01*
X177674706Y-94927511D01*
X177663500Y-94876000D01*
X177663500Y-94736362D01*
X177663499Y-94736345D01*
X177660157Y-94705270D01*
X177656989Y-94675799D01*
X177656987Y-94675795D01*
X177656987Y-94675792D01*
X177607747Y-94543776D01*
X177602762Y-94474085D01*
X177605997Y-94462123D01*
X177635142Y-94372428D01*
X177655104Y-94182500D01*
X177635142Y-93992572D01*
X177576127Y-93810944D01*
X177480640Y-93645556D01*
X177352853Y-93503634D01*
X177198352Y-93391382D01*
X177023888Y-93313706D01*
X177023886Y-93313705D01*
X176837087Y-93274000D01*
X176646113Y-93274000D01*
X176459314Y-93313705D01*
X176459312Y-93313706D01*
X176285071Y-93391283D01*
X176284846Y-93391383D01*
X176130345Y-93503635D01*
X176002559Y-93645557D01*
X175907073Y-93810943D01*
X175907070Y-93810950D01*
X175848090Y-93992472D01*
X175848058Y-93992572D01*
X175828096Y-94182500D01*
X175827417Y-94188964D01*
X175824784Y-94188687D01*
X175808411Y-94244449D01*
X175755607Y-94290204D01*
X175747431Y-94293591D01*
X175638795Y-94334111D01*
X175521739Y-94421739D01*
X175434111Y-94538795D01*
X175383011Y-94675795D01*
X175383011Y-94675797D01*
X175376500Y-94736345D01*
X175376500Y-94876000D01*
X175356815Y-94943039D01*
X175304011Y-94988794D01*
X175252500Y-95000000D01*
X175247500Y-95000000D01*
X175180461Y-94980315D01*
X175134706Y-94927511D01*
X175123500Y-94876000D01*
X175123500Y-94736362D01*
X175123499Y-94736345D01*
X175120157Y-94705270D01*
X175116989Y-94675799D01*
X175116986Y-94675792D01*
X175076830Y-94568130D01*
X175065889Y-94538796D01*
X174978261Y-94421739D01*
X174861204Y-94334111D01*
X174854810Y-94331726D01*
X174724203Y-94283011D01*
X174663654Y-94276500D01*
X174663638Y-94276500D01*
X173296362Y-94276500D01*
X173296345Y-94276500D01*
X173235797Y-94283011D01*
X173235795Y-94283011D01*
X173098795Y-94334111D01*
X172981739Y-94421739D01*
X172894111Y-94538795D01*
X172843011Y-94675795D01*
X172843011Y-94675797D01*
X172836500Y-94736345D01*
X172836500Y-94876000D01*
X172816815Y-94943039D01*
X172764011Y-94988794D01*
X172712500Y-95000000D01*
X172707500Y-95000000D01*
X172640461Y-94980315D01*
X172594706Y-94927511D01*
X172583500Y-94876000D01*
X172583500Y-94736362D01*
X172583499Y-94736345D01*
X172580157Y-94705270D01*
X172576989Y-94675799D01*
X172576986Y-94675792D01*
X172536830Y-94568130D01*
X172525889Y-94538796D01*
X172438261Y-94421739D01*
X172321204Y-94334111D01*
X172314810Y-94331726D01*
X172184203Y-94283011D01*
X172123654Y-94276500D01*
X172123638Y-94276500D01*
X170756362Y-94276500D01*
X170756345Y-94276500D01*
X170695797Y-94283011D01*
X170695795Y-94283011D01*
X170558795Y-94334111D01*
X170441739Y-94421739D01*
X170354111Y-94538795D01*
X170303011Y-94675795D01*
X170303011Y-94675797D01*
X170296500Y-94736345D01*
X170296500Y-94876000D01*
X170276815Y-94943039D01*
X170224011Y-94988794D01*
X170172500Y-95000000D01*
X170167500Y-95000000D01*
X170100461Y-94980315D01*
X170054706Y-94927511D01*
X170043500Y-94876000D01*
X170043500Y-94736362D01*
X170043499Y-94736345D01*
X170040157Y-94705270D01*
X170036989Y-94675799D01*
X170036986Y-94675792D01*
X169996830Y-94568130D01*
X169985889Y-94538796D01*
X169898261Y-94421739D01*
X169781204Y-94334111D01*
X169774810Y-94331726D01*
X169644204Y-94283011D01*
X169636659Y-94281229D01*
X169636950Y-94279995D01*
X169579686Y-94256271D01*
X169539843Y-94198876D01*
X169533500Y-94159726D01*
X169533500Y-91084356D01*
X169553185Y-91017317D01*
X169565346Y-91001388D01*
X169639040Y-90919544D01*
X169734527Y-90754156D01*
X169793542Y-90572528D01*
X169813504Y-90382600D01*
X169793542Y-90192672D01*
X169734527Y-90011044D01*
X169639040Y-89845656D01*
X169511253Y-89703734D01*
X169356752Y-89591482D01*
X169182288Y-89513806D01*
X169182286Y-89513805D01*
X168995487Y-89474100D01*
X168804513Y-89474100D01*
X168617714Y-89513805D01*
X168443246Y-89591483D01*
X168288745Y-89703735D01*
X168160959Y-89845657D01*
X168065473Y-90011043D01*
X168065470Y-90011050D01*
X168006459Y-90192668D01*
X168006458Y-90192672D01*
X167986496Y-90382600D01*
X168006458Y-90572528D01*
X168006459Y-90572531D01*
X168065470Y-90754149D01*
X168065473Y-90754156D01*
X168154621Y-90908566D01*
X168160960Y-90919544D01*
X168234649Y-91001384D01*
X168264880Y-91064375D01*
X168266500Y-91084356D01*
X168266500Y-94159726D01*
X168246815Y-94226765D01*
X168194011Y-94272520D01*
X168163275Y-94280953D01*
X168163341Y-94281229D01*
X168155795Y-94283011D01*
X168018795Y-94334111D01*
X167901739Y-94421739D01*
X167814111Y-94538795D01*
X167763011Y-94675795D01*
X167763011Y-94675797D01*
X167756500Y-94736345D01*
X167756500Y-94876000D01*
X167736815Y-94943039D01*
X167684011Y-94988794D01*
X167632500Y-95000000D01*
X167627500Y-95000000D01*
X167560461Y-94980315D01*
X167514706Y-94927511D01*
X167503500Y-94876000D01*
X167503500Y-94736362D01*
X167503499Y-94736345D01*
X167500157Y-94705270D01*
X167496989Y-94675799D01*
X167496986Y-94675792D01*
X167456830Y-94568130D01*
X167445889Y-94538796D01*
X167358261Y-94421739D01*
X167241204Y-94334111D01*
X167234810Y-94331726D01*
X167104203Y-94283011D01*
X167043654Y-94276500D01*
X167043638Y-94276500D01*
X165676362Y-94276500D01*
X165676345Y-94276500D01*
X165615797Y-94283011D01*
X165615795Y-94283011D01*
X165478795Y-94334111D01*
X165361739Y-94421739D01*
X165274111Y-94538795D01*
X165223011Y-94675795D01*
X165223011Y-94675797D01*
X165216500Y-94736345D01*
X165216500Y-94876000D01*
X165196815Y-94943039D01*
X165144011Y-94988794D01*
X165092500Y-95000000D01*
X165087500Y-95000000D01*
X165020461Y-94980315D01*
X164974706Y-94927511D01*
X164963500Y-94876000D01*
X164963500Y-94736362D01*
X164963499Y-94736345D01*
X164960157Y-94705270D01*
X164956989Y-94675799D01*
X164956986Y-94675792D01*
X164916830Y-94568130D01*
X164905889Y-94538796D01*
X164818261Y-94421739D01*
X164701204Y-94334111D01*
X164694810Y-94331726D01*
X164556991Y-94280321D01*
X164501058Y-94238450D01*
X164476642Y-94172985D01*
X164491494Y-94104712D01*
X164512645Y-94076459D01*
X165287668Y-93301436D01*
X165287671Y-93301433D01*
X165357000Y-93197675D01*
X165360262Y-93189800D01*
X165404755Y-93082385D01*
X165429100Y-92959994D01*
X165429100Y-90223968D01*
X165448785Y-90156929D01*
X165501589Y-90111174D01*
X165527310Y-90102680D01*
X165569588Y-90093694D01*
X165744052Y-90016018D01*
X165898553Y-89903766D01*
X166026340Y-89761844D01*
X166121827Y-89596456D01*
X166180842Y-89414828D01*
X166200804Y-89224900D01*
X166180842Y-89034972D01*
X166121827Y-88853344D01*
X166049159Y-88727479D01*
X166026341Y-88687957D01*
X166026336Y-88687950D01*
X165952650Y-88606113D01*
X165922420Y-88543121D01*
X165920800Y-88523141D01*
X165920800Y-50556705D01*
X165920799Y-50556701D01*
X165910621Y-50505533D01*
X165896455Y-50434315D01*
X165873448Y-50378771D01*
X165848701Y-50319025D01*
X165831848Y-50293802D01*
X165779372Y-50215266D01*
X165779369Y-50215263D01*
X162783023Y-47218918D01*
X162749538Y-47157595D01*
X162754522Y-47087903D01*
X162769126Y-47060117D01*
X162897523Y-46876749D01*
X162994284Y-46669243D01*
X163053543Y-46448087D01*
X163073498Y-46220000D01*
X163053543Y-45991913D01*
X162994284Y-45770757D01*
X162991599Y-45765000D01*
X162897524Y-45563254D01*
X162897523Y-45563252D01*
X162897523Y-45563251D01*
X162766198Y-45375700D01*
X162604300Y-45213802D01*
X162596628Y-45208430D01*
X162553006Y-45153853D01*
X162545814Y-45084355D01*
X162577338Y-45022001D01*
X162637568Y-44986588D01*
X162654489Y-44983570D01*
X162669201Y-44981989D01*
X162806204Y-44930889D01*
X162923261Y-44843261D01*
X163010889Y-44726204D01*
X163061989Y-44589201D01*
X163068124Y-44532140D01*
X163068499Y-44528654D01*
X163068500Y-44528637D01*
X163068500Y-44102766D01*
X163088185Y-44035727D01*
X163140989Y-43989972D01*
X163210147Y-43980028D01*
X163273703Y-44009053D01*
X163280181Y-44015085D01*
X173297381Y-54032285D01*
X173330866Y-54093608D01*
X173333700Y-54119966D01*
X173333700Y-82702798D01*
X173358043Y-82825177D01*
X173358045Y-82825185D01*
X173405798Y-82940472D01*
X173405803Y-82940481D01*
X173475128Y-83044232D01*
X173475131Y-83044236D01*
X174070863Y-83639968D01*
X174070867Y-83639971D01*
X174174618Y-83709296D01*
X174174624Y-83709299D01*
X174174625Y-83709300D01*
X174289915Y-83757055D01*
X174396324Y-83778221D01*
X174412301Y-83781399D01*
X174412305Y-83781400D01*
X174412306Y-83781400D01*
X175610995Y-83781400D01*
X175610996Y-83781399D01*
X175733385Y-83757055D01*
X175848675Y-83709300D01*
X175952433Y-83639971D01*
X176298385Y-83294019D01*
X176359708Y-83260534D01*
X176386066Y-83257700D01*
X176442787Y-83257700D01*
X176629588Y-83217994D01*
X176804052Y-83140318D01*
X176958553Y-83028066D01*
X177079150Y-82894128D01*
X177138636Y-82857480D01*
X177208493Y-82858810D01*
X177266542Y-82897697D01*
X177294352Y-82961794D01*
X177295300Y-82977101D01*
X177295300Y-84803634D01*
X177275615Y-84870673D01*
X177258981Y-84891315D01*
X175590615Y-86559681D01*
X175529292Y-86593166D01*
X175502934Y-86596000D01*
X175446213Y-86596000D01*
X175259414Y-86635705D01*
X175084946Y-86713383D01*
X174930445Y-86825635D01*
X174802659Y-86967557D01*
X174707173Y-87132943D01*
X174707170Y-87132950D01*
X174648159Y-87314568D01*
X174648158Y-87314572D01*
X174628196Y-87504500D01*
X174648158Y-87694428D01*
X174648159Y-87694431D01*
X174707170Y-87876049D01*
X174707173Y-87876056D01*
X174802660Y-88041444D01*
X174930447Y-88183366D01*
X175084948Y-88295618D01*
X175259412Y-88373294D01*
X175446213Y-88413000D01*
X175637187Y-88413000D01*
X175823988Y-88373294D01*
X175998452Y-88295618D01*
X176152953Y-88183366D01*
X176280740Y-88041444D01*
X176376227Y-87876056D01*
X176435242Y-87694428D01*
X176452681Y-87528497D01*
X176479264Y-87463887D01*
X176488311Y-87453791D01*
X178420871Y-85521233D01*
X178490200Y-85417475D01*
X178537955Y-85302185D01*
X178562300Y-85179794D01*
X178562300Y-85055006D01*
X178562300Y-80336967D01*
X178581985Y-80269928D01*
X178598619Y-80249286D01*
X178608502Y-80239402D01*
X178629872Y-80218033D01*
X178699201Y-80114275D01*
X178746955Y-79998984D01*
X178750205Y-79982649D01*
X178771299Y-79876597D01*
X178771300Y-79876594D01*
X178771300Y-63428505D01*
X178771299Y-63428501D01*
X178746956Y-63306122D01*
X178746955Y-63306115D01*
X178699200Y-63190825D01*
X178699199Y-63190824D01*
X178699196Y-63190818D01*
X178629872Y-63087068D01*
X178586449Y-63043645D01*
X178541633Y-62998829D01*
X178013955Y-62471151D01*
X177980470Y-62409828D01*
X177985454Y-62340136D01*
X178003560Y-62309062D01*
X178003092Y-62308734D01*
X178006193Y-62304304D01*
X178006198Y-62304300D01*
X178137523Y-62116749D01*
X178234284Y-61909243D01*
X178293543Y-61688087D01*
X178313498Y-61460000D01*
X178293543Y-61231913D01*
X178234284Y-61010757D01*
X178137523Y-60803251D01*
X178020206Y-60635705D01*
X177997879Y-60569502D01*
X178014889Y-60501735D01*
X178034096Y-60476907D01*
X178618771Y-59892233D01*
X178688100Y-59788475D01*
X178735855Y-59673185D01*
X178760200Y-59550794D01*
X178760200Y-59426006D01*
X178760200Y-58289206D01*
X178735855Y-58166815D01*
X178688100Y-58051525D01*
X178688099Y-58051524D01*
X178688096Y-58051518D01*
X178618772Y-57947768D01*
X178584806Y-57913802D01*
X178530533Y-57859529D01*
X178034100Y-57363096D01*
X178000615Y-57301773D01*
X178005599Y-57232081D01*
X178020202Y-57204299D01*
X178137523Y-57036749D01*
X178234284Y-56829243D01*
X178293543Y-56608087D01*
X178313498Y-56380000D01*
X178311650Y-56358882D01*
X178306558Y-56300680D01*
X178293543Y-56151913D01*
X178234284Y-55930757D01*
X178229990Y-55921549D01*
X178167438Y-55787404D01*
X178137523Y-55723251D01*
X178006198Y-55535700D01*
X177844300Y-55373802D01*
X177796332Y-55340214D01*
X177686376Y-55263221D01*
X177642751Y-55208644D01*
X177633500Y-55161647D01*
X177633500Y-55058352D01*
X177653185Y-54991313D01*
X177686373Y-54956779D01*
X177844300Y-54846198D01*
X178006198Y-54684300D01*
X178137523Y-54496749D01*
X178234284Y-54289243D01*
X178293543Y-54068087D01*
X178313498Y-53840000D01*
X178293543Y-53611913D01*
X178234284Y-53390757D01*
X178137523Y-53183251D01*
X178006198Y-52995700D01*
X177844300Y-52833802D01*
X177686376Y-52723221D01*
X177642751Y-52668644D01*
X177633500Y-52621647D01*
X177633500Y-52518352D01*
X177653185Y-52451313D01*
X177686373Y-52416779D01*
X177844300Y-52306198D01*
X178006198Y-52144300D01*
X178137523Y-51956749D01*
X178234284Y-51749243D01*
X178293543Y-51528087D01*
X178313498Y-51300000D01*
X178293543Y-51071913D01*
X178234284Y-50850757D01*
X178137523Y-50643251D01*
X178006198Y-50455700D01*
X177844300Y-50293802D01*
X177686376Y-50183221D01*
X177642751Y-50128644D01*
X177633500Y-50081647D01*
X177633500Y-49978352D01*
X177653185Y-49911313D01*
X177686373Y-49876779D01*
X177844300Y-49766198D01*
X178006198Y-49604300D01*
X178137523Y-49416749D01*
X178234284Y-49209243D01*
X178293543Y-48988087D01*
X178313498Y-48760000D01*
X178293543Y-48531913D01*
X178234284Y-48310757D01*
X178137523Y-48103251D01*
X178006198Y-47915700D01*
X177844300Y-47753802D01*
X177686376Y-47643221D01*
X177642751Y-47588644D01*
X177633500Y-47541647D01*
X177633500Y-47438352D01*
X177653185Y-47371313D01*
X177686373Y-47336779D01*
X177844300Y-47226198D01*
X178006198Y-47064300D01*
X178137523Y-46876749D01*
X178163913Y-46820154D01*
X178210083Y-46767717D01*
X178277276Y-46748564D01*
X178344158Y-46768779D01*
X178363975Y-46784879D01*
X187330181Y-55751085D01*
X187363666Y-55812408D01*
X187366500Y-55838766D01*
X187366500Y-86272600D01*
X187346815Y-86339639D01*
X187294011Y-86385394D01*
X187242500Y-86396600D01*
X187151345Y-86396600D01*
X187090797Y-86403111D01*
X187090795Y-86403111D01*
X186953795Y-86454211D01*
X186836739Y-86541839D01*
X186749111Y-86658895D01*
X186698011Y-86795895D01*
X186698011Y-86795896D01*
X186694485Y-86828685D01*
X186667745Y-86893236D01*
X186610351Y-86933082D01*
X186560390Y-86938954D01*
X186549904Y-86938036D01*
X185886370Y-87601570D01*
X185872741Y-87550706D01*
X185820080Y-87459494D01*
X185745606Y-87385020D01*
X185654394Y-87332359D01*
X185603528Y-87318729D01*
X186267061Y-86655195D01*
X186152482Y-86574965D01*
X185946326Y-86478834D01*
X185946317Y-86478830D01*
X185726610Y-86419960D01*
X185726599Y-86419958D01*
X185500002Y-86400134D01*
X185499998Y-86400134D01*
X185273400Y-86419958D01*
X185273389Y-86419960D01*
X185053682Y-86478830D01*
X185053673Y-86478834D01*
X184847517Y-86574966D01*
X184732937Y-86655195D01*
X185396472Y-87318729D01*
X185345606Y-87332359D01*
X185254394Y-87385020D01*
X185179920Y-87459494D01*
X185127259Y-87550706D01*
X185113629Y-87601571D01*
X184450095Y-86938037D01*
X184369866Y-87052617D01*
X184273734Y-87258773D01*
X184273730Y-87258782D01*
X184214860Y-87478489D01*
X184214858Y-87478500D01*
X184195034Y-87705097D01*
X184195034Y-87705102D01*
X184214858Y-87931699D01*
X184214860Y-87931710D01*
X184273730Y-88151417D01*
X184273734Y-88151426D01*
X184369865Y-88357582D01*
X184450095Y-88472161D01*
X185113629Y-87808627D01*
X185127259Y-87859494D01*
X185179920Y-87950706D01*
X185254394Y-88025180D01*
X185345606Y-88077841D01*
X185396471Y-88091470D01*
X184732937Y-88755003D01*
X184847521Y-88835236D01*
X185053668Y-88931364D01*
X185053682Y-88931369D01*
X185273389Y-88990239D01*
X185273400Y-88990241D01*
X185499998Y-89010066D01*
X185500002Y-89010066D01*
X185726599Y-88990241D01*
X185726610Y-88990239D01*
X185946317Y-88931369D01*
X185946331Y-88931364D01*
X186152478Y-88835236D01*
X186152486Y-88835232D01*
X186267061Y-88755004D01*
X186267061Y-88755003D01*
X185603528Y-88091470D01*
X185654394Y-88077841D01*
X185745606Y-88025180D01*
X185820080Y-87950706D01*
X185872741Y-87859494D01*
X185886370Y-87808628D01*
X186549903Y-88472160D01*
X186560388Y-88471243D01*
X186628888Y-88485010D01*
X186679071Y-88533625D01*
X186694485Y-88581513D01*
X186698011Y-88614302D01*
X186698011Y-88614304D01*
X186749111Y-88751304D01*
X186836739Y-88868361D01*
X186953796Y-88955989D01*
X187090799Y-89007089D01*
X187118050Y-89010018D01*
X187151345Y-89013599D01*
X187151362Y-89013600D01*
X188848638Y-89013600D01*
X188848654Y-89013599D01*
X188875692Y-89010691D01*
X188909201Y-89007089D01*
X189046204Y-88955989D01*
X189163261Y-88868361D01*
X189250889Y-88751304D01*
X189301989Y-88614301D01*
X189306672Y-88570741D01*
X189308499Y-88553754D01*
X189308500Y-88553737D01*
X189308500Y-86856462D01*
X189308499Y-86856445D01*
X189305157Y-86825370D01*
X189301989Y-86795899D01*
X189250889Y-86658896D01*
X189163261Y-86541839D01*
X189046204Y-86454211D01*
X189033520Y-86449480D01*
X188909203Y-86403111D01*
X188848654Y-86396600D01*
X188848638Y-86396600D01*
X188757500Y-86396600D01*
X188690461Y-86376915D01*
X188644706Y-86324111D01*
X188633500Y-86272600D01*
X188633500Y-55462605D01*
X188633499Y-55462601D01*
X188619250Y-55390966D01*
X188609155Y-55340215D01*
X188568670Y-55242476D01*
X188561401Y-55224927D01*
X188561396Y-55224918D01*
X188492072Y-55121168D01*
X188452270Y-55081366D01*
X188403833Y-55032929D01*
X178034059Y-44663155D01*
X178000574Y-44601832D01*
X178005558Y-44532140D01*
X178020162Y-44504356D01*
X178120424Y-44361167D01*
X178137519Y-44336755D01*
X178137519Y-44336753D01*
X178137523Y-44336749D01*
X178234284Y-44129243D01*
X178293543Y-43908087D01*
X178313498Y-43680000D01*
X178293543Y-43451913D01*
X178234284Y-43230757D01*
X178137523Y-43023251D01*
X178006198Y-42835700D01*
X177844300Y-42673802D01*
X177656749Y-42542477D01*
X177653067Y-42540760D01*
X177449249Y-42445718D01*
X177449238Y-42445714D01*
X177228089Y-42386457D01*
X177228081Y-42386456D01*
X177000002Y-42366502D01*
X176999998Y-42366502D01*
X176771918Y-42386456D01*
X176771910Y-42386457D01*
X176550761Y-42445714D01*
X176550750Y-42445718D01*
X176343254Y-42542475D01*
X176343252Y-42542476D01*
X176294858Y-42576362D01*
X176155700Y-42673802D01*
X176155698Y-42673803D01*
X176155695Y-42673806D01*
X175993806Y-42835695D01*
X175862476Y-43023252D01*
X175862475Y-43023254D01*
X175765718Y-43230750D01*
X175765714Y-43230761D01*
X175706457Y-43451910D01*
X175706456Y-43451918D01*
X175686502Y-43679998D01*
X175686502Y-43680000D01*
X175706456Y-43908081D01*
X175706457Y-43908089D01*
X175765714Y-44129238D01*
X175765718Y-44129249D01*
X175860292Y-44332063D01*
X175862477Y-44336749D01*
X175993802Y-44524300D01*
X176155700Y-44686198D01*
X176317564Y-44799537D01*
X176361188Y-44854112D01*
X176368057Y-44876920D01*
X176385128Y-44962745D01*
X176378899Y-45032336D01*
X176336036Y-45087513D01*
X176334634Y-45088509D01*
X176155699Y-45213802D01*
X175993806Y-45375695D01*
X175862476Y-45563252D01*
X175862475Y-45563254D01*
X175765718Y-45770750D01*
X175765714Y-45770761D01*
X175706457Y-45991910D01*
X175706456Y-45991918D01*
X175686502Y-46219998D01*
X175686502Y-46220001D01*
X175706456Y-46448081D01*
X175706457Y-46448089D01*
X175765714Y-46669238D01*
X175765718Y-46669249D01*
X175836088Y-46820157D01*
X175862477Y-46876749D01*
X175993802Y-47064300D01*
X176155700Y-47226198D01*
X176313625Y-47336779D01*
X176357249Y-47391354D01*
X176366500Y-47438352D01*
X176366500Y-47541647D01*
X176346815Y-47608686D01*
X176313624Y-47643221D01*
X176155699Y-47753802D01*
X175993806Y-47915695D01*
X175993803Y-47915698D01*
X175993802Y-47915700D01*
X175963020Y-47959661D01*
X175862476Y-48103252D01*
X175862475Y-48103254D01*
X175765718Y-48310750D01*
X175765714Y-48310761D01*
X175706457Y-48531910D01*
X175706456Y-48531918D01*
X175686502Y-48759998D01*
X175686502Y-48760001D01*
X175706456Y-48988081D01*
X175706457Y-48988089D01*
X175765714Y-49209238D01*
X175765718Y-49209249D01*
X175836088Y-49360157D01*
X175862477Y-49416749D01*
X175993802Y-49604300D01*
X176155700Y-49766198D01*
X176313625Y-49876779D01*
X176357249Y-49931354D01*
X176366500Y-49978352D01*
X176366500Y-50081647D01*
X176346815Y-50148686D01*
X176313624Y-50183221D01*
X176155699Y-50293802D01*
X175993806Y-50455695D01*
X175993803Y-50455698D01*
X175993802Y-50455700D01*
X175923080Y-50556701D01*
X175862476Y-50643252D01*
X175862475Y-50643254D01*
X175765718Y-50850750D01*
X175765714Y-50850761D01*
X175706457Y-51071910D01*
X175706456Y-51071918D01*
X175686502Y-51299998D01*
X175686502Y-51300001D01*
X175706456Y-51528081D01*
X175706457Y-51528089D01*
X175765714Y-51749238D01*
X175765718Y-51749249D01*
X175820273Y-51866242D01*
X175862477Y-51956749D01*
X175993802Y-52144300D01*
X176155700Y-52306198D01*
X176313625Y-52416779D01*
X176357249Y-52471354D01*
X176366500Y-52518352D01*
X176366500Y-52621647D01*
X176346815Y-52688686D01*
X176313624Y-52723221D01*
X176155699Y-52833802D01*
X175993806Y-52995695D01*
X175993803Y-52995698D01*
X175993802Y-52995700D01*
X175911767Y-53112856D01*
X175862476Y-53183252D01*
X175862475Y-53183254D01*
X175765718Y-53390750D01*
X175765714Y-53390761D01*
X175706457Y-53611910D01*
X175706456Y-53611918D01*
X175686502Y-53839998D01*
X175686502Y-53840001D01*
X175706456Y-54068081D01*
X175706457Y-54068089D01*
X175765714Y-54289238D01*
X175765718Y-54289249D01*
X175840996Y-54450683D01*
X175862477Y-54496749D01*
X175993802Y-54684300D01*
X176155700Y-54846198D01*
X176313625Y-54956779D01*
X176357249Y-55011354D01*
X176366500Y-55058352D01*
X176366500Y-55161647D01*
X176346815Y-55228686D01*
X176313624Y-55263221D01*
X176155699Y-55373802D01*
X175993806Y-55535695D01*
X175993803Y-55535698D01*
X175993802Y-55535700D01*
X175922280Y-55637844D01*
X175862476Y-55723252D01*
X175862475Y-55723254D01*
X175765718Y-55930750D01*
X175765714Y-55930761D01*
X175706457Y-56151910D01*
X175706456Y-56151918D01*
X175686502Y-56379998D01*
X175686502Y-56380001D01*
X175706456Y-56608081D01*
X175706457Y-56608089D01*
X175765714Y-56829238D01*
X175765718Y-56829249D01*
X175850909Y-57011942D01*
X175862477Y-57036749D01*
X175993802Y-57224300D01*
X176155700Y-57386198D01*
X176317564Y-57499537D01*
X176361188Y-57554112D01*
X176368056Y-57576916D01*
X176375489Y-57614284D01*
X176385128Y-57662745D01*
X176378899Y-57732336D01*
X176336036Y-57787513D01*
X176334634Y-57788509D01*
X176155699Y-57913802D01*
X175993806Y-58075695D01*
X175993803Y-58075698D01*
X175993802Y-58075700D01*
X175929998Y-58166822D01*
X175862476Y-58263252D01*
X175862475Y-58263254D01*
X175765718Y-58470750D01*
X175765714Y-58470761D01*
X175706457Y-58691910D01*
X175706456Y-58691918D01*
X175686502Y-58919998D01*
X175686502Y-58920001D01*
X175706456Y-59148081D01*
X175706458Y-59148091D01*
X175723758Y-59212655D01*
X175722095Y-59282504D01*
X175691665Y-59332429D01*
X175441867Y-59582229D01*
X175441866Y-59582229D01*
X175353631Y-59670463D01*
X175353628Y-59670467D01*
X175284303Y-59774218D01*
X175284298Y-59774227D01*
X175236545Y-59889514D01*
X175236543Y-59889522D01*
X175212200Y-60011901D01*
X175212200Y-62002698D01*
X175236543Y-62125077D01*
X175236545Y-62125085D01*
X175284298Y-62240372D01*
X175284303Y-62240381D01*
X175353628Y-62344132D01*
X175353631Y-62344136D01*
X175991817Y-62982322D01*
X176025302Y-63043645D01*
X176020318Y-63113337D01*
X175996298Y-63150722D01*
X175997284Y-63151550D01*
X175993810Y-63155690D01*
X175993805Y-63155696D01*
X175993802Y-63155700D01*
X175969206Y-63190827D01*
X175862476Y-63343252D01*
X175862475Y-63343254D01*
X175765718Y-63550750D01*
X175765714Y-63550761D01*
X175706457Y-63771910D01*
X175706456Y-63771918D01*
X175686502Y-63999998D01*
X175686502Y-64000001D01*
X175706456Y-64228081D01*
X175706457Y-64228089D01*
X175765714Y-64449238D01*
X175765718Y-64449249D01*
X175812164Y-64548852D01*
X175862477Y-64656749D01*
X175993802Y-64844300D01*
X175993804Y-64844302D01*
X175996801Y-64848582D01*
X176019129Y-64914788D01*
X176002119Y-64982555D01*
X175982908Y-65007387D01*
X174812381Y-66177915D01*
X174751058Y-66211400D01*
X174681366Y-66206416D01*
X174625433Y-66164544D01*
X174601016Y-66099080D01*
X174600700Y-66090234D01*
X174600700Y-53743805D01*
X174600699Y-53743801D01*
X174591274Y-53696419D01*
X174576355Y-53621415D01*
X174528600Y-53506125D01*
X174528599Y-53506124D01*
X174528596Y-53506118D01*
X174459272Y-53402368D01*
X174447654Y-53390750D01*
X174371033Y-53314129D01*
X162247620Y-41190716D01*
X162214135Y-41129393D01*
X162211983Y-41116015D01*
X162194542Y-40950072D01*
X162135527Y-40768444D01*
X162040040Y-40603056D01*
X161912253Y-40461134D01*
X161757752Y-40348882D01*
X161583288Y-40271206D01*
X161583286Y-40271205D01*
X161396487Y-40231500D01*
X161205513Y-40231500D01*
X161018714Y-40271205D01*
X160844246Y-40348883D01*
X160689745Y-40461135D01*
X160561959Y-40603057D01*
X160466473Y-40768443D01*
X160466470Y-40768450D01*
X160410658Y-40940222D01*
X160407458Y-40950072D01*
X160387496Y-41140000D01*
X160407458Y-41329928D01*
X160407459Y-41329931D01*
X160466470Y-41511549D01*
X160466473Y-41511556D01*
X160561960Y-41676944D01*
X160689747Y-41818866D01*
X160844248Y-41931118D01*
X161018712Y-42008794D01*
X161205513Y-42048500D01*
X161262234Y-42048500D01*
X161329273Y-42068185D01*
X161349915Y-42084819D01*
X161424915Y-42159819D01*
X161458400Y-42221142D01*
X161453416Y-42290834D01*
X161411544Y-42346767D01*
X161346080Y-42371184D01*
X161337234Y-42371500D01*
X160911362Y-42371500D01*
X160911343Y-42371501D01*
X160890025Y-42373793D01*
X160821266Y-42361388D01*
X160789089Y-42338185D01*
X158034059Y-39583155D01*
X158000574Y-39521832D01*
X158005558Y-39452140D01*
X158020162Y-39424356D01*
X158137523Y-39256749D01*
X158234284Y-39049243D01*
X158293543Y-38828087D01*
X158313498Y-38600000D01*
X158293543Y-38371913D01*
X158234284Y-38150757D01*
X158137523Y-37943251D01*
X158006198Y-37755700D01*
X157844300Y-37593802D01*
X157665365Y-37468509D01*
X157621740Y-37413932D01*
X157614548Y-37344434D01*
X157614853Y-37342839D01*
X157631944Y-37256915D01*
X157664327Y-37195008D01*
X157682430Y-37179540D01*
X157844300Y-37066198D01*
X158006198Y-36904300D01*
X158137523Y-36716749D01*
X158234284Y-36509243D01*
X158293543Y-36288087D01*
X158313498Y-36060000D01*
X158312304Y-36046357D01*
X158305144Y-35964513D01*
X158293543Y-35831913D01*
X158234284Y-35610757D01*
X158137523Y-35403251D01*
X158006198Y-35215700D01*
X157844300Y-35053802D01*
X157842101Y-35052262D01*
X157665365Y-34928509D01*
X157621740Y-34873932D01*
X157614548Y-34804434D01*
X157614853Y-34802839D01*
X157631944Y-34716915D01*
X157664327Y-34655008D01*
X157682430Y-34639540D01*
X157844300Y-34526198D01*
X158006198Y-34364300D01*
X158137523Y-34176749D01*
X158234284Y-33969243D01*
X158293543Y-33748087D01*
X158313498Y-33520000D01*
X158293543Y-33291913D01*
X158234284Y-33070757D01*
X158137523Y-32863251D01*
X158006198Y-32675700D01*
X157844300Y-32513802D01*
X157665365Y-32388509D01*
X157621740Y-32333932D01*
X157614548Y-32264434D01*
X157614853Y-32262839D01*
X157631944Y-32176915D01*
X157664327Y-32115008D01*
X157682430Y-32099540D01*
X157844300Y-31986198D01*
X158006198Y-31824300D01*
X158137523Y-31636749D01*
X158234284Y-31429243D01*
X158293543Y-31208087D01*
X158313498Y-30980000D01*
X158293543Y-30751913D01*
X158234284Y-30530757D01*
X158137523Y-30323251D01*
X158006198Y-30135700D01*
X157844300Y-29973802D01*
X157656749Y-29842477D01*
X157613655Y-29822382D01*
X157561215Y-29776210D01*
X157542063Y-29709017D01*
X157562278Y-29642136D01*
X157613655Y-29597618D01*
X157616882Y-29596112D01*
X157656749Y-29577523D01*
X157844300Y-29446198D01*
X158006198Y-29284300D01*
X158137523Y-29096749D01*
X158234284Y-28889243D01*
X158293543Y-28668087D01*
X158313498Y-28440000D01*
X158293543Y-28211913D01*
X158234284Y-27990757D01*
X158137523Y-27783251D01*
X158006198Y-27595700D01*
X157844300Y-27433802D01*
X157656749Y-27302477D01*
X157656745Y-27302475D01*
X157449249Y-27205718D01*
X157449238Y-27205714D01*
X157228089Y-27146457D01*
X157228081Y-27146456D01*
X157000002Y-27126502D01*
X156999998Y-27126502D01*
X156771918Y-27146456D01*
X156771910Y-27146457D01*
X156550761Y-27205714D01*
X156550750Y-27205718D01*
X156343254Y-27302475D01*
X156343252Y-27302476D01*
X156343251Y-27302477D01*
X156155700Y-27433802D01*
X156155698Y-27433803D01*
X156155695Y-27433806D01*
X155993806Y-27595695D01*
X155862476Y-27783252D01*
X155862475Y-27783254D01*
X155765718Y-27990750D01*
X155765714Y-27990761D01*
X155706457Y-28211910D01*
X155706456Y-28211918D01*
X155686502Y-28439998D01*
X155686502Y-28440001D01*
X155706456Y-28668081D01*
X155706457Y-28668089D01*
X155765714Y-28889238D01*
X155765718Y-28889249D01*
X155862475Y-29096745D01*
X155862477Y-29096749D01*
X155993802Y-29284300D01*
X156155700Y-29446198D01*
X156309083Y-29553598D01*
X156343251Y-29577523D01*
X156386345Y-29597618D01*
X156438784Y-29643791D01*
X156457936Y-29710984D01*
X156437720Y-29777865D01*
X156386345Y-29822382D01*
X156343251Y-29842476D01*
X156228237Y-29923011D01*
X156155700Y-29973802D01*
X156155698Y-29973803D01*
X156155695Y-29973806D01*
X155993806Y-30135695D01*
X155993803Y-30135698D01*
X155993802Y-30135700D01*
X155963626Y-30178796D01*
X155862476Y-30323252D01*
X155862475Y-30323254D01*
X155765718Y-30530750D01*
X155765714Y-30530761D01*
X155706457Y-30751910D01*
X155706456Y-30751918D01*
X155686502Y-30979998D01*
X155686502Y-30980001D01*
X155706456Y-31208081D01*
X155706457Y-31208089D01*
X155765714Y-31429238D01*
X155765718Y-31429249D01*
X155862475Y-31636745D01*
X155862477Y-31636749D01*
X155979835Y-31804353D01*
X156002161Y-31870556D01*
X155985151Y-31938324D01*
X155965940Y-31963155D01*
X151180703Y-36748393D01*
X146413567Y-41515529D01*
X146389096Y-41540000D01*
X146325327Y-41603768D01*
X146256003Y-41707518D01*
X146255998Y-41707527D01*
X146208245Y-41822814D01*
X146208243Y-41822822D01*
X146183900Y-41945201D01*
X146183900Y-59374141D01*
X146164215Y-59441180D01*
X146152050Y-59457113D01*
X146078363Y-59538950D01*
X146078358Y-59538957D01*
X145982873Y-59704343D01*
X145982870Y-59704350D01*
X145935639Y-59849713D01*
X145923858Y-59885972D01*
X145903896Y-60075900D01*
X145923858Y-60265828D01*
X145923859Y-60265831D01*
X145982870Y-60447449D01*
X145982873Y-60447456D01*
X146078360Y-60612844D01*
X146206147Y-60754766D01*
X146360648Y-60867018D01*
X146535112Y-60944694D01*
X146721913Y-60984400D01*
X146912887Y-60984400D01*
X147099688Y-60944694D01*
X147274152Y-60867018D01*
X147428653Y-60754766D01*
X147556440Y-60612844D01*
X147651927Y-60447456D01*
X147710942Y-60265828D01*
X147730904Y-60075900D01*
X147710942Y-59885972D01*
X147651927Y-59704344D01*
X147586042Y-59590228D01*
X147556441Y-59538957D01*
X147556436Y-59538950D01*
X147482750Y-59457113D01*
X147452520Y-59394121D01*
X147450900Y-59374141D01*
X147450900Y-56598033D01*
X147470585Y-56530994D01*
X147523389Y-56485239D01*
X147592547Y-56475295D01*
X147656103Y-56504320D01*
X147678002Y-56529142D01*
X147736528Y-56616732D01*
X147736531Y-56616736D01*
X150144663Y-59024868D01*
X150144667Y-59024871D01*
X150248418Y-59094196D01*
X150248424Y-59094199D01*
X150248425Y-59094200D01*
X150363715Y-59141955D01*
X150486101Y-59166299D01*
X150486105Y-59166300D01*
X150486106Y-59166300D01*
X151225595Y-59166300D01*
X151225596Y-59166299D01*
X151347985Y-59141955D01*
X151463275Y-59094200D01*
X151567033Y-59024871D01*
X152092372Y-58499533D01*
X152161701Y-58395775D01*
X152209455Y-58280485D01*
X152212883Y-58263254D01*
X152233799Y-58158098D01*
X152233800Y-58158095D01*
X152233800Y-48026700D01*
X152253485Y-47959661D01*
X152306289Y-47913906D01*
X152357800Y-47902700D01*
X152532487Y-47902700D01*
X152719288Y-47862994D01*
X152893752Y-47785318D01*
X153048253Y-47673066D01*
X153176040Y-47531144D01*
X153271527Y-47365756D01*
X153330542Y-47184128D01*
X153350504Y-46994200D01*
X153330542Y-46804272D01*
X153313310Y-46751241D01*
X153311314Y-46681402D01*
X153343558Y-46625244D01*
X155663979Y-44304823D01*
X155725300Y-44271340D01*
X155794992Y-44276324D01*
X155850925Y-44318196D01*
X155859368Y-44332295D01*
X155859772Y-44332063D01*
X155862475Y-44336745D01*
X155862477Y-44336749D01*
X155993802Y-44524300D01*
X156155700Y-44686198D01*
X156317564Y-44799537D01*
X156361188Y-44854112D01*
X156368057Y-44876920D01*
X156385128Y-44962745D01*
X156378899Y-45032336D01*
X156336036Y-45087513D01*
X156334634Y-45088509D01*
X156155699Y-45213802D01*
X155993806Y-45375695D01*
X155862476Y-45563252D01*
X155862475Y-45563254D01*
X155765718Y-45770750D01*
X155765714Y-45770761D01*
X155706457Y-45991910D01*
X155706456Y-45991918D01*
X155686502Y-46219998D01*
X155686502Y-46220001D01*
X155706456Y-46448081D01*
X155706457Y-46448089D01*
X155765714Y-46669238D01*
X155765718Y-46669249D01*
X155836088Y-46820157D01*
X155862477Y-46876749D01*
X155993802Y-47064300D01*
X156155700Y-47226198D01*
X156317564Y-47339537D01*
X156361188Y-47394112D01*
X156368057Y-47416920D01*
X156385128Y-47502745D01*
X156378899Y-47572336D01*
X156336036Y-47627513D01*
X156334634Y-47628509D01*
X156155699Y-47753802D01*
X155993806Y-47915695D01*
X155993803Y-47915698D01*
X155993802Y-47915700D01*
X155963020Y-47959661D01*
X155862476Y-48103252D01*
X155862475Y-48103254D01*
X155765718Y-48310750D01*
X155765714Y-48310761D01*
X155706457Y-48531910D01*
X155706456Y-48531918D01*
X155686502Y-48759998D01*
X155686502Y-48760001D01*
X155706456Y-48988081D01*
X155706457Y-48988089D01*
X155765714Y-49209238D01*
X155765718Y-49209249D01*
X155836088Y-49360157D01*
X155862477Y-49416749D01*
X155993802Y-49604300D01*
X156155700Y-49766198D01*
X156317564Y-49879537D01*
X156361188Y-49934112D01*
X156368057Y-49956920D01*
X156385128Y-50042745D01*
X156378899Y-50112336D01*
X156336036Y-50167513D01*
X156334634Y-50168509D01*
X156155699Y-50293802D01*
X155993806Y-50455695D01*
X155993803Y-50455698D01*
X155993802Y-50455700D01*
X155923080Y-50556701D01*
X155862476Y-50643252D01*
X155862475Y-50643254D01*
X155765718Y-50850750D01*
X155765714Y-50850761D01*
X155706457Y-51071910D01*
X155706456Y-51071918D01*
X155686502Y-51299998D01*
X155686502Y-51300001D01*
X155706456Y-51528081D01*
X155706457Y-51528089D01*
X155765714Y-51749238D01*
X155765718Y-51749249D01*
X155820273Y-51866242D01*
X155862477Y-51956749D01*
X155993802Y-52144300D01*
X156155700Y-52306198D01*
X156317564Y-52419537D01*
X156361188Y-52474112D01*
X156368056Y-52496916D01*
X156371859Y-52516034D01*
X156385128Y-52582745D01*
X156378899Y-52652336D01*
X156336036Y-52707513D01*
X156334634Y-52708509D01*
X156155699Y-52833802D01*
X155993806Y-52995695D01*
X155993803Y-52995698D01*
X155993802Y-52995700D01*
X155911767Y-53112856D01*
X155862476Y-53183252D01*
X155862475Y-53183254D01*
X155765718Y-53390750D01*
X155765714Y-53390761D01*
X155706457Y-53611910D01*
X155706456Y-53611918D01*
X155686502Y-53839998D01*
X155686502Y-53840001D01*
X155706456Y-54068081D01*
X155706457Y-54068089D01*
X155765714Y-54289238D01*
X155765718Y-54289249D01*
X155840996Y-54450683D01*
X155862477Y-54496749D01*
X155993802Y-54684300D01*
X156155700Y-54846198D01*
X156317564Y-54959537D01*
X156361188Y-55014112D01*
X156368056Y-55036916D01*
X156371412Y-55053786D01*
X156385128Y-55122745D01*
X156378899Y-55192336D01*
X156336036Y-55247513D01*
X156334634Y-55248509D01*
X156155699Y-55373802D01*
X155993806Y-55535695D01*
X155993803Y-55535698D01*
X155993802Y-55535700D01*
X155922280Y-55637844D01*
X155862476Y-55723252D01*
X155862475Y-55723254D01*
X155765718Y-55930750D01*
X155765714Y-55930761D01*
X155706457Y-56151910D01*
X155706456Y-56151918D01*
X155686502Y-56379998D01*
X155686502Y-56380001D01*
X155706456Y-56608081D01*
X155706457Y-56608089D01*
X155765714Y-56829238D01*
X155765718Y-56829249D01*
X155850909Y-57011942D01*
X155862477Y-57036749D01*
X155979835Y-57204353D01*
X156002161Y-57270556D01*
X155985151Y-57338324D01*
X155965940Y-57363155D01*
X144285181Y-69043915D01*
X144223858Y-69077400D01*
X144154166Y-69072416D01*
X144098233Y-69030544D01*
X144073816Y-68965080D01*
X144073500Y-68956234D01*
X144073500Y-41062605D01*
X144073499Y-41062601D01*
X144058712Y-40988261D01*
X144049155Y-40940215D01*
X144001400Y-40824925D01*
X144001399Y-40824924D01*
X144001396Y-40824918D01*
X143932072Y-40721168D01*
X143895295Y-40684391D01*
X143843833Y-40632929D01*
X142794059Y-39583155D01*
X142760574Y-39521832D01*
X142765558Y-39452140D01*
X142780162Y-39424356D01*
X142897523Y-39256749D01*
X142994284Y-39049243D01*
X143053543Y-38828087D01*
X143073498Y-38600000D01*
X143053543Y-38371913D01*
X142994284Y-38150757D01*
X142897523Y-37943251D01*
X142766198Y-37755700D01*
X142604300Y-37593802D01*
X142425365Y-37468509D01*
X142381740Y-37413932D01*
X142374548Y-37344434D01*
X142374853Y-37342839D01*
X142391944Y-37256915D01*
X142424327Y-37195008D01*
X142442430Y-37179540D01*
X142604300Y-37066198D01*
X142766198Y-36904300D01*
X142897523Y-36716749D01*
X142994284Y-36509243D01*
X143053543Y-36288087D01*
X143073498Y-36060000D01*
X143072304Y-36046357D01*
X143065144Y-35964513D01*
X143053543Y-35831913D01*
X142994284Y-35610757D01*
X142897523Y-35403251D01*
X142766198Y-35215700D01*
X142604300Y-35053802D01*
X142602101Y-35052262D01*
X142425365Y-34928509D01*
X142381740Y-34873932D01*
X142374548Y-34804434D01*
X142374853Y-34802839D01*
X142391944Y-34716915D01*
X142424327Y-34655008D01*
X142442430Y-34639540D01*
X142604300Y-34526198D01*
X142766198Y-34364300D01*
X142897523Y-34176749D01*
X142994284Y-33969243D01*
X143053543Y-33748087D01*
X143073498Y-33520000D01*
X143053543Y-33291913D01*
X142994284Y-33070757D01*
X142897523Y-32863251D01*
X142766198Y-32675700D01*
X142604300Y-32513802D01*
X142425365Y-32388509D01*
X142381740Y-32333932D01*
X142374548Y-32264434D01*
X142374853Y-32262839D01*
X142391944Y-32176915D01*
X142424327Y-32115008D01*
X142442430Y-32099540D01*
X142604300Y-31986198D01*
X142766198Y-31824300D01*
X142897523Y-31636749D01*
X142994284Y-31429243D01*
X143053543Y-31208087D01*
X143073498Y-30980000D01*
X143053543Y-30751913D01*
X142994284Y-30530757D01*
X142897523Y-30323251D01*
X142766198Y-30135700D01*
X142604300Y-29973802D01*
X142596628Y-29968430D01*
X142553006Y-29913853D01*
X142545814Y-29844355D01*
X142577338Y-29782001D01*
X142637568Y-29746588D01*
X142654489Y-29743570D01*
X142669201Y-29741989D01*
X142806204Y-29690889D01*
X142923261Y-29603261D01*
X143010889Y-29486204D01*
X143061989Y-29349201D01*
X143065591Y-29315692D01*
X143068499Y-29288654D01*
X143068500Y-29288637D01*
X143068500Y-27591362D01*
X143068499Y-27591345D01*
X143065157Y-27560270D01*
X143061989Y-27530799D01*
X143051705Y-27503228D01*
X143025812Y-27433806D01*
X143010889Y-27393796D01*
X142923261Y-27276739D01*
X142806204Y-27189111D01*
X142669203Y-27138011D01*
X142608654Y-27131500D01*
X142608638Y-27131500D01*
X140911362Y-27131500D01*
X140911345Y-27131500D01*
X140850797Y-27138011D01*
X140850795Y-27138011D01*
X140713795Y-27189111D01*
X140596739Y-27276739D01*
X140509111Y-27393795D01*
X140458011Y-27530795D01*
X140458011Y-27530797D01*
X140451500Y-27591345D01*
X140451500Y-29288654D01*
X140458011Y-29349202D01*
X140458011Y-29349204D01*
X140509112Y-29486206D01*
X140510555Y-29488134D01*
X140511396Y-29490390D01*
X140513363Y-29493992D01*
X140512845Y-29494274D01*
X140534972Y-29553598D01*
X140520120Y-29621871D01*
X140498969Y-29650125D01*
X130043381Y-40105714D01*
X129982058Y-40139199D01*
X129912366Y-40134215D01*
X129856433Y-40092343D01*
X129832016Y-40026879D01*
X129831700Y-40018033D01*
X129831700Y-36232266D01*
X129851385Y-36165227D01*
X129868019Y-36144585D01*
X130617068Y-35395536D01*
X130617071Y-35395533D01*
X130686400Y-35291775D01*
X130734155Y-35176485D01*
X130755439Y-35069484D01*
X130787823Y-35007573D01*
X130818040Y-34984620D01*
X130870566Y-34956195D01*
X130870569Y-34956192D01*
X130870576Y-34956189D01*
X131048240Y-34817906D01*
X131148409Y-34709094D01*
X131200715Y-34652276D01*
X131200719Y-34652271D01*
X131200722Y-34652268D01*
X131323860Y-34463791D01*
X131414296Y-34257616D01*
X131469564Y-34039368D01*
X131473906Y-33986967D01*
X131488156Y-33815005D01*
X131488156Y-33814994D01*
X131469565Y-33590640D01*
X131469563Y-33590628D01*
X131451678Y-33520001D01*
X131414296Y-33372384D01*
X131323860Y-33166209D01*
X131307706Y-33141484D01*
X131200723Y-32977734D01*
X131200715Y-32977723D01*
X131055510Y-32819991D01*
X131024587Y-32757337D01*
X131032447Y-32687911D01*
X131076594Y-32633755D01*
X131103405Y-32619827D01*
X131183584Y-32589920D01*
X131221204Y-32575889D01*
X131338261Y-32488261D01*
X131425889Y-32371204D01*
X131476989Y-32234201D01*
X131481620Y-32191124D01*
X131483499Y-32173654D01*
X131483500Y-32173637D01*
X131483500Y-30376362D01*
X131483499Y-30376345D01*
X131477790Y-30323251D01*
X131476989Y-30315799D01*
X131425889Y-30178796D01*
X131338261Y-30061739D01*
X131221204Y-29974111D01*
X131215247Y-29971889D01*
X131084203Y-29923011D01*
X131023654Y-29916500D01*
X131023638Y-29916500D01*
X129226362Y-29916500D01*
X129226345Y-29916500D01*
X129165797Y-29923011D01*
X129165795Y-29923011D01*
X129028795Y-29974111D01*
X128911739Y-30061739D01*
X128824111Y-30178795D01*
X128778861Y-30300111D01*
X128736989Y-30356044D01*
X128671524Y-30380460D01*
X128603252Y-30365607D01*
X128571454Y-30340762D01*
X128508240Y-30272094D01*
X128330576Y-30133811D01*
X128330575Y-30133810D01*
X128330572Y-30133808D01*
X128132580Y-30026661D01*
X128132577Y-30026659D01*
X128132574Y-30026658D01*
X128132571Y-30026657D01*
X128132569Y-30026656D01*
X127919637Y-29953556D01*
X127697569Y-29916500D01*
X127472431Y-29916500D01*
X127250362Y-29953556D01*
X127037430Y-30026656D01*
X127037419Y-30026661D01*
X126839427Y-30133808D01*
X126839422Y-30133812D01*
X126661761Y-30272092D01*
X126661756Y-30272097D01*
X126509284Y-30437723D01*
X126509276Y-30437734D01*
X126418808Y-30576206D01*
X126365662Y-30621562D01*
X126296431Y-30630986D01*
X126233095Y-30601484D01*
X126211192Y-30576206D01*
X126120723Y-30437734D01*
X126120715Y-30437723D01*
X125968243Y-30272097D01*
X125968238Y-30272092D01*
X125793003Y-30135700D01*
X125790576Y-30133811D01*
X125790575Y-30133810D01*
X125790572Y-30133808D01*
X125592580Y-30026661D01*
X125592577Y-30026659D01*
X125592574Y-30026658D01*
X125592571Y-30026657D01*
X125592569Y-30026656D01*
X125379637Y-29953556D01*
X125157569Y-29916500D01*
X124932431Y-29916500D01*
X124710362Y-29953556D01*
X124497430Y-30026656D01*
X124497419Y-30026661D01*
X124299427Y-30133808D01*
X124299422Y-30133812D01*
X124121761Y-30272092D01*
X124121756Y-30272097D01*
X123969284Y-30437723D01*
X123969276Y-30437734D01*
X123875251Y-30581650D01*
X123822105Y-30627007D01*
X123752873Y-30636430D01*
X123689538Y-30606928D01*
X123669868Y-30584951D01*
X123543113Y-30403926D01*
X123543108Y-30403920D01*
X123376082Y-30236894D01*
X123182578Y-30101399D01*
X122968492Y-30001570D01*
X122968483Y-30001566D01*
X122740322Y-29940431D01*
X122705000Y-29937339D01*
X122705000Y-30813120D01*
X122697993Y-30809075D01*
X122570826Y-30775000D01*
X122439174Y-30775000D01*
X122312007Y-30809075D01*
X122305000Y-30813120D01*
X122305000Y-29937339D01*
X122269677Y-29940431D01*
X122041516Y-30001566D01*
X122041507Y-30001570D01*
X121827422Y-30101399D01*
X121827420Y-30101400D01*
X121633926Y-30236886D01*
X121633920Y-30236891D01*
X121466891Y-30403920D01*
X121466890Y-30403922D01*
X121340131Y-30584952D01*
X121285554Y-30628577D01*
X121216055Y-30635769D01*
X121153701Y-30604247D01*
X121134752Y-30581656D01*
X121040722Y-30437732D01*
X121040715Y-30437725D01*
X121040715Y-30437723D01*
X120888243Y-30272097D01*
X120888238Y-30272092D01*
X120713003Y-30135700D01*
X120710576Y-30133811D01*
X120710575Y-30133810D01*
X120710572Y-30133808D01*
X120512580Y-30026661D01*
X120512577Y-30026659D01*
X120512574Y-30026658D01*
X120512571Y-30026657D01*
X120512569Y-30026656D01*
X120299637Y-29953556D01*
X120077569Y-29916500D01*
X119852431Y-29916500D01*
X119630365Y-29953555D01*
X119576962Y-29971889D01*
X119507164Y-29975038D01*
X119446743Y-29939951D01*
X119414882Y-29877769D01*
X119412700Y-29854607D01*
X119412700Y-28015056D01*
X119432385Y-27948017D01*
X119444546Y-27932088D01*
X119518240Y-27850244D01*
X119613727Y-27684856D01*
X119672742Y-27503228D01*
X119692704Y-27313300D01*
X119672742Y-27123372D01*
X119613727Y-26941744D01*
X119518240Y-26776356D01*
X119390453Y-26634434D01*
X119235952Y-26522182D01*
X119061488Y-26444506D01*
X119061486Y-26444505D01*
X118874687Y-26404800D01*
X118683713Y-26404800D01*
X118496914Y-26444505D01*
X118322446Y-26522183D01*
X118167945Y-26634435D01*
X118040159Y-26776357D01*
X117944673Y-26941743D01*
X117944670Y-26941750D01*
X117885659Y-27123368D01*
X117885658Y-27123372D01*
X117865696Y-27313300D01*
X117885658Y-27503228D01*
X117885659Y-27503231D01*
X117944670Y-27684849D01*
X117944673Y-27684856D01*
X118040160Y-27850244D01*
X118113849Y-27932084D01*
X118144080Y-27995075D01*
X118145700Y-28015056D01*
X118145700Y-52061733D01*
X118126015Y-52128772D01*
X118073211Y-52174527D01*
X118004053Y-52184471D01*
X117940497Y-52155446D01*
X117934019Y-52149414D01*
X115434919Y-49650314D01*
X115401434Y-49588991D01*
X115398600Y-49562633D01*
X115398600Y-41050675D01*
X115418285Y-40983636D01*
X115463583Y-40941620D01*
X115510576Y-40916189D01*
X115688240Y-40777906D01*
X115840722Y-40612268D01*
X115963860Y-40423791D01*
X116054296Y-40217616D01*
X116109564Y-39999368D01*
X116109565Y-39999359D01*
X116128156Y-39775005D01*
X116128156Y-39774994D01*
X116109565Y-39550640D01*
X116109563Y-39550628D01*
X116054296Y-39332385D01*
X116021119Y-39256749D01*
X115963860Y-39126209D01*
X115906333Y-39038158D01*
X115902291Y-39031970D01*
X115840722Y-38937732D01*
X115840719Y-38937729D01*
X115840715Y-38937723D01*
X115688243Y-38772097D01*
X115688238Y-38772092D01*
X115510577Y-38633812D01*
X115510578Y-38633812D01*
X115510576Y-38633811D01*
X115474070Y-38614055D01*
X115424479Y-38564836D01*
X115409371Y-38496619D01*
X115433541Y-38431064D01*
X115474070Y-38395945D01*
X115475509Y-38395166D01*
X115510576Y-38376189D01*
X115688240Y-38237906D01*
X115840722Y-38072268D01*
X115963860Y-37883791D01*
X116054296Y-37677616D01*
X116109564Y-37459368D01*
X116110167Y-37452094D01*
X116128156Y-37235005D01*
X116128156Y-37234994D01*
X116109565Y-37010640D01*
X116109563Y-37010628D01*
X116054296Y-36792385D01*
X116045894Y-36773231D01*
X115963860Y-36586209D01*
X115961959Y-36583300D01*
X115840723Y-36397734D01*
X115840715Y-36397723D01*
X115688243Y-36232097D01*
X115688238Y-36232092D01*
X115510577Y-36093812D01*
X115510572Y-36093808D01*
X115312580Y-35986661D01*
X115312577Y-35986659D01*
X115312574Y-35986658D01*
X115312571Y-35986657D01*
X115312569Y-35986656D01*
X115099637Y-35913556D01*
X114877569Y-35876500D01*
X114652431Y-35876500D01*
X114430362Y-35913556D01*
X114217430Y-35986656D01*
X114217419Y-35986661D01*
X114019427Y-36093808D01*
X114019422Y-36093812D01*
X113841761Y-36232092D01*
X113841756Y-36232097D01*
X113689284Y-36397723D01*
X113689276Y-36397734D01*
X113598808Y-36536206D01*
X113545662Y-36581562D01*
X113476431Y-36590986D01*
X113413095Y-36561484D01*
X113391192Y-36536206D01*
X113300723Y-36397734D01*
X113300715Y-36397723D01*
X113148243Y-36232097D01*
X113148238Y-36232092D01*
X112970577Y-36093812D01*
X112970572Y-36093808D01*
X112772580Y-35986661D01*
X112772577Y-35986659D01*
X112772574Y-35986658D01*
X112772571Y-35986657D01*
X112772569Y-35986656D01*
X112559637Y-35913556D01*
X112337569Y-35876500D01*
X112112431Y-35876500D01*
X111890365Y-35913555D01*
X111846062Y-35928765D01*
X111776264Y-35931914D01*
X111715843Y-35896827D01*
X111683982Y-35834644D01*
X111681800Y-35811483D01*
X111681800Y-34328405D01*
X111681799Y-34328401D01*
X111667719Y-34257616D01*
X111657455Y-34206015D01*
X111612817Y-34098249D01*
X111609701Y-34090727D01*
X111609696Y-34090718D01*
X111540372Y-33986968D01*
X111511483Y-33958079D01*
X111452133Y-33898729D01*
X111073402Y-33519998D01*
X110575236Y-33021831D01*
X110575232Y-33021828D01*
X110471481Y-32952503D01*
X110471472Y-32952498D01*
X110356185Y-32904745D01*
X110356177Y-32904743D01*
X110233798Y-32880400D01*
X110233794Y-32880400D01*
X107568093Y-32880400D01*
X107443306Y-32880400D01*
X107443301Y-32880400D01*
X107320922Y-32904743D01*
X107320914Y-32904745D01*
X107205627Y-32952498D01*
X107205618Y-32952503D01*
X107101867Y-33021828D01*
X107101863Y-33021831D01*
X105739215Y-34384481D01*
X105677892Y-34417966D01*
X105651534Y-34420800D01*
X105594813Y-34420800D01*
X105594810Y-34420800D01*
X105591115Y-34421189D01*
X105588988Y-34420800D01*
X105588314Y-34420800D01*
X105588314Y-34420676D01*
X105522385Y-34408620D01*
X105471361Y-34360888D01*
X105460222Y-34336186D01*
X105457694Y-34328406D01*
X105426027Y-34230944D01*
X105330540Y-34065556D01*
X105202753Y-33923634D01*
X105048252Y-33811382D01*
X104873788Y-33733706D01*
X104873786Y-33733705D01*
X104686987Y-33694000D01*
X104496013Y-33694000D01*
X104309214Y-33733705D01*
X104134746Y-33811383D01*
X103980245Y-33923635D01*
X103852459Y-34065557D01*
X103756973Y-34230943D01*
X103756970Y-34230950D01*
X103713641Y-34364304D01*
X103697958Y-34412572D01*
X103677996Y-34602500D01*
X103697958Y-34792428D01*
X103697959Y-34792431D01*
X103756970Y-34974049D01*
X103756973Y-34974056D01*
X103836992Y-35112654D01*
X103852460Y-35139444D01*
X103926149Y-35221284D01*
X103956380Y-35284275D01*
X103958000Y-35304256D01*
X103958000Y-83758241D01*
X103938315Y-83825280D01*
X103926150Y-83841213D01*
X103852463Y-83923050D01*
X103852458Y-83923057D01*
X103756973Y-84088443D01*
X103756970Y-84088450D01*
X103697959Y-84270068D01*
X103697958Y-84270072D01*
X103677996Y-84460000D01*
X103697958Y-84649928D01*
X103697959Y-84649931D01*
X103756970Y-84831549D01*
X103756973Y-84831556D01*
X103852460Y-84996944D01*
X103980247Y-85138866D01*
X104134748Y-85251118D01*
X104309212Y-85328794D01*
X104496013Y-85368500D01*
X104686987Y-85368500D01*
X104873788Y-85328794D01*
X105048252Y-85251118D01*
X105202753Y-85138866D01*
X105330540Y-84996944D01*
X105426027Y-84831556D01*
X105485042Y-84649928D01*
X105505004Y-84460000D01*
X105485042Y-84270072D01*
X105426027Y-84088444D01*
X105330540Y-83923056D01*
X105330536Y-83923050D01*
X105256850Y-83841213D01*
X105226620Y-83778221D01*
X105225000Y-83758241D01*
X105225000Y-36307554D01*
X105244685Y-36240515D01*
X105297489Y-36194760D01*
X105366647Y-36184816D01*
X105399433Y-36194274D01*
X105408012Y-36198094D01*
X105408015Y-36198094D01*
X105408016Y-36198095D01*
X105594813Y-36237800D01*
X105785787Y-36237800D01*
X105972588Y-36198094D01*
X106147052Y-36120418D01*
X106301553Y-36008166D01*
X106429340Y-35866244D01*
X106524827Y-35700856D01*
X106583842Y-35519228D01*
X106601281Y-35353297D01*
X106627864Y-35288687D01*
X106636911Y-35278591D01*
X107731785Y-34183719D01*
X107793108Y-34150234D01*
X107819466Y-34147400D01*
X108790340Y-34147400D01*
X108857379Y-34167085D01*
X108903134Y-34219889D01*
X108913660Y-34258435D01*
X108931758Y-34430628D01*
X108931759Y-34430631D01*
X108990770Y-34612249D01*
X108990773Y-34612256D01*
X109046682Y-34709094D01*
X109086260Y-34777644D01*
X109159949Y-34859484D01*
X109190180Y-34922475D01*
X109191800Y-34942456D01*
X109191800Y-55294698D01*
X109216143Y-55417077D01*
X109216145Y-55417085D01*
X109263898Y-55532372D01*
X109263903Y-55532381D01*
X109333228Y-55636132D01*
X109333231Y-55636136D01*
X113046678Y-59349582D01*
X113080163Y-59410905D01*
X113082318Y-59424301D01*
X113090091Y-59498249D01*
X113099758Y-59590228D01*
X113099759Y-59590231D01*
X113158770Y-59771849D01*
X113158773Y-59771856D01*
X113254260Y-59937244D01*
X113382047Y-60079166D01*
X113536548Y-60191418D01*
X113711012Y-60269094D01*
X113897813Y-60308800D01*
X113983100Y-60308800D01*
X114050139Y-60328485D01*
X114095894Y-60381289D01*
X114107100Y-60432800D01*
X114107100Y-77345385D01*
X114097661Y-77392837D01*
X114086445Y-77419913D01*
X114086442Y-77419922D01*
X114062100Y-77542301D01*
X114062100Y-82658241D01*
X114042415Y-82725280D01*
X114030250Y-82741213D01*
X113956563Y-82823050D01*
X113956558Y-82823057D01*
X113861073Y-82988443D01*
X113861070Y-82988450D01*
X113802059Y-83170068D01*
X113802058Y-83170072D01*
X113782096Y-83360000D01*
X113802058Y-83549928D01*
X113802059Y-83549931D01*
X113861070Y-83731549D01*
X113861073Y-83731556D01*
X113956560Y-83896944D01*
X114084347Y-84038866D01*
X114238848Y-84151118D01*
X114413312Y-84228794D01*
X114600113Y-84268500D01*
X114791087Y-84268500D01*
X114977888Y-84228794D01*
X115152352Y-84151118D01*
X115306853Y-84038866D01*
X115434640Y-83896944D01*
X115530127Y-83731556D01*
X115589142Y-83549928D01*
X115609104Y-83360000D01*
X115589142Y-83170072D01*
X115530127Y-82988444D01*
X115454515Y-82857480D01*
X115434641Y-82823057D01*
X115434636Y-82823050D01*
X115360950Y-82741213D01*
X115330720Y-82678221D01*
X115329100Y-82658241D01*
X115329100Y-79386500D01*
X115348785Y-79319461D01*
X115401589Y-79273706D01*
X115453100Y-79262500D01*
X115847595Y-79262500D01*
X115847596Y-79262499D01*
X115969985Y-79238155D01*
X116085275Y-79190400D01*
X116189033Y-79121071D01*
X117124672Y-78185433D01*
X117194001Y-78081675D01*
X117241755Y-77966384D01*
X117244041Y-77954894D01*
X117244504Y-77952569D01*
X117266099Y-77843998D01*
X117266100Y-77843995D01*
X117266100Y-75128366D01*
X117285785Y-75061327D01*
X117302419Y-75040685D01*
X119417519Y-72925585D01*
X119478842Y-72892100D01*
X119548534Y-72897084D01*
X119604467Y-72938956D01*
X119628884Y-73004420D01*
X119629200Y-73013266D01*
X119629200Y-82323241D01*
X119609515Y-82390280D01*
X119597350Y-82406213D01*
X119523663Y-82488050D01*
X119523658Y-82488057D01*
X119428173Y-82653443D01*
X119428170Y-82653450D01*
X119369159Y-82835068D01*
X119369158Y-82835072D01*
X119349196Y-83025000D01*
X119369158Y-83214928D01*
X119369159Y-83214931D01*
X119428170Y-83396549D01*
X119428173Y-83396556D01*
X119523660Y-83561944D01*
X119651447Y-83703866D01*
X119805948Y-83816118D01*
X119980412Y-83893794D01*
X120167213Y-83933500D01*
X120358187Y-83933500D01*
X120544988Y-83893794D01*
X120719452Y-83816118D01*
X120873953Y-83703866D01*
X121001740Y-83561944D01*
X121097227Y-83396556D01*
X121156242Y-83214928D01*
X121176204Y-83025000D01*
X121156242Y-82835072D01*
X121097227Y-82653444D01*
X121049483Y-82570750D01*
X121001741Y-82488057D01*
X121001736Y-82488050D01*
X120928050Y-82406213D01*
X120897820Y-82343221D01*
X120896200Y-82323241D01*
X120896200Y-72525866D01*
X120915885Y-72458827D01*
X120932519Y-72438185D01*
X121947119Y-71423585D01*
X122008442Y-71390100D01*
X122078134Y-71395084D01*
X122134067Y-71436956D01*
X122158484Y-71502420D01*
X122158800Y-71511266D01*
X122158800Y-93100041D01*
X122139115Y-93167080D01*
X122126950Y-93183013D01*
X122053263Y-93264850D01*
X122053258Y-93264857D01*
X121957773Y-93430243D01*
X121957770Y-93430250D01*
X121915612Y-93560000D01*
X121898758Y-93611872D01*
X121878796Y-93801800D01*
X121898758Y-93991728D01*
X121898759Y-93991731D01*
X121957770Y-94173349D01*
X121957773Y-94173356D01*
X122053260Y-94338744D01*
X122072617Y-94360242D01*
X122089161Y-94378616D01*
X122119391Y-94441607D01*
X122110766Y-94510943D01*
X122096286Y-94535888D01*
X122094114Y-94538789D01*
X122094111Y-94538793D01*
X122059181Y-94632444D01*
X122017309Y-94688377D01*
X121951845Y-94712793D01*
X121883572Y-94697940D01*
X121834167Y-94648535D01*
X121826819Y-94632444D01*
X121802830Y-94568130D01*
X121791889Y-94538796D01*
X121704261Y-94421739D01*
X121587204Y-94334111D01*
X121580810Y-94331726D01*
X121450203Y-94283011D01*
X121389654Y-94276500D01*
X121389638Y-94276500D01*
X119382362Y-94276500D01*
X119382345Y-94276500D01*
X119321797Y-94283011D01*
X119321795Y-94283011D01*
X119184795Y-94334111D01*
X119067739Y-94421739D01*
X118980111Y-94538795D01*
X118929011Y-94675795D01*
X118929011Y-94675797D01*
X118922500Y-94736345D01*
X118922500Y-94876000D01*
X118902815Y-94943039D01*
X118850011Y-94988794D01*
X118798500Y-95000000D01*
X118625500Y-95000000D01*
X118558461Y-94980315D01*
X118512706Y-94927511D01*
X118501500Y-94876000D01*
X118501500Y-94483651D01*
X118495349Y-94477500D01*
X100006359Y-94477500D01*
X99993955Y-94476878D01*
X99838030Y-94461202D01*
X99816933Y-94457213D01*
X99670436Y-94416105D01*
X99650343Y-94408536D01*
X99513132Y-94342772D01*
X99494646Y-94331850D01*
X99415667Y-94275429D01*
X99370843Y-94243407D01*
X99354519Y-94229462D01*
X99351866Y-94226765D01*
X99247820Y-94120980D01*
X99234146Y-94104426D01*
X99147764Y-93979170D01*
X99137151Y-93960506D01*
X99073672Y-93822230D01*
X99066437Y-93802014D01*
X99027763Y-93654860D01*
X99024123Y-93633700D01*
X99017946Y-93560013D01*
X99010947Y-93476520D01*
X99010516Y-93465802D01*
X99010566Y-93449028D01*
X99010500Y-93448601D01*
X99010500Y-86433920D01*
X101369499Y-86433920D01*
X101398340Y-86578907D01*
X101398343Y-86578917D01*
X101454912Y-86715488D01*
X101454919Y-86715501D01*
X101537048Y-86838415D01*
X101537051Y-86838419D01*
X101641580Y-86942948D01*
X101641584Y-86942951D01*
X101764498Y-87025080D01*
X101764511Y-87025087D01*
X101901082Y-87081656D01*
X101901087Y-87081658D01*
X101901091Y-87081658D01*
X101901092Y-87081659D01*
X102046079Y-87110500D01*
X102046082Y-87110500D01*
X102193920Y-87110500D01*
X102291462Y-87091096D01*
X102338913Y-87081658D01*
X102475495Y-87025084D01*
X102598416Y-86942951D01*
X102702951Y-86838416D01*
X102785084Y-86715495D01*
X102786263Y-86712650D01*
X102810061Y-86655195D01*
X102841658Y-86578913D01*
X102851096Y-86531462D01*
X102870500Y-86433920D01*
X102870500Y-86286079D01*
X102841659Y-86141092D01*
X102841658Y-86141091D01*
X102841658Y-86141087D01*
X102841656Y-86141082D01*
X102785087Y-86004511D01*
X102785080Y-86004498D01*
X102702951Y-85881584D01*
X102702948Y-85881580D01*
X102598419Y-85777051D01*
X102598415Y-85777048D01*
X102475501Y-85694919D01*
X102475488Y-85694912D01*
X102338917Y-85638343D01*
X102338907Y-85638340D01*
X102193920Y-85609500D01*
X102193918Y-85609500D01*
X102046082Y-85609500D01*
X102046080Y-85609500D01*
X101901092Y-85638340D01*
X101901082Y-85638343D01*
X101764511Y-85694912D01*
X101764498Y-85694919D01*
X101641584Y-85777048D01*
X101641580Y-85777051D01*
X101537051Y-85881580D01*
X101537048Y-85881584D01*
X101454919Y-86004498D01*
X101454912Y-86004511D01*
X101398343Y-86141082D01*
X101398340Y-86141092D01*
X101369500Y-86286079D01*
X101369500Y-86286082D01*
X101369500Y-86433918D01*
X101369500Y-86433920D01*
X101369499Y-86433920D01*
X99010500Y-86433920D01*
X99010500Y-78433920D01*
X101369499Y-78433920D01*
X101398340Y-78578907D01*
X101398343Y-78578917D01*
X101454912Y-78715488D01*
X101454919Y-78715501D01*
X101537048Y-78838415D01*
X101537051Y-78838419D01*
X101641580Y-78942948D01*
X101641584Y-78942951D01*
X101764498Y-79025080D01*
X101764511Y-79025087D01*
X101882978Y-79074157D01*
X101901087Y-79081658D01*
X101901091Y-79081658D01*
X101901092Y-79081659D01*
X102046079Y-79110500D01*
X102046082Y-79110500D01*
X102193920Y-79110500D01*
X102291462Y-79091096D01*
X102338913Y-79081658D01*
X102475495Y-79025084D01*
X102598416Y-78942951D01*
X102702951Y-78838416D01*
X102785084Y-78715495D01*
X102841658Y-78578913D01*
X102870500Y-78433918D01*
X102870500Y-78286082D01*
X102870500Y-78286079D01*
X102841659Y-78141092D01*
X102841658Y-78141091D01*
X102841658Y-78141087D01*
X102817049Y-78081675D01*
X102785087Y-78004511D01*
X102785080Y-78004498D01*
X102702951Y-77881584D01*
X102702948Y-77881580D01*
X102598419Y-77777051D01*
X102598415Y-77777048D01*
X102475501Y-77694919D01*
X102475488Y-77694912D01*
X102338917Y-77638343D01*
X102338907Y-77638340D01*
X102193920Y-77609500D01*
X102193918Y-77609500D01*
X102046082Y-77609500D01*
X102046080Y-77609500D01*
X101901092Y-77638340D01*
X101901082Y-77638343D01*
X101764511Y-77694912D01*
X101764498Y-77694919D01*
X101641584Y-77777048D01*
X101641580Y-77777051D01*
X101537051Y-77881580D01*
X101537048Y-77881584D01*
X101454919Y-78004498D01*
X101454912Y-78004511D01*
X101398343Y-78141082D01*
X101398340Y-78141092D01*
X101369500Y-78286079D01*
X101369500Y-78286082D01*
X101369500Y-78433918D01*
X101369500Y-78433920D01*
X101369499Y-78433920D01*
X99010500Y-78433920D01*
X99010500Y-61291920D01*
X101331499Y-61291920D01*
X101360340Y-61436907D01*
X101360343Y-61436917D01*
X101416912Y-61573488D01*
X101416919Y-61573501D01*
X101499048Y-61696415D01*
X101499051Y-61696419D01*
X101603580Y-61800948D01*
X101603584Y-61800951D01*
X101726498Y-61883080D01*
X101726511Y-61883087D01*
X101863082Y-61939656D01*
X101863087Y-61939658D01*
X101863091Y-61939658D01*
X101863092Y-61939659D01*
X102008079Y-61968500D01*
X102008082Y-61968500D01*
X102155920Y-61968500D01*
X102262083Y-61947382D01*
X102300913Y-61939658D01*
X102437495Y-61883084D01*
X102560416Y-61800951D01*
X102664951Y-61696416D01*
X102747084Y-61573495D01*
X102803658Y-61436913D01*
X102832500Y-61291918D01*
X102832500Y-61144082D01*
X102832500Y-61144079D01*
X102803659Y-60999092D01*
X102803658Y-60999091D01*
X102803658Y-60999087D01*
X102803656Y-60999082D01*
X102747087Y-60862511D01*
X102747080Y-60862498D01*
X102664951Y-60739584D01*
X102664948Y-60739580D01*
X102560419Y-60635051D01*
X102560415Y-60635048D01*
X102437501Y-60552919D01*
X102437488Y-60552912D01*
X102300917Y-60496343D01*
X102300907Y-60496340D01*
X102155920Y-60467500D01*
X102155918Y-60467500D01*
X102008082Y-60467500D01*
X102008080Y-60467500D01*
X101863092Y-60496340D01*
X101863082Y-60496343D01*
X101726511Y-60552912D01*
X101726498Y-60552919D01*
X101603584Y-60635048D01*
X101603580Y-60635051D01*
X101499051Y-60739580D01*
X101499048Y-60739584D01*
X101416919Y-60862498D01*
X101416912Y-60862511D01*
X101360343Y-60999082D01*
X101360340Y-60999092D01*
X101331500Y-61144079D01*
X101331500Y-61144082D01*
X101331500Y-61291918D01*
X101331500Y-61291920D01*
X101331499Y-61291920D01*
X99010500Y-61291920D01*
X99010500Y-53291920D01*
X101331499Y-53291920D01*
X101360340Y-53436907D01*
X101360343Y-53436917D01*
X101416912Y-53573488D01*
X101416919Y-53573501D01*
X101499048Y-53696415D01*
X101499051Y-53696419D01*
X101603580Y-53800948D01*
X101603584Y-53800951D01*
X101726498Y-53883080D01*
X101726511Y-53883087D01*
X101849002Y-53933824D01*
X101863087Y-53939658D01*
X101863091Y-53939658D01*
X101863092Y-53939659D01*
X102008079Y-53968500D01*
X102008082Y-53968500D01*
X102155920Y-53968500D01*
X102253462Y-53949096D01*
X102300913Y-53939658D01*
X102437495Y-53883084D01*
X102560416Y-53800951D01*
X102664951Y-53696416D01*
X102747084Y-53573495D01*
X102803658Y-53436913D01*
X102820592Y-53351782D01*
X102832500Y-53291920D01*
X102832500Y-53144079D01*
X102803659Y-52999092D01*
X102803658Y-52999091D01*
X102803658Y-52999087D01*
X102800367Y-52991141D01*
X102747087Y-52862511D01*
X102747080Y-52862498D01*
X102664951Y-52739584D01*
X102664948Y-52739580D01*
X102560419Y-52635051D01*
X102560415Y-52635048D01*
X102437501Y-52552919D01*
X102437488Y-52552912D01*
X102300917Y-52496343D01*
X102300907Y-52496340D01*
X102155920Y-52467500D01*
X102155918Y-52467500D01*
X102008082Y-52467500D01*
X102008080Y-52467500D01*
X101863092Y-52496340D01*
X101863082Y-52496343D01*
X101726511Y-52552912D01*
X101726498Y-52552919D01*
X101603584Y-52635048D01*
X101603580Y-52635051D01*
X101499051Y-52739580D01*
X101499048Y-52739584D01*
X101416919Y-52862498D01*
X101416912Y-52862511D01*
X101360343Y-52999082D01*
X101360340Y-52999092D01*
X101331500Y-53144079D01*
X101331500Y-53144082D01*
X101331500Y-53291918D01*
X101331500Y-53291920D01*
X101331499Y-53291920D01*
X99010500Y-53291920D01*
X99010500Y-26442430D01*
X99010592Y-26441847D01*
X99010522Y-26424618D01*
X99010941Y-26413910D01*
X99012873Y-26390501D01*
X99023922Y-26256627D01*
X99027531Y-26235483D01*
X99066080Y-26088029D01*
X99073280Y-26067828D01*
X99136691Y-25929222D01*
X99147263Y-25910575D01*
X99233633Y-25784985D01*
X99247274Y-25768428D01*
X99354003Y-25659630D01*
X99370285Y-25645681D01*
X99494188Y-25556917D01*
X99512650Y-25545978D01*
X99649999Y-25479921D01*
X99670062Y-25472333D01*
X99816746Y-25430959D01*
X99837816Y-25426945D01*
X99972161Y-25413254D01*
X99992924Y-25411139D01*
X100005495Y-25410500D01*
X192016918Y-25410500D01*
X192028421Y-25411035D01*
G37*
G04 #@! TD.AperFunction*
G04 #@! TA.AperFunction,Conductor*
G36*
X138866854Y-67903081D02*
G01*
X138898277Y-67965486D01*
X138900300Y-67987793D01*
X138900300Y-89641333D01*
X138880615Y-89708372D01*
X138863981Y-89729014D01*
X135833915Y-92759081D01*
X135772592Y-92792566D01*
X135746234Y-92795400D01*
X135689513Y-92795400D01*
X135502714Y-92835105D01*
X135328246Y-92912783D01*
X135173745Y-93025035D01*
X135045959Y-93166957D01*
X134950473Y-93332343D01*
X134950470Y-93332350D01*
X134891459Y-93513968D01*
X134891458Y-93513972D01*
X134871496Y-93703900D01*
X134891458Y-93893828D01*
X134891459Y-93893831D01*
X134950470Y-94075449D01*
X134950473Y-94075456D01*
X135014296Y-94186001D01*
X135030769Y-94253902D01*
X135007916Y-94319928D01*
X134981220Y-94347268D01*
X134881739Y-94421739D01*
X134794111Y-94538795D01*
X134743011Y-94675795D01*
X134743011Y-94675797D01*
X134736500Y-94736345D01*
X134736500Y-94876000D01*
X134716815Y-94943039D01*
X134664011Y-94988794D01*
X134612500Y-95000000D01*
X134607500Y-95000000D01*
X134540461Y-94980315D01*
X134494706Y-94927511D01*
X134483500Y-94876000D01*
X134483500Y-94736362D01*
X134483499Y-94736345D01*
X134480157Y-94705270D01*
X134476989Y-94675799D01*
X134476986Y-94675792D01*
X134436830Y-94568130D01*
X134425889Y-94538796D01*
X134338261Y-94421739D01*
X134221204Y-94334111D01*
X134214810Y-94331726D01*
X134084204Y-94283011D01*
X134076659Y-94281229D01*
X134076950Y-94279995D01*
X134019686Y-94256271D01*
X133979843Y-94198876D01*
X133973500Y-94159726D01*
X133973500Y-75991056D01*
X133993185Y-75924017D01*
X134005346Y-75908088D01*
X134079040Y-75826244D01*
X134174527Y-75660856D01*
X134233542Y-75479228D01*
X134253504Y-75289300D01*
X134233542Y-75099372D01*
X134174527Y-74917744D01*
X134079040Y-74752356D01*
X133951253Y-74610434D01*
X133796752Y-74498182D01*
X133622288Y-74420506D01*
X133622286Y-74420505D01*
X133435487Y-74380800D01*
X133244513Y-74380800D01*
X133057714Y-74420505D01*
X132883246Y-74498183D01*
X132728745Y-74610435D01*
X132600959Y-74752357D01*
X132505473Y-74917743D01*
X132505470Y-74917750D01*
X132447575Y-75095933D01*
X132446458Y-75099372D01*
X132426496Y-75289300D01*
X132446458Y-75479228D01*
X132446459Y-75479231D01*
X132505470Y-75660849D01*
X132505473Y-75660856D01*
X132564577Y-75763228D01*
X132600960Y-75826244D01*
X132674649Y-75908084D01*
X132704880Y-75971075D01*
X132706500Y-75991056D01*
X132706500Y-78608885D01*
X132686815Y-78675924D01*
X132634011Y-78721679D01*
X132564853Y-78731623D01*
X132556719Y-78730175D01*
X132426987Y-78702600D01*
X132236013Y-78702600D01*
X132049214Y-78742305D01*
X131874746Y-78819983D01*
X131720245Y-78932235D01*
X131592459Y-79074157D01*
X131496973Y-79239543D01*
X131496970Y-79239550D01*
X131437959Y-79421168D01*
X131437958Y-79421172D01*
X131417996Y-79611100D01*
X131437958Y-79801028D01*
X131437959Y-79801031D01*
X131496970Y-79982649D01*
X131496973Y-79982656D01*
X131572958Y-80114267D01*
X131592460Y-80148044D01*
X131666149Y-80229884D01*
X131696380Y-80292875D01*
X131698000Y-80312856D01*
X131698000Y-92613034D01*
X131678315Y-92680073D01*
X131661681Y-92700715D01*
X130396167Y-93966229D01*
X130370668Y-93991728D01*
X130307927Y-94054468D01*
X130238603Y-94158218D01*
X130238598Y-94158227D01*
X130221173Y-94200297D01*
X130177332Y-94254700D01*
X130119493Y-94274544D01*
X130119665Y-94276144D01*
X130055797Y-94283011D01*
X130055795Y-94283011D01*
X129918795Y-94334111D01*
X129801739Y-94421739D01*
X129714111Y-94538795D01*
X129663011Y-94675795D01*
X129663011Y-94675797D01*
X129656500Y-94736345D01*
X129656500Y-94876000D01*
X129636815Y-94943039D01*
X129584011Y-94988794D01*
X129532500Y-95000000D01*
X129527500Y-95000000D01*
X129460461Y-94980315D01*
X129414706Y-94927511D01*
X129403500Y-94876000D01*
X129403500Y-94736362D01*
X129403499Y-94736345D01*
X129400157Y-94705270D01*
X129396989Y-94675799D01*
X129396986Y-94675792D01*
X129356830Y-94568130D01*
X129345889Y-94538796D01*
X129258261Y-94421739D01*
X129141204Y-94334111D01*
X129134810Y-94331726D01*
X129004204Y-94283011D01*
X128996659Y-94281229D01*
X128996950Y-94279995D01*
X128939686Y-94256271D01*
X128899843Y-94198876D01*
X128893500Y-94159726D01*
X128893500Y-79277356D01*
X128913185Y-79210317D01*
X128925346Y-79194388D01*
X128999040Y-79112544D01*
X129094527Y-78947156D01*
X129153542Y-78765528D01*
X129173504Y-78575600D01*
X129153542Y-78385672D01*
X129094527Y-78204044D01*
X128999040Y-78038656D01*
X128871253Y-77896734D01*
X128716752Y-77784482D01*
X128542288Y-77706806D01*
X128542286Y-77706805D01*
X128355487Y-77667100D01*
X128164513Y-77667100D01*
X127977714Y-77706805D01*
X127977712Y-77706806D01*
X127819939Y-77777051D01*
X127803246Y-77784483D01*
X127648745Y-77896735D01*
X127520959Y-78038657D01*
X127425473Y-78204043D01*
X127425470Y-78204050D01*
X127394903Y-78298127D01*
X127366458Y-78385672D01*
X127346496Y-78575600D01*
X127366458Y-78765528D01*
X127366459Y-78765531D01*
X127425470Y-78947149D01*
X127425473Y-78947156D01*
X127519779Y-79110500D01*
X127520960Y-79112544D01*
X127594649Y-79194384D01*
X127624880Y-79257375D01*
X127626500Y-79277356D01*
X127626500Y-94159726D01*
X127606815Y-94226765D01*
X127554011Y-94272520D01*
X127523275Y-94280953D01*
X127523341Y-94281229D01*
X127515795Y-94283011D01*
X127378795Y-94334111D01*
X127261739Y-94421739D01*
X127174111Y-94538795D01*
X127123011Y-94675795D01*
X127123011Y-94675797D01*
X127116500Y-94736345D01*
X127116500Y-94876000D01*
X127096815Y-94943039D01*
X127044011Y-94988794D01*
X126992500Y-95000000D01*
X126987500Y-95000000D01*
X126920461Y-94980315D01*
X126874706Y-94927511D01*
X126863500Y-94876000D01*
X126863500Y-94736362D01*
X126863499Y-94736345D01*
X126860157Y-94705270D01*
X126856989Y-94675799D01*
X126856986Y-94675792D01*
X126816830Y-94568130D01*
X126805889Y-94538796D01*
X126718261Y-94421739D01*
X126601204Y-94334111D01*
X126594810Y-94331726D01*
X126464204Y-94283011D01*
X126456659Y-94281229D01*
X126456950Y-94279995D01*
X126399686Y-94256271D01*
X126359843Y-94198876D01*
X126353500Y-94159726D01*
X126353500Y-73735056D01*
X126373185Y-73668017D01*
X126385346Y-73652088D01*
X126459040Y-73570244D01*
X126554527Y-73404856D01*
X126613542Y-73223228D01*
X126633504Y-73033300D01*
X126613542Y-72843372D01*
X126554527Y-72661744D01*
X126459040Y-72496356D01*
X126331253Y-72354434D01*
X126176752Y-72242182D01*
X126002288Y-72164506D01*
X126002286Y-72164505D01*
X125815487Y-72124800D01*
X125624513Y-72124800D01*
X125455281Y-72160771D01*
X125385614Y-72155455D01*
X125329880Y-72113318D01*
X125305775Y-72047738D01*
X125305500Y-72039481D01*
X125305500Y-70990556D01*
X125325185Y-70923517D01*
X125337346Y-70907588D01*
X125411040Y-70825744D01*
X125506527Y-70660356D01*
X125565542Y-70478728D01*
X125585504Y-70288800D01*
X125568136Y-70123558D01*
X125580705Y-70054832D01*
X125628437Y-70003808D01*
X125691457Y-69986600D01*
X136276095Y-69986600D01*
X136276096Y-69986599D01*
X136398485Y-69962255D01*
X136513775Y-69914500D01*
X136617533Y-69845171D01*
X137707885Y-68754819D01*
X137769208Y-68721334D01*
X137795566Y-68718500D01*
X137852287Y-68718500D01*
X138039088Y-68678794D01*
X138213552Y-68601118D01*
X138368053Y-68488866D01*
X138495840Y-68346944D01*
X138591327Y-68181556D01*
X138650342Y-67999928D01*
X138652980Y-67974828D01*
X138679564Y-67910217D01*
X138736861Y-67870232D01*
X138806680Y-67867572D01*
X138866854Y-67903081D01*
G37*
G04 #@! TD.AperFunction*
G04 #@! TA.AperFunction,Conductor*
G36*
X155775180Y-64553836D02*
G01*
X155831113Y-64595708D01*
X155844228Y-64617614D01*
X155862477Y-64656749D01*
X155979833Y-64824351D01*
X156002160Y-64890555D01*
X155985150Y-64958323D01*
X155965939Y-64983154D01*
X154472298Y-66476798D01*
X154268067Y-66681029D01*
X154223947Y-66725149D01*
X154179827Y-66769268D01*
X154110503Y-66873018D01*
X154110498Y-66873027D01*
X154062745Y-66988314D01*
X154062743Y-66988322D01*
X154038400Y-67110701D01*
X154038400Y-81253941D01*
X154018715Y-81320980D01*
X154006550Y-81336913D01*
X153932863Y-81418750D01*
X153932858Y-81418757D01*
X153837373Y-81584143D01*
X153837370Y-81584150D01*
X153786820Y-81739728D01*
X153778358Y-81765772D01*
X153758396Y-81955700D01*
X153778358Y-82145628D01*
X153778359Y-82145631D01*
X153837370Y-82327249D01*
X153837373Y-82327256D01*
X153932860Y-82492644D01*
X154060647Y-82634566D01*
X154215148Y-82746818D01*
X154389612Y-82824494D01*
X154576413Y-82864200D01*
X154767387Y-82864200D01*
X154954188Y-82824494D01*
X155128652Y-82746818D01*
X155283153Y-82634566D01*
X155410940Y-82492644D01*
X155506427Y-82327256D01*
X155565442Y-82145628D01*
X155585404Y-81955700D01*
X155565442Y-81765772D01*
X155506427Y-81584144D01*
X155446533Y-81480405D01*
X155410941Y-81418757D01*
X155410936Y-81418750D01*
X155337250Y-81336913D01*
X155307020Y-81273921D01*
X155305400Y-81253941D01*
X155305400Y-67486865D01*
X155325085Y-67419826D01*
X155341715Y-67399188D01*
X155636024Y-67104878D01*
X155697347Y-67071394D01*
X155767039Y-67076378D01*
X155822972Y-67118250D01*
X155836087Y-67140155D01*
X155862476Y-67196748D01*
X155862477Y-67196749D01*
X155993802Y-67384300D01*
X156155700Y-67546198D01*
X156304300Y-67650249D01*
X156343251Y-67677523D01*
X156386345Y-67697618D01*
X156438784Y-67743791D01*
X156457936Y-67810984D01*
X156437720Y-67877865D01*
X156386345Y-67922382D01*
X156343251Y-67942476D01*
X156261198Y-67999931D01*
X156155700Y-68073802D01*
X156155698Y-68073803D01*
X156155695Y-68073806D01*
X155993806Y-68235695D01*
X155993803Y-68235698D01*
X155993802Y-68235700D01*
X155915909Y-68346942D01*
X155862476Y-68423252D01*
X155862475Y-68423254D01*
X155765718Y-68630750D01*
X155765714Y-68630761D01*
X155706457Y-68851910D01*
X155706456Y-68851918D01*
X155686502Y-69079998D01*
X155686502Y-69080001D01*
X155706456Y-69308081D01*
X155706457Y-69308089D01*
X155765714Y-69529238D01*
X155765718Y-69529249D01*
X155862475Y-69736745D01*
X155862477Y-69736749D01*
X155993802Y-69924300D01*
X156155700Y-70086198D01*
X156343251Y-70217523D01*
X156386345Y-70237618D01*
X156438784Y-70283791D01*
X156457936Y-70350984D01*
X156437720Y-70417865D01*
X156386345Y-70462382D01*
X156343251Y-70482476D01*
X156218126Y-70570090D01*
X156155700Y-70613802D01*
X156155698Y-70613803D01*
X156155695Y-70613806D01*
X155993806Y-70775695D01*
X155993803Y-70775698D01*
X155993802Y-70775700D01*
X155958761Y-70825744D01*
X155862476Y-70963252D01*
X155862475Y-70963254D01*
X155765718Y-71170750D01*
X155765714Y-71170761D01*
X155706457Y-71391910D01*
X155706456Y-71391918D01*
X155686502Y-71619998D01*
X155686502Y-71620001D01*
X155706456Y-71848081D01*
X155706457Y-71848089D01*
X155765714Y-72069238D01*
X155765718Y-72069249D01*
X155862475Y-72276745D01*
X155862477Y-72276749D01*
X155993802Y-72464300D01*
X156155700Y-72626198D01*
X156343244Y-72757518D01*
X156343251Y-72757523D01*
X156386345Y-72777618D01*
X156438784Y-72823791D01*
X156457936Y-72890984D01*
X156437720Y-72957865D01*
X156386345Y-73002382D01*
X156343251Y-73022476D01*
X156293514Y-73057303D01*
X156155700Y-73153802D01*
X156155698Y-73153803D01*
X156155695Y-73153806D01*
X155993806Y-73315695D01*
X155862476Y-73503252D01*
X155862475Y-73503254D01*
X155765718Y-73710750D01*
X155765714Y-73710761D01*
X155706457Y-73931910D01*
X155706456Y-73931918D01*
X155686502Y-74159998D01*
X155686502Y-74160001D01*
X155706456Y-74388081D01*
X155706457Y-74388089D01*
X155765714Y-74609238D01*
X155765718Y-74609249D01*
X155833447Y-74754494D01*
X155862477Y-74816749D01*
X155993802Y-75004300D01*
X156155700Y-75166198D01*
X156343251Y-75297523D01*
X156386345Y-75317618D01*
X156438784Y-75363791D01*
X156457936Y-75430984D01*
X156437720Y-75497865D01*
X156386345Y-75542382D01*
X156343251Y-75562476D01*
X156218126Y-75650090D01*
X156155700Y-75693802D01*
X156155698Y-75693803D01*
X156155695Y-75693806D01*
X155993806Y-75855695D01*
X155862476Y-76043252D01*
X155862475Y-76043254D01*
X155765718Y-76250750D01*
X155765714Y-76250761D01*
X155706457Y-76471910D01*
X155706456Y-76471918D01*
X155686502Y-76699998D01*
X155686502Y-76700000D01*
X155706456Y-76928081D01*
X155706457Y-76928089D01*
X155765714Y-77149238D01*
X155765718Y-77149249D01*
X155857178Y-77345385D01*
X155862477Y-77356749D01*
X155993802Y-77544300D01*
X156155700Y-77706198D01*
X156343251Y-77837523D01*
X156437732Y-77881580D01*
X156550750Y-77934281D01*
X156550752Y-77934281D01*
X156550757Y-77934284D01*
X156771913Y-77993543D01*
X156934832Y-78007796D01*
X156999998Y-78013498D01*
X157000000Y-78013498D01*
X157000002Y-78013498D01*
X157060465Y-78008208D01*
X157228087Y-77993543D01*
X157449243Y-77934284D01*
X157656749Y-77837523D01*
X157844300Y-77706198D01*
X158006198Y-77544300D01*
X158137523Y-77356749D01*
X158234284Y-77149243D01*
X158293543Y-76928087D01*
X158313498Y-76700000D01*
X158293543Y-76471913D01*
X158234284Y-76250757D01*
X158137523Y-76043251D01*
X158006198Y-75855700D01*
X157844300Y-75693802D01*
X157656749Y-75562477D01*
X157645803Y-75557373D01*
X157613655Y-75542382D01*
X157561215Y-75496210D01*
X157542063Y-75429017D01*
X157562278Y-75362136D01*
X157613655Y-75317618D01*
X157616882Y-75316112D01*
X157656749Y-75297523D01*
X157844300Y-75166198D01*
X158006198Y-75004300D01*
X158137523Y-74816749D01*
X158234284Y-74609243D01*
X158293543Y-74388087D01*
X158313498Y-74160000D01*
X158293543Y-73931913D01*
X158234284Y-73710757D01*
X158234281Y-73710750D01*
X158233748Y-73708759D01*
X158235411Y-73638909D01*
X158274573Y-73581046D01*
X158338801Y-73553542D01*
X158407704Y-73565128D01*
X158445673Y-73593693D01*
X158486386Y-73638909D01*
X158552347Y-73712166D01*
X158706848Y-73824418D01*
X158881312Y-73902094D01*
X159068113Y-73941800D01*
X159132900Y-73941800D01*
X159199939Y-73961485D01*
X159245694Y-74014289D01*
X159256900Y-74065800D01*
X159256900Y-74754498D01*
X159281243Y-74876877D01*
X159281245Y-74876885D01*
X159328998Y-74992172D01*
X159329003Y-74992181D01*
X159398328Y-75095932D01*
X159398331Y-75095936D01*
X159824978Y-75522583D01*
X159858463Y-75583906D01*
X159860618Y-75597302D01*
X159867298Y-75660849D01*
X159878058Y-75763228D01*
X159878059Y-75763231D01*
X159937070Y-75944849D01*
X159937073Y-75944856D01*
X160032560Y-76110244D01*
X160160347Y-76252166D01*
X160314848Y-76364418D01*
X160397235Y-76401098D01*
X160450472Y-76446349D01*
X160463926Y-76490610D01*
X160472531Y-76500000D01*
X161413589Y-76500000D01*
X161387259Y-76545606D01*
X161360000Y-76647339D01*
X161360000Y-76752661D01*
X161387259Y-76854394D01*
X161413590Y-76900000D01*
X160472531Y-76900000D01*
X160474858Y-76926601D01*
X160474859Y-76926608D01*
X160533731Y-77146320D01*
X160533734Y-77146326D01*
X160629865Y-77352482D01*
X160760342Y-77538820D01*
X160921179Y-77699657D01*
X161107517Y-77830134D01*
X161313673Y-77926265D01*
X161313682Y-77926269D01*
X161533396Y-77985141D01*
X161559999Y-77987467D01*
X161560000Y-77987467D01*
X161560000Y-77046410D01*
X161605606Y-77072741D01*
X161707339Y-77100000D01*
X161812661Y-77100000D01*
X161914394Y-77072741D01*
X161960000Y-77046410D01*
X161960000Y-78008208D01*
X161968063Y-78021556D01*
X161966122Y-78091399D01*
X161935842Y-78140853D01*
X161882331Y-78194363D01*
X161882328Y-78194367D01*
X161813003Y-78298118D01*
X161812998Y-78298127D01*
X161765245Y-78413414D01*
X161765243Y-78413422D01*
X161740900Y-78535801D01*
X161740900Y-86917141D01*
X161721215Y-86984180D01*
X161709050Y-87000113D01*
X161635363Y-87081950D01*
X161635358Y-87081957D01*
X161539873Y-87247343D01*
X161539870Y-87247350D01*
X161495139Y-87385020D01*
X161480858Y-87428972D01*
X161460896Y-87618900D01*
X161480858Y-87808828D01*
X161480859Y-87808831D01*
X161539870Y-87990449D01*
X161539873Y-87990456D01*
X161635360Y-88155844D01*
X161763147Y-88297766D01*
X161917648Y-88410018D01*
X162092112Y-88487694D01*
X162278913Y-88527400D01*
X162343600Y-88527400D01*
X162410639Y-88547085D01*
X162456394Y-88599889D01*
X162467600Y-88651400D01*
X162467600Y-88985033D01*
X162447915Y-89052072D01*
X162431281Y-89072714D01*
X160874615Y-90629381D01*
X160813292Y-90662866D01*
X160786934Y-90665700D01*
X160730213Y-90665700D01*
X160543414Y-90705405D01*
X160368946Y-90783083D01*
X160214445Y-90895335D01*
X160086659Y-91037257D01*
X159991173Y-91202643D01*
X159991170Y-91202650D01*
X159932159Y-91384268D01*
X159932158Y-91384272D01*
X159912196Y-91574200D01*
X159932158Y-91764128D01*
X159932159Y-91764131D01*
X159991170Y-91945749D01*
X159991173Y-91945756D01*
X160086660Y-92111144D01*
X160214447Y-92253066D01*
X160368948Y-92365318D01*
X160543412Y-92442994D01*
X160730213Y-92482700D01*
X160921187Y-92482700D01*
X161107988Y-92442994D01*
X161282452Y-92365318D01*
X161436953Y-92253066D01*
X161564740Y-92111144D01*
X161570684Y-92100847D01*
X161621247Y-92052633D01*
X161689854Y-92039407D01*
X161754720Y-92065372D01*
X161795250Y-92122285D01*
X161801393Y-92149883D01*
X161806758Y-92200928D01*
X161806759Y-92200931D01*
X161865770Y-92382549D01*
X161865773Y-92382556D01*
X161961260Y-92547944D01*
X162089047Y-92689866D01*
X162243548Y-92802118D01*
X162418012Y-92879794D01*
X162604813Y-92919500D01*
X162611280Y-92920180D01*
X162611035Y-92922502D01*
X162667849Y-92939185D01*
X162713604Y-92991989D01*
X162723548Y-93061147D01*
X162694523Y-93124703D01*
X162673692Y-93143820D01*
X162672847Y-93144433D01*
X162672846Y-93144434D01*
X162545059Y-93286357D01*
X162449573Y-93451743D01*
X162449570Y-93451750D01*
X162391366Y-93630884D01*
X162390558Y-93633372D01*
X162370596Y-93823300D01*
X162390558Y-94013228D01*
X162390559Y-94013231D01*
X162449570Y-94194849D01*
X162449573Y-94194856D01*
X162545060Y-94360244D01*
X162600429Y-94421738D01*
X162675522Y-94505138D01*
X162705752Y-94568130D01*
X162699554Y-94631443D01*
X162683011Y-94675796D01*
X162683011Y-94675797D01*
X162676500Y-94736345D01*
X162676500Y-94876000D01*
X162656815Y-94943039D01*
X162604011Y-94988794D01*
X162552500Y-95000000D01*
X162547500Y-95000000D01*
X162480461Y-94980315D01*
X162434706Y-94927511D01*
X162423500Y-94876000D01*
X162423500Y-94736362D01*
X162423499Y-94736345D01*
X162420157Y-94705270D01*
X162416989Y-94675799D01*
X162416986Y-94675792D01*
X162376830Y-94568130D01*
X162365889Y-94538796D01*
X162278261Y-94421739D01*
X162161204Y-94334111D01*
X162154810Y-94331726D01*
X162024203Y-94283011D01*
X161963654Y-94276500D01*
X161963638Y-94276500D01*
X160596362Y-94276500D01*
X160596345Y-94276500D01*
X160535797Y-94283011D01*
X160535795Y-94283011D01*
X160398795Y-94334111D01*
X160281739Y-94421739D01*
X160194111Y-94538795D01*
X160143011Y-94675795D01*
X160143011Y-94675797D01*
X160136500Y-94736345D01*
X160136500Y-94876000D01*
X160116815Y-94943039D01*
X160064011Y-94988794D01*
X160012500Y-95000000D01*
X160007500Y-95000000D01*
X159940461Y-94980315D01*
X159894706Y-94927511D01*
X159883500Y-94876000D01*
X159883500Y-94736362D01*
X159883499Y-94736345D01*
X159880157Y-94705270D01*
X159876989Y-94675799D01*
X159876986Y-94675792D01*
X159836830Y-94568130D01*
X159825889Y-94538796D01*
X159738261Y-94421739D01*
X159621204Y-94334111D01*
X159614810Y-94331726D01*
X159484203Y-94283011D01*
X159423654Y-94276500D01*
X159423638Y-94276500D01*
X158056362Y-94276500D01*
X158056345Y-94276500D01*
X157995797Y-94283011D01*
X157995795Y-94283011D01*
X157858795Y-94334111D01*
X157741739Y-94421739D01*
X157654111Y-94538795D01*
X157603011Y-94675795D01*
X157603011Y-94675797D01*
X157596500Y-94736345D01*
X157596500Y-94876000D01*
X157576815Y-94943039D01*
X157524011Y-94988794D01*
X157472500Y-95000000D01*
X157467500Y-95000000D01*
X157400461Y-94980315D01*
X157354706Y-94927511D01*
X157343500Y-94876000D01*
X157343500Y-94736362D01*
X157343499Y-94736345D01*
X157340157Y-94705270D01*
X157336989Y-94675799D01*
X157336986Y-94675792D01*
X157296830Y-94568130D01*
X157285889Y-94538796D01*
X157198261Y-94421739D01*
X157081204Y-94334111D01*
X157074810Y-94331726D01*
X156944203Y-94283011D01*
X156883654Y-94276500D01*
X156883638Y-94276500D01*
X155516362Y-94276500D01*
X155516345Y-94276500D01*
X155455797Y-94283011D01*
X155455795Y-94283011D01*
X155318795Y-94334111D01*
X155201739Y-94421739D01*
X155114111Y-94538795D01*
X155063011Y-94675795D01*
X155063011Y-94675797D01*
X155056500Y-94736345D01*
X155056500Y-94876000D01*
X155036815Y-94943039D01*
X154984011Y-94988794D01*
X154932500Y-95000000D01*
X154927500Y-95000000D01*
X154860461Y-94980315D01*
X154814706Y-94927511D01*
X154803500Y-94876000D01*
X154803500Y-94736362D01*
X154803499Y-94736345D01*
X154800157Y-94705270D01*
X154796989Y-94675799D01*
X154796986Y-94675792D01*
X154756830Y-94568130D01*
X154745889Y-94538796D01*
X154658261Y-94421739D01*
X154541204Y-94334111D01*
X154534810Y-94331726D01*
X154404203Y-94283011D01*
X154343654Y-94276500D01*
X154343638Y-94276500D01*
X152976362Y-94276500D01*
X152976345Y-94276500D01*
X152915797Y-94283011D01*
X152915795Y-94283011D01*
X152778795Y-94334111D01*
X152661739Y-94421739D01*
X152574111Y-94538795D01*
X152523011Y-94675795D01*
X152523011Y-94675797D01*
X152516500Y-94736345D01*
X152516500Y-94876000D01*
X152496815Y-94943039D01*
X152444011Y-94988794D01*
X152392500Y-95000000D01*
X152387500Y-95000000D01*
X152320461Y-94980315D01*
X152274706Y-94927511D01*
X152263500Y-94876000D01*
X152263500Y-94736362D01*
X152263499Y-94736345D01*
X152260157Y-94705270D01*
X152256989Y-94675799D01*
X152256986Y-94675792D01*
X152216830Y-94568130D01*
X152205889Y-94538796D01*
X152118261Y-94421739D01*
X152001204Y-94334111D01*
X151994810Y-94331726D01*
X151864203Y-94283011D01*
X151803654Y-94276500D01*
X151803638Y-94276500D01*
X150436362Y-94276500D01*
X150436345Y-94276500D01*
X150375797Y-94283011D01*
X150375795Y-94283011D01*
X150238795Y-94334111D01*
X150121739Y-94421739D01*
X150034111Y-94538795D01*
X149983011Y-94675795D01*
X149983011Y-94675797D01*
X149976500Y-94736345D01*
X149976500Y-94876000D01*
X149956815Y-94943039D01*
X149904011Y-94988794D01*
X149852500Y-95000000D01*
X149847500Y-95000000D01*
X149780461Y-94980315D01*
X149734706Y-94927511D01*
X149723500Y-94876000D01*
X149723500Y-94736362D01*
X149723499Y-94736345D01*
X149720157Y-94705270D01*
X149716989Y-94675799D01*
X149716986Y-94675792D01*
X149676830Y-94568130D01*
X149665889Y-94538796D01*
X149578261Y-94421739D01*
X149461204Y-94334111D01*
X149454810Y-94331726D01*
X149324203Y-94283011D01*
X149263654Y-94276500D01*
X149263638Y-94276500D01*
X147896362Y-94276500D01*
X147896345Y-94276500D01*
X147835797Y-94283011D01*
X147835795Y-94283011D01*
X147698795Y-94334111D01*
X147581739Y-94421739D01*
X147494111Y-94538795D01*
X147443011Y-94675795D01*
X147443011Y-94675797D01*
X147436500Y-94736345D01*
X147436500Y-94876000D01*
X147416815Y-94943039D01*
X147364011Y-94988794D01*
X147312500Y-95000000D01*
X147307500Y-95000000D01*
X147240461Y-94980315D01*
X147194706Y-94927511D01*
X147183500Y-94876000D01*
X147183500Y-94736362D01*
X147183499Y-94736345D01*
X147180157Y-94705270D01*
X147176989Y-94675799D01*
X147176986Y-94675792D01*
X147136830Y-94568130D01*
X147125889Y-94538796D01*
X147038261Y-94421739D01*
X146921204Y-94334111D01*
X146914810Y-94331726D01*
X146784203Y-94283011D01*
X146723654Y-94276500D01*
X146723638Y-94276500D01*
X145356362Y-94276500D01*
X145356345Y-94276500D01*
X145295797Y-94283011D01*
X145295795Y-94283011D01*
X145158795Y-94334111D01*
X145041739Y-94421739D01*
X144954111Y-94538795D01*
X144903011Y-94675795D01*
X144903011Y-94675797D01*
X144896500Y-94736345D01*
X144896500Y-94876000D01*
X144876815Y-94943039D01*
X144824011Y-94988794D01*
X144772500Y-95000000D01*
X144767500Y-95000000D01*
X144700461Y-94980315D01*
X144654706Y-94927511D01*
X144643500Y-94876000D01*
X144643500Y-94736362D01*
X144643499Y-94736345D01*
X144640157Y-94705270D01*
X144636989Y-94675799D01*
X144636986Y-94675792D01*
X144596830Y-94568130D01*
X144585889Y-94538796D01*
X144498261Y-94421739D01*
X144381204Y-94334111D01*
X144374810Y-94331726D01*
X144244204Y-94283011D01*
X144236659Y-94281229D01*
X144236950Y-94279995D01*
X144179686Y-94256271D01*
X144139843Y-94198876D01*
X144133500Y-94159726D01*
X144133500Y-92642266D01*
X144153185Y-92575227D01*
X144169819Y-92554585D01*
X145549885Y-91174519D01*
X145611208Y-91141034D01*
X145637566Y-91138200D01*
X145694287Y-91138200D01*
X145881088Y-91098494D01*
X146055552Y-91020818D01*
X146210053Y-90908566D01*
X146337840Y-90766644D01*
X146433327Y-90601256D01*
X146492342Y-90419628D01*
X146512304Y-90229700D01*
X146492342Y-90039772D01*
X146433327Y-89858144D01*
X146337840Y-89692756D01*
X146210053Y-89550834D01*
X146055552Y-89438582D01*
X145881088Y-89360906D01*
X145881086Y-89360905D01*
X145694286Y-89321199D01*
X145688524Y-89320594D01*
X145623911Y-89294007D01*
X145583928Y-89236708D01*
X145581271Y-89166889D01*
X145613808Y-89109595D01*
X145843371Y-88880033D01*
X145912700Y-88776275D01*
X145960455Y-88660985D01*
X145984800Y-88538594D01*
X145984800Y-88413806D01*
X145984800Y-74293065D01*
X146004485Y-74226026D01*
X146021114Y-74205389D01*
X155644167Y-64582335D01*
X155705488Y-64548852D01*
X155775180Y-64553836D01*
G37*
G04 #@! TD.AperFunction*
G04 #@! TA.AperFunction,Conductor*
G36*
X124371453Y-61745985D02*
G01*
X124417208Y-61798789D01*
X124427734Y-61837335D01*
X124446158Y-62012628D01*
X124446159Y-62012631D01*
X124505170Y-62194249D01*
X124505173Y-62194256D01*
X124600660Y-62359644D01*
X124728447Y-62501566D01*
X124882948Y-62613818D01*
X125057412Y-62691494D01*
X125244213Y-62731200D01*
X125435187Y-62731200D01*
X125621988Y-62691494D01*
X125796452Y-62613818D01*
X125950953Y-62501566D01*
X125954860Y-62497227D01*
X126014346Y-62460579D01*
X126047009Y-62456200D01*
X128503134Y-62456200D01*
X128570173Y-62475885D01*
X128615928Y-62528689D01*
X128625872Y-62597847D01*
X128596847Y-62661403D01*
X128590815Y-62667881D01*
X125838215Y-65420481D01*
X125776892Y-65453966D01*
X125750534Y-65456800D01*
X125294501Y-65456800D01*
X125172122Y-65481143D01*
X125172114Y-65481145D01*
X125056827Y-65528898D01*
X125056818Y-65528903D01*
X124953067Y-65598228D01*
X124953063Y-65598231D01*
X116280581Y-74270714D01*
X116219258Y-74304199D01*
X116149566Y-74299215D01*
X116093633Y-74257343D01*
X116069216Y-74191879D01*
X116068900Y-74183033D01*
X116068900Y-62235466D01*
X116088585Y-62168427D01*
X116105219Y-62147785D01*
X116490386Y-61762619D01*
X116551709Y-61729134D01*
X116578067Y-61726300D01*
X124304414Y-61726300D01*
X124371453Y-61745985D01*
G37*
G04 #@! TD.AperFunction*
G04 #@! TA.AperFunction,Conductor*
G36*
X155767039Y-61996377D02*
G01*
X155822972Y-62038249D01*
X155836086Y-62060154D01*
X155862477Y-62116749D01*
X155990378Y-62299410D01*
X156012704Y-62365613D01*
X155995694Y-62433381D01*
X155976483Y-62458212D01*
X145640281Y-72794415D01*
X145578958Y-72827900D01*
X145509266Y-72822916D01*
X145453333Y-72781044D01*
X145428916Y-72715580D01*
X145428600Y-72706734D01*
X145428600Y-72283665D01*
X145448285Y-72216626D01*
X145464914Y-72195989D01*
X155636026Y-62024876D01*
X155697347Y-61991393D01*
X155767039Y-61996377D01*
G37*
G04 #@! TD.AperFunction*
G04 #@! TA.AperFunction,Conductor*
G36*
X155767039Y-59456377D02*
G01*
X155822972Y-59498249D01*
X155836087Y-59520155D01*
X155854145Y-59558882D01*
X155862477Y-59576749D01*
X155979835Y-59744353D01*
X156002161Y-59810556D01*
X155985151Y-59878324D01*
X155965940Y-59903155D01*
X145188581Y-70680515D01*
X145127258Y-70714000D01*
X145057566Y-70709016D01*
X145001633Y-70667144D01*
X144977216Y-70601680D01*
X144976900Y-70592834D01*
X144976900Y-70195365D01*
X144996585Y-70128326D01*
X145013214Y-70107689D01*
X155636026Y-59484876D01*
X155697347Y-59451393D01*
X155767039Y-59456377D01*
G37*
G04 #@! TD.AperFunction*
G04 #@! TA.AperFunction,Conductor*
G36*
X140527039Y-39136377D02*
G01*
X140582972Y-39178249D01*
X140596086Y-39200154D01*
X140622477Y-39256749D01*
X140753802Y-39444300D01*
X140915700Y-39606198D01*
X141077564Y-39719537D01*
X141121188Y-39774112D01*
X141128056Y-39796919D01*
X141146939Y-39891852D01*
X141140712Y-39961444D01*
X141097848Y-40016621D01*
X141096446Y-40017617D01*
X140921183Y-40140338D01*
X140760342Y-40301179D01*
X140629865Y-40487517D01*
X140533734Y-40693673D01*
X140533731Y-40693679D01*
X140474861Y-40913388D01*
X140474858Y-40913398D01*
X140472531Y-40940000D01*
X141413589Y-40940000D01*
X141387259Y-40985606D01*
X141360000Y-41087339D01*
X141360000Y-41192661D01*
X141387259Y-41294394D01*
X141413590Y-41340000D01*
X140472531Y-41340000D01*
X140474858Y-41366601D01*
X140474859Y-41366608D01*
X140533731Y-41586320D01*
X140533734Y-41586326D01*
X140629865Y-41792482D01*
X140760342Y-41978820D01*
X140921179Y-42139657D01*
X141107517Y-42270134D01*
X141166457Y-42297618D01*
X141218896Y-42343790D01*
X141238048Y-42410984D01*
X141217832Y-42477865D01*
X141166457Y-42522382D01*
X141107517Y-42549865D01*
X140921179Y-42680342D01*
X140760342Y-42841179D01*
X140629865Y-43027517D01*
X140533734Y-43233673D01*
X140533731Y-43233679D01*
X140474859Y-43453391D01*
X140474858Y-43453398D01*
X140472531Y-43480000D01*
X141413589Y-43480000D01*
X141387259Y-43525606D01*
X141360000Y-43627339D01*
X141360000Y-43732661D01*
X141387259Y-43834394D01*
X141413590Y-43880000D01*
X140472531Y-43880000D01*
X140474858Y-43906601D01*
X140474859Y-43906608D01*
X140533731Y-44126320D01*
X140533734Y-44126326D01*
X140629865Y-44332482D01*
X140760342Y-44518820D01*
X140921179Y-44679657D01*
X141107517Y-44810133D01*
X141156399Y-44832927D01*
X141208839Y-44879099D01*
X141227992Y-44946292D01*
X141207777Y-45013174D01*
X141156402Y-45057691D01*
X141103256Y-45082474D01*
X141103252Y-45082476D01*
X141094636Y-45088509D01*
X140915700Y-45213802D01*
X140915698Y-45213803D01*
X140915695Y-45213806D01*
X140753806Y-45375695D01*
X140622476Y-45563252D01*
X140622475Y-45563254D01*
X140525718Y-45770750D01*
X140525714Y-45770761D01*
X140466457Y-45991910D01*
X140466456Y-45991918D01*
X140446502Y-46219998D01*
X140446502Y-46220001D01*
X140466456Y-46448081D01*
X140466457Y-46448089D01*
X140525714Y-46669238D01*
X140525718Y-46669249D01*
X140596088Y-46820157D01*
X140622477Y-46876749D01*
X140753802Y-47064300D01*
X140915700Y-47226198D01*
X141077564Y-47339537D01*
X141121188Y-47394112D01*
X141128057Y-47416920D01*
X141145128Y-47502745D01*
X141138899Y-47572336D01*
X141096036Y-47627513D01*
X141094634Y-47628509D01*
X140915699Y-47753802D01*
X140753806Y-47915695D01*
X140753803Y-47915698D01*
X140753802Y-47915700D01*
X140723020Y-47959661D01*
X140622476Y-48103252D01*
X140622475Y-48103254D01*
X140525718Y-48310750D01*
X140525714Y-48310761D01*
X140466457Y-48531910D01*
X140466456Y-48531918D01*
X140446502Y-48759998D01*
X140446502Y-48760001D01*
X140466456Y-48988081D01*
X140466457Y-48988089D01*
X140525714Y-49209238D01*
X140525718Y-49209249D01*
X140596088Y-49360157D01*
X140622477Y-49416749D01*
X140740657Y-49585528D01*
X140762985Y-49651732D01*
X140745975Y-49719499D01*
X140726764Y-49744331D01*
X138943015Y-51528081D01*
X137352967Y-53118129D01*
X137327017Y-53144079D01*
X137264727Y-53206368D01*
X137195403Y-53310118D01*
X137195398Y-53310127D01*
X137147645Y-53425414D01*
X137147643Y-53425422D01*
X137123300Y-53547801D01*
X137123300Y-67108241D01*
X137103615Y-67175280D01*
X137091450Y-67191213D01*
X137017763Y-67273050D01*
X137017758Y-67273057D01*
X136922273Y-67438443D01*
X136922270Y-67438450D01*
X136867142Y-67608118D01*
X136863258Y-67620072D01*
X136851660Y-67730424D01*
X136845819Y-67785996D01*
X136819234Y-67850610D01*
X136810179Y-67860715D01*
X135987615Y-68683281D01*
X135926292Y-68716766D01*
X135899934Y-68719600D01*
X124950467Y-68719600D01*
X124883428Y-68699915D01*
X124837673Y-68647111D01*
X124827729Y-68577953D01*
X124856754Y-68514397D01*
X124862786Y-68507919D01*
X125608886Y-67761819D01*
X125670209Y-67728334D01*
X125696567Y-67725500D01*
X125753287Y-67725500D01*
X125940088Y-67685794D01*
X126114552Y-67608118D01*
X126269053Y-67495866D01*
X126396840Y-67353944D01*
X126492327Y-67188556D01*
X126551342Y-67006928D01*
X126571304Y-66817000D01*
X126551342Y-66627072D01*
X126543454Y-66602798D01*
X126541458Y-66532958D01*
X126573702Y-66476800D01*
X135174872Y-57875633D01*
X135244201Y-57771875D01*
X135284931Y-57673543D01*
X135291955Y-57656585D01*
X135316300Y-57534194D01*
X135316300Y-54844656D01*
X135335985Y-54777617D01*
X135348146Y-54761688D01*
X135421840Y-54679844D01*
X135517327Y-54514456D01*
X135576342Y-54332828D01*
X135596304Y-54142900D01*
X135576342Y-53952972D01*
X135517327Y-53771344D01*
X135421840Y-53605956D01*
X135294053Y-53464034D01*
X135139552Y-53351782D01*
X134965088Y-53274106D01*
X134965086Y-53274105D01*
X134778287Y-53234400D01*
X134587313Y-53234400D01*
X134400514Y-53274105D01*
X134226046Y-53351783D01*
X134071545Y-53464035D01*
X133943759Y-53605957D01*
X133848273Y-53771343D01*
X133848270Y-53771350D01*
X133789259Y-53952968D01*
X133789258Y-53952972D01*
X133769550Y-54140483D01*
X133769521Y-54140763D01*
X133768950Y-54142149D01*
X133769519Y-54145030D01*
X133789258Y-54332828D01*
X133789259Y-54332831D01*
X133848270Y-54514449D01*
X133848273Y-54514456D01*
X133930627Y-54657098D01*
X133943760Y-54679844D01*
X134017449Y-54761684D01*
X134047680Y-54824675D01*
X134049300Y-54844656D01*
X134049300Y-57158033D01*
X134029615Y-57225072D01*
X134012981Y-57245714D01*
X133733881Y-57524814D01*
X133672558Y-57558299D01*
X133602866Y-57553315D01*
X133546933Y-57511443D01*
X133522516Y-57445979D01*
X133522200Y-57437133D01*
X133522200Y-54157998D01*
X133524408Y-54150476D01*
X133524223Y-54150108D01*
X133522200Y-54127801D01*
X133522200Y-46090065D01*
X133541885Y-46023026D01*
X133558514Y-46002389D01*
X140396026Y-39164876D01*
X140457347Y-39131393D01*
X140527039Y-39136377D01*
G37*
G04 #@! TD.AperFunction*
G04 #@! TA.AperFunction,Conductor*
G36*
X110664003Y-38301453D02*
G01*
X110670481Y-38307485D01*
X110900037Y-38537041D01*
X110933522Y-38598364D01*
X110928538Y-38668056D01*
X110926240Y-38673087D01*
X110873011Y-38815795D01*
X110873011Y-38815797D01*
X110866500Y-38876345D01*
X110866500Y-40673654D01*
X110873011Y-40734202D01*
X110873011Y-40734204D01*
X110906850Y-40824927D01*
X110924111Y-40871204D01*
X111011739Y-40988261D01*
X111128796Y-41075889D01*
X111265799Y-41126989D01*
X111293050Y-41129918D01*
X111326345Y-41133499D01*
X111326362Y-41133500D01*
X111467500Y-41133500D01*
X111534539Y-41153185D01*
X111580294Y-41205989D01*
X111591500Y-41257500D01*
X111591500Y-48139698D01*
X111615843Y-48262077D01*
X111615845Y-48262085D01*
X111663598Y-48377372D01*
X111663603Y-48377381D01*
X111732928Y-48481132D01*
X111732931Y-48481136D01*
X116032669Y-52780873D01*
X116066154Y-52842196D01*
X116061170Y-52911888D01*
X116019298Y-52967821D01*
X115987882Y-52984112D01*
X115987949Y-52984263D01*
X115985431Y-52985383D01*
X115983314Y-52986482D01*
X115982021Y-52986901D01*
X115807546Y-53064583D01*
X115653045Y-53176835D01*
X115525259Y-53318757D01*
X115429773Y-53484143D01*
X115429770Y-53484150D01*
X115385168Y-53621422D01*
X115370758Y-53665772D01*
X115350796Y-53855700D01*
X115370758Y-54045628D01*
X115370759Y-54045631D01*
X115429770Y-54227249D01*
X115429773Y-54227256D01*
X115525259Y-54392643D01*
X115531810Y-54399919D01*
X115598949Y-54474484D01*
X115629180Y-54537475D01*
X115630800Y-54557456D01*
X115630800Y-57601105D01*
X115611115Y-57668144D01*
X115558311Y-57713899D01*
X115489153Y-57723843D01*
X115425597Y-57694818D01*
X115414650Y-57684077D01*
X115351854Y-57614335D01*
X115289586Y-57569094D01*
X115197352Y-57502082D01*
X115022888Y-57424406D01*
X115022886Y-57424405D01*
X114836087Y-57384700D01*
X114645113Y-57384700D01*
X114458314Y-57424405D01*
X114415626Y-57443411D01*
X114310426Y-57490249D01*
X114283846Y-57502083D01*
X114129345Y-57614335D01*
X114001559Y-57756257D01*
X113906073Y-57921643D01*
X113906071Y-57921647D01*
X113847080Y-58103202D01*
X113807642Y-58160877D01*
X113743283Y-58188075D01*
X113674437Y-58176160D01*
X113641468Y-58152564D01*
X110495119Y-55006215D01*
X110461634Y-54944892D01*
X110458800Y-54918534D01*
X110458800Y-38395166D01*
X110478485Y-38328127D01*
X110531289Y-38282372D01*
X110600447Y-38272428D01*
X110664003Y-38301453D01*
G37*
G04 #@! TD.AperFunction*
G04 #@! TA.AperFunction,Conductor*
G36*
X155767039Y-34056377D02*
G01*
X155822972Y-34098249D01*
X155836086Y-34120154D01*
X155862477Y-34176749D01*
X155979835Y-34344353D01*
X156002161Y-34410556D01*
X155985151Y-34478324D01*
X155965940Y-34503155D01*
X153212176Y-37256920D01*
X150469667Y-39999429D01*
X150442321Y-40026775D01*
X150381427Y-40087668D01*
X150312103Y-40191418D01*
X150312098Y-40191427D01*
X150264345Y-40306714D01*
X150264343Y-40306722D01*
X150240000Y-40429101D01*
X150240000Y-57029034D01*
X150220315Y-57096073D01*
X150167511Y-57141828D01*
X150098353Y-57151772D01*
X150034797Y-57122747D01*
X150028319Y-57116715D01*
X148898419Y-55986815D01*
X148864934Y-55925492D01*
X148862100Y-55899134D01*
X148862100Y-55802656D01*
X148881785Y-55735617D01*
X148893946Y-55719688D01*
X148967640Y-55637844D01*
X149063127Y-55472456D01*
X149122142Y-55290828D01*
X149142104Y-55100900D01*
X149122142Y-54910972D01*
X149063127Y-54729344D01*
X148967640Y-54563956D01*
X148839853Y-54422034D01*
X148685352Y-54309782D01*
X148510888Y-54232106D01*
X148510886Y-54232105D01*
X148324087Y-54192400D01*
X148133113Y-54192400D01*
X147946314Y-54232105D01*
X147771846Y-54309783D01*
X147740128Y-54332828D01*
X147655030Y-54394656D01*
X147647786Y-54399919D01*
X147581979Y-54423399D01*
X147513925Y-54407574D01*
X147465230Y-54357468D01*
X147450900Y-54299601D01*
X147450900Y-42321365D01*
X147470585Y-42254326D01*
X147487214Y-42233689D01*
X155636026Y-34084876D01*
X155697347Y-34051393D01*
X155767039Y-34056377D01*
G37*
G04 #@! TD.AperFunction*
G04 #@! TA.AperFunction,Conductor*
G36*
X120630757Y-35099410D02*
G01*
X120662617Y-35161592D01*
X120664800Y-35184755D01*
X120664800Y-38643998D01*
X120689143Y-38766377D01*
X120689145Y-38766385D01*
X120736898Y-38881672D01*
X120736903Y-38881681D01*
X120806228Y-38985432D01*
X120806231Y-38985436D01*
X121565571Y-39744775D01*
X121599056Y-39806098D01*
X121594072Y-39875789D01*
X121555402Y-39928472D01*
X121555536Y-39928618D01*
X121554795Y-39929300D01*
X121554056Y-39930307D01*
X121551760Y-39932093D01*
X121551756Y-39932097D01*
X121399284Y-40097723D01*
X121399276Y-40097734D01*
X121276140Y-40286207D01*
X121185703Y-40492385D01*
X121130436Y-40710628D01*
X121130434Y-40710640D01*
X121111844Y-40934994D01*
X121111844Y-40935000D01*
X121130434Y-41159359D01*
X121130436Y-41159371D01*
X121185703Y-41377614D01*
X121276140Y-41583792D01*
X121399276Y-41772265D01*
X121399284Y-41772276D01*
X121544489Y-41930008D01*
X121575412Y-41992662D01*
X121567552Y-42062088D01*
X121523405Y-42116244D01*
X121496596Y-42130172D01*
X121378794Y-42174111D01*
X121261739Y-42261739D01*
X121174111Y-42378795D01*
X121123011Y-42515795D01*
X121123011Y-42515797D01*
X121116500Y-42576345D01*
X121116500Y-44373654D01*
X121123011Y-44434202D01*
X121123011Y-44434204D01*
X121173983Y-44570862D01*
X121174111Y-44571204D01*
X121261739Y-44688261D01*
X121378796Y-44775889D01*
X121515799Y-44826989D01*
X121543050Y-44829918D01*
X121576345Y-44833499D01*
X121576362Y-44833500D01*
X123373638Y-44833500D01*
X123373654Y-44833499D01*
X123400692Y-44830591D01*
X123434201Y-44826989D01*
X123571204Y-44775889D01*
X123688261Y-44688261D01*
X123775889Y-44571204D01*
X123821138Y-44449887D01*
X123863009Y-44393956D01*
X123928474Y-44369539D01*
X123996746Y-44384391D01*
X124028545Y-44409236D01*
X124091760Y-44477906D01*
X124269424Y-44616189D01*
X124269425Y-44616189D01*
X124269427Y-44616191D01*
X124349173Y-44659347D01*
X124467426Y-44723342D01*
X124680365Y-44796444D01*
X124866009Y-44827422D01*
X124928895Y-44857872D01*
X124965334Y-44917487D01*
X124963759Y-44987339D01*
X124933281Y-45037412D01*
X122850900Y-47119796D01*
X122462767Y-47507929D01*
X122439554Y-47531142D01*
X122374527Y-47596168D01*
X122305203Y-47699918D01*
X122305198Y-47699927D01*
X122257445Y-47815214D01*
X122257443Y-47815222D01*
X122233100Y-47937601D01*
X122233100Y-54766650D01*
X122213415Y-54833689D01*
X122160611Y-54879444D01*
X122091453Y-54889388D01*
X122027897Y-54860363D01*
X122001713Y-54828650D01*
X121956303Y-54749999D01*
X121930240Y-54704856D01*
X121802453Y-54562934D01*
X121647952Y-54450682D01*
X121473488Y-54373006D01*
X121473486Y-54373005D01*
X121286687Y-54333300D01*
X121229966Y-54333300D01*
X121162927Y-54313615D01*
X121142285Y-54296981D01*
X119449019Y-52603715D01*
X119415534Y-52542392D01*
X119412700Y-52516034D01*
X119412700Y-35235392D01*
X119432385Y-35168353D01*
X119485189Y-35122598D01*
X119554347Y-35112654D01*
X119576959Y-35118109D01*
X119606544Y-35128266D01*
X119630364Y-35136444D01*
X119852431Y-35173500D01*
X120077569Y-35173500D01*
X120299635Y-35136444D01*
X120500538Y-35067473D01*
X120570335Y-35064324D01*
X120630757Y-35099410D01*
G37*
G04 #@! TD.AperFunction*
G04 #@! TA.AperFunction,Conductor*
G36*
X113746746Y-40684391D02*
G01*
X113778545Y-40709236D01*
X113841760Y-40777906D01*
X114019424Y-40916189D01*
X114019426Y-40916190D01*
X114019433Y-40916195D01*
X114066616Y-40941728D01*
X114116207Y-40990946D01*
X114131600Y-41050783D01*
X114131600Y-48788634D01*
X114111915Y-48855673D01*
X114059111Y-48901428D01*
X113989953Y-48911372D01*
X113926397Y-48882347D01*
X113919919Y-48876315D01*
X112894819Y-47851215D01*
X112861334Y-47789892D01*
X112858500Y-47763534D01*
X112858500Y-41257500D01*
X112878185Y-41190461D01*
X112930989Y-41144706D01*
X112982500Y-41133500D01*
X113123638Y-41133500D01*
X113123654Y-41133499D01*
X113150692Y-41130591D01*
X113184201Y-41126989D01*
X113321204Y-41075889D01*
X113438261Y-40988261D01*
X113525889Y-40871204D01*
X113571138Y-40749887D01*
X113613009Y-40693956D01*
X113678474Y-40669539D01*
X113746746Y-40684391D01*
G37*
G04 #@! TD.AperFunction*
G04 #@! TA.AperFunction,Conductor*
G36*
X141960000Y-43333589D02*
G01*
X141914394Y-43307259D01*
X141812661Y-43280000D01*
X141707339Y-43280000D01*
X141605606Y-43307259D01*
X141560000Y-43333589D01*
X141560000Y-41486410D01*
X141605606Y-41512741D01*
X141707339Y-41540000D01*
X141812661Y-41540000D01*
X141914394Y-41512741D01*
X141960000Y-41486410D01*
X141960000Y-43333589D01*
G37*
G04 #@! TD.AperFunction*
G04 #@! TA.AperFunction,Conductor*
G36*
X128936905Y-34488515D02*
G01*
X128958804Y-34513787D01*
X129049278Y-34652268D01*
X129049283Y-34652273D01*
X129049284Y-34652276D01*
X129178308Y-34792431D01*
X129201760Y-34817906D01*
X129201763Y-34817908D01*
X129204053Y-34819691D01*
X129204747Y-34820656D01*
X129205536Y-34821382D01*
X129205386Y-34821544D01*
X129244865Y-34876402D01*
X129248538Y-34946175D01*
X129215570Y-35005224D01*
X128891496Y-35329300D01*
X128794367Y-35426429D01*
X128750247Y-35470549D01*
X128706127Y-35514668D01*
X128636803Y-35618418D01*
X128636798Y-35618427D01*
X128589045Y-35733714D01*
X128589043Y-35733722D01*
X128564700Y-35856101D01*
X128564700Y-39755752D01*
X128545015Y-39822791D01*
X128492211Y-39868546D01*
X128423053Y-39878490D01*
X128369576Y-39857327D01*
X128232578Y-39761400D01*
X128018492Y-39661570D01*
X128018483Y-39661566D01*
X127790322Y-39600431D01*
X127755000Y-39597339D01*
X127755000Y-40473120D01*
X127747993Y-40469075D01*
X127620826Y-40435000D01*
X127489174Y-40435000D01*
X127362007Y-40469075D01*
X127355000Y-40473120D01*
X127355000Y-39597339D01*
X127319677Y-39600431D01*
X127091516Y-39661566D01*
X127091507Y-39661570D01*
X126877422Y-39761399D01*
X126877420Y-39761400D01*
X126683926Y-39896886D01*
X126683920Y-39896891D01*
X126516891Y-40063920D01*
X126516890Y-40063922D01*
X126390131Y-40244952D01*
X126335554Y-40288577D01*
X126266055Y-40295769D01*
X126203701Y-40264247D01*
X126184752Y-40241656D01*
X126090722Y-40097732D01*
X126090715Y-40097725D01*
X126090715Y-40097723D01*
X125938243Y-39932097D01*
X125938238Y-39932092D01*
X125760577Y-39793812D01*
X125760577Y-39793811D01*
X125713480Y-39768323D01*
X125663891Y-39719102D01*
X125648500Y-39659269D01*
X125648500Y-35213521D01*
X125653103Y-35182487D01*
X125652967Y-35182460D01*
X125653518Y-35179689D01*
X125653839Y-35177526D01*
X125654150Y-35176494D01*
X125654155Y-35176485D01*
X125675439Y-35069484D01*
X125707823Y-35007573D01*
X125738040Y-34984620D01*
X125790566Y-34956195D01*
X125790569Y-34956192D01*
X125790576Y-34956189D01*
X125968240Y-34817906D01*
X126068409Y-34709094D01*
X126120715Y-34652276D01*
X126120715Y-34652275D01*
X126120722Y-34652268D01*
X126211193Y-34513790D01*
X126264338Y-34468437D01*
X126333569Y-34459013D01*
X126396905Y-34488515D01*
X126418804Y-34513787D01*
X126509278Y-34652268D01*
X126509283Y-34652273D01*
X126509284Y-34652276D01*
X126638308Y-34792431D01*
X126661760Y-34817906D01*
X126661763Y-34817908D01*
X126664053Y-34819691D01*
X126664747Y-34820656D01*
X126665536Y-34821382D01*
X126665386Y-34821544D01*
X126704865Y-34876402D01*
X126708538Y-34946175D01*
X126675571Y-35005223D01*
X126628532Y-35052262D01*
X126628528Y-35052267D01*
X126559203Y-35156018D01*
X126559198Y-35156027D01*
X126511445Y-35271314D01*
X126511443Y-35271322D01*
X126487100Y-35393701D01*
X126487100Y-35881541D01*
X126467415Y-35948580D01*
X126455250Y-35964513D01*
X126381563Y-36046350D01*
X126381558Y-36046357D01*
X126286073Y-36211743D01*
X126286070Y-36211750D01*
X126254942Y-36307554D01*
X126227058Y-36393372D01*
X126207096Y-36583300D01*
X126227058Y-36773228D01*
X126227059Y-36773231D01*
X126286070Y-36954849D01*
X126286073Y-36954856D01*
X126381560Y-37120244D01*
X126509347Y-37262166D01*
X126663848Y-37374418D01*
X126838312Y-37452094D01*
X127025113Y-37491800D01*
X127216087Y-37491800D01*
X127402888Y-37452094D01*
X127577352Y-37374418D01*
X127731853Y-37262166D01*
X127859640Y-37120244D01*
X127955127Y-36954856D01*
X128014142Y-36773228D01*
X128034104Y-36583300D01*
X128014142Y-36393372D01*
X127955127Y-36211744D01*
X127887038Y-36093811D01*
X127859641Y-36046357D01*
X127859636Y-36046350D01*
X127785950Y-35964513D01*
X127755720Y-35901521D01*
X127754100Y-35881541D01*
X127754100Y-35769866D01*
X127773785Y-35702827D01*
X127790414Y-35682189D01*
X128077072Y-35395533D01*
X128146401Y-35291775D01*
X128194155Y-35176485D01*
X128194155Y-35176480D01*
X128194157Y-35176477D01*
X128215439Y-35069484D01*
X128247823Y-35007573D01*
X128278040Y-34984620D01*
X128330566Y-34956195D01*
X128330569Y-34956192D01*
X128330576Y-34956189D01*
X128508240Y-34817906D01*
X128608409Y-34709094D01*
X128660715Y-34652276D01*
X128660715Y-34652275D01*
X128660722Y-34652268D01*
X128751193Y-34513790D01*
X128804338Y-34468437D01*
X128873569Y-34459013D01*
X128936905Y-34488515D01*
G37*
G04 #@! TD.AperFunction*
G04 #@! TA.AperFunction,Conductor*
G36*
X123856298Y-31945753D02*
G01*
X123875251Y-31968350D01*
X123969276Y-32112265D01*
X123969284Y-32112276D01*
X124121756Y-32277902D01*
X124121760Y-32277906D01*
X124299424Y-32416189D01*
X124299429Y-32416191D01*
X124299431Y-32416193D01*
X124335930Y-32435946D01*
X124385520Y-32485165D01*
X124400628Y-32553382D01*
X124376457Y-32618937D01*
X124335930Y-32654054D01*
X124299431Y-32673806D01*
X124299422Y-32673812D01*
X124121761Y-32812092D01*
X124121756Y-32812097D01*
X123969284Y-32977723D01*
X123969276Y-32977734D01*
X123878808Y-33116206D01*
X123825662Y-33161562D01*
X123756431Y-33170986D01*
X123693095Y-33141484D01*
X123671192Y-33116206D01*
X123580723Y-32977734D01*
X123580715Y-32977723D01*
X123428243Y-32812097D01*
X123428238Y-32812092D01*
X123253003Y-32675700D01*
X123250577Y-32673811D01*
X123207303Y-32650393D01*
X123157713Y-32601173D01*
X123142605Y-32532957D01*
X123166775Y-32467401D01*
X123195198Y-32439763D01*
X123376079Y-32313108D01*
X123543105Y-32146082D01*
X123669868Y-31965048D01*
X123724445Y-31921423D01*
X123793944Y-31914231D01*
X123856298Y-31945753D01*
G37*
G04 #@! TD.AperFunction*
G04 #@! TA.AperFunction,Conductor*
G36*
X126396905Y-31948515D02*
G01*
X126418804Y-31973787D01*
X126509278Y-32112268D01*
X126509283Y-32112273D01*
X126509284Y-32112276D01*
X126661756Y-32277902D01*
X126661760Y-32277906D01*
X126839424Y-32416189D01*
X126839429Y-32416191D01*
X126839431Y-32416193D01*
X126875930Y-32435946D01*
X126925520Y-32485165D01*
X126940628Y-32553382D01*
X126916457Y-32618937D01*
X126875930Y-32654054D01*
X126839431Y-32673806D01*
X126839422Y-32673812D01*
X126661761Y-32812092D01*
X126661756Y-32812097D01*
X126509284Y-32977723D01*
X126509276Y-32977734D01*
X126418808Y-33116206D01*
X126365662Y-33161562D01*
X126296431Y-33170986D01*
X126233095Y-33141484D01*
X126211192Y-33116206D01*
X126120723Y-32977734D01*
X126120715Y-32977723D01*
X125968243Y-32812097D01*
X125968238Y-32812092D01*
X125793003Y-32675700D01*
X125790576Y-32673811D01*
X125754070Y-32654055D01*
X125704479Y-32604836D01*
X125689371Y-32536619D01*
X125713541Y-32471064D01*
X125754070Y-32435945D01*
X125754084Y-32435936D01*
X125790576Y-32416189D01*
X125968240Y-32277906D01*
X126089594Y-32146082D01*
X126120715Y-32112276D01*
X126120715Y-32112275D01*
X126120722Y-32112268D01*
X126211193Y-31973790D01*
X126264338Y-31928437D01*
X126333569Y-31919013D01*
X126396905Y-31948515D01*
G37*
G04 #@! TD.AperFunction*
G04 #@! TD*
M02*
