G04 #@! TF.GenerationSoftware,KiCad,Pcbnew,8.0.8*
G04 #@! TF.CreationDate,2025-02-14T11:24:39-05:00*
G04 #@! TF.ProjectId,Apple2CardCR,4170706c-6532-4436-9172-6443522e6b69,CR1.0A*
G04 #@! TF.SameCoordinates,Original*
G04 #@! TF.FileFunction,Soldermask,Top*
G04 #@! TF.FilePolarity,Negative*
%FSLAX46Y46*%
G04 Gerber Fmt 4.6, Leading zero omitted, Abs format (unit mm)*
G04 Created by KiCad (PCBNEW 8.0.8) date 2025-02-14 11:24:39*
%MOMM*%
%LPD*%
G01*
G04 APERTURE LIST*
G04 Aperture macros list*
%AMRoundRect*
0 Rectangle with rounded corners*
0 $1 Rounding radius*
0 $2 $3 $4 $5 $6 $7 $8 $9 X,Y pos of 4 corners*
0 Add a 4 corners polygon primitive as box body*
4,1,4,$2,$3,$4,$5,$6,$7,$8,$9,$2,$3,0*
0 Add four circle primitives for the rounded corners*
1,1,$1+$1,$2,$3*
1,1,$1+$1,$4,$5*
1,1,$1+$1,$6,$7*
1,1,$1+$1,$8,$9*
0 Add four rect primitives between the rounded corners*
20,1,$1+$1,$2,$3,$4,$5,0*
20,1,$1+$1,$4,$5,$6,$7,0*
20,1,$1+$1,$6,$7,$8,$9,0*
20,1,$1+$1,$8,$9,$2,$3,0*%
G04 Aperture macros list end*
%ADD10RoundRect,0.140000X-0.170000X0.140000X-0.170000X-0.140000X0.170000X-0.140000X0.170000X0.140000X0*%
%ADD11RoundRect,0.135000X-0.185000X0.135000X-0.185000X-0.135000X0.185000X-0.135000X0.185000X0.135000X0*%
%ADD12RoundRect,0.135000X-0.135000X-0.185000X0.135000X-0.185000X0.135000X0.185000X-0.135000X0.185000X0*%
%ADD13RoundRect,0.112500X0.112500X-0.187500X0.112500X0.187500X-0.112500X0.187500X-0.112500X-0.187500X0*%
%ADD14RoundRect,0.243750X0.456250X-0.243750X0.456250X0.243750X-0.456250X0.243750X-0.456250X-0.243750X0*%
%ADD15RoundRect,0.112500X-0.187500X-0.112500X0.187500X-0.112500X0.187500X0.112500X-0.187500X0.112500X0*%
%ADD16RoundRect,0.140000X0.170000X-0.140000X0.170000X0.140000X-0.170000X0.140000X-0.170000X-0.140000X0*%
%ADD17R,1.400000X1.600000*%
%ADD18C,1.000000*%
%ADD19R,2.200000X1.200000*%
%ADD20R,1.600000X0.700000*%
%ADD21R,1.400000X1.200000*%
%ADD22RoundRect,0.140000X0.140000X0.170000X-0.140000X0.170000X-0.140000X-0.170000X0.140000X-0.170000X0*%
%ADD23R,1.900000X8.530000*%
%ADD24R,1.270000X8.530000*%
%ADD25R,1.910000X8.530000*%
%ADD26RoundRect,0.112500X0.187500X0.112500X-0.187500X0.112500X-0.187500X-0.112500X0.187500X-0.112500X0*%
%ADD27R,0.550000X1.600000*%
%ADD28R,1.600000X0.550000*%
%ADD29R,1.700000X1.700000*%
%ADD30O,1.700000X1.700000*%
%ADD31R,2.000000X2.400000*%
%ADD32RoundRect,0.150000X0.150000X-0.825000X0.150000X0.825000X-0.150000X0.825000X-0.150000X-0.825000X0*%
%ADD33R,1.600000X1.600000*%
%ADD34O,1.600000X1.600000*%
%ADD35RoundRect,0.135000X0.185000X-0.135000X0.185000X0.135000X-0.185000X0.135000X-0.185000X-0.135000X0*%
%ADD36RoundRect,0.135000X0.135000X0.185000X-0.135000X0.185000X-0.135000X-0.185000X0.135000X-0.185000X0*%
%ADD37C,1.600000*%
G04 APERTURE END LIST*
D10*
G04 #@! TO.C,C2*
X131500000Y-68520000D03*
X131500000Y-69480000D03*
G04 #@! TD*
D11*
G04 #@! TO.C,R24*
X106650000Y-34550000D03*
X106650000Y-35570000D03*
G04 #@! TD*
D12*
G04 #@! TO.C,R15*
X115490000Y-69500000D03*
X116510000Y-69500000D03*
G04 #@! TD*
D13*
G04 #@! TO.C,D8*
X181500000Y-80050000D03*
X181500000Y-77950000D03*
G04 #@! TD*
D14*
G04 #@! TO.C,D1*
X107550000Y-30487500D03*
X107550000Y-28612500D03*
G04 #@! TD*
D15*
G04 #@! TO.C,D5*
X117950000Y-82000000D03*
X120050000Y-82000000D03*
G04 #@! TD*
D16*
G04 #@! TO.C,C8*
X179800000Y-43040000D03*
X179800000Y-42080000D03*
G04 #@! TD*
D17*
G04 #@! TO.C,U5*
X112020000Y-90160000D03*
D18*
X102120000Y-86360000D03*
X102120000Y-78360000D03*
D19*
X102520000Y-75560000D03*
D20*
X112620000Y-85560000D03*
X112620000Y-84460000D03*
X112620000Y-83360000D03*
X112620000Y-82260000D03*
X112620000Y-81160000D03*
X112620000Y-80060000D03*
X112620000Y-78960000D03*
X112620000Y-77860000D03*
X112620000Y-76760000D03*
D21*
X112020000Y-75560000D03*
D19*
X102420000Y-91060000D03*
G04 #@! TD*
D14*
G04 #@! TO.C,D11*
X112311000Y-30487500D03*
X112311000Y-28612500D03*
G04 #@! TD*
D16*
G04 #@! TO.C,C10*
X153500000Y-81980000D03*
X153500000Y-81020000D03*
G04 #@! TD*
D22*
G04 #@! TO.C,C9*
X128980000Y-64000000D03*
X128020000Y-64000000D03*
G04 #@! TD*
D16*
G04 #@! TO.C,C6*
X117000000Y-56980000D03*
X117000000Y-56020000D03*
G04 #@! TD*
D12*
G04 #@! TO.C,R3*
X114490000Y-34500000D03*
X115510000Y-34500000D03*
G04 #@! TD*
D14*
G04 #@! TO.C,D9*
X102650000Y-30550000D03*
X102650000Y-28675000D03*
G04 #@! TD*
D23*
G04 #@! TO.C,BUS1*
X120386000Y-99050000D03*
D24*
X123180000Y-99050000D03*
X125720000Y-99050000D03*
X128260000Y-99050000D03*
X130800000Y-99050000D03*
X133340000Y-99050000D03*
X135880000Y-99050000D03*
X138420000Y-99050000D03*
X140960000Y-99050000D03*
X143500000Y-99050000D03*
X146040000Y-99050000D03*
X148580000Y-99050000D03*
X151120000Y-99050000D03*
X153660000Y-99050000D03*
X156200000Y-99050000D03*
X158740000Y-99050000D03*
X161280000Y-99050000D03*
X163820000Y-99050000D03*
X166360000Y-99050000D03*
X168900000Y-99050000D03*
X171440000Y-99050000D03*
X173980000Y-99050000D03*
X176520000Y-99050000D03*
X179060000Y-99050000D03*
D25*
X181854000Y-99050000D03*
G04 #@! TD*
D11*
G04 #@! TO.C,R13*
X103650000Y-34602500D03*
X103650000Y-35622500D03*
G04 #@! TD*
D26*
G04 #@! TO.C,D4*
X120550000Y-59000000D03*
X118450000Y-59000000D03*
G04 #@! TD*
D27*
G04 #@! TO.C,U1*
X126250000Y-61800000D03*
X127050000Y-61800000D03*
X127850000Y-61800000D03*
X128650000Y-61800000D03*
X129450000Y-61800000D03*
X130250000Y-61800000D03*
X131050000Y-61800000D03*
X131850000Y-61800000D03*
D28*
X133300000Y-60350000D03*
X133300000Y-59550000D03*
X133300000Y-58750000D03*
X133300000Y-57950000D03*
X133300000Y-57150000D03*
X133300000Y-56350000D03*
X133300000Y-55550000D03*
X133300000Y-54750000D03*
D27*
X131850000Y-53300000D03*
X131050000Y-53300000D03*
X130250000Y-53300000D03*
X129450000Y-53300000D03*
X128650000Y-53300000D03*
X127850000Y-53300000D03*
X127050000Y-53300000D03*
X126250000Y-53300000D03*
D28*
X124800000Y-54750000D03*
X124800000Y-55550000D03*
X124800000Y-56350000D03*
X124800000Y-57150000D03*
X124800000Y-57950000D03*
X124800000Y-58750000D03*
X124800000Y-59550000D03*
X124800000Y-60350000D03*
G04 #@! TD*
D29*
G04 #@! TO.C,J2*
X112225000Y-39775000D03*
D30*
X112225000Y-37235000D03*
X114765000Y-39775000D03*
X114765000Y-37235000D03*
G04 #@! TD*
D31*
G04 #@! TO.C,Y1*
X131650000Y-66000000D03*
X135350000Y-66000000D03*
G04 #@! TD*
D11*
G04 #@! TO.C,R26*
X101650000Y-34602500D03*
X101650000Y-35622500D03*
G04 #@! TD*
D12*
G04 #@! TO.C,R25*
X114490000Y-30050000D03*
X115510000Y-30050000D03*
G04 #@! TD*
D11*
G04 #@! TO.C,R16*
X137000000Y-56490000D03*
X137000000Y-57510000D03*
G04 #@! TD*
D32*
G04 #@! TO.C,U2*
X153690000Y-88975000D03*
X154960000Y-88975000D03*
X156230000Y-88975000D03*
X157500000Y-88975000D03*
X158770000Y-88975000D03*
X160040000Y-88975000D03*
X161310000Y-88975000D03*
X161310000Y-84025000D03*
X160040000Y-84025000D03*
X158770000Y-84025000D03*
X157500000Y-84025000D03*
X156230000Y-84025000D03*
X154960000Y-84025000D03*
X153690000Y-84025000D03*
G04 #@! TD*
D17*
G04 #@! TO.C,U6*
X111982000Y-65018000D03*
D18*
X102082000Y-61218000D03*
X102082000Y-53218000D03*
D19*
X102482000Y-50418000D03*
D20*
X112582000Y-60418000D03*
X112582000Y-59318000D03*
X112582000Y-58218000D03*
X112582000Y-57118000D03*
X112582000Y-56018000D03*
X112582000Y-54918000D03*
X112582000Y-53818000D03*
X112582000Y-52718000D03*
X112582000Y-51618000D03*
D21*
X111982000Y-50418000D03*
D19*
X102382000Y-65918000D03*
G04 #@! TD*
D33*
G04 #@! TO.C,U4*
X141760000Y-28440000D03*
D34*
X141760000Y-30980000D03*
X141760000Y-33520000D03*
X141760000Y-36060000D03*
X141760000Y-38600000D03*
X141760000Y-41140000D03*
X141760000Y-43680000D03*
X141760000Y-46220000D03*
X141760000Y-48760000D03*
X141760000Y-51300000D03*
X141760000Y-53840000D03*
X141760000Y-56380000D03*
X141760000Y-58920000D03*
X141760000Y-61460000D03*
X141760000Y-64000000D03*
X141760000Y-66540000D03*
X141760000Y-69080000D03*
X141760000Y-71620000D03*
X141760000Y-74160000D03*
X141760000Y-76700000D03*
X157000000Y-76700000D03*
X157000000Y-74160000D03*
X157000000Y-71620000D03*
X157000000Y-69080000D03*
X157000000Y-66540000D03*
X157000000Y-64000000D03*
X157000000Y-61460000D03*
X157000000Y-58920000D03*
X157000000Y-56380000D03*
X157000000Y-53840000D03*
X157000000Y-51300000D03*
X157000000Y-48760000D03*
X157000000Y-46220000D03*
X157000000Y-43680000D03*
X157000000Y-41140000D03*
X157000000Y-38600000D03*
X157000000Y-36060000D03*
X157000000Y-33520000D03*
X157000000Y-30980000D03*
X157000000Y-28440000D03*
G04 #@! TD*
D11*
G04 #@! TO.C,R12*
X116000000Y-55990000D03*
X116000000Y-57010000D03*
G04 #@! TD*
D12*
G04 #@! TO.C,R2*
X111490000Y-34500000D03*
X112510000Y-34500000D03*
G04 #@! TD*
D16*
G04 #@! TO.C,C5*
X116500000Y-81980000D03*
X116500000Y-81020000D03*
G04 #@! TD*
D32*
G04 #@! TO.C,U3*
X173690000Y-88975000D03*
X174960000Y-88975000D03*
X176230000Y-88975000D03*
X177500000Y-88975000D03*
X178770000Y-88975000D03*
X180040000Y-88975000D03*
X181310000Y-88975000D03*
X181310000Y-84025000D03*
X180040000Y-84025000D03*
X178770000Y-84025000D03*
X177500000Y-84025000D03*
X176230000Y-84025000D03*
X174960000Y-84025000D03*
X173690000Y-84025000D03*
G04 #@! TD*
D10*
G04 #@! TO.C,C3*
X135000000Y-68520000D03*
X135000000Y-69480000D03*
G04 #@! TD*
D35*
G04 #@! TO.C,R19*
X170000000Y-28947500D03*
X170000000Y-27927500D03*
G04 #@! TD*
D36*
G04 #@! TO.C,R9*
X131860000Y-50150000D03*
X130840000Y-50150000D03*
G04 #@! TD*
D11*
G04 #@! TO.C,R1*
X179840000Y-44240000D03*
X179840000Y-45260000D03*
G04 #@! TD*
D33*
G04 #@! TO.C,U9*
X161760000Y-43680000D03*
D34*
X161760000Y-46220000D03*
X161760000Y-48760000D03*
X161760000Y-51300000D03*
X161760000Y-53840000D03*
X161760000Y-56380000D03*
X161760000Y-58920000D03*
X161760000Y-61460000D03*
X161760000Y-64000000D03*
X161760000Y-66540000D03*
X161760000Y-69080000D03*
X161760000Y-71620000D03*
X161760000Y-74160000D03*
X161760000Y-76700000D03*
X177000000Y-76700000D03*
X177000000Y-74160000D03*
X177000000Y-71620000D03*
X177000000Y-69080000D03*
X177000000Y-66540000D03*
X177000000Y-64000000D03*
X177000000Y-61460000D03*
X177000000Y-58920000D03*
X177000000Y-56380000D03*
X177000000Y-53840000D03*
X177000000Y-51300000D03*
X177000000Y-48760000D03*
X177000000Y-46220000D03*
X177000000Y-43680000D03*
G04 #@! TD*
D26*
G04 #@! TO.C,D3*
X120050000Y-84050000D03*
X117950000Y-84050000D03*
G04 #@! TD*
D35*
G04 #@! TO.C,R10*
X102650000Y-35622500D03*
X102650000Y-34602500D03*
G04 #@! TD*
D14*
G04 #@! TO.C,D10*
X167500000Y-29875000D03*
X167500000Y-28000000D03*
G04 #@! TD*
D11*
G04 #@! TO.C,R14*
X108650000Y-34540000D03*
X108650000Y-35560000D03*
G04 #@! TD*
D36*
G04 #@! TO.C,R17*
X137010000Y-55500000D03*
X135990000Y-55500000D03*
G04 #@! TD*
D29*
G04 #@! TO.C,J1*
X122475000Y-43475000D03*
D30*
X122475000Y-40935000D03*
X125015000Y-43475000D03*
X125015000Y-40935000D03*
X127555000Y-43475000D03*
X127555000Y-40935000D03*
G04 #@! TD*
D16*
G04 #@! TO.C,C11*
X173551000Y-81524000D03*
X173551000Y-80564000D03*
G04 #@! TD*
D11*
G04 #@! TO.C,R11*
X115500000Y-80990000D03*
X115500000Y-82010000D03*
G04 #@! TD*
D29*
G04 #@! TO.C,J6*
X130125000Y-31275000D03*
D30*
X130125000Y-33815000D03*
X127585000Y-31275000D03*
X127585000Y-33815000D03*
X125045000Y-31275000D03*
X125045000Y-33815000D03*
X122505000Y-31275000D03*
X122505000Y-33815000D03*
X119965000Y-31275000D03*
X119965000Y-33815000D03*
G04 #@! TD*
D22*
G04 #@! TO.C,C7*
X137540000Y-42470000D03*
X136580000Y-42470000D03*
G04 #@! TD*
D33*
G04 #@! TO.C,C14*
X188000000Y-87705100D03*
D37*
X185500000Y-87705100D03*
G04 #@! TD*
D35*
G04 #@! TO.C,R8*
X107650000Y-35570000D03*
X107650000Y-34550000D03*
G04 #@! TD*
D22*
G04 #@! TO.C,C1*
X129480000Y-51100000D03*
X128520000Y-51100000D03*
G04 #@! TD*
D15*
G04 #@! TO.C,D6*
X118450000Y-57000000D03*
X120550000Y-57000000D03*
G04 #@! TD*
M02*
