M48
; DRILL file {KiCad 7.0.6+dfsg-1} date Fri 04 Aug 2023 14:19:36 BST
; FORMAT={-:-/ absolute / inch / decimal}
; #@! TF.CreationDate,2023-08-04T14:19:36+01:00
; #@! TF.GenerationSoftware,Kicad,Pcbnew,7.0.6+dfsg-1
; #@! TF.FileFunction,Plated,1,2,PTH
FMAT,2
INCH
; #@! TA.AperFunction,Plated,PTH,ViaDrill
T1C0.0157
; #@! TA.AperFunction,Plated,PTH,ComponentDrill
T2C0.0315
; #@! TA.AperFunction,Plated,PTH,ComponentDrill
T3C0.0394
%
G90
G05
T1
X2.49Y-1.7
X2.605Y-1.07
X2.6315Y-1.7
X2.6756Y-2.155
X2.681Y-2.997
X2.7756Y-1.108
X2.8333Y-1.1447
X2.89Y-3.36
X2.9Y-2.43
X2.9Y-3.17
X2.94Y-2.37
X2.94Y-2.63
X2.99Y-2.82
X3.06Y-1.36
X3.06Y-2.3
X3.07Y-3.11
X3.106Y-2.1552
X3.11Y-2.94
X3.121Y-2.474
X3.17Y-2.98
X3.22Y-1.74
X3.25Y-3.04
X3.33Y-1.83
X3.34Y-1.32
X3.34Y-2.98
X3.42Y-1.57
X3.46Y-1.99
X3.572Y-3.108
X3.624Y-1.107
X3.6415Y-2.06
X3.6441Y-2.7351
X3.6547Y-1.9653
X3.6559Y-2.0111
X3.6726Y-2.694
X3.7088Y-1.9712
X3.7193Y-2.69
X3.72Y-1.07
X3.737Y-2.2109
X3.75Y-1.83
X3.75Y-2.66
X3.7798Y-1.1415
X3.79Y-2.82
X3.81Y-2.89
X3.81Y-2.2135
X3.84Y-2.26
X3.8565Y-2.46
X3.87Y-3.0
X3.89Y-2.82
X3.8903Y-2.4398
X3.9Y-1.64
X3.911Y-1.107
X3.92Y-2.87
X3.9215Y-2.4932
X3.94Y-1.69
X3.959Y-2.18
X3.968Y-1.07
X3.97Y-2.95
X4.0Y-1.696
X4.015Y-1.2095
X4.0243Y-1.3305
X4.06Y-1.48
X4.072Y-1.7137
X4.09Y-2.29
X4.1202Y-1.7315
X4.2102Y-1.9502
X4.24Y-1.88
X4.25Y-1.71
X4.3Y-2.87
X4.33Y-1.72
X4.47Y-2.95
X4.47Y-3.42
X4.51Y-3.11
X4.55Y-3.22
X4.58Y-2.22
X4.58Y-2.76
X4.5815Y-2.8656
X4.6Y-3.59
X4.61Y-2.1305
X4.61Y-2.7
X4.624Y-1.693
X4.64Y-3.19
X4.6715Y-1.7645
X4.69Y-3.38
X4.6995Y-1.796
X4.723Y-1.718
X4.73Y-3.28
X4.73Y-3.46
X4.7777Y-2.88
X4.78Y-2.64
X4.85Y-3.64
X4.96Y-3.63
X4.987Y-2.652
X4.99Y-2.79
X5.029Y-2.7507
X5.0416Y-2.9068
X5.064Y-2.697
X5.0656Y-2.196
X5.07Y-3.09
X5.1Y-3.57
X5.102Y-2.112
X5.11Y-3.32
X5.133Y-2.289
X5.139Y-3.179
X5.1856Y-1.676
X5.192Y-2.577
X5.193Y-3.009
X5.2Y-1.83
X5.2462Y-1.7366
X5.248Y-3.4748
X5.289Y-1.85
X5.3Y-2.486
X5.336Y-1.968
X5.336Y-2.02
X5.338Y-2.365
X5.389Y-1.922
X5.398Y-3.38
X5.56Y-2.58
X5.57Y-2.24
X5.581Y-3.419
X5.582Y-3.09
X5.5985Y-1.6771
X5.6Y-2.32
X5.629Y-3.1915
X5.63Y-2.62
X5.64Y-2.7744
X5.6425Y-1.7686
X5.66Y-2.42
X5.676Y-3.225
X5.7Y-2.16
X5.73Y-2.08
X5.73Y-2.82
X5.76Y-2.73
X5.763Y-3.486
X5.77Y-1.97
X5.8Y-2.61
X5.9Y-3.28
X5.9324Y-3.5921
X5.9775Y-2.53
X5.9775Y-2.97
X5.9775Y-3.3741
X5.9809Y-3.6002
X6.0155Y-2.48
X6.03Y-3.6184
X6.04Y-2.37
X6.0436Y-2.0885
X6.06Y-2.17
X6.08Y-2.28
X6.093Y-3.645
X6.162Y-3.653
X6.178Y-1.974
X6.222Y-3.653
X6.24Y-2.06
X6.241Y-1.993
X6.26Y-2.87
X6.276Y-3.192
X6.291Y-2.7744
X6.333Y-3.197
X6.34Y-2.6744
X6.39Y-2.58
X6.39Y-2.91
X6.397Y-3.054
X6.4394Y-3.4291
X6.471Y-3.31
X6.5Y-3.26
X6.52Y-3.39
X6.526Y-3.518
X6.554Y-3.643
X6.628Y-3.09
X6.646Y-2.177
X6.649Y-2.668
X6.65Y-3.6
X6.668Y-3.195
X6.699Y-2.769
X6.7Y-2.077
X6.7Y-3.4
X6.704Y-3.645
X6.7171Y-3.2235
X6.747Y-2.371
X6.95Y-3.642
X7.029Y-3.64
X7.1022Y-1.882
X7.11Y-3.61
X7.22Y-3.61
X7.248Y-1.844
T2
X4.8752Y-1.5748
X4.8752Y-1.6748
X4.8752Y-1.7748
X4.8752Y-1.8748
X4.8752Y-1.9748
X4.8752Y-2.0748
X4.8752Y-2.1748
X4.8752Y-2.2748
X4.8752Y-2.3748
X4.8752Y-2.4748
X4.8752Y-2.5748
X4.8752Y-2.6748
X4.8752Y-2.7748
X4.8752Y-2.8748
X4.8752Y-2.9748
X4.8752Y-3.0748
X4.8752Y-3.1748
X4.8752Y-3.2748
X4.8752Y-3.3748
X4.8752Y-3.4748
X5.4752Y-1.5748
X5.4752Y-1.6748
X5.4752Y-1.7748
X5.4752Y-1.8748
X5.4752Y-1.9748
X5.4752Y-2.0748
X5.4752Y-2.1748
X5.4752Y-2.2748
X5.4752Y-2.3748
X5.4752Y-2.4748
X5.4752Y-2.5748
X5.4752Y-2.6748
X5.4752Y-2.7748
X5.4752Y-2.8748
X5.4752Y-2.9748
X5.4752Y-3.0748
X5.4752Y-3.1748
X5.4752Y-3.2748
X5.4752Y-3.3748
X5.4752Y-3.4748
X5.8998Y-1.7744
X5.8998Y-1.8744
X5.8998Y-1.9744
X5.8998Y-2.0744
X5.8998Y-2.1744
X5.8998Y-2.2744
X5.8998Y-2.3744
X5.8998Y-2.4744
X5.8998Y-2.5744
X5.8998Y-2.6744
X5.8998Y-2.7744
X5.8998Y-2.8744
X5.8998Y-2.9744
X5.8998Y-3.0744
X6.4998Y-1.7744
X6.4998Y-1.8744
X6.4998Y-1.9744
X6.4998Y-2.0744
X6.4998Y-2.1744
X6.4998Y-2.2744
X6.4998Y-2.3744
X6.4998Y-2.4744
X6.4998Y-2.5744
X6.4998Y-2.6744
X6.4998Y-2.7744
X6.4998Y-2.8744
X6.4998Y-2.9744
X6.4998Y-3.0744
T3
X2.475Y-1.25
X2.475Y-1.35
X2.6756Y-1.25
X2.6756Y-1.35
X2.7756Y-1.25
X2.7756Y-1.35
X2.8756Y-1.25
X2.8756Y-1.35
X3.225Y-1.2502
X3.225Y-1.3502
X3.4252Y-1.25
X3.4252Y-1.35
X3.5252Y-1.25
X3.5252Y-1.35
X3.6252Y-1.25
X3.6252Y-1.35
X3.7252Y-1.25
X3.7252Y-1.35
X3.8252Y-1.25
X3.8252Y-1.35
X4.1252Y-1.25
X4.1252Y-1.35
X4.2252Y-1.25
X4.2252Y-1.35
X4.3252Y-1.25
X4.3252Y-1.35
X4.4252Y-1.25
X4.4252Y-1.35
X4.5252Y-1.25
X4.5252Y-1.35
X4.8Y-1.25
X4.9Y-1.25
X5.0Y-1.25
X5.1Y-1.25
X5.2Y-1.25
X5.3Y-1.25
X5.4Y-1.25
X5.5Y-1.25
X5.6Y-1.25
X5.7Y-1.25
X5.8Y-1.25
X5.9Y-1.25
X6.0Y-1.25
X6.1Y-1.25
X6.2Y-1.25
X6.3Y-1.25
X6.6Y-1.2502
X6.6Y-1.3502
X7.0498Y-1.99
X7.0498Y-2.14
X7.0498Y-2.29
X7.0498Y-2.44
X7.0498Y-2.59
X7.0498Y-2.74
X7.0498Y-2.89
X7.1498Y-1.99
X7.1498Y-2.14
X7.1498Y-2.29
X7.1498Y-2.44
X7.1498Y-2.59
X7.1498Y-2.74
X7.1498Y-2.89
T0
M30
