%TF.GenerationSoftware,KiCad,Pcbnew,7.0.6+dfsg-1*%
%TF.CreationDate,2023-08-04T14:19:36+01:00*%
%TF.ProjectId,Apple2Card,4170706c-6532-4436-9172-642e6b696361,rev?*%
%TF.SameCoordinates,Original*%
%TF.FileFunction,Soldermask,Top*%
%TF.FilePolarity,Negative*%
%FSLAX46Y46*%
G04 Gerber Fmt 4.6, Leading zero omitted, Abs format (unit mm)*
G04 Created by KiCad (PCBNEW 7.0.6+dfsg-1) date 2023-08-04 14:19:36*
%MOMM*%
%LPD*%
G01*
G04 APERTURE LIST*
G04 Aperture macros list*
%AMRoundRect*
0 Rectangle with rounded corners*
0 $1 Rounding radius*
0 $2 $3 $4 $5 $6 $7 $8 $9 X,Y pos of 4 corners*
0 Add a 4 corners polygon primitive as box body*
4,1,4,$2,$3,$4,$5,$6,$7,$8,$9,$2,$3,0*
0 Add four circle primitives for the rounded corners*
1,1,$1+$1,$2,$3*
1,1,$1+$1,$4,$5*
1,1,$1+$1,$6,$7*
1,1,$1+$1,$8,$9*
0 Add four rect primitives between the rounded corners*
20,1,$1+$1,$2,$3,$4,$5,0*
20,1,$1+$1,$4,$5,$6,$7,0*
20,1,$1+$1,$6,$7,$8,$9,0*
20,1,$1+$1,$8,$9,$2,$3,0*%
G04 Aperture macros list end*
%ADD10RoundRect,0.237500X-0.300000X-0.237500X0.300000X-0.237500X0.300000X0.237500X-0.300000X0.237500X0*%
%ADD11RoundRect,0.237500X-0.250000X-0.237500X0.250000X-0.237500X0.250000X0.237500X-0.250000X0.237500X0*%
%ADD12RoundRect,0.237500X0.237500X-0.300000X0.237500X0.300000X-0.237500X0.300000X-0.237500X-0.300000X0*%
%ADD13R,1.700000X1.700000*%
%ADD14O,1.700000X1.700000*%
%ADD15RoundRect,0.237500X0.250000X0.237500X-0.250000X0.237500X-0.250000X-0.237500X0.250000X-0.237500X0*%
%ADD16RoundRect,0.250000X-0.250000X0.250000X-0.250000X-0.250000X0.250000X-0.250000X0.250000X0.250000X0*%
%ADD17RoundRect,0.237500X-0.237500X0.250000X-0.237500X-0.250000X0.237500X-0.250000X0.237500X0.250000X0*%
%ADD18RoundRect,0.250000X-0.325000X-0.450000X0.325000X-0.450000X0.325000X0.450000X-0.325000X0.450000X0*%
%ADD19RoundRect,0.237500X0.300000X0.237500X-0.300000X0.237500X-0.300000X-0.237500X0.300000X-0.237500X0*%
%ADD20R,1.400000X1.600000*%
%ADD21C,1.000000*%
%ADD22R,2.200000X1.200000*%
%ADD23R,1.600000X0.700000*%
%ADD24R,1.400000X1.200000*%
%ADD25RoundRect,0.237500X-0.237500X0.300000X-0.237500X-0.300000X0.237500X-0.300000X0.237500X0.300000X0*%
%ADD26RoundRect,0.250000X-0.925000X0.875000X-0.925000X-0.875000X0.925000X-0.875000X0.925000X0.875000X0*%
%ADD27R,1.900000X8.530000*%
%ADD28R,1.270000X8.530000*%
%ADD29R,1.910000X8.530000*%
%ADD30RoundRect,0.237500X0.237500X-0.250000X0.237500X0.250000X-0.237500X0.250000X-0.237500X-0.250000X0*%
%ADD31R,2.000000X1.500000*%
%ADD32R,2.000000X3.800000*%
%ADD33R,1.800000X2.100000*%
%ADD34RoundRect,0.250000X-0.875000X-0.925000X0.875000X-0.925000X0.875000X0.925000X-0.875000X0.925000X0*%
%ADD35R,1.500000X0.550000*%
%ADD36R,0.550000X1.500000*%
%ADD37RoundRect,0.150000X0.150000X-0.825000X0.150000X0.825000X-0.150000X0.825000X-0.150000X-0.825000X0*%
%ADD38R,1.600000X1.600000*%
%ADD39O,1.600000X1.600000*%
%ADD40RoundRect,0.250000X-0.475000X0.337500X-0.475000X-0.337500X0.475000X-0.337500X0.475000X0.337500X0*%
%ADD41R,1.300000X1.550000*%
%ADD42RoundRect,0.250000X-0.337500X-0.475000X0.337500X-0.475000X0.337500X0.475000X-0.337500X0.475000X0*%
G04 APERTURE END LIST*
D10*
%TO.C,C2*%
X110643500Y-50800000D03*
X112368500Y-50800000D03*
%TD*%
D11*
%TO.C,R21*%
X186412500Y-58166000D03*
X188237500Y-58166000D03*
%TD*%
D12*
%TO.C,C15*%
X74930000Y-58012500D03*
X74930000Y-56287500D03*
%TD*%
D13*
%TO.C,JP6*%
X167640000Y-34295000D03*
D14*
X167640000Y-31755000D03*
%TD*%
D15*
%TO.C,R24*%
X70762500Y-45085000D03*
X68937500Y-45085000D03*
%TD*%
%TO.C,R15*%
X83820000Y-65405000D03*
X81995000Y-65405000D03*
%TD*%
D16*
%TO.C,D8*%
X111125000Y-74950000D03*
X111125000Y-77450000D03*
%TD*%
D17*
%TO.C,R6*%
X109860000Y-39727500D03*
X109860000Y-41552500D03*
%TD*%
%TO.C,R5*%
X112400000Y-39727500D03*
X112400000Y-41552500D03*
%TD*%
D18*
%TO.C,D1*%
X68825000Y-41275000D03*
X70875000Y-41275000D03*
%TD*%
D19*
%TO.C,C8*%
X164946500Y-39878000D03*
X163221500Y-39878000D03*
%TD*%
D20*
%TO.C,U5*%
X71220000Y-87495000D03*
D21*
X61320000Y-83695000D03*
X61320000Y-75695000D03*
D22*
X61720000Y-72895000D03*
D23*
X71820000Y-82895000D03*
X71820000Y-81795000D03*
X71820000Y-80695000D03*
X71820000Y-79595000D03*
X71820000Y-78495000D03*
X71820000Y-77395000D03*
X71820000Y-76295000D03*
X71820000Y-75195000D03*
X71820000Y-74095000D03*
D24*
X71220000Y-72895000D03*
D22*
X61620000Y-88395000D03*
%TD*%
D18*
%TO.C,D11*%
X73270000Y-41275000D03*
X75320000Y-41275000D03*
%TD*%
D16*
%TO.C,D7*%
X83820000Y-39390000D03*
X83820000Y-41890000D03*
%TD*%
D25*
%TO.C,C10*%
X150495000Y-85497500D03*
X150495000Y-87222500D03*
%TD*%
D13*
%TO.C,JP1*%
X62865000Y-34290000D03*
D14*
X62865000Y-31750000D03*
%TD*%
D25*
%TO.C,C9*%
X105270000Y-61382500D03*
X105270000Y-63107500D03*
%TD*%
D13*
%TO.C,JP10*%
X179065000Y-50546000D03*
D14*
X181605000Y-50546000D03*
%TD*%
D26*
%TO.C,C6*%
X95250000Y-81270000D03*
X95250000Y-86370000D03*
%TD*%
D11*
%TO.C,R22*%
X186362500Y-54356000D03*
X188187500Y-54356000D03*
%TD*%
D13*
%TO.C,JP2*%
X179065000Y-73406000D03*
D14*
X181605000Y-73406000D03*
%TD*%
D18*
%TO.C,D9*%
X64380000Y-41275000D03*
X66430000Y-41275000D03*
%TD*%
D11*
%TO.C,R18*%
X186392500Y-65646000D03*
X188217500Y-65646000D03*
%TD*%
D12*
%TO.C,C12*%
X85585000Y-52312500D03*
X85585000Y-50587500D03*
%TD*%
D27*
%TO.C,BUS1*%
X120396000Y-99060000D03*
D28*
X123190000Y-99060000D03*
X125730000Y-99060000D03*
X128270000Y-99060000D03*
X130810000Y-99060000D03*
X133350000Y-99060000D03*
X135890000Y-99060000D03*
X138430000Y-99060000D03*
X140970000Y-99060000D03*
X143510000Y-99060000D03*
X146050000Y-99060000D03*
X148590000Y-99060000D03*
X151130000Y-99060000D03*
X153670000Y-99060000D03*
X156210000Y-99060000D03*
X158750000Y-99060000D03*
X161290000Y-99060000D03*
X163830000Y-99060000D03*
X166370000Y-99060000D03*
X168910000Y-99060000D03*
X171450000Y-99060000D03*
X173990000Y-99060000D03*
X176530000Y-99060000D03*
X179070000Y-99060000D03*
D29*
X181864000Y-99060000D03*
%TD*%
D15*
%TO.C,R13*%
X83820000Y-73025000D03*
X81995000Y-73025000D03*
%TD*%
D13*
%TO.C,JP9*%
X179065000Y-54356000D03*
D14*
X181605000Y-54356000D03*
%TD*%
D30*
%TO.C,R27*%
X92075000Y-41552500D03*
X92075000Y-39727500D03*
%TD*%
D31*
%TO.C,U1*%
X89510000Y-86120000D03*
X89510000Y-83820000D03*
D32*
X83210000Y-83820000D03*
D31*
X89510000Y-81520000D03*
%TD*%
D33*
%TO.C,Y1*%
X112656000Y-56314000D03*
X112656000Y-53414000D03*
X110356000Y-53414000D03*
X110356000Y-56314000D03*
%TD*%
D13*
%TO.C,J5*%
X104780000Y-34290000D03*
D14*
X104780000Y-31750000D03*
X107320000Y-34290000D03*
X107320000Y-31750000D03*
X109860000Y-34290000D03*
X109860000Y-31750000D03*
X112400000Y-34290000D03*
X112400000Y-31750000D03*
X114940000Y-34290000D03*
X114940000Y-31750000D03*
%TD*%
D15*
%TO.C,R26*%
X66317500Y-45085000D03*
X64492500Y-45085000D03*
%TD*%
%TO.C,R25*%
X75207500Y-45085000D03*
X73382500Y-45085000D03*
%TD*%
D34*
%TO.C,C17*%
X184140000Y-80010000D03*
X189240000Y-80010000D03*
%TD*%
D35*
%TO.C,U7*%
X102220000Y-57975000D03*
X102220000Y-57175000D03*
X102220000Y-56375000D03*
X102220000Y-55575000D03*
X102220000Y-54775000D03*
X102220000Y-53975000D03*
X102220000Y-53175000D03*
X102220000Y-52375000D03*
X102220000Y-51575000D03*
X102220000Y-50775000D03*
X102220000Y-49975000D03*
D36*
X100520000Y-48275000D03*
X99720000Y-48275000D03*
X98920000Y-48275000D03*
X98120000Y-48275000D03*
X97320000Y-48275000D03*
X96520000Y-48275000D03*
X95720000Y-48275000D03*
X94920000Y-48275000D03*
X94120000Y-48275000D03*
X93320000Y-48275000D03*
X92520000Y-48275000D03*
D35*
X90820000Y-49975000D03*
X90820000Y-50775000D03*
X90820000Y-51575000D03*
X90820000Y-52375000D03*
X90820000Y-53175000D03*
X90820000Y-53975000D03*
X90820000Y-54775000D03*
X90820000Y-55575000D03*
X90820000Y-56375000D03*
X90820000Y-57175000D03*
X90820000Y-57975000D03*
D36*
X92520000Y-59675000D03*
X93320000Y-59675000D03*
X94120000Y-59675000D03*
X94920000Y-59675000D03*
X95720000Y-59675000D03*
X96520000Y-59675000D03*
X97320000Y-59675000D03*
X98120000Y-59675000D03*
X98920000Y-59675000D03*
X99720000Y-59675000D03*
X100520000Y-59675000D03*
%TD*%
D15*
%TO.C,R16*%
X83818100Y-70485000D03*
X81993100Y-70485000D03*
%TD*%
D13*
%TO.C,JP7*%
X179065000Y-61976000D03*
D14*
X181605000Y-61976000D03*
%TD*%
D11*
%TO.C,R3*%
X186437500Y-69496000D03*
X188262500Y-69496000D03*
%TD*%
%TO.C,R23*%
X186407500Y-50486000D03*
X188232500Y-50486000D03*
%TD*%
D37*
%TO.C,U2*%
X154940000Y-88770000D03*
X156210000Y-88770000D03*
X157480000Y-88770000D03*
X158750000Y-88770000D03*
X160020000Y-88770000D03*
X161290000Y-88770000D03*
X162560000Y-88770000D03*
X162560000Y-83820000D03*
X161290000Y-83820000D03*
X160020000Y-83820000D03*
X158750000Y-83820000D03*
X157480000Y-83820000D03*
X156210000Y-83820000D03*
X154940000Y-83820000D03*
%TD*%
D20*
%TO.C,U6*%
X71220000Y-65905000D03*
D21*
X61320000Y-62105000D03*
X61320000Y-54105000D03*
D22*
X61720000Y-51305000D03*
D23*
X71820000Y-61305000D03*
X71820000Y-60205000D03*
X71820000Y-59105000D03*
X71820000Y-58005000D03*
X71820000Y-56905000D03*
X71820000Y-55805000D03*
X71820000Y-54705000D03*
X71820000Y-53605000D03*
X71820000Y-52505000D03*
D24*
X71220000Y-51305000D03*
D22*
X61620000Y-66805000D03*
%TD*%
D17*
%TO.C,R4*%
X104780000Y-39727500D03*
X104780000Y-41552500D03*
%TD*%
D38*
%TO.C,U4*%
X139070000Y-88260000D03*
D39*
X139070000Y-85720000D03*
X139070000Y-83180000D03*
X139070000Y-80640000D03*
X139070000Y-78100000D03*
X139070000Y-75560000D03*
X139070000Y-73020000D03*
X139070000Y-70480000D03*
X139070000Y-67940000D03*
X139070000Y-65400000D03*
X139070000Y-62860000D03*
X139070000Y-60320000D03*
X139070000Y-57780000D03*
X139070000Y-55240000D03*
X139070000Y-52700000D03*
X139070000Y-50160000D03*
X139070000Y-47620000D03*
X139070000Y-45080000D03*
X139070000Y-42540000D03*
X139070000Y-40000000D03*
X123830000Y-40000000D03*
X123830000Y-42540000D03*
X123830000Y-45080000D03*
X123830000Y-47620000D03*
X123830000Y-50160000D03*
X123830000Y-52700000D03*
X123830000Y-55240000D03*
X123830000Y-57780000D03*
X123830000Y-60320000D03*
X123830000Y-62860000D03*
X123830000Y-65400000D03*
X123830000Y-67940000D03*
X123830000Y-70480000D03*
X123830000Y-73020000D03*
X123830000Y-75560000D03*
X123830000Y-78100000D03*
X123830000Y-80640000D03*
X123830000Y-83180000D03*
X123830000Y-85720000D03*
X123830000Y-88260000D03*
%TD*%
D40*
%TO.C,C5*%
X75565000Y-81385500D03*
X75565000Y-83460500D03*
%TD*%
D16*
%TO.C,D2*%
X106680000Y-74950000D03*
X106680000Y-77450000D03*
%TD*%
D37*
%TO.C,U3*%
X171450000Y-88835000D03*
X172720000Y-88835000D03*
X173990000Y-88835000D03*
X175260000Y-88835000D03*
X176530000Y-88835000D03*
X177800000Y-88835000D03*
X179070000Y-88835000D03*
X179070000Y-83885000D03*
X177800000Y-83885000D03*
X176530000Y-83885000D03*
X175260000Y-83885000D03*
X173990000Y-83885000D03*
X172720000Y-83885000D03*
X171450000Y-83885000D03*
%TD*%
D11*
%TO.C,R2*%
X186447500Y-73346000D03*
X188272500Y-73346000D03*
%TD*%
D13*
%TO.C,JP5*%
X81915000Y-34295000D03*
D14*
X81915000Y-31755000D03*
%TD*%
D11*
%TO.C,R7*%
X186427500Y-61816000D03*
X188252500Y-61816000D03*
%TD*%
D13*
%TO.C,JP3*%
X179065000Y-69596000D03*
D14*
X181605000Y-69596000D03*
%TD*%
D30*
%TO.C,R20*%
X80010000Y-41552500D03*
X80010000Y-39727500D03*
%TD*%
D25*
%TO.C,C4*%
X107320000Y-39777500D03*
X107320000Y-41502500D03*
%TD*%
D10*
%TO.C,C3*%
X110643500Y-58928000D03*
X112368500Y-58928000D03*
%TD*%
D15*
%TO.C,R19*%
X61872500Y-45085000D03*
X60047500Y-45085000D03*
%TD*%
D41*
%TO.C,SW1*%
X106716000Y-87541000D03*
X106716000Y-79591000D03*
X111216000Y-87541000D03*
X111216000Y-79591000D03*
%TD*%
D15*
%TO.C,R9*%
X87630000Y-65405000D03*
X85805000Y-65405000D03*
%TD*%
D17*
%TO.C,R1*%
X168910000Y-45442500D03*
X168910000Y-47267500D03*
%TD*%
D38*
%TO.C,U9*%
X149855000Y-45070000D03*
D39*
X149855000Y-47610000D03*
X149855000Y-50150000D03*
X149855000Y-52690000D03*
X149855000Y-55230000D03*
X149855000Y-57770000D03*
X149855000Y-60310000D03*
X149855000Y-62850000D03*
X149855000Y-65390000D03*
X149855000Y-67930000D03*
X149855000Y-70470000D03*
X149855000Y-73010000D03*
X149855000Y-75550000D03*
X149855000Y-78090000D03*
X165095000Y-78090000D03*
X165095000Y-75550000D03*
X165095000Y-73010000D03*
X165095000Y-70470000D03*
X165095000Y-67930000D03*
X165095000Y-65390000D03*
X165095000Y-62850000D03*
X165095000Y-60310000D03*
X165095000Y-57770000D03*
X165095000Y-55230000D03*
X165095000Y-52690000D03*
X165095000Y-50150000D03*
X165095000Y-47610000D03*
X165095000Y-45070000D03*
%TD*%
D15*
%TO.C,R10*%
X87630000Y-73025000D03*
X85805000Y-73025000D03*
%TD*%
D18*
%TO.C,D10*%
X59935000Y-41275000D03*
X61985000Y-41275000D03*
%TD*%
D15*
%TO.C,R14*%
X83820000Y-67945000D03*
X81995000Y-67945000D03*
%TD*%
%TO.C,R17*%
X87630000Y-70485000D03*
X85805000Y-70485000D03*
%TD*%
D13*
%TO.C,JP8*%
X179065000Y-58166000D03*
D14*
X181605000Y-58166000D03*
%TD*%
D13*
%TO.C,JP4*%
X179065000Y-65786000D03*
D14*
X181605000Y-65786000D03*
%TD*%
D13*
%TO.C,J4*%
X121920000Y-31750000D03*
D14*
X124460000Y-31750000D03*
X127000000Y-31750000D03*
X129540000Y-31750000D03*
X132080000Y-31750000D03*
X134620000Y-31750000D03*
X137160000Y-31750000D03*
X139700000Y-31750000D03*
X142240000Y-31750000D03*
X144780000Y-31750000D03*
X147320000Y-31750000D03*
X149860000Y-31750000D03*
X152400000Y-31750000D03*
X154940000Y-31750000D03*
X157480000Y-31750000D03*
X160020000Y-31750000D03*
%TD*%
D13*
%TO.C,J1*%
X67960000Y-34290000D03*
D14*
X67960000Y-31750000D03*
X70500000Y-34290000D03*
X70500000Y-31750000D03*
X73040000Y-34290000D03*
X73040000Y-31750000D03*
%TD*%
D25*
%TO.C,C11*%
X168402000Y-85497500D03*
X168402000Y-87222500D03*
%TD*%
D13*
%TO.C,J6*%
X87000000Y-34290000D03*
D14*
X87000000Y-31750000D03*
X89540000Y-34290000D03*
X89540000Y-31750000D03*
X92080000Y-34290000D03*
X92080000Y-31750000D03*
X94620000Y-34290000D03*
X94620000Y-31750000D03*
X97160000Y-34290000D03*
X97160000Y-31750000D03*
%TD*%
D12*
%TO.C,C7*%
X119380000Y-51255000D03*
X119380000Y-49530000D03*
%TD*%
D10*
%TO.C,C13*%
X95517500Y-64785000D03*
X97242500Y-64785000D03*
%TD*%
D30*
%TO.C,R28*%
X89535000Y-41552500D03*
X89535000Y-39727500D03*
%TD*%
D42*
%TO.C,C14*%
X186414500Y-85598000D03*
X188489500Y-85598000D03*
%TD*%
D15*
%TO.C,R8*%
X87630000Y-67945000D03*
X85805000Y-67945000D03*
%TD*%
D25*
%TO.C,C1*%
X85598000Y-55322300D03*
X85598000Y-57047300D03*
%TD*%
D12*
%TO.C,C16*%
X75565000Y-79195000D03*
X75565000Y-77470000D03*
%TD*%
M02*
